G04 #@! TF.FileFunction,Soldermask,Top*
%FSLAX46Y46*%
G04 Gerber Fmt 4.6, Leading zero omitted, Abs format (unit mm)*
G04 Created by KiCad (PCBNEW 4.0.6-e0-6349~52~ubuntu16.10.1) date Sat Jun 17 22:57:17 2017*
%MOMM*%
%LPD*%
G01*
G04 APERTURE LIST*
%ADD10C,0.100000*%
%ADD11C,0.010000*%
%ADD12C,1.187400*%
%ADD13C,1.390600*%
%ADD14C,1.924000*%
%ADD15C,4.400000*%
%ADD16R,1.000000X0.900000*%
%ADD17R,1.400000X2.000000*%
%ADD18R,1.300000X2.350000*%
%ADD19R,1.100000X1.700000*%
%ADD20R,1.303020X0.901700*%
%ADD21R,1.600000X1.100000*%
%ADD22R,0.700000X0.700000*%
%ADD23R,1.598880X1.598880*%
%ADD24R,0.800000X1.000000*%
%ADD25C,1.300000*%
%ADD26C,1.400000*%
%ADD27R,0.900000X1.000000*%
%ADD28R,1.700000X1.100000*%
%ADD29C,2.100000*%
%ADD30O,2.100000X2.100000*%
%ADD31R,2.200000X1.800000*%
G04 APERTURE END LIST*
D10*
D11*
G36*
X136250938Y-106089309D02*
X136391776Y-106137355D01*
X136399988Y-106141247D01*
X136519240Y-106217087D01*
X136611249Y-106316838D01*
X136676733Y-106441286D01*
X136678472Y-106445881D01*
X136706313Y-106564324D01*
X136710500Y-106700376D01*
X136691557Y-106844589D01*
X136650008Y-106987515D01*
X136648187Y-106992285D01*
X136595786Y-107128357D01*
X136586625Y-110421285D01*
X136585509Y-110833046D01*
X136584514Y-111210106D01*
X136583587Y-111554049D01*
X136582673Y-111866459D01*
X136581718Y-112148921D01*
X136580669Y-112403017D01*
X136579472Y-112630333D01*
X136578072Y-112832452D01*
X136576416Y-113010959D01*
X136574449Y-113167437D01*
X136572117Y-113303471D01*
X136569367Y-113420646D01*
X136566145Y-113520544D01*
X136562396Y-113604750D01*
X136558066Y-113674849D01*
X136553102Y-113732423D01*
X136547450Y-113779059D01*
X136541054Y-113816339D01*
X136533863Y-113845847D01*
X136525820Y-113869168D01*
X136516874Y-113887886D01*
X136506968Y-113903586D01*
X136496050Y-113917850D01*
X136484066Y-113932263D01*
X136470960Y-113948410D01*
X136466168Y-113954672D01*
X136447668Y-113975022D01*
X136404829Y-114019513D01*
X136339065Y-114086726D01*
X136251792Y-114175241D01*
X136144425Y-114283639D01*
X136018381Y-114410501D01*
X135875074Y-114554407D01*
X135715920Y-114713938D01*
X135542334Y-114887675D01*
X135355731Y-115074199D01*
X135157528Y-115272090D01*
X134949140Y-115479929D01*
X134731982Y-115696296D01*
X134507469Y-115919773D01*
X134371328Y-116055182D01*
X134142787Y-116282521D01*
X133920549Y-116503771D01*
X133706045Y-116717499D01*
X133500707Y-116922271D01*
X133305969Y-117116651D01*
X133123261Y-117299206D01*
X132954017Y-117468502D01*
X132799669Y-117623105D01*
X132661648Y-117761579D01*
X132541388Y-117882492D01*
X132440321Y-117984409D01*
X132359878Y-118065896D01*
X132301491Y-118125518D01*
X132266595Y-118161842D01*
X132257685Y-118171664D01*
X132216115Y-118219133D01*
X132183505Y-118244717D01*
X132146731Y-118255323D01*
X132093937Y-118257843D01*
X132037850Y-118256556D01*
X132007719Y-118248306D01*
X131993346Y-118229204D01*
X131989864Y-118218178D01*
X131979553Y-118144286D01*
X131983106Y-118066838D01*
X131994404Y-118019788D01*
X132008835Y-118002477D01*
X132047328Y-117961320D01*
X132108178Y-117898018D01*
X132189681Y-117814275D01*
X132290134Y-117711795D01*
X132407833Y-117592279D01*
X132541073Y-117457432D01*
X132688152Y-117308957D01*
X132847364Y-117148555D01*
X133017008Y-116977932D01*
X133195377Y-116798789D01*
X133380769Y-116612830D01*
X133571481Y-116421758D01*
X133765807Y-116227277D01*
X133962044Y-116031088D01*
X134158489Y-115834895D01*
X134353436Y-115640402D01*
X134545184Y-115449312D01*
X134732027Y-115263327D01*
X134912263Y-115084151D01*
X135084186Y-114913486D01*
X135246093Y-114753037D01*
X135396281Y-114604506D01*
X135533046Y-114469595D01*
X135654683Y-114350009D01*
X135759489Y-114247451D01*
X135845760Y-114163623D01*
X135911792Y-114100228D01*
X135955881Y-114058970D01*
X135966002Y-114049910D01*
X136073249Y-113950091D01*
X136153530Y-113858613D01*
X136211438Y-113766504D01*
X136251569Y-113664793D01*
X136278515Y-113544509D01*
X136296032Y-113405423D01*
X136298275Y-113363907D01*
X136300405Y-113287575D01*
X136302415Y-113177895D01*
X136304295Y-113036338D01*
X136306037Y-112864371D01*
X136307633Y-112663464D01*
X136309074Y-112435086D01*
X136310352Y-112180707D01*
X136311457Y-111901795D01*
X136312383Y-111599819D01*
X136313120Y-111276249D01*
X136313659Y-110932554D01*
X136313992Y-110570202D01*
X136314103Y-110281024D01*
X136314571Y-107337691D01*
X136273750Y-107329846D01*
X136237991Y-107324255D01*
X136176856Y-107315934D01*
X136101014Y-107306308D01*
X136064794Y-107301914D01*
X135904686Y-107274473D01*
X135775452Y-107232607D01*
X135673648Y-107173679D01*
X135595827Y-107095048D01*
X135538546Y-106994076D01*
X135498360Y-106868124D01*
X135498313Y-106867926D01*
X135481913Y-106743691D01*
X135486356Y-106612268D01*
X135510331Y-106487790D01*
X135541225Y-106405667D01*
X135617417Y-106288961D01*
X135717376Y-106195713D01*
X135835904Y-106127524D01*
X135967805Y-106085993D01*
X136107882Y-106072722D01*
X136250938Y-106089309D01*
X136250938Y-106089309D01*
G37*
X136250938Y-106089309D02*
X136391776Y-106137355D01*
X136399988Y-106141247D01*
X136519240Y-106217087D01*
X136611249Y-106316838D01*
X136676733Y-106441286D01*
X136678472Y-106445881D01*
X136706313Y-106564324D01*
X136710500Y-106700376D01*
X136691557Y-106844589D01*
X136650008Y-106987515D01*
X136648187Y-106992285D01*
X136595786Y-107128357D01*
X136586625Y-110421285D01*
X136585509Y-110833046D01*
X136584514Y-111210106D01*
X136583587Y-111554049D01*
X136582673Y-111866459D01*
X136581718Y-112148921D01*
X136580669Y-112403017D01*
X136579472Y-112630333D01*
X136578072Y-112832452D01*
X136576416Y-113010959D01*
X136574449Y-113167437D01*
X136572117Y-113303471D01*
X136569367Y-113420646D01*
X136566145Y-113520544D01*
X136562396Y-113604750D01*
X136558066Y-113674849D01*
X136553102Y-113732423D01*
X136547450Y-113779059D01*
X136541054Y-113816339D01*
X136533863Y-113845847D01*
X136525820Y-113869168D01*
X136516874Y-113887886D01*
X136506968Y-113903586D01*
X136496050Y-113917850D01*
X136484066Y-113932263D01*
X136470960Y-113948410D01*
X136466168Y-113954672D01*
X136447668Y-113975022D01*
X136404829Y-114019513D01*
X136339065Y-114086726D01*
X136251792Y-114175241D01*
X136144425Y-114283639D01*
X136018381Y-114410501D01*
X135875074Y-114554407D01*
X135715920Y-114713938D01*
X135542334Y-114887675D01*
X135355731Y-115074199D01*
X135157528Y-115272090D01*
X134949140Y-115479929D01*
X134731982Y-115696296D01*
X134507469Y-115919773D01*
X134371328Y-116055182D01*
X134142787Y-116282521D01*
X133920549Y-116503771D01*
X133706045Y-116717499D01*
X133500707Y-116922271D01*
X133305969Y-117116651D01*
X133123261Y-117299206D01*
X132954017Y-117468502D01*
X132799669Y-117623105D01*
X132661648Y-117761579D01*
X132541388Y-117882492D01*
X132440321Y-117984409D01*
X132359878Y-118065896D01*
X132301491Y-118125518D01*
X132266595Y-118161842D01*
X132257685Y-118171664D01*
X132216115Y-118219133D01*
X132183505Y-118244717D01*
X132146731Y-118255323D01*
X132093937Y-118257843D01*
X132037850Y-118256556D01*
X132007719Y-118248306D01*
X131993346Y-118229204D01*
X131989864Y-118218178D01*
X131979553Y-118144286D01*
X131983106Y-118066838D01*
X131994404Y-118019788D01*
X132008835Y-118002477D01*
X132047328Y-117961320D01*
X132108178Y-117898018D01*
X132189681Y-117814275D01*
X132290134Y-117711795D01*
X132407833Y-117592279D01*
X132541073Y-117457432D01*
X132688152Y-117308957D01*
X132847364Y-117148555D01*
X133017008Y-116977932D01*
X133195377Y-116798789D01*
X133380769Y-116612830D01*
X133571481Y-116421758D01*
X133765807Y-116227277D01*
X133962044Y-116031088D01*
X134158489Y-115834895D01*
X134353436Y-115640402D01*
X134545184Y-115449312D01*
X134732027Y-115263327D01*
X134912263Y-115084151D01*
X135084186Y-114913486D01*
X135246093Y-114753037D01*
X135396281Y-114604506D01*
X135533046Y-114469595D01*
X135654683Y-114350009D01*
X135759489Y-114247451D01*
X135845760Y-114163623D01*
X135911792Y-114100228D01*
X135955881Y-114058970D01*
X135966002Y-114049910D01*
X136073249Y-113950091D01*
X136153530Y-113858613D01*
X136211438Y-113766504D01*
X136251569Y-113664793D01*
X136278515Y-113544509D01*
X136296032Y-113405423D01*
X136298275Y-113363907D01*
X136300405Y-113287575D01*
X136302415Y-113177895D01*
X136304295Y-113036338D01*
X136306037Y-112864371D01*
X136307633Y-112663464D01*
X136309074Y-112435086D01*
X136310352Y-112180707D01*
X136311457Y-111901795D01*
X136312383Y-111599819D01*
X136313120Y-111276249D01*
X136313659Y-110932554D01*
X136313992Y-110570202D01*
X136314103Y-110281024D01*
X136314571Y-107337691D01*
X136273750Y-107329846D01*
X136237991Y-107324255D01*
X136176856Y-107315934D01*
X136101014Y-107306308D01*
X136064794Y-107301914D01*
X135904686Y-107274473D01*
X135775452Y-107232607D01*
X135673648Y-107173679D01*
X135595827Y-107095048D01*
X135538546Y-106994076D01*
X135498360Y-106868124D01*
X135498313Y-106867926D01*
X135481913Y-106743691D01*
X135486356Y-106612268D01*
X135510331Y-106487790D01*
X135541225Y-106405667D01*
X135617417Y-106288961D01*
X135717376Y-106195713D01*
X135835904Y-106127524D01*
X135967805Y-106085993D01*
X136107882Y-106072722D01*
X136250938Y-106089309D01*
G36*
X137263946Y-106162507D02*
X137275493Y-106169287D01*
X137316063Y-106201516D01*
X137339894Y-106235769D01*
X137340915Y-106239174D01*
X137341733Y-106260543D01*
X137342485Y-106316536D01*
X137343169Y-106405492D01*
X137343784Y-106525749D01*
X137344329Y-106675646D01*
X137344802Y-106853521D01*
X137345201Y-107057712D01*
X137345524Y-107286559D01*
X137345771Y-107538399D01*
X137345939Y-107811572D01*
X137346027Y-108104415D01*
X137346034Y-108415268D01*
X137345958Y-108742468D01*
X137345796Y-109084355D01*
X137345549Y-109439266D01*
X137345213Y-109805540D01*
X137344789Y-110181516D01*
X137344704Y-110248928D01*
X137344131Y-110696125D01*
X137343585Y-111108476D01*
X137343053Y-111487420D01*
X137342520Y-111834398D01*
X137341971Y-112150847D01*
X137341391Y-112438209D01*
X137340765Y-112697922D01*
X137340080Y-112931425D01*
X137339319Y-113140160D01*
X137338469Y-113325564D01*
X137337514Y-113489078D01*
X137336440Y-113632141D01*
X137335232Y-113756192D01*
X137333875Y-113862672D01*
X137332356Y-113953019D01*
X137330658Y-114028673D01*
X137328767Y-114091074D01*
X137326668Y-114141661D01*
X137324348Y-114181874D01*
X137321790Y-114213152D01*
X137318980Y-114236935D01*
X137315905Y-114254661D01*
X137312547Y-114267772D01*
X137308894Y-114277706D01*
X137304930Y-114285903D01*
X137303357Y-114288830D01*
X137285779Y-114310591D01*
X137244263Y-114356218D01*
X137180540Y-114423935D01*
X137096344Y-114511964D01*
X136993408Y-114618528D01*
X136873465Y-114741850D01*
X136738246Y-114880152D01*
X136589487Y-115031658D01*
X136428918Y-115194589D01*
X136258274Y-115367169D01*
X136079287Y-115547621D01*
X135912164Y-115715623D01*
X135690686Y-115937924D01*
X135493219Y-116135948D01*
X135318181Y-116311138D01*
X135163987Y-116464939D01*
X135029056Y-116598795D01*
X134911805Y-116714151D01*
X134810650Y-116812449D01*
X134724009Y-116895135D01*
X134650298Y-116963652D01*
X134587935Y-117019445D01*
X134535338Y-117063958D01*
X134490922Y-117098635D01*
X134453105Y-117124920D01*
X134420305Y-117144258D01*
X134390938Y-117158092D01*
X134363421Y-117167866D01*
X134336172Y-117175025D01*
X134307608Y-117181013D01*
X134305529Y-117181424D01*
X134261249Y-117185080D01*
X134239136Y-117170841D01*
X134235166Y-117162561D01*
X134229288Y-117115307D01*
X134235347Y-117049973D01*
X134250699Y-116981707D01*
X134272700Y-116925658D01*
X134278085Y-116916602D01*
X134297168Y-116894514D01*
X134339663Y-116849871D01*
X134402897Y-116785344D01*
X134484200Y-116703603D01*
X134580900Y-116607320D01*
X134690325Y-116499165D01*
X134809804Y-116381809D01*
X134936667Y-116257924D01*
X134944785Y-116250019D01*
X135090427Y-116107769D01*
X135255631Y-115945577D01*
X135434463Y-115769319D01*
X135620989Y-115584871D01*
X135809274Y-115398109D01*
X135993384Y-115214908D01*
X136167385Y-115041145D01*
X136299260Y-114908918D01*
X136460403Y-114746670D01*
X136597458Y-114607913D01*
X136712232Y-114490715D01*
X136806528Y-114393146D01*
X136882152Y-114313275D01*
X136940908Y-114249170D01*
X136984602Y-114198901D01*
X137015038Y-114160537D01*
X137034021Y-114132147D01*
X137042863Y-114113357D01*
X137046027Y-114098170D01*
X137048939Y-114071456D01*
X137051612Y-114031746D01*
X137054059Y-113977570D01*
X137056294Y-113907460D01*
X137058331Y-113819948D01*
X137060182Y-113713566D01*
X137061862Y-113586843D01*
X137063384Y-113438313D01*
X137064762Y-113266505D01*
X137066009Y-113069953D01*
X137067138Y-112847186D01*
X137068163Y-112596737D01*
X137069098Y-112317137D01*
X137069957Y-112006917D01*
X137070752Y-111664609D01*
X137071497Y-111288744D01*
X137072107Y-110938357D01*
X137072578Y-110596790D01*
X137072862Y-110259812D01*
X137072967Y-109929698D01*
X137072897Y-109608727D01*
X137072660Y-109299174D01*
X137072261Y-109003319D01*
X137071706Y-108723437D01*
X137071001Y-108461805D01*
X137070153Y-108220702D01*
X137069167Y-108002404D01*
X137068049Y-107809188D01*
X137066806Y-107643332D01*
X137065444Y-107507113D01*
X137063968Y-107402807D01*
X137062516Y-107336999D01*
X137056873Y-107095617D01*
X137055376Y-106887879D01*
X137058262Y-106711354D01*
X137065772Y-106563611D01*
X137078146Y-106442219D01*
X137095624Y-106344747D01*
X137118444Y-106268765D01*
X137146848Y-106211841D01*
X137177074Y-106175183D01*
X137206643Y-106150205D01*
X137230075Y-106146310D01*
X137263946Y-106162507D01*
X137263946Y-106162507D01*
G37*
X137263946Y-106162507D02*
X137275493Y-106169287D01*
X137316063Y-106201516D01*
X137339894Y-106235769D01*
X137340915Y-106239174D01*
X137341733Y-106260543D01*
X137342485Y-106316536D01*
X137343169Y-106405492D01*
X137343784Y-106525749D01*
X137344329Y-106675646D01*
X137344802Y-106853521D01*
X137345201Y-107057712D01*
X137345524Y-107286559D01*
X137345771Y-107538399D01*
X137345939Y-107811572D01*
X137346027Y-108104415D01*
X137346034Y-108415268D01*
X137345958Y-108742468D01*
X137345796Y-109084355D01*
X137345549Y-109439266D01*
X137345213Y-109805540D01*
X137344789Y-110181516D01*
X137344704Y-110248928D01*
X137344131Y-110696125D01*
X137343585Y-111108476D01*
X137343053Y-111487420D01*
X137342520Y-111834398D01*
X137341971Y-112150847D01*
X137341391Y-112438209D01*
X137340765Y-112697922D01*
X137340080Y-112931425D01*
X137339319Y-113140160D01*
X137338469Y-113325564D01*
X137337514Y-113489078D01*
X137336440Y-113632141D01*
X137335232Y-113756192D01*
X137333875Y-113862672D01*
X137332356Y-113953019D01*
X137330658Y-114028673D01*
X137328767Y-114091074D01*
X137326668Y-114141661D01*
X137324348Y-114181874D01*
X137321790Y-114213152D01*
X137318980Y-114236935D01*
X137315905Y-114254661D01*
X137312547Y-114267772D01*
X137308894Y-114277706D01*
X137304930Y-114285903D01*
X137303357Y-114288830D01*
X137285779Y-114310591D01*
X137244263Y-114356218D01*
X137180540Y-114423935D01*
X137096344Y-114511964D01*
X136993408Y-114618528D01*
X136873465Y-114741850D01*
X136738246Y-114880152D01*
X136589487Y-115031658D01*
X136428918Y-115194589D01*
X136258274Y-115367169D01*
X136079287Y-115547621D01*
X135912164Y-115715623D01*
X135690686Y-115937924D01*
X135493219Y-116135948D01*
X135318181Y-116311138D01*
X135163987Y-116464939D01*
X135029056Y-116598795D01*
X134911805Y-116714151D01*
X134810650Y-116812449D01*
X134724009Y-116895135D01*
X134650298Y-116963652D01*
X134587935Y-117019445D01*
X134535338Y-117063958D01*
X134490922Y-117098635D01*
X134453105Y-117124920D01*
X134420305Y-117144258D01*
X134390938Y-117158092D01*
X134363421Y-117167866D01*
X134336172Y-117175025D01*
X134307608Y-117181013D01*
X134305529Y-117181424D01*
X134261249Y-117185080D01*
X134239136Y-117170841D01*
X134235166Y-117162561D01*
X134229288Y-117115307D01*
X134235347Y-117049973D01*
X134250699Y-116981707D01*
X134272700Y-116925658D01*
X134278085Y-116916602D01*
X134297168Y-116894514D01*
X134339663Y-116849871D01*
X134402897Y-116785344D01*
X134484200Y-116703603D01*
X134580900Y-116607320D01*
X134690325Y-116499165D01*
X134809804Y-116381809D01*
X134936667Y-116257924D01*
X134944785Y-116250019D01*
X135090427Y-116107769D01*
X135255631Y-115945577D01*
X135434463Y-115769319D01*
X135620989Y-115584871D01*
X135809274Y-115398109D01*
X135993384Y-115214908D01*
X136167385Y-115041145D01*
X136299260Y-114908918D01*
X136460403Y-114746670D01*
X136597458Y-114607913D01*
X136712232Y-114490715D01*
X136806528Y-114393146D01*
X136882152Y-114313275D01*
X136940908Y-114249170D01*
X136984602Y-114198901D01*
X137015038Y-114160537D01*
X137034021Y-114132147D01*
X137042863Y-114113357D01*
X137046027Y-114098170D01*
X137048939Y-114071456D01*
X137051612Y-114031746D01*
X137054059Y-113977570D01*
X137056294Y-113907460D01*
X137058331Y-113819948D01*
X137060182Y-113713566D01*
X137061862Y-113586843D01*
X137063384Y-113438313D01*
X137064762Y-113266505D01*
X137066009Y-113069953D01*
X137067138Y-112847186D01*
X137068163Y-112596737D01*
X137069098Y-112317137D01*
X137069957Y-112006917D01*
X137070752Y-111664609D01*
X137071497Y-111288744D01*
X137072107Y-110938357D01*
X137072578Y-110596790D01*
X137072862Y-110259812D01*
X137072967Y-109929698D01*
X137072897Y-109608727D01*
X137072660Y-109299174D01*
X137072261Y-109003319D01*
X137071706Y-108723437D01*
X137071001Y-108461805D01*
X137070153Y-108220702D01*
X137069167Y-108002404D01*
X137068049Y-107809188D01*
X137066806Y-107643332D01*
X137065444Y-107507113D01*
X137063968Y-107402807D01*
X137062516Y-107336999D01*
X137056873Y-107095617D01*
X137055376Y-106887879D01*
X137058262Y-106711354D01*
X137065772Y-106563611D01*
X137078146Y-106442219D01*
X137095624Y-106344747D01*
X137118444Y-106268765D01*
X137146848Y-106211841D01*
X137177074Y-106175183D01*
X137206643Y-106150205D01*
X137230075Y-106146310D01*
X137263946Y-106162507D01*
G36*
X135382765Y-108193622D02*
X135504926Y-108234892D01*
X135605412Y-108299944D01*
X135680680Y-108387449D01*
X135696954Y-108416187D01*
X135716800Y-108458149D01*
X135729904Y-108497303D01*
X135737565Y-108542634D01*
X135741083Y-108603130D01*
X135741756Y-108687775D01*
X135741562Y-108724615D01*
X135739764Y-108825763D01*
X135734640Y-108904019D01*
X135724166Y-108972752D01*
X135706317Y-109045332D01*
X135679699Y-109133142D01*
X135619344Y-109323642D01*
X135611644Y-110294125D01*
X135610474Y-110502816D01*
X135610140Y-110720308D01*
X135610594Y-110940088D01*
X135611790Y-111155644D01*
X135613681Y-111360464D01*
X135616220Y-111548036D01*
X135619361Y-111711845D01*
X135622750Y-111836268D01*
X135630223Y-112127924D01*
X135632182Y-112386234D01*
X135628452Y-112613744D01*
X135618858Y-112813000D01*
X135603224Y-112986548D01*
X135581375Y-113136933D01*
X135553136Y-113266701D01*
X135518331Y-113378397D01*
X135516086Y-113384431D01*
X135499678Y-113422434D01*
X135477236Y-113463094D01*
X135446826Y-113508497D01*
X135406511Y-113560727D01*
X135354355Y-113621868D01*
X135288422Y-113694006D01*
X135206777Y-113779225D01*
X135107482Y-113879610D01*
X134988603Y-113997245D01*
X134848204Y-114134215D01*
X134684347Y-114292605D01*
X134575169Y-114397634D01*
X134317482Y-114645560D01*
X134085098Y-114869954D01*
X133876811Y-115072059D01*
X133691412Y-115253119D01*
X133527693Y-115414374D01*
X133384445Y-115557069D01*
X133260460Y-115682445D01*
X133154530Y-115791745D01*
X133065446Y-115886211D01*
X132992002Y-115967086D01*
X132932987Y-116035612D01*
X132887194Y-116093032D01*
X132853415Y-116140588D01*
X132830441Y-116179524D01*
X132820092Y-116202443D01*
X132803947Y-116249959D01*
X132799126Y-116288466D01*
X132805593Y-116333305D01*
X132819649Y-116386828D01*
X132846496Y-116523657D01*
X132844412Y-116646382D01*
X132812926Y-116763407D01*
X132796511Y-116801136D01*
X132717027Y-116934838D01*
X132619107Y-117040924D01*
X132514794Y-117111552D01*
X132428680Y-117142445D01*
X132321893Y-117161433D01*
X132208360Y-117167534D01*
X132102010Y-117159767D01*
X132038046Y-117145148D01*
X131893420Y-117080272D01*
X131772312Y-116987899D01*
X131675457Y-116868637D01*
X131647433Y-116820674D01*
X131628273Y-116779653D01*
X131616105Y-116736768D01*
X131609440Y-116682299D01*
X131606788Y-116606529D01*
X131606500Y-116553571D01*
X131607483Y-116463468D01*
X131611733Y-116398318D01*
X131621201Y-116346811D01*
X131637839Y-116297638D01*
X131658966Y-116249464D01*
X131719803Y-116145513D01*
X131794063Y-116063484D01*
X131875933Y-116009102D01*
X131918436Y-115993934D01*
X131962766Y-115986545D01*
X132033924Y-115978866D01*
X132122472Y-115971760D01*
X132218970Y-115966085D01*
X132229044Y-115965614D01*
X132338041Y-115959859D01*
X132420425Y-115951699D01*
X132485851Y-115937615D01*
X132543975Y-115914088D01*
X132604453Y-115877600D01*
X132676939Y-115824632D01*
X132731410Y-115782545D01*
X132826281Y-115705732D01*
X132934165Y-115612582D01*
X133056584Y-115501635D01*
X133195059Y-115371431D01*
X133351114Y-115220512D01*
X133526269Y-115047416D01*
X133722047Y-114850686D01*
X133939971Y-114628860D01*
X134019390Y-114547454D01*
X134155935Y-114407506D01*
X134294796Y-114265618D01*
X134431928Y-114125897D01*
X134563283Y-113992449D01*
X134684814Y-113869381D01*
X134792475Y-113760797D01*
X134882219Y-113670804D01*
X134939329Y-113614031D01*
X135044304Y-113509200D01*
X135126021Y-113423957D01*
X135187862Y-113353251D01*
X135233206Y-113292031D01*
X135265434Y-113235245D01*
X135287924Y-113177841D01*
X135304059Y-113114769D01*
X135315468Y-113051890D01*
X135319107Y-113010301D01*
X135322381Y-112933000D01*
X135325283Y-112820560D01*
X135327809Y-112673554D01*
X135329951Y-112492554D01*
X135331705Y-112278132D01*
X135333064Y-112030862D01*
X135334023Y-111751314D01*
X135334575Y-111440063D01*
X135334720Y-111178750D01*
X135334857Y-109423428D01*
X135266821Y-109423113D01*
X135123626Y-109408620D01*
X134977938Y-109369235D01*
X134840731Y-109309177D01*
X134722980Y-109232666D01*
X134684753Y-109199327D01*
X134613412Y-109123503D01*
X134566710Y-109051682D01*
X134540057Y-108972657D01*
X134528864Y-108875221D01*
X134527630Y-108815642D01*
X134529085Y-108730554D01*
X134535245Y-108668720D01*
X134548562Y-108617178D01*
X134571486Y-108562968D01*
X134577925Y-108549674D01*
X134660388Y-108418698D01*
X134765313Y-108316124D01*
X134892981Y-108241751D01*
X135043673Y-108195379D01*
X135087599Y-108187745D01*
X135242475Y-108177463D01*
X135382765Y-108193622D01*
X135382765Y-108193622D01*
G37*
X135382765Y-108193622D02*
X135504926Y-108234892D01*
X135605412Y-108299944D01*
X135680680Y-108387449D01*
X135696954Y-108416187D01*
X135716800Y-108458149D01*
X135729904Y-108497303D01*
X135737565Y-108542634D01*
X135741083Y-108603130D01*
X135741756Y-108687775D01*
X135741562Y-108724615D01*
X135739764Y-108825763D01*
X135734640Y-108904019D01*
X135724166Y-108972752D01*
X135706317Y-109045332D01*
X135679699Y-109133142D01*
X135619344Y-109323642D01*
X135611644Y-110294125D01*
X135610474Y-110502816D01*
X135610140Y-110720308D01*
X135610594Y-110940088D01*
X135611790Y-111155644D01*
X135613681Y-111360464D01*
X135616220Y-111548036D01*
X135619361Y-111711845D01*
X135622750Y-111836268D01*
X135630223Y-112127924D01*
X135632182Y-112386234D01*
X135628452Y-112613744D01*
X135618858Y-112813000D01*
X135603224Y-112986548D01*
X135581375Y-113136933D01*
X135553136Y-113266701D01*
X135518331Y-113378397D01*
X135516086Y-113384431D01*
X135499678Y-113422434D01*
X135477236Y-113463094D01*
X135446826Y-113508497D01*
X135406511Y-113560727D01*
X135354355Y-113621868D01*
X135288422Y-113694006D01*
X135206777Y-113779225D01*
X135107482Y-113879610D01*
X134988603Y-113997245D01*
X134848204Y-114134215D01*
X134684347Y-114292605D01*
X134575169Y-114397634D01*
X134317482Y-114645560D01*
X134085098Y-114869954D01*
X133876811Y-115072059D01*
X133691412Y-115253119D01*
X133527693Y-115414374D01*
X133384445Y-115557069D01*
X133260460Y-115682445D01*
X133154530Y-115791745D01*
X133065446Y-115886211D01*
X132992002Y-115967086D01*
X132932987Y-116035612D01*
X132887194Y-116093032D01*
X132853415Y-116140588D01*
X132830441Y-116179524D01*
X132820092Y-116202443D01*
X132803947Y-116249959D01*
X132799126Y-116288466D01*
X132805593Y-116333305D01*
X132819649Y-116386828D01*
X132846496Y-116523657D01*
X132844412Y-116646382D01*
X132812926Y-116763407D01*
X132796511Y-116801136D01*
X132717027Y-116934838D01*
X132619107Y-117040924D01*
X132514794Y-117111552D01*
X132428680Y-117142445D01*
X132321893Y-117161433D01*
X132208360Y-117167534D01*
X132102010Y-117159767D01*
X132038046Y-117145148D01*
X131893420Y-117080272D01*
X131772312Y-116987899D01*
X131675457Y-116868637D01*
X131647433Y-116820674D01*
X131628273Y-116779653D01*
X131616105Y-116736768D01*
X131609440Y-116682299D01*
X131606788Y-116606529D01*
X131606500Y-116553571D01*
X131607483Y-116463468D01*
X131611733Y-116398318D01*
X131621201Y-116346811D01*
X131637839Y-116297638D01*
X131658966Y-116249464D01*
X131719803Y-116145513D01*
X131794063Y-116063484D01*
X131875933Y-116009102D01*
X131918436Y-115993934D01*
X131962766Y-115986545D01*
X132033924Y-115978866D01*
X132122472Y-115971760D01*
X132218970Y-115966085D01*
X132229044Y-115965614D01*
X132338041Y-115959859D01*
X132420425Y-115951699D01*
X132485851Y-115937615D01*
X132543975Y-115914088D01*
X132604453Y-115877600D01*
X132676939Y-115824632D01*
X132731410Y-115782545D01*
X132826281Y-115705732D01*
X132934165Y-115612582D01*
X133056584Y-115501635D01*
X133195059Y-115371431D01*
X133351114Y-115220512D01*
X133526269Y-115047416D01*
X133722047Y-114850686D01*
X133939971Y-114628860D01*
X134019390Y-114547454D01*
X134155935Y-114407506D01*
X134294796Y-114265618D01*
X134431928Y-114125897D01*
X134563283Y-113992449D01*
X134684814Y-113869381D01*
X134792475Y-113760797D01*
X134882219Y-113670804D01*
X134939329Y-113614031D01*
X135044304Y-113509200D01*
X135126021Y-113423957D01*
X135187862Y-113353251D01*
X135233206Y-113292031D01*
X135265434Y-113235245D01*
X135287924Y-113177841D01*
X135304059Y-113114769D01*
X135315468Y-113051890D01*
X135319107Y-113010301D01*
X135322381Y-112933000D01*
X135325283Y-112820560D01*
X135327809Y-112673554D01*
X135329951Y-112492554D01*
X135331705Y-112278132D01*
X135333064Y-112030862D01*
X135334023Y-111751314D01*
X135334575Y-111440063D01*
X135334720Y-111178750D01*
X135334857Y-109423428D01*
X135266821Y-109423113D01*
X135123626Y-109408620D01*
X134977938Y-109369235D01*
X134840731Y-109309177D01*
X134722980Y-109232666D01*
X134684753Y-109199327D01*
X134613412Y-109123503D01*
X134566710Y-109051682D01*
X134540057Y-108972657D01*
X134528864Y-108875221D01*
X134527630Y-108815642D01*
X134529085Y-108730554D01*
X134535245Y-108668720D01*
X134548562Y-108617178D01*
X134571486Y-108562968D01*
X134577925Y-108549674D01*
X134660388Y-108418698D01*
X134765313Y-108316124D01*
X134892981Y-108241751D01*
X135043673Y-108195379D01*
X135087599Y-108187745D01*
X135242475Y-108177463D01*
X135382765Y-108193622D01*
G36*
X133704905Y-101261181D02*
X133736271Y-101269180D01*
X133765801Y-101289126D01*
X133801905Y-101326569D01*
X133848822Y-101382042D01*
X133903697Y-101445084D01*
X133983369Y-101532198D01*
X134086625Y-101642156D01*
X134212248Y-101773732D01*
X134359024Y-101925700D01*
X134525738Y-102096832D01*
X134711174Y-102285903D01*
X134914119Y-102491685D01*
X135133355Y-102712951D01*
X135367670Y-102948476D01*
X135615847Y-103197033D01*
X135876671Y-103457394D01*
X136148928Y-103728334D01*
X136431403Y-104008625D01*
X136722880Y-104297041D01*
X137022144Y-104592356D01*
X137286253Y-104852323D01*
X137459458Y-105023426D01*
X137608276Y-105172161D01*
X137732333Y-105298141D01*
X137831257Y-105400978D01*
X137904676Y-105480286D01*
X137952216Y-105535678D01*
X137973111Y-105565883D01*
X137976870Y-105575173D01*
X137980331Y-105587173D01*
X137983510Y-105603351D01*
X137986418Y-105625175D01*
X137989070Y-105654114D01*
X137991478Y-105691635D01*
X137993656Y-105739207D01*
X137995617Y-105798297D01*
X137997375Y-105870374D01*
X137998943Y-105956907D01*
X138000334Y-106059362D01*
X138001562Y-106179209D01*
X138002639Y-106317916D01*
X138003580Y-106476950D01*
X138004397Y-106657780D01*
X138005105Y-106861874D01*
X138005715Y-107090700D01*
X138006242Y-107345726D01*
X138006699Y-107628421D01*
X138007099Y-107940252D01*
X138007456Y-108282688D01*
X138007782Y-108657197D01*
X138008092Y-109065247D01*
X138008358Y-109448454D01*
X138008656Y-109886082D01*
X138008945Y-110288911D01*
X138009240Y-110658428D01*
X138009558Y-110996119D01*
X138009912Y-111303470D01*
X138010319Y-111581969D01*
X138010793Y-111833102D01*
X138011349Y-112058355D01*
X138012004Y-112259215D01*
X138012772Y-112437169D01*
X138013668Y-112593704D01*
X138014708Y-112730305D01*
X138015907Y-112848460D01*
X138017280Y-112949655D01*
X138018842Y-113035376D01*
X138020609Y-113107111D01*
X138022596Y-113166346D01*
X138024817Y-113214568D01*
X138027289Y-113253263D01*
X138030027Y-113283917D01*
X138033045Y-113308018D01*
X138036359Y-113327052D01*
X138039984Y-113342505D01*
X138043936Y-113355865D01*
X138048229Y-113368617D01*
X138048534Y-113369499D01*
X138064402Y-113414465D01*
X138080339Y-113455274D01*
X138098377Y-113494169D01*
X138120544Y-113533391D01*
X138148872Y-113575185D01*
X138185390Y-113621791D01*
X138232129Y-113675454D01*
X138291119Y-113738415D01*
X138364390Y-113812917D01*
X138453972Y-113901203D01*
X138561897Y-114005516D01*
X138690193Y-114128097D01*
X138840892Y-114271190D01*
X139008785Y-114430187D01*
X139208480Y-114619711D01*
X139383172Y-114786650D01*
X139534694Y-114932844D01*
X139664877Y-115060133D01*
X139775551Y-115170359D01*
X139868549Y-115265360D01*
X139945701Y-115346978D01*
X140008839Y-115417053D01*
X140059794Y-115477426D01*
X140092607Y-115519428D01*
X140159574Y-115615455D01*
X140216044Y-115709505D01*
X140258384Y-115794563D01*
X140282957Y-115863612D01*
X140287680Y-115895892D01*
X140282682Y-115922153D01*
X140263447Y-115933630D01*
X140224053Y-115930733D01*
X140158578Y-115913870D01*
X140134097Y-115906497D01*
X140002954Y-115848236D01*
X139871252Y-115753776D01*
X139739100Y-115623197D01*
X139729388Y-115612194D01*
X139696115Y-115575985D01*
X139639595Y-115516636D01*
X139562268Y-115436633D01*
X139466576Y-115338462D01*
X139354960Y-115224610D01*
X139229861Y-115097564D01*
X139093720Y-114959810D01*
X138948978Y-114813836D01*
X138798077Y-114662126D01*
X138709937Y-114573733D01*
X138531392Y-114394639D01*
X138376923Y-114239203D01*
X138244790Y-114105585D01*
X138133253Y-113991943D01*
X138040572Y-113896439D01*
X137965005Y-113817230D01*
X137904814Y-113752477D01*
X137858258Y-113700339D01*
X137823597Y-113658976D01*
X137799091Y-113626546D01*
X137783000Y-113601211D01*
X137775071Y-113584948D01*
X137770922Y-113574373D01*
X137767100Y-113562718D01*
X137763590Y-113548509D01*
X137760378Y-113530275D01*
X137757447Y-113506543D01*
X137754784Y-113475840D01*
X137752373Y-113436695D01*
X137750200Y-113387635D01*
X137748249Y-113327188D01*
X137746505Y-113253882D01*
X137744954Y-113166244D01*
X137743581Y-113062802D01*
X137742370Y-112942085D01*
X137741307Y-112802618D01*
X137740376Y-112642931D01*
X137739564Y-112461551D01*
X137738854Y-112257006D01*
X137738232Y-112027823D01*
X137737683Y-111772530D01*
X137737192Y-111489655D01*
X137736744Y-111177726D01*
X137736324Y-110835271D01*
X137735918Y-110460816D01*
X137735509Y-110052890D01*
X137735123Y-109650581D01*
X137734687Y-109208804D01*
X137734246Y-108801856D01*
X137733788Y-108428283D01*
X137733299Y-108086629D01*
X137732769Y-107775438D01*
X137732182Y-107493255D01*
X137731529Y-107238624D01*
X137730795Y-107010089D01*
X137729967Y-106806195D01*
X137729035Y-106625486D01*
X137727984Y-106466506D01*
X137726803Y-106327801D01*
X137725478Y-106207913D01*
X137723998Y-106105389D01*
X137722349Y-106018771D01*
X137720519Y-105946605D01*
X137718495Y-105887434D01*
X137716266Y-105839804D01*
X137713817Y-105802258D01*
X137711138Y-105773341D01*
X137708214Y-105751598D01*
X137705034Y-105735572D01*
X137701584Y-105723808D01*
X137701166Y-105722653D01*
X137693750Y-105707682D01*
X137679971Y-105687084D01*
X137658588Y-105659576D01*
X137628361Y-105623879D01*
X137588050Y-105578714D01*
X137536413Y-105522799D01*
X137472212Y-105454856D01*
X137394204Y-105373603D01*
X137301150Y-105277760D01*
X137191810Y-105166048D01*
X137064942Y-105037187D01*
X136919307Y-104889895D01*
X136753664Y-104722894D01*
X136566772Y-104534903D01*
X136357391Y-104324642D01*
X136124280Y-104090830D01*
X135972186Y-103938384D01*
X135759235Y-103725157D01*
X135549185Y-103515167D01*
X135343910Y-103310271D01*
X135145282Y-103112326D01*
X134955177Y-102923189D01*
X134775467Y-102744715D01*
X134608025Y-102578762D01*
X134454727Y-102427186D01*
X134317444Y-102291845D01*
X134198051Y-102174594D01*
X134098421Y-102077291D01*
X134020428Y-102001792D01*
X133965945Y-101949954D01*
X133961428Y-101945739D01*
X133840878Y-101831729D01*
X133745784Y-101737001D01*
X133673447Y-101657946D01*
X133621167Y-101590957D01*
X133586246Y-101532426D01*
X133565984Y-101478745D01*
X133557683Y-101426304D01*
X133557105Y-101405259D01*
X133560288Y-101332365D01*
X133572567Y-101288507D01*
X133599066Y-101266654D01*
X133644910Y-101259773D01*
X133663294Y-101259577D01*
X133704905Y-101261181D01*
X133704905Y-101261181D01*
G37*
X133704905Y-101261181D02*
X133736271Y-101269180D01*
X133765801Y-101289126D01*
X133801905Y-101326569D01*
X133848822Y-101382042D01*
X133903697Y-101445084D01*
X133983369Y-101532198D01*
X134086625Y-101642156D01*
X134212248Y-101773732D01*
X134359024Y-101925700D01*
X134525738Y-102096832D01*
X134711174Y-102285903D01*
X134914119Y-102491685D01*
X135133355Y-102712951D01*
X135367670Y-102948476D01*
X135615847Y-103197033D01*
X135876671Y-103457394D01*
X136148928Y-103728334D01*
X136431403Y-104008625D01*
X136722880Y-104297041D01*
X137022144Y-104592356D01*
X137286253Y-104852323D01*
X137459458Y-105023426D01*
X137608276Y-105172161D01*
X137732333Y-105298141D01*
X137831257Y-105400978D01*
X137904676Y-105480286D01*
X137952216Y-105535678D01*
X137973111Y-105565883D01*
X137976870Y-105575173D01*
X137980331Y-105587173D01*
X137983510Y-105603351D01*
X137986418Y-105625175D01*
X137989070Y-105654114D01*
X137991478Y-105691635D01*
X137993656Y-105739207D01*
X137995617Y-105798297D01*
X137997375Y-105870374D01*
X137998943Y-105956907D01*
X138000334Y-106059362D01*
X138001562Y-106179209D01*
X138002639Y-106317916D01*
X138003580Y-106476950D01*
X138004397Y-106657780D01*
X138005105Y-106861874D01*
X138005715Y-107090700D01*
X138006242Y-107345726D01*
X138006699Y-107628421D01*
X138007099Y-107940252D01*
X138007456Y-108282688D01*
X138007782Y-108657197D01*
X138008092Y-109065247D01*
X138008358Y-109448454D01*
X138008656Y-109886082D01*
X138008945Y-110288911D01*
X138009240Y-110658428D01*
X138009558Y-110996119D01*
X138009912Y-111303470D01*
X138010319Y-111581969D01*
X138010793Y-111833102D01*
X138011349Y-112058355D01*
X138012004Y-112259215D01*
X138012772Y-112437169D01*
X138013668Y-112593704D01*
X138014708Y-112730305D01*
X138015907Y-112848460D01*
X138017280Y-112949655D01*
X138018842Y-113035376D01*
X138020609Y-113107111D01*
X138022596Y-113166346D01*
X138024817Y-113214568D01*
X138027289Y-113253263D01*
X138030027Y-113283917D01*
X138033045Y-113308018D01*
X138036359Y-113327052D01*
X138039984Y-113342505D01*
X138043936Y-113355865D01*
X138048229Y-113368617D01*
X138048534Y-113369499D01*
X138064402Y-113414465D01*
X138080339Y-113455274D01*
X138098377Y-113494169D01*
X138120544Y-113533391D01*
X138148872Y-113575185D01*
X138185390Y-113621791D01*
X138232129Y-113675454D01*
X138291119Y-113738415D01*
X138364390Y-113812917D01*
X138453972Y-113901203D01*
X138561897Y-114005516D01*
X138690193Y-114128097D01*
X138840892Y-114271190D01*
X139008785Y-114430187D01*
X139208480Y-114619711D01*
X139383172Y-114786650D01*
X139534694Y-114932844D01*
X139664877Y-115060133D01*
X139775551Y-115170359D01*
X139868549Y-115265360D01*
X139945701Y-115346978D01*
X140008839Y-115417053D01*
X140059794Y-115477426D01*
X140092607Y-115519428D01*
X140159574Y-115615455D01*
X140216044Y-115709505D01*
X140258384Y-115794563D01*
X140282957Y-115863612D01*
X140287680Y-115895892D01*
X140282682Y-115922153D01*
X140263447Y-115933630D01*
X140224053Y-115930733D01*
X140158578Y-115913870D01*
X140134097Y-115906497D01*
X140002954Y-115848236D01*
X139871252Y-115753776D01*
X139739100Y-115623197D01*
X139729388Y-115612194D01*
X139696115Y-115575985D01*
X139639595Y-115516636D01*
X139562268Y-115436633D01*
X139466576Y-115338462D01*
X139354960Y-115224610D01*
X139229861Y-115097564D01*
X139093720Y-114959810D01*
X138948978Y-114813836D01*
X138798077Y-114662126D01*
X138709937Y-114573733D01*
X138531392Y-114394639D01*
X138376923Y-114239203D01*
X138244790Y-114105585D01*
X138133253Y-113991943D01*
X138040572Y-113896439D01*
X137965005Y-113817230D01*
X137904814Y-113752477D01*
X137858258Y-113700339D01*
X137823597Y-113658976D01*
X137799091Y-113626546D01*
X137783000Y-113601211D01*
X137775071Y-113584948D01*
X137770922Y-113574373D01*
X137767100Y-113562718D01*
X137763590Y-113548509D01*
X137760378Y-113530275D01*
X137757447Y-113506543D01*
X137754784Y-113475840D01*
X137752373Y-113436695D01*
X137750200Y-113387635D01*
X137748249Y-113327188D01*
X137746505Y-113253882D01*
X137744954Y-113166244D01*
X137743581Y-113062802D01*
X137742370Y-112942085D01*
X137741307Y-112802618D01*
X137740376Y-112642931D01*
X137739564Y-112461551D01*
X137738854Y-112257006D01*
X137738232Y-112027823D01*
X137737683Y-111772530D01*
X137737192Y-111489655D01*
X137736744Y-111177726D01*
X137736324Y-110835271D01*
X137735918Y-110460816D01*
X137735509Y-110052890D01*
X137735123Y-109650581D01*
X137734687Y-109208804D01*
X137734246Y-108801856D01*
X137733788Y-108428283D01*
X137733299Y-108086629D01*
X137732769Y-107775438D01*
X137732182Y-107493255D01*
X137731529Y-107238624D01*
X137730795Y-107010089D01*
X137729967Y-106806195D01*
X137729035Y-106625486D01*
X137727984Y-106466506D01*
X137726803Y-106327801D01*
X137725478Y-106207913D01*
X137723998Y-106105389D01*
X137722349Y-106018771D01*
X137720519Y-105946605D01*
X137718495Y-105887434D01*
X137716266Y-105839804D01*
X137713817Y-105802258D01*
X137711138Y-105773341D01*
X137708214Y-105751598D01*
X137705034Y-105735572D01*
X137701584Y-105723808D01*
X137701166Y-105722653D01*
X137693750Y-105707682D01*
X137679971Y-105687084D01*
X137658588Y-105659576D01*
X137628361Y-105623879D01*
X137588050Y-105578714D01*
X137536413Y-105522799D01*
X137472212Y-105454856D01*
X137394204Y-105373603D01*
X137301150Y-105277760D01*
X137191810Y-105166048D01*
X137064942Y-105037187D01*
X136919307Y-104889895D01*
X136753664Y-104722894D01*
X136566772Y-104534903D01*
X136357391Y-104324642D01*
X136124280Y-104090830D01*
X135972186Y-103938384D01*
X135759235Y-103725157D01*
X135549185Y-103515167D01*
X135343910Y-103310271D01*
X135145282Y-103112326D01*
X134955177Y-102923189D01*
X134775467Y-102744715D01*
X134608025Y-102578762D01*
X134454727Y-102427186D01*
X134317444Y-102291845D01*
X134198051Y-102174594D01*
X134098421Y-102077291D01*
X134020428Y-102001792D01*
X133965945Y-101949954D01*
X133961428Y-101945739D01*
X133840878Y-101831729D01*
X133745784Y-101737001D01*
X133673447Y-101657946D01*
X133621167Y-101590957D01*
X133586246Y-101532426D01*
X133565984Y-101478745D01*
X133557683Y-101426304D01*
X133557105Y-101405259D01*
X133560288Y-101332365D01*
X133572567Y-101288507D01*
X133599066Y-101266654D01*
X133644910Y-101259773D01*
X133663294Y-101259577D01*
X133704905Y-101261181D01*
G36*
X136973027Y-102531772D02*
X137157642Y-102713354D01*
X137337908Y-102890119D01*
X137511773Y-103060086D01*
X137677187Y-103221273D01*
X137832100Y-103371699D01*
X137974460Y-103509382D01*
X138102217Y-103632342D01*
X138213320Y-103738597D01*
X138305719Y-103826167D01*
X138377364Y-103893069D01*
X138426203Y-103937323D01*
X138440291Y-103949400D01*
X138543547Y-104039908D01*
X138616943Y-104116333D01*
X138662885Y-104181187D01*
X138663556Y-104182413D01*
X138675284Y-104204819D01*
X138685953Y-104228079D01*
X138695594Y-104253879D01*
X138704242Y-104283908D01*
X138711927Y-104319852D01*
X138718683Y-104363398D01*
X138724542Y-104416233D01*
X138729537Y-104480045D01*
X138733700Y-104556520D01*
X138737064Y-104647346D01*
X138739660Y-104754210D01*
X138741523Y-104878798D01*
X138742683Y-105022798D01*
X138743174Y-105187897D01*
X138743028Y-105375783D01*
X138742278Y-105588141D01*
X138740956Y-105826660D01*
X138739094Y-106093026D01*
X138736725Y-106388927D01*
X138733882Y-106716049D01*
X138730598Y-107076080D01*
X138726903Y-107470706D01*
X138726901Y-107470932D01*
X138722680Y-107925556D01*
X138718937Y-108345480D01*
X138715689Y-108732289D01*
X138712951Y-109087566D01*
X138710741Y-109412895D01*
X138709076Y-109709859D01*
X138707973Y-109980042D01*
X138707447Y-110225028D01*
X138707517Y-110446401D01*
X138708199Y-110645743D01*
X138709509Y-110824639D01*
X138711465Y-110984672D01*
X138714083Y-111127427D01*
X138717380Y-111254485D01*
X138721373Y-111367432D01*
X138726078Y-111467851D01*
X138731512Y-111557325D01*
X138737693Y-111637439D01*
X138744637Y-111709775D01*
X138752360Y-111775918D01*
X138760880Y-111837450D01*
X138770213Y-111895957D01*
X138774037Y-111918071D01*
X138782232Y-111967261D01*
X138789212Y-112009951D01*
X138796684Y-112048214D01*
X138806354Y-112084125D01*
X138819929Y-112119756D01*
X138839114Y-112157182D01*
X138865616Y-112198475D01*
X138901142Y-112245710D01*
X138947397Y-112300961D01*
X139006087Y-112366299D01*
X139078920Y-112443800D01*
X139167600Y-112535537D01*
X139273835Y-112643584D01*
X139399331Y-112770013D01*
X139545794Y-112916899D01*
X139714929Y-113086316D01*
X139831253Y-113202901D01*
X139990079Y-113361775D01*
X140142903Y-113513896D01*
X140287592Y-113657186D01*
X140422014Y-113789567D01*
X140544034Y-113908961D01*
X140651521Y-114013290D01*
X140742342Y-114100477D01*
X140814363Y-114168442D01*
X140865451Y-114215110D01*
X140893474Y-114238401D01*
X140895643Y-114239801D01*
X140961558Y-114273191D01*
X141024138Y-114290997D01*
X141094464Y-114294471D01*
X141183619Y-114284863D01*
X141228431Y-114277390D01*
X141349402Y-114262242D01*
X141448959Y-114266244D01*
X141537762Y-114291576D01*
X141626471Y-114340417D01*
X141663394Y-114366344D01*
X141771989Y-114464763D01*
X141855035Y-114578851D01*
X141909703Y-114702812D01*
X141933164Y-114830848D01*
X141930377Y-114913194D01*
X141896766Y-115044829D01*
X141832145Y-115172704D01*
X141741654Y-115289899D01*
X141630429Y-115389495D01*
X141530643Y-115451510D01*
X141428028Y-115490624D01*
X141313488Y-115512683D01*
X141199887Y-115516463D01*
X141100087Y-115500740D01*
X141080663Y-115494320D01*
X140955622Y-115428533D01*
X140844503Y-115330102D01*
X140748764Y-115200460D01*
X140709595Y-115129357D01*
X140668608Y-115018042D01*
X140660216Y-114906879D01*
X140677414Y-114806436D01*
X140700682Y-114686918D01*
X140700620Y-114588073D01*
X140677022Y-114502613D01*
X140668389Y-114484369D01*
X140643372Y-114442909D01*
X140604644Y-114390641D01*
X140550708Y-114326003D01*
X140480073Y-114247437D01*
X140391242Y-114153381D01*
X140282722Y-114042277D01*
X140153019Y-113912563D01*
X140000637Y-113762681D01*
X139824083Y-113591070D01*
X139673769Y-113446070D01*
X139479924Y-113259467D01*
X139310519Y-113096085D01*
X139163763Y-112954074D01*
X139037864Y-112831583D01*
X138931032Y-112726762D01*
X138841475Y-112637760D01*
X138767402Y-112562729D01*
X138707021Y-112499817D01*
X138658542Y-112447175D01*
X138620171Y-112402952D01*
X138590119Y-112365298D01*
X138566595Y-112332362D01*
X138547805Y-112302295D01*
X138531961Y-112273247D01*
X138525186Y-112259755D01*
X138464500Y-112136420D01*
X138470778Y-108453103D01*
X138471524Y-107973444D01*
X138472064Y-107529278D01*
X138472394Y-107119810D01*
X138472513Y-106744247D01*
X138472417Y-106401796D01*
X138472104Y-106091663D01*
X138471569Y-105813056D01*
X138470812Y-105565180D01*
X138469828Y-105347243D01*
X138468615Y-105158451D01*
X138467171Y-104998011D01*
X138465491Y-104865130D01*
X138463574Y-104759013D01*
X138461416Y-104678869D01*
X138459015Y-104623903D01*
X138456906Y-104597428D01*
X138428325Y-104441828D01*
X138379604Y-104309553D01*
X138306524Y-104191320D01*
X138234171Y-104107293D01*
X138207637Y-104080924D01*
X138156656Y-104031462D01*
X138083151Y-103960740D01*
X137989045Y-103870590D01*
X137876260Y-103762846D01*
X137746721Y-103639339D01*
X137602350Y-103501902D01*
X137445070Y-103352368D01*
X137276805Y-103192569D01*
X137099476Y-103024338D01*
X136915008Y-102849508D01*
X136798425Y-102739103D01*
X135458922Y-101470977D01*
X135470646Y-101408480D01*
X135486645Y-101334941D01*
X135504771Y-101290376D01*
X135531089Y-101267686D01*
X135571663Y-101259775D01*
X135598256Y-101259142D01*
X135681125Y-101259142D01*
X136973027Y-102531772D01*
X136973027Y-102531772D01*
G37*
X136973027Y-102531772D02*
X137157642Y-102713354D01*
X137337908Y-102890119D01*
X137511773Y-103060086D01*
X137677187Y-103221273D01*
X137832100Y-103371699D01*
X137974460Y-103509382D01*
X138102217Y-103632342D01*
X138213320Y-103738597D01*
X138305719Y-103826167D01*
X138377364Y-103893069D01*
X138426203Y-103937323D01*
X138440291Y-103949400D01*
X138543547Y-104039908D01*
X138616943Y-104116333D01*
X138662885Y-104181187D01*
X138663556Y-104182413D01*
X138675284Y-104204819D01*
X138685953Y-104228079D01*
X138695594Y-104253879D01*
X138704242Y-104283908D01*
X138711927Y-104319852D01*
X138718683Y-104363398D01*
X138724542Y-104416233D01*
X138729537Y-104480045D01*
X138733700Y-104556520D01*
X138737064Y-104647346D01*
X138739660Y-104754210D01*
X138741523Y-104878798D01*
X138742683Y-105022798D01*
X138743174Y-105187897D01*
X138743028Y-105375783D01*
X138742278Y-105588141D01*
X138740956Y-105826660D01*
X138739094Y-106093026D01*
X138736725Y-106388927D01*
X138733882Y-106716049D01*
X138730598Y-107076080D01*
X138726903Y-107470706D01*
X138726901Y-107470932D01*
X138722680Y-107925556D01*
X138718937Y-108345480D01*
X138715689Y-108732289D01*
X138712951Y-109087566D01*
X138710741Y-109412895D01*
X138709076Y-109709859D01*
X138707973Y-109980042D01*
X138707447Y-110225028D01*
X138707517Y-110446401D01*
X138708199Y-110645743D01*
X138709509Y-110824639D01*
X138711465Y-110984672D01*
X138714083Y-111127427D01*
X138717380Y-111254485D01*
X138721373Y-111367432D01*
X138726078Y-111467851D01*
X138731512Y-111557325D01*
X138737693Y-111637439D01*
X138744637Y-111709775D01*
X138752360Y-111775918D01*
X138760880Y-111837450D01*
X138770213Y-111895957D01*
X138774037Y-111918071D01*
X138782232Y-111967261D01*
X138789212Y-112009951D01*
X138796684Y-112048214D01*
X138806354Y-112084125D01*
X138819929Y-112119756D01*
X138839114Y-112157182D01*
X138865616Y-112198475D01*
X138901142Y-112245710D01*
X138947397Y-112300961D01*
X139006087Y-112366299D01*
X139078920Y-112443800D01*
X139167600Y-112535537D01*
X139273835Y-112643584D01*
X139399331Y-112770013D01*
X139545794Y-112916899D01*
X139714929Y-113086316D01*
X139831253Y-113202901D01*
X139990079Y-113361775D01*
X140142903Y-113513896D01*
X140287592Y-113657186D01*
X140422014Y-113789567D01*
X140544034Y-113908961D01*
X140651521Y-114013290D01*
X140742342Y-114100477D01*
X140814363Y-114168442D01*
X140865451Y-114215110D01*
X140893474Y-114238401D01*
X140895643Y-114239801D01*
X140961558Y-114273191D01*
X141024138Y-114290997D01*
X141094464Y-114294471D01*
X141183619Y-114284863D01*
X141228431Y-114277390D01*
X141349402Y-114262242D01*
X141448959Y-114266244D01*
X141537762Y-114291576D01*
X141626471Y-114340417D01*
X141663394Y-114366344D01*
X141771989Y-114464763D01*
X141855035Y-114578851D01*
X141909703Y-114702812D01*
X141933164Y-114830848D01*
X141930377Y-114913194D01*
X141896766Y-115044829D01*
X141832145Y-115172704D01*
X141741654Y-115289899D01*
X141630429Y-115389495D01*
X141530643Y-115451510D01*
X141428028Y-115490624D01*
X141313488Y-115512683D01*
X141199887Y-115516463D01*
X141100087Y-115500740D01*
X141080663Y-115494320D01*
X140955622Y-115428533D01*
X140844503Y-115330102D01*
X140748764Y-115200460D01*
X140709595Y-115129357D01*
X140668608Y-115018042D01*
X140660216Y-114906879D01*
X140677414Y-114806436D01*
X140700682Y-114686918D01*
X140700620Y-114588073D01*
X140677022Y-114502613D01*
X140668389Y-114484369D01*
X140643372Y-114442909D01*
X140604644Y-114390641D01*
X140550708Y-114326003D01*
X140480073Y-114247437D01*
X140391242Y-114153381D01*
X140282722Y-114042277D01*
X140153019Y-113912563D01*
X140000637Y-113762681D01*
X139824083Y-113591070D01*
X139673769Y-113446070D01*
X139479924Y-113259467D01*
X139310519Y-113096085D01*
X139163763Y-112954074D01*
X139037864Y-112831583D01*
X138931032Y-112726762D01*
X138841475Y-112637760D01*
X138767402Y-112562729D01*
X138707021Y-112499817D01*
X138658542Y-112447175D01*
X138620171Y-112402952D01*
X138590119Y-112365298D01*
X138566595Y-112332362D01*
X138547805Y-112302295D01*
X138531961Y-112273247D01*
X138525186Y-112259755D01*
X138464500Y-112136420D01*
X138470778Y-108453103D01*
X138471524Y-107973444D01*
X138472064Y-107529278D01*
X138472394Y-107119810D01*
X138472513Y-106744247D01*
X138472417Y-106401796D01*
X138472104Y-106091663D01*
X138471569Y-105813056D01*
X138470812Y-105565180D01*
X138469828Y-105347243D01*
X138468615Y-105158451D01*
X138467171Y-104998011D01*
X138465491Y-104865130D01*
X138463574Y-104759013D01*
X138461416Y-104678869D01*
X138459015Y-104623903D01*
X138456906Y-104597428D01*
X138428325Y-104441828D01*
X138379604Y-104309553D01*
X138306524Y-104191320D01*
X138234171Y-104107293D01*
X138207637Y-104080924D01*
X138156656Y-104031462D01*
X138083151Y-103960740D01*
X137989045Y-103870590D01*
X137876260Y-103762846D01*
X137746721Y-103639339D01*
X137602350Y-103501902D01*
X137445070Y-103352368D01*
X137276805Y-103192569D01*
X137099476Y-103024338D01*
X136915008Y-102849508D01*
X136798425Y-102739103D01*
X135458922Y-101470977D01*
X135470646Y-101408480D01*
X135486645Y-101334941D01*
X135504771Y-101290376D01*
X135531089Y-101267686D01*
X135571663Y-101259775D01*
X135598256Y-101259142D01*
X135681125Y-101259142D01*
X136973027Y-102531772D01*
G36*
X134406189Y-111016491D02*
X134407098Y-111223695D01*
X134407386Y-111442761D01*
X134407088Y-111666430D01*
X134406238Y-111887440D01*
X134404868Y-112098532D01*
X134403014Y-112292445D01*
X134400708Y-112461920D01*
X134399035Y-112553071D01*
X134386193Y-113169928D01*
X134249027Y-113269714D01*
X134142397Y-113354627D01*
X134017340Y-113467215D01*
X133876023Y-113605278D01*
X133720615Y-113766615D01*
X133553283Y-113949028D01*
X133376195Y-114150315D01*
X133341654Y-114190477D01*
X133166322Y-114392916D01*
X133009524Y-114569121D01*
X132868292Y-114722084D01*
X132739656Y-114854797D01*
X132620648Y-114970255D01*
X132508297Y-115071448D01*
X132399635Y-115161370D01*
X132312095Y-115228138D01*
X132237548Y-115282945D01*
X132228373Y-113908936D01*
X132226613Y-113643008D01*
X132225217Y-113410778D01*
X132224322Y-113209657D01*
X132224069Y-113037061D01*
X132224598Y-112890400D01*
X132226048Y-112767087D01*
X132228558Y-112664536D01*
X132232268Y-112580159D01*
X132237318Y-112511369D01*
X132243847Y-112455578D01*
X132251995Y-112410200D01*
X132261902Y-112372646D01*
X132273706Y-112340331D01*
X132287548Y-112310665D01*
X132303568Y-112281063D01*
X132317518Y-112256609D01*
X132344582Y-112219023D01*
X132393191Y-112161218D01*
X132458804Y-112088198D01*
X132536879Y-112004966D01*
X132622877Y-111916528D01*
X132658907Y-111880387D01*
X132765498Y-111772323D01*
X132883346Y-111649593D01*
X133002959Y-111522291D01*
X133114847Y-111400514D01*
X133204747Y-111299816D01*
X133280983Y-111215202D01*
X133378095Y-111111298D01*
X133490599Y-110993748D01*
X133613013Y-110868201D01*
X133739855Y-110740302D01*
X133865641Y-110615699D01*
X133929054Y-110553848D01*
X134400500Y-110096768D01*
X134406189Y-111016491D01*
X134406189Y-111016491D01*
G37*
X134406189Y-111016491D02*
X134407098Y-111223695D01*
X134407386Y-111442761D01*
X134407088Y-111666430D01*
X134406238Y-111887440D01*
X134404868Y-112098532D01*
X134403014Y-112292445D01*
X134400708Y-112461920D01*
X134399035Y-112553071D01*
X134386193Y-113169928D01*
X134249027Y-113269714D01*
X134142397Y-113354627D01*
X134017340Y-113467215D01*
X133876023Y-113605278D01*
X133720615Y-113766615D01*
X133553283Y-113949028D01*
X133376195Y-114150315D01*
X133341654Y-114190477D01*
X133166322Y-114392916D01*
X133009524Y-114569121D01*
X132868292Y-114722084D01*
X132739656Y-114854797D01*
X132620648Y-114970255D01*
X132508297Y-115071448D01*
X132399635Y-115161370D01*
X132312095Y-115228138D01*
X132237548Y-115282945D01*
X132228373Y-113908936D01*
X132226613Y-113643008D01*
X132225217Y-113410778D01*
X132224322Y-113209657D01*
X132224069Y-113037061D01*
X132224598Y-112890400D01*
X132226048Y-112767087D01*
X132228558Y-112664536D01*
X132232268Y-112580159D01*
X132237318Y-112511369D01*
X132243847Y-112455578D01*
X132251995Y-112410200D01*
X132261902Y-112372646D01*
X132273706Y-112340331D01*
X132287548Y-112310665D01*
X132303568Y-112281063D01*
X132317518Y-112256609D01*
X132344582Y-112219023D01*
X132393191Y-112161218D01*
X132458804Y-112088198D01*
X132536879Y-112004966D01*
X132622877Y-111916528D01*
X132658907Y-111880387D01*
X132765498Y-111772323D01*
X132883346Y-111649593D01*
X133002959Y-111522291D01*
X133114847Y-111400514D01*
X133204747Y-111299816D01*
X133280983Y-111215202D01*
X133378095Y-111111298D01*
X133490599Y-110993748D01*
X133613013Y-110868201D01*
X133739855Y-110740302D01*
X133865641Y-110615699D01*
X133929054Y-110553848D01*
X134400500Y-110096768D01*
X134406189Y-111016491D01*
G36*
X139284968Y-104418515D02*
X139309746Y-104444618D01*
X139356262Y-104495888D01*
X139422516Y-104570047D01*
X139506504Y-104664821D01*
X139606226Y-104777933D01*
X139719680Y-104907107D01*
X139844865Y-105050068D01*
X139979778Y-105204539D01*
X140122418Y-105368245D01*
X140270784Y-105538909D01*
X140305605Y-105579019D01*
X141244140Y-106660396D01*
X141256495Y-106769605D01*
X141262213Y-106839349D01*
X141267598Y-106943169D01*
X141272639Y-107078858D01*
X141277326Y-107244208D01*
X141281646Y-107437011D01*
X141285588Y-107655059D01*
X141289141Y-107896144D01*
X141292294Y-108158059D01*
X141295035Y-108438595D01*
X141297352Y-108735546D01*
X141299234Y-109046702D01*
X141300670Y-109369857D01*
X141301649Y-109702801D01*
X141302159Y-110043329D01*
X141302188Y-110389231D01*
X141301726Y-110738300D01*
X141300761Y-111088328D01*
X141299281Y-111437108D01*
X141297275Y-111782431D01*
X141294732Y-112122089D01*
X141291640Y-112453875D01*
X141287988Y-112775581D01*
X141287632Y-112803920D01*
X141276643Y-113671627D01*
X141204071Y-113622649D01*
X141141772Y-113578085D01*
X141071486Y-113522729D01*
X140991032Y-113454561D01*
X140898228Y-113371560D01*
X140790892Y-113271705D01*
X140666841Y-113152974D01*
X140523895Y-113013348D01*
X140359870Y-112850805D01*
X140224357Y-112715302D01*
X140096359Y-112587297D01*
X139970647Y-112462283D01*
X139850682Y-112343652D01*
X139739924Y-112234796D01*
X139641833Y-112139108D01*
X139559869Y-112059979D01*
X139497492Y-112000803D01*
X139466702Y-111972500D01*
X139370367Y-111880632D01*
X139300729Y-111798546D01*
X139253138Y-111717747D01*
X139222945Y-111629738D01*
X139205500Y-111526025D01*
X139201892Y-111488636D01*
X139200638Y-111455273D01*
X139199488Y-111387474D01*
X139198445Y-111287093D01*
X139197512Y-111155979D01*
X139196692Y-110995985D01*
X139195988Y-110808961D01*
X139195403Y-110596759D01*
X139194941Y-110361229D01*
X139194603Y-110104222D01*
X139194393Y-109827591D01*
X139194314Y-109533186D01*
X139194369Y-109222859D01*
X139194560Y-108898460D01*
X139194892Y-108561840D01*
X139195366Y-108214852D01*
X139195987Y-107859345D01*
X139196027Y-107838444D01*
X139202867Y-104339388D01*
X139284968Y-104418515D01*
X139284968Y-104418515D01*
G37*
X139284968Y-104418515D02*
X139309746Y-104444618D01*
X139356262Y-104495888D01*
X139422516Y-104570047D01*
X139506504Y-104664821D01*
X139606226Y-104777933D01*
X139719680Y-104907107D01*
X139844865Y-105050068D01*
X139979778Y-105204539D01*
X140122418Y-105368245D01*
X140270784Y-105538909D01*
X140305605Y-105579019D01*
X141244140Y-106660396D01*
X141256495Y-106769605D01*
X141262213Y-106839349D01*
X141267598Y-106943169D01*
X141272639Y-107078858D01*
X141277326Y-107244208D01*
X141281646Y-107437011D01*
X141285588Y-107655059D01*
X141289141Y-107896144D01*
X141292294Y-108158059D01*
X141295035Y-108438595D01*
X141297352Y-108735546D01*
X141299234Y-109046702D01*
X141300670Y-109369857D01*
X141301649Y-109702801D01*
X141302159Y-110043329D01*
X141302188Y-110389231D01*
X141301726Y-110738300D01*
X141300761Y-111088328D01*
X141299281Y-111437108D01*
X141297275Y-111782431D01*
X141294732Y-112122089D01*
X141291640Y-112453875D01*
X141287988Y-112775581D01*
X141287632Y-112803920D01*
X141276643Y-113671627D01*
X141204071Y-113622649D01*
X141141772Y-113578085D01*
X141071486Y-113522729D01*
X140991032Y-113454561D01*
X140898228Y-113371560D01*
X140790892Y-113271705D01*
X140666841Y-113152974D01*
X140523895Y-113013348D01*
X140359870Y-112850805D01*
X140224357Y-112715302D01*
X140096359Y-112587297D01*
X139970647Y-112462283D01*
X139850682Y-112343652D01*
X139739924Y-112234796D01*
X139641833Y-112139108D01*
X139559869Y-112059979D01*
X139497492Y-112000803D01*
X139466702Y-111972500D01*
X139370367Y-111880632D01*
X139300729Y-111798546D01*
X139253138Y-111717747D01*
X139222945Y-111629738D01*
X139205500Y-111526025D01*
X139201892Y-111488636D01*
X139200638Y-111455273D01*
X139199488Y-111387474D01*
X139198445Y-111287093D01*
X139197512Y-111155979D01*
X139196692Y-110995985D01*
X139195988Y-110808961D01*
X139195403Y-110596759D01*
X139194941Y-110361229D01*
X139194603Y-110104222D01*
X139194393Y-109827591D01*
X139194314Y-109533186D01*
X139194369Y-109222859D01*
X139194560Y-108898460D01*
X139194892Y-108561840D01*
X139195366Y-108214852D01*
X139195987Y-107859345D01*
X139196027Y-107838444D01*
X139202867Y-104339388D01*
X139284968Y-104418515D01*
G36*
X138044569Y-159703715D02*
X142047342Y-159704003D01*
X146012779Y-159704489D01*
X149921674Y-159705174D01*
X153754820Y-159706058D01*
X157493008Y-159707142D01*
X161117032Y-159708424D01*
X164607683Y-159709905D01*
X167945755Y-159711586D01*
X171112039Y-159713465D01*
X171456654Y-159713689D01*
X173166219Y-159714866D01*
X174684618Y-159716030D01*
X176013838Y-159717178D01*
X177155867Y-159718309D01*
X178112695Y-159719423D01*
X178886310Y-159720517D01*
X179478701Y-159721591D01*
X179891856Y-159722644D01*
X180127764Y-159723673D01*
X180188413Y-159724677D01*
X180075792Y-159725656D01*
X179791889Y-159726608D01*
X179338694Y-159727532D01*
X178718194Y-159728426D01*
X177932379Y-159729289D01*
X176983236Y-159730120D01*
X175872755Y-159730918D01*
X174602924Y-159731680D01*
X173175732Y-159732407D01*
X171593167Y-159733096D01*
X169857218Y-159733746D01*
X167969873Y-159734357D01*
X165933121Y-159734926D01*
X163748950Y-159735452D01*
X161419350Y-159735934D01*
X158946309Y-159736371D01*
X156331814Y-159736762D01*
X153577856Y-159737104D01*
X150686422Y-159737398D01*
X147659501Y-159737641D01*
X144499082Y-159737832D01*
X141207153Y-159737970D01*
X137785703Y-159738054D01*
X134250000Y-159738082D01*
X130701482Y-159738054D01*
X127280504Y-159737970D01*
X123989055Y-159737831D01*
X120829123Y-159737640D01*
X117802697Y-159737397D01*
X114911765Y-159737103D01*
X112158316Y-159736760D01*
X109544338Y-159736370D01*
X107071820Y-159735932D01*
X104742751Y-159735450D01*
X102559119Y-159734923D01*
X100522912Y-159734354D01*
X98636120Y-159733744D01*
X96900731Y-159733094D01*
X95318734Y-159732404D01*
X93892116Y-159731678D01*
X92622868Y-159730915D01*
X91512976Y-159730117D01*
X90564431Y-159729286D01*
X89779219Y-159728423D01*
X89159331Y-159727529D01*
X88706755Y-159726605D01*
X88423478Y-159725653D01*
X88311491Y-159724674D01*
X88372781Y-159723669D01*
X88609336Y-159722640D01*
X89023147Y-159721587D01*
X89616200Y-159720513D01*
X90390485Y-159719419D01*
X91347990Y-159718305D01*
X92490704Y-159717173D01*
X93820616Y-159716025D01*
X95339714Y-159714862D01*
X97043346Y-159713689D01*
X100189101Y-159711787D01*
X103508805Y-159710084D01*
X106983250Y-159708581D01*
X110593228Y-159707276D01*
X114319531Y-159706170D01*
X118142953Y-159705264D01*
X122044285Y-159704556D01*
X126004321Y-159704047D01*
X130003851Y-159703738D01*
X134023670Y-159703627D01*
X138044569Y-159703715D01*
X138044569Y-159703715D01*
G37*
X138044569Y-159703715D02*
X142047342Y-159704003D01*
X146012779Y-159704489D01*
X149921674Y-159705174D01*
X153754820Y-159706058D01*
X157493008Y-159707142D01*
X161117032Y-159708424D01*
X164607683Y-159709905D01*
X167945755Y-159711586D01*
X171112039Y-159713465D01*
X171456654Y-159713689D01*
X173166219Y-159714866D01*
X174684618Y-159716030D01*
X176013838Y-159717178D01*
X177155867Y-159718309D01*
X178112695Y-159719423D01*
X178886310Y-159720517D01*
X179478701Y-159721591D01*
X179891856Y-159722644D01*
X180127764Y-159723673D01*
X180188413Y-159724677D01*
X180075792Y-159725656D01*
X179791889Y-159726608D01*
X179338694Y-159727532D01*
X178718194Y-159728426D01*
X177932379Y-159729289D01*
X176983236Y-159730120D01*
X175872755Y-159730918D01*
X174602924Y-159731680D01*
X173175732Y-159732407D01*
X171593167Y-159733096D01*
X169857218Y-159733746D01*
X167969873Y-159734357D01*
X165933121Y-159734926D01*
X163748950Y-159735452D01*
X161419350Y-159735934D01*
X158946309Y-159736371D01*
X156331814Y-159736762D01*
X153577856Y-159737104D01*
X150686422Y-159737398D01*
X147659501Y-159737641D01*
X144499082Y-159737832D01*
X141207153Y-159737970D01*
X137785703Y-159738054D01*
X134250000Y-159738082D01*
X130701482Y-159738054D01*
X127280504Y-159737970D01*
X123989055Y-159737831D01*
X120829123Y-159737640D01*
X117802697Y-159737397D01*
X114911765Y-159737103D01*
X112158316Y-159736760D01*
X109544338Y-159736370D01*
X107071820Y-159735932D01*
X104742751Y-159735450D01*
X102559119Y-159734923D01*
X100522912Y-159734354D01*
X98636120Y-159733744D01*
X96900731Y-159733094D01*
X95318734Y-159732404D01*
X93892116Y-159731678D01*
X92622868Y-159730915D01*
X91512976Y-159730117D01*
X90564431Y-159729286D01*
X89779219Y-159728423D01*
X89159331Y-159727529D01*
X88706755Y-159726605D01*
X88423478Y-159725653D01*
X88311491Y-159724674D01*
X88372781Y-159723669D01*
X88609336Y-159722640D01*
X89023147Y-159721587D01*
X89616200Y-159720513D01*
X90390485Y-159719419D01*
X91347990Y-159718305D01*
X92490704Y-159717173D01*
X93820616Y-159716025D01*
X95339714Y-159714862D01*
X97043346Y-159713689D01*
X100189101Y-159711787D01*
X103508805Y-159710084D01*
X106983250Y-159708581D01*
X110593228Y-159707276D01*
X114319531Y-159706170D01*
X118142953Y-159705264D01*
X122044285Y-159704556D01*
X126004321Y-159704047D01*
X130003851Y-159703738D01*
X134023670Y-159703627D01*
X138044569Y-159703715D01*
G36*
X146954278Y-86238588D02*
X146998288Y-86327131D01*
X146912594Y-86486051D01*
X146672111Y-86702062D01*
X146301742Y-86961401D01*
X145826389Y-87250302D01*
X145270955Y-87555001D01*
X144660340Y-87861732D01*
X144019448Y-88156732D01*
X143373181Y-88426235D01*
X142846216Y-88622204D01*
X142541989Y-88721590D01*
X142364965Y-88753051D01*
X142262580Y-88719332D01*
X142205156Y-88655669D01*
X142070288Y-88533135D01*
X141851087Y-88437459D01*
X141524367Y-88364486D01*
X141066938Y-88310060D01*
X140455614Y-88270025D01*
X139934403Y-88248703D01*
X139084954Y-88229198D01*
X138409628Y-88236311D01*
X137891010Y-88271719D01*
X137511683Y-88337099D01*
X137254233Y-88434129D01*
X137141128Y-88517807D01*
X137039819Y-88666256D01*
X137027007Y-88846642D01*
X137112506Y-89088386D01*
X137306129Y-89420909D01*
X137571997Y-89809513D01*
X137794154Y-90130036D01*
X137983720Y-90417007D01*
X138101089Y-90610395D01*
X138103976Y-90615818D01*
X138214217Y-90916846D01*
X138322264Y-91385582D01*
X138423998Y-91996586D01*
X138515299Y-92724419D01*
X138592048Y-93543643D01*
X138604650Y-93707597D01*
X138652216Y-94293441D01*
X138701350Y-94736336D01*
X138761818Y-95086314D01*
X138843381Y-95393407D01*
X138955804Y-95707647D01*
X139031444Y-95894696D01*
X139354995Y-96643666D01*
X139727608Y-97451475D01*
X140138249Y-98298406D01*
X140575882Y-99164743D01*
X141029471Y-100030769D01*
X141487982Y-100876767D01*
X141940377Y-101683020D01*
X142375623Y-102429811D01*
X142782683Y-103097423D01*
X143150523Y-103666140D01*
X143468106Y-104116245D01*
X143724398Y-104428020D01*
X143887180Y-104570362D01*
X144229467Y-104864993D01*
X144421112Y-105222025D01*
X144465602Y-105601509D01*
X144366424Y-105963496D01*
X144127064Y-106268037D01*
X143751008Y-106475182D01*
X143720082Y-106484875D01*
X143435010Y-106548670D01*
X143199755Y-106526142D01*
X142937386Y-106424719D01*
X142517751Y-106157180D01*
X142052419Y-105718444D01*
X141551656Y-105122185D01*
X141025726Y-104382079D01*
X140484895Y-103511800D01*
X139939429Y-102525023D01*
X139785213Y-102225666D01*
X139277060Y-101168294D01*
X138853392Y-100153634D01*
X138489497Y-99114291D01*
X138160661Y-97982869D01*
X138001795Y-97362083D01*
X137817724Y-96626284D01*
X137658755Y-96057022D01*
X137503931Y-95633250D01*
X137332297Y-95333921D01*
X137122896Y-95137988D01*
X136854771Y-95024405D01*
X136506968Y-94972123D01*
X136058530Y-94960096D01*
X135615345Y-94965281D01*
X135114945Y-94977467D01*
X134654366Y-94996274D01*
X134284698Y-95019139D01*
X134057027Y-95043495D01*
X134056844Y-95043527D01*
X133835792Y-95068227D01*
X133783931Y-95039893D01*
X133887290Y-94966811D01*
X134131895Y-94857263D01*
X134503772Y-94719533D01*
X134732889Y-94642747D01*
X135663630Y-94291165D01*
X136408414Y-93900421D01*
X136971230Y-93466404D01*
X137356070Y-92985005D01*
X137566925Y-92452114D01*
X137607785Y-91863622D01*
X137590875Y-91699669D01*
X137432695Y-91089249D01*
X137141991Y-90476895D01*
X136752465Y-89911750D01*
X136297815Y-89442955D01*
X135826566Y-89126821D01*
X135201505Y-88920683D01*
X134568244Y-88894266D01*
X133953843Y-89037377D01*
X133385364Y-89339827D01*
X132889871Y-89791426D01*
X132494703Y-90381440D01*
X132278686Y-90915616D01*
X132138581Y-91499588D01*
X132076350Y-92088213D01*
X132093955Y-92636349D01*
X132193359Y-93098853D01*
X132362854Y-93414853D01*
X132503120Y-93611320D01*
X132613940Y-93846684D01*
X132700786Y-94148976D01*
X132769130Y-94546229D01*
X132824444Y-95066475D01*
X132872201Y-95737746D01*
X132895088Y-96141255D01*
X132925561Y-96967285D01*
X132934696Y-97861705D01*
X132923994Y-98784941D01*
X132894960Y-99697420D01*
X132849096Y-100559567D01*
X132787906Y-101331811D01*
X132712894Y-101974578D01*
X132661823Y-102281900D01*
X132431486Y-103225725D01*
X132090256Y-104284106D01*
X131652778Y-105424800D01*
X131133698Y-106615564D01*
X130547659Y-107824155D01*
X129909307Y-109018332D01*
X129233287Y-110165852D01*
X128717427Y-110965970D01*
X127679125Y-112409492D01*
X126524328Y-113831689D01*
X125275779Y-115211851D01*
X123956218Y-116529268D01*
X122588386Y-117763228D01*
X121195023Y-118893022D01*
X119798871Y-119897940D01*
X118422670Y-120757270D01*
X117330729Y-121335996D01*
X116076956Y-121869260D01*
X114830885Y-122260093D01*
X114181101Y-122424889D01*
X113606540Y-122555098D01*
X113130524Y-122646618D01*
X112776376Y-122695343D01*
X112567419Y-122697170D01*
X112519961Y-122666744D01*
X112605479Y-122582251D01*
X112840927Y-122446541D01*
X113194646Y-122274236D01*
X113634978Y-122079957D01*
X114130262Y-121878326D01*
X114644676Y-121685454D01*
X116084468Y-121155632D01*
X117340304Y-120662748D01*
X118411109Y-120207276D01*
X119295810Y-119789693D01*
X119993332Y-119410472D01*
X120423594Y-119129405D01*
X120836272Y-118721089D01*
X121042185Y-118371647D01*
X121252948Y-118023807D01*
X121616958Y-117592040D01*
X122122215Y-117086116D01*
X122535445Y-116680453D01*
X122964021Y-116235713D01*
X123350325Y-115812853D01*
X123580050Y-115543793D01*
X123885607Y-115181356D01*
X124272926Y-114740111D01*
X124689027Y-114279646D01*
X125028724Y-113914522D01*
X125503018Y-113404570D01*
X125929431Y-112923341D01*
X126322509Y-112449121D01*
X126696800Y-111960192D01*
X127066849Y-111434841D01*
X127447204Y-110851350D01*
X127852411Y-110188005D01*
X128297017Y-109423089D01*
X128795568Y-108534887D01*
X129362610Y-107501684D01*
X129526960Y-107199430D01*
X129697120Y-106857715D01*
X129915318Y-106377137D01*
X130167363Y-105793169D01*
X130439060Y-105141287D01*
X130716216Y-104456964D01*
X130984637Y-103775674D01*
X131230132Y-103132894D01*
X131438505Y-102564096D01*
X131595565Y-102104756D01*
X131680902Y-101815901D01*
X131868976Y-100850479D01*
X131985344Y-99779680D01*
X132027276Y-98673934D01*
X131992042Y-97603667D01*
X131880680Y-96660940D01*
X131688153Y-95747223D01*
X131437824Y-94873892D01*
X131140697Y-94062169D01*
X130807780Y-93333274D01*
X130450078Y-92708428D01*
X130078597Y-92208852D01*
X129704343Y-91855766D01*
X129338322Y-91670392D01*
X129286271Y-91658635D01*
X128900873Y-91489759D01*
X128584720Y-91141865D01*
X128411643Y-90807107D01*
X128286324Y-90439006D01*
X128281059Y-90221420D01*
X128388006Y-90153422D01*
X128517850Y-90202505D01*
X128769610Y-90335109D01*
X129103398Y-90529269D01*
X129377930Y-90698511D01*
X129979064Y-91067297D01*
X130442930Y-91326444D01*
X130786098Y-91483119D01*
X131025137Y-91544488D01*
X131176619Y-91517716D01*
X131210132Y-91490849D01*
X131333863Y-91318364D01*
X131499849Y-91030160D01*
X131686418Y-90671532D01*
X131871896Y-90287772D01*
X132034610Y-89924172D01*
X132152889Y-89626026D01*
X132205059Y-89438626D01*
X132204844Y-89412042D01*
X132151957Y-89276698D01*
X132037124Y-89173401D01*
X131837852Y-89098102D01*
X131531652Y-89046753D01*
X131096031Y-89015306D01*
X130508498Y-88999712D01*
X129893029Y-88995911D01*
X129048433Y-89001792D01*
X128375644Y-89022934D01*
X127853703Y-89062354D01*
X127461648Y-89123073D01*
X127178520Y-89208109D01*
X126983359Y-89320481D01*
X126877876Y-89430187D01*
X126670025Y-89613435D01*
X126398710Y-89658977D01*
X126034364Y-89567814D01*
X125798377Y-89466741D01*
X125553798Y-89332878D01*
X125410472Y-89206003D01*
X125374891Y-89084949D01*
X125453546Y-88968548D01*
X125652929Y-88855633D01*
X125979533Y-88745039D01*
X126439850Y-88635597D01*
X127040372Y-88526142D01*
X127787591Y-88415505D01*
X128687999Y-88302521D01*
X129748087Y-88186021D01*
X130974349Y-88064840D01*
X132373277Y-87937811D01*
X133951362Y-87803765D01*
X135715096Y-87661538D01*
X135940114Y-87643819D01*
X137587672Y-87511868D01*
X139053509Y-87388820D01*
X140348787Y-87273297D01*
X141484667Y-87163917D01*
X142472311Y-87059303D01*
X143322880Y-86958074D01*
X144047535Y-86858850D01*
X144657438Y-86760253D01*
X145163749Y-86660902D01*
X145577631Y-86559419D01*
X145910245Y-86454423D01*
X146069119Y-86391889D01*
X146464125Y-86251103D01*
X146768676Y-86199341D01*
X146954278Y-86238588D01*
X146954278Y-86238588D01*
G37*
X146954278Y-86238588D02*
X146998288Y-86327131D01*
X146912594Y-86486051D01*
X146672111Y-86702062D01*
X146301742Y-86961401D01*
X145826389Y-87250302D01*
X145270955Y-87555001D01*
X144660340Y-87861732D01*
X144019448Y-88156732D01*
X143373181Y-88426235D01*
X142846216Y-88622204D01*
X142541989Y-88721590D01*
X142364965Y-88753051D01*
X142262580Y-88719332D01*
X142205156Y-88655669D01*
X142070288Y-88533135D01*
X141851087Y-88437459D01*
X141524367Y-88364486D01*
X141066938Y-88310060D01*
X140455614Y-88270025D01*
X139934403Y-88248703D01*
X139084954Y-88229198D01*
X138409628Y-88236311D01*
X137891010Y-88271719D01*
X137511683Y-88337099D01*
X137254233Y-88434129D01*
X137141128Y-88517807D01*
X137039819Y-88666256D01*
X137027007Y-88846642D01*
X137112506Y-89088386D01*
X137306129Y-89420909D01*
X137571997Y-89809513D01*
X137794154Y-90130036D01*
X137983720Y-90417007D01*
X138101089Y-90610395D01*
X138103976Y-90615818D01*
X138214217Y-90916846D01*
X138322264Y-91385582D01*
X138423998Y-91996586D01*
X138515299Y-92724419D01*
X138592048Y-93543643D01*
X138604650Y-93707597D01*
X138652216Y-94293441D01*
X138701350Y-94736336D01*
X138761818Y-95086314D01*
X138843381Y-95393407D01*
X138955804Y-95707647D01*
X139031444Y-95894696D01*
X139354995Y-96643666D01*
X139727608Y-97451475D01*
X140138249Y-98298406D01*
X140575882Y-99164743D01*
X141029471Y-100030769D01*
X141487982Y-100876767D01*
X141940377Y-101683020D01*
X142375623Y-102429811D01*
X142782683Y-103097423D01*
X143150523Y-103666140D01*
X143468106Y-104116245D01*
X143724398Y-104428020D01*
X143887180Y-104570362D01*
X144229467Y-104864993D01*
X144421112Y-105222025D01*
X144465602Y-105601509D01*
X144366424Y-105963496D01*
X144127064Y-106268037D01*
X143751008Y-106475182D01*
X143720082Y-106484875D01*
X143435010Y-106548670D01*
X143199755Y-106526142D01*
X142937386Y-106424719D01*
X142517751Y-106157180D01*
X142052419Y-105718444D01*
X141551656Y-105122185D01*
X141025726Y-104382079D01*
X140484895Y-103511800D01*
X139939429Y-102525023D01*
X139785213Y-102225666D01*
X139277060Y-101168294D01*
X138853392Y-100153634D01*
X138489497Y-99114291D01*
X138160661Y-97982869D01*
X138001795Y-97362083D01*
X137817724Y-96626284D01*
X137658755Y-96057022D01*
X137503931Y-95633250D01*
X137332297Y-95333921D01*
X137122896Y-95137988D01*
X136854771Y-95024405D01*
X136506968Y-94972123D01*
X136058530Y-94960096D01*
X135615345Y-94965281D01*
X135114945Y-94977467D01*
X134654366Y-94996274D01*
X134284698Y-95019139D01*
X134057027Y-95043495D01*
X134056844Y-95043527D01*
X133835792Y-95068227D01*
X133783931Y-95039893D01*
X133887290Y-94966811D01*
X134131895Y-94857263D01*
X134503772Y-94719533D01*
X134732889Y-94642747D01*
X135663630Y-94291165D01*
X136408414Y-93900421D01*
X136971230Y-93466404D01*
X137356070Y-92985005D01*
X137566925Y-92452114D01*
X137607785Y-91863622D01*
X137590875Y-91699669D01*
X137432695Y-91089249D01*
X137141991Y-90476895D01*
X136752465Y-89911750D01*
X136297815Y-89442955D01*
X135826566Y-89126821D01*
X135201505Y-88920683D01*
X134568244Y-88894266D01*
X133953843Y-89037377D01*
X133385364Y-89339827D01*
X132889871Y-89791426D01*
X132494703Y-90381440D01*
X132278686Y-90915616D01*
X132138581Y-91499588D01*
X132076350Y-92088213D01*
X132093955Y-92636349D01*
X132193359Y-93098853D01*
X132362854Y-93414853D01*
X132503120Y-93611320D01*
X132613940Y-93846684D01*
X132700786Y-94148976D01*
X132769130Y-94546229D01*
X132824444Y-95066475D01*
X132872201Y-95737746D01*
X132895088Y-96141255D01*
X132925561Y-96967285D01*
X132934696Y-97861705D01*
X132923994Y-98784941D01*
X132894960Y-99697420D01*
X132849096Y-100559567D01*
X132787906Y-101331811D01*
X132712894Y-101974578D01*
X132661823Y-102281900D01*
X132431486Y-103225725D01*
X132090256Y-104284106D01*
X131652778Y-105424800D01*
X131133698Y-106615564D01*
X130547659Y-107824155D01*
X129909307Y-109018332D01*
X129233287Y-110165852D01*
X128717427Y-110965970D01*
X127679125Y-112409492D01*
X126524328Y-113831689D01*
X125275779Y-115211851D01*
X123956218Y-116529268D01*
X122588386Y-117763228D01*
X121195023Y-118893022D01*
X119798871Y-119897940D01*
X118422670Y-120757270D01*
X117330729Y-121335996D01*
X116076956Y-121869260D01*
X114830885Y-122260093D01*
X114181101Y-122424889D01*
X113606540Y-122555098D01*
X113130524Y-122646618D01*
X112776376Y-122695343D01*
X112567419Y-122697170D01*
X112519961Y-122666744D01*
X112605479Y-122582251D01*
X112840927Y-122446541D01*
X113194646Y-122274236D01*
X113634978Y-122079957D01*
X114130262Y-121878326D01*
X114644676Y-121685454D01*
X116084468Y-121155632D01*
X117340304Y-120662748D01*
X118411109Y-120207276D01*
X119295810Y-119789693D01*
X119993332Y-119410472D01*
X120423594Y-119129405D01*
X120836272Y-118721089D01*
X121042185Y-118371647D01*
X121252948Y-118023807D01*
X121616958Y-117592040D01*
X122122215Y-117086116D01*
X122535445Y-116680453D01*
X122964021Y-116235713D01*
X123350325Y-115812853D01*
X123580050Y-115543793D01*
X123885607Y-115181356D01*
X124272926Y-114740111D01*
X124689027Y-114279646D01*
X125028724Y-113914522D01*
X125503018Y-113404570D01*
X125929431Y-112923341D01*
X126322509Y-112449121D01*
X126696800Y-111960192D01*
X127066849Y-111434841D01*
X127447204Y-110851350D01*
X127852411Y-110188005D01*
X128297017Y-109423089D01*
X128795568Y-108534887D01*
X129362610Y-107501684D01*
X129526960Y-107199430D01*
X129697120Y-106857715D01*
X129915318Y-106377137D01*
X130167363Y-105793169D01*
X130439060Y-105141287D01*
X130716216Y-104456964D01*
X130984637Y-103775674D01*
X131230132Y-103132894D01*
X131438505Y-102564096D01*
X131595565Y-102104756D01*
X131680902Y-101815901D01*
X131868976Y-100850479D01*
X131985344Y-99779680D01*
X132027276Y-98673934D01*
X131992042Y-97603667D01*
X131880680Y-96660940D01*
X131688153Y-95747223D01*
X131437824Y-94873892D01*
X131140697Y-94062169D01*
X130807780Y-93333274D01*
X130450078Y-92708428D01*
X130078597Y-92208852D01*
X129704343Y-91855766D01*
X129338322Y-91670392D01*
X129286271Y-91658635D01*
X128900873Y-91489759D01*
X128584720Y-91141865D01*
X128411643Y-90807107D01*
X128286324Y-90439006D01*
X128281059Y-90221420D01*
X128388006Y-90153422D01*
X128517850Y-90202505D01*
X128769610Y-90335109D01*
X129103398Y-90529269D01*
X129377930Y-90698511D01*
X129979064Y-91067297D01*
X130442930Y-91326444D01*
X130786098Y-91483119D01*
X131025137Y-91544488D01*
X131176619Y-91517716D01*
X131210132Y-91490849D01*
X131333863Y-91318364D01*
X131499849Y-91030160D01*
X131686418Y-90671532D01*
X131871896Y-90287772D01*
X132034610Y-89924172D01*
X132152889Y-89626026D01*
X132205059Y-89438626D01*
X132204844Y-89412042D01*
X132151957Y-89276698D01*
X132037124Y-89173401D01*
X131837852Y-89098102D01*
X131531652Y-89046753D01*
X131096031Y-89015306D01*
X130508498Y-88999712D01*
X129893029Y-88995911D01*
X129048433Y-89001792D01*
X128375644Y-89022934D01*
X127853703Y-89062354D01*
X127461648Y-89123073D01*
X127178520Y-89208109D01*
X126983359Y-89320481D01*
X126877876Y-89430187D01*
X126670025Y-89613435D01*
X126398710Y-89658977D01*
X126034364Y-89567814D01*
X125798377Y-89466741D01*
X125553798Y-89332878D01*
X125410472Y-89206003D01*
X125374891Y-89084949D01*
X125453546Y-88968548D01*
X125652929Y-88855633D01*
X125979533Y-88745039D01*
X126439850Y-88635597D01*
X127040372Y-88526142D01*
X127787591Y-88415505D01*
X128687999Y-88302521D01*
X129748087Y-88186021D01*
X130974349Y-88064840D01*
X132373277Y-87937811D01*
X133951362Y-87803765D01*
X135715096Y-87661538D01*
X135940114Y-87643819D01*
X137587672Y-87511868D01*
X139053509Y-87388820D01*
X140348787Y-87273297D01*
X141484667Y-87163917D01*
X142472311Y-87059303D01*
X143322880Y-86958074D01*
X144047535Y-86858850D01*
X144657438Y-86760253D01*
X145163749Y-86660902D01*
X145577631Y-86559419D01*
X145910245Y-86454423D01*
X146069119Y-86391889D01*
X146464125Y-86251103D01*
X146768676Y-86199341D01*
X146954278Y-86238588D01*
G36*
X91071555Y-102271383D02*
X91293281Y-102437484D01*
X91487266Y-102772974D01*
X91644034Y-103254949D01*
X91754111Y-103860509D01*
X91764361Y-103945915D01*
X91858608Y-104644386D01*
X91981931Y-105283606D01*
X92150926Y-105933184D01*
X92382187Y-106662730D01*
X92479645Y-106946223D01*
X93338518Y-109204046D01*
X94328935Y-111422199D01*
X95220079Y-113183056D01*
X95848501Y-114299578D01*
X96454980Y-115244341D01*
X97035159Y-116011003D01*
X97522629Y-116535325D01*
X98066277Y-116996725D01*
X98769131Y-117504889D01*
X99607135Y-118045552D01*
X100556234Y-118604444D01*
X101592375Y-119167299D01*
X102691502Y-119719848D01*
X103634790Y-120160603D01*
X104040838Y-120353042D01*
X104266578Y-120482921D01*
X104311479Y-120550448D01*
X104175009Y-120555828D01*
X103856637Y-120499270D01*
X103355832Y-120380980D01*
X103182299Y-120336684D01*
X101819349Y-119900167D01*
X100445803Y-119301249D01*
X99102590Y-118563682D01*
X97830639Y-117711223D01*
X96670879Y-116767626D01*
X96107943Y-116230855D01*
X95448482Y-115512374D01*
X94862978Y-114758656D01*
X94335964Y-113941695D01*
X93851972Y-113033484D01*
X93395534Y-112006017D01*
X92951181Y-110831287D01*
X92673639Y-110012649D01*
X92469127Y-109400726D01*
X92264706Y-108813594D01*
X92074615Y-108290382D01*
X91913095Y-107870218D01*
X91794387Y-107592230D01*
X91787677Y-107578348D01*
X91359570Y-106885835D01*
X90812094Y-106284667D01*
X90189950Y-105823433D01*
X90154581Y-105803162D01*
X89827804Y-105594281D01*
X89677222Y-105416497D01*
X89703104Y-105240825D01*
X89905721Y-105038283D01*
X90163378Y-104858115D01*
X90550966Y-104544030D01*
X90831255Y-104192807D01*
X90972424Y-103847925D01*
X90983079Y-103738071D01*
X90959578Y-103550831D01*
X90898646Y-103250115D01*
X90832137Y-102974845D01*
X90751836Y-102580008D01*
X90762665Y-102342262D01*
X90870080Y-102245583D01*
X91071555Y-102271383D01*
X91071555Y-102271383D01*
G37*
X91071555Y-102271383D02*
X91293281Y-102437484D01*
X91487266Y-102772974D01*
X91644034Y-103254949D01*
X91754111Y-103860509D01*
X91764361Y-103945915D01*
X91858608Y-104644386D01*
X91981931Y-105283606D01*
X92150926Y-105933184D01*
X92382187Y-106662730D01*
X92479645Y-106946223D01*
X93338518Y-109204046D01*
X94328935Y-111422199D01*
X95220079Y-113183056D01*
X95848501Y-114299578D01*
X96454980Y-115244341D01*
X97035159Y-116011003D01*
X97522629Y-116535325D01*
X98066277Y-116996725D01*
X98769131Y-117504889D01*
X99607135Y-118045552D01*
X100556234Y-118604444D01*
X101592375Y-119167299D01*
X102691502Y-119719848D01*
X103634790Y-120160603D01*
X104040838Y-120353042D01*
X104266578Y-120482921D01*
X104311479Y-120550448D01*
X104175009Y-120555828D01*
X103856637Y-120499270D01*
X103355832Y-120380980D01*
X103182299Y-120336684D01*
X101819349Y-119900167D01*
X100445803Y-119301249D01*
X99102590Y-118563682D01*
X97830639Y-117711223D01*
X96670879Y-116767626D01*
X96107943Y-116230855D01*
X95448482Y-115512374D01*
X94862978Y-114758656D01*
X94335964Y-113941695D01*
X93851972Y-113033484D01*
X93395534Y-112006017D01*
X92951181Y-110831287D01*
X92673639Y-110012649D01*
X92469127Y-109400726D01*
X92264706Y-108813594D01*
X92074615Y-108290382D01*
X91913095Y-107870218D01*
X91794387Y-107592230D01*
X91787677Y-107578348D01*
X91359570Y-106885835D01*
X90812094Y-106284667D01*
X90189950Y-105823433D01*
X90154581Y-105803162D01*
X89827804Y-105594281D01*
X89677222Y-105416497D01*
X89703104Y-105240825D01*
X89905721Y-105038283D01*
X90163378Y-104858115D01*
X90550966Y-104544030D01*
X90831255Y-104192807D01*
X90972424Y-103847925D01*
X90983079Y-103738071D01*
X90959578Y-103550831D01*
X90898646Y-103250115D01*
X90832137Y-102974845D01*
X90751836Y-102580008D01*
X90762665Y-102342262D01*
X90870080Y-102245583D01*
X91071555Y-102271383D01*
G36*
X150191280Y-113566670D02*
X150541946Y-113685901D01*
X151030894Y-113875599D01*
X151640598Y-114128380D01*
X152353531Y-114436865D01*
X153152166Y-114793670D01*
X154018977Y-115191415D01*
X154615052Y-115470478D01*
X155682842Y-115970738D01*
X156604750Y-116391315D01*
X157407575Y-116739075D01*
X158118118Y-117020883D01*
X158763178Y-117243604D01*
X159369552Y-117414104D01*
X159964041Y-117539250D01*
X160573445Y-117625905D01*
X161224561Y-117680936D01*
X161944189Y-117711208D01*
X162759129Y-117723588D01*
X163416539Y-117725277D01*
X164277356Y-117722524D01*
X164974150Y-117714140D01*
X165536011Y-117698705D01*
X165992025Y-117674796D01*
X166371282Y-117640992D01*
X166702869Y-117595871D01*
X166941634Y-117552989D01*
X167716137Y-117381699D01*
X168478034Y-117171652D01*
X169252167Y-116912488D01*
X170063379Y-116593846D01*
X170936513Y-116205366D01*
X171896413Y-115736687D01*
X172967921Y-115177448D01*
X174040114Y-114592644D01*
X174512792Y-114333575D01*
X174928479Y-114111106D01*
X175257104Y-113940905D01*
X175468599Y-113838637D01*
X175530996Y-113815857D01*
X175576561Y-113862224D01*
X175473161Y-113995824D01*
X175237700Y-114204911D01*
X174887083Y-114477742D01*
X174438215Y-114802572D01*
X173908001Y-115167658D01*
X173313345Y-115561256D01*
X172671152Y-115971621D01*
X171998327Y-116387009D01*
X171311775Y-116795676D01*
X170901330Y-117032172D01*
X170201662Y-117420647D01*
X169616887Y-117719644D01*
X169101248Y-117946921D01*
X168608985Y-118120237D01*
X168094339Y-118257353D01*
X167511553Y-118376026D01*
X167376235Y-118400265D01*
X166862048Y-118469664D01*
X166208435Y-118526395D01*
X165465915Y-118569007D01*
X164685008Y-118596053D01*
X163916231Y-118606083D01*
X163210105Y-118597649D01*
X162617148Y-118569301D01*
X162354182Y-118544289D01*
X160461510Y-118245615D01*
X158621212Y-117810208D01*
X156796461Y-117226968D01*
X154950430Y-116484793D01*
X153884673Y-115991281D01*
X153131553Y-115616834D01*
X152389269Y-115229324D01*
X151691185Y-114847437D01*
X151070664Y-114489859D01*
X150561068Y-114175278D01*
X150209505Y-113932833D01*
X149982061Y-113732363D01*
X149897587Y-113590700D01*
X149966095Y-113526996D01*
X149996422Y-113525285D01*
X150191280Y-113566670D01*
X150191280Y-113566670D01*
G37*
X150191280Y-113566670D02*
X150541946Y-113685901D01*
X151030894Y-113875599D01*
X151640598Y-114128380D01*
X152353531Y-114436865D01*
X153152166Y-114793670D01*
X154018977Y-115191415D01*
X154615052Y-115470478D01*
X155682842Y-115970738D01*
X156604750Y-116391315D01*
X157407575Y-116739075D01*
X158118118Y-117020883D01*
X158763178Y-117243604D01*
X159369552Y-117414104D01*
X159964041Y-117539250D01*
X160573445Y-117625905D01*
X161224561Y-117680936D01*
X161944189Y-117711208D01*
X162759129Y-117723588D01*
X163416539Y-117725277D01*
X164277356Y-117722524D01*
X164974150Y-117714140D01*
X165536011Y-117698705D01*
X165992025Y-117674796D01*
X166371282Y-117640992D01*
X166702869Y-117595871D01*
X166941634Y-117552989D01*
X167716137Y-117381699D01*
X168478034Y-117171652D01*
X169252167Y-116912488D01*
X170063379Y-116593846D01*
X170936513Y-116205366D01*
X171896413Y-115736687D01*
X172967921Y-115177448D01*
X174040114Y-114592644D01*
X174512792Y-114333575D01*
X174928479Y-114111106D01*
X175257104Y-113940905D01*
X175468599Y-113838637D01*
X175530996Y-113815857D01*
X175576561Y-113862224D01*
X175473161Y-113995824D01*
X175237700Y-114204911D01*
X174887083Y-114477742D01*
X174438215Y-114802572D01*
X173908001Y-115167658D01*
X173313345Y-115561256D01*
X172671152Y-115971621D01*
X171998327Y-116387009D01*
X171311775Y-116795676D01*
X170901330Y-117032172D01*
X170201662Y-117420647D01*
X169616887Y-117719644D01*
X169101248Y-117946921D01*
X168608985Y-118120237D01*
X168094339Y-118257353D01*
X167511553Y-118376026D01*
X167376235Y-118400265D01*
X166862048Y-118469664D01*
X166208435Y-118526395D01*
X165465915Y-118569007D01*
X164685008Y-118596053D01*
X163916231Y-118606083D01*
X163210105Y-118597649D01*
X162617148Y-118569301D01*
X162354182Y-118544289D01*
X160461510Y-118245615D01*
X158621212Y-117810208D01*
X156796461Y-117226968D01*
X154950430Y-116484793D01*
X153884673Y-115991281D01*
X153131553Y-115616834D01*
X152389269Y-115229324D01*
X151691185Y-114847437D01*
X151070664Y-114489859D01*
X150561068Y-114175278D01*
X150209505Y-113932833D01*
X149982061Y-113732363D01*
X149897587Y-113590700D01*
X149966095Y-113526996D01*
X149996422Y-113525285D01*
X150191280Y-113566670D01*
G36*
X182066149Y-102826930D02*
X182076534Y-102845108D01*
X182110687Y-103062946D01*
X182066855Y-103428131D01*
X181953413Y-103915234D01*
X181778733Y-104498824D01*
X181551189Y-105153472D01*
X181279152Y-105853748D01*
X180970997Y-106574224D01*
X180635095Y-107289468D01*
X180570303Y-107419737D01*
X180253621Y-108006797D01*
X179838976Y-108708575D01*
X179349587Y-109489373D01*
X178808671Y-110313496D01*
X178239445Y-111145247D01*
X177665128Y-111948929D01*
X177338397Y-112388724D01*
X176969123Y-112867628D01*
X176631044Y-113286972D01*
X176340003Y-113629046D01*
X176111844Y-113876140D01*
X175962410Y-114010542D01*
X175907543Y-114014543D01*
X175913826Y-113981179D01*
X175980176Y-113857647D01*
X176139818Y-113596703D01*
X176378131Y-113221138D01*
X176680499Y-112753742D01*
X177032302Y-112217305D01*
X177418922Y-111634618D01*
X177420593Y-111632114D01*
X178187805Y-110450543D01*
X178849752Y-109355664D01*
X179434428Y-108294343D01*
X179969826Y-107213444D01*
X180483938Y-106059832D01*
X180928885Y-104972866D01*
X181151007Y-104421595D01*
X181363706Y-103910947D01*
X181551380Y-103477101D01*
X181698426Y-103156239D01*
X181780304Y-102998559D01*
X181912849Y-102798668D01*
X181994730Y-102748401D01*
X182066149Y-102826930D01*
X182066149Y-102826930D01*
G37*
X182066149Y-102826930D02*
X182076534Y-102845108D01*
X182110687Y-103062946D01*
X182066855Y-103428131D01*
X181953413Y-103915234D01*
X181778733Y-104498824D01*
X181551189Y-105153472D01*
X181279152Y-105853748D01*
X180970997Y-106574224D01*
X180635095Y-107289468D01*
X180570303Y-107419737D01*
X180253621Y-108006797D01*
X179838976Y-108708575D01*
X179349587Y-109489373D01*
X178808671Y-110313496D01*
X178239445Y-111145247D01*
X177665128Y-111948929D01*
X177338397Y-112388724D01*
X176969123Y-112867628D01*
X176631044Y-113286972D01*
X176340003Y-113629046D01*
X176111844Y-113876140D01*
X175962410Y-114010542D01*
X175907543Y-114014543D01*
X175913826Y-113981179D01*
X175980176Y-113857647D01*
X176139818Y-113596703D01*
X176378131Y-113221138D01*
X176680499Y-112753742D01*
X177032302Y-112217305D01*
X177418922Y-111634618D01*
X177420593Y-111632114D01*
X178187805Y-110450543D01*
X178849752Y-109355664D01*
X179434428Y-108294343D01*
X179969826Y-107213444D01*
X180483938Y-106059832D01*
X180928885Y-104972866D01*
X181151007Y-104421595D01*
X181363706Y-103910947D01*
X181551380Y-103477101D01*
X181698426Y-103156239D01*
X181780304Y-102998559D01*
X181912849Y-102798668D01*
X181994730Y-102748401D01*
X182066149Y-102826930D01*
G36*
X145272756Y-106112008D02*
X145539962Y-106196060D01*
X145865408Y-106365988D01*
X146261129Y-106630617D01*
X146739160Y-106998771D01*
X147311536Y-107479273D01*
X147990293Y-108080948D01*
X148787467Y-108812619D01*
X148945584Y-108959852D01*
X149860611Y-109800506D01*
X150658911Y-110505299D01*
X151351626Y-111083142D01*
X151949895Y-111542946D01*
X152464858Y-111893623D01*
X152907658Y-112144083D01*
X152955420Y-112167324D01*
X153373890Y-112404141D01*
X153605195Y-112631986D01*
X153654165Y-112863039D01*
X153525630Y-113109481D01*
X153385508Y-113252003D01*
X153122241Y-113442605D01*
X152866026Y-113507557D01*
X152566503Y-113446712D01*
X152173314Y-113259924D01*
X152152378Y-113248427D01*
X151549576Y-112887197D01*
X150851848Y-112421664D01*
X150101350Y-111883609D01*
X149340237Y-111304810D01*
X148610666Y-110717045D01*
X147954790Y-110152094D01*
X147566048Y-109791037D01*
X147159811Y-109411507D01*
X146857190Y-109161885D01*
X146635856Y-109025628D01*
X146479546Y-108986122D01*
X146284640Y-109029435D01*
X146225665Y-109116456D01*
X146295684Y-109322053D01*
X146499665Y-109645103D01*
X146828492Y-110073298D01*
X147273049Y-110594329D01*
X147537021Y-110887060D01*
X148096884Y-111510911D01*
X148519217Y-112011752D01*
X148808838Y-112397136D01*
X148970562Y-112674617D01*
X149009207Y-112851747D01*
X148929589Y-112936080D01*
X148849827Y-112945818D01*
X148582570Y-112869446D01*
X148234927Y-112657337D01*
X147832854Y-112335003D01*
X147402304Y-111927955D01*
X146969236Y-111461702D01*
X146559602Y-110961755D01*
X146199359Y-110453627D01*
X146026480Y-110170828D01*
X145822082Y-109805256D01*
X145697361Y-109539151D01*
X145634571Y-109305192D01*
X145615965Y-109036059D01*
X145623798Y-108664431D01*
X145624439Y-108645640D01*
X145650970Y-107870421D01*
X145208388Y-107415066D01*
X144967095Y-107153994D01*
X144837931Y-106961390D01*
X144791099Y-106774703D01*
X144795545Y-106548392D01*
X144831579Y-106281481D01*
X144909939Y-106151755D01*
X145051755Y-106105009D01*
X145272756Y-106112008D01*
X145272756Y-106112008D01*
G37*
X145272756Y-106112008D02*
X145539962Y-106196060D01*
X145865408Y-106365988D01*
X146261129Y-106630617D01*
X146739160Y-106998771D01*
X147311536Y-107479273D01*
X147990293Y-108080948D01*
X148787467Y-108812619D01*
X148945584Y-108959852D01*
X149860611Y-109800506D01*
X150658911Y-110505299D01*
X151351626Y-111083142D01*
X151949895Y-111542946D01*
X152464858Y-111893623D01*
X152907658Y-112144083D01*
X152955420Y-112167324D01*
X153373890Y-112404141D01*
X153605195Y-112631986D01*
X153654165Y-112863039D01*
X153525630Y-113109481D01*
X153385508Y-113252003D01*
X153122241Y-113442605D01*
X152866026Y-113507557D01*
X152566503Y-113446712D01*
X152173314Y-113259924D01*
X152152378Y-113248427D01*
X151549576Y-112887197D01*
X150851848Y-112421664D01*
X150101350Y-111883609D01*
X149340237Y-111304810D01*
X148610666Y-110717045D01*
X147954790Y-110152094D01*
X147566048Y-109791037D01*
X147159811Y-109411507D01*
X146857190Y-109161885D01*
X146635856Y-109025628D01*
X146479546Y-108986122D01*
X146284640Y-109029435D01*
X146225665Y-109116456D01*
X146295684Y-109322053D01*
X146499665Y-109645103D01*
X146828492Y-110073298D01*
X147273049Y-110594329D01*
X147537021Y-110887060D01*
X148096884Y-111510911D01*
X148519217Y-112011752D01*
X148808838Y-112397136D01*
X148970562Y-112674617D01*
X149009207Y-112851747D01*
X148929589Y-112936080D01*
X148849827Y-112945818D01*
X148582570Y-112869446D01*
X148234927Y-112657337D01*
X147832854Y-112335003D01*
X147402304Y-111927955D01*
X146969236Y-111461702D01*
X146559602Y-110961755D01*
X146199359Y-110453627D01*
X146026480Y-110170828D01*
X145822082Y-109805256D01*
X145697361Y-109539151D01*
X145634571Y-109305192D01*
X145615965Y-109036059D01*
X145623798Y-108664431D01*
X145624439Y-108645640D01*
X145650970Y-107870421D01*
X145208388Y-107415066D01*
X144967095Y-107153994D01*
X144837931Y-106961390D01*
X144791099Y-106774703D01*
X144795545Y-106548392D01*
X144831579Y-106281481D01*
X144909939Y-106151755D01*
X145051755Y-106105009D01*
X145272756Y-106112008D01*
G36*
X181860335Y-93340495D02*
X182006817Y-93598941D01*
X182173699Y-94003796D01*
X182347156Y-94511368D01*
X182513363Y-95077967D01*
X182658495Y-95659901D01*
X182767926Y-96208730D01*
X182827829Y-96626333D01*
X182858476Y-97028177D01*
X182858190Y-97453818D01*
X182825297Y-97942812D01*
X182758119Y-98534713D01*
X182654980Y-99269078D01*
X182631644Y-99424905D01*
X182520290Y-100097232D01*
X182407289Y-100662003D01*
X182297385Y-101107802D01*
X182195323Y-101423212D01*
X182105848Y-101596815D01*
X182033705Y-101617194D01*
X181983639Y-101472932D01*
X181960396Y-101152613D01*
X181959331Y-101042586D01*
X181969549Y-100756744D01*
X181998101Y-100320409D01*
X182041660Y-99775027D01*
X182096904Y-99162041D01*
X182160506Y-98522897D01*
X182164601Y-98483805D01*
X182370045Y-96528637D01*
X182019908Y-95129948D01*
X181895147Y-94610092D01*
X181790308Y-94132277D01*
X181714076Y-93739292D01*
X181675132Y-93473920D01*
X181671919Y-93415155D01*
X181674066Y-93099050D01*
X181860335Y-93340495D01*
X181860335Y-93340495D01*
G37*
X181860335Y-93340495D02*
X182006817Y-93598941D01*
X182173699Y-94003796D01*
X182347156Y-94511368D01*
X182513363Y-95077967D01*
X182658495Y-95659901D01*
X182767926Y-96208730D01*
X182827829Y-96626333D01*
X182858476Y-97028177D01*
X182858190Y-97453818D01*
X182825297Y-97942812D01*
X182758119Y-98534713D01*
X182654980Y-99269078D01*
X182631644Y-99424905D01*
X182520290Y-100097232D01*
X182407289Y-100662003D01*
X182297385Y-101107802D01*
X182195323Y-101423212D01*
X182105848Y-101596815D01*
X182033705Y-101617194D01*
X181983639Y-101472932D01*
X181960396Y-101152613D01*
X181959331Y-101042586D01*
X181969549Y-100756744D01*
X181998101Y-100320409D01*
X182041660Y-99775027D01*
X182096904Y-99162041D01*
X182160506Y-98522897D01*
X182164601Y-98483805D01*
X182370045Y-96528637D01*
X182019908Y-95129948D01*
X181895147Y-94610092D01*
X181790308Y-94132277D01*
X181714076Y-93739292D01*
X181675132Y-93473920D01*
X181671919Y-93415155D01*
X181674066Y-93099050D01*
X181860335Y-93340495D01*
G36*
X117388747Y-87753483D02*
X117814873Y-87772006D01*
X118052416Y-87808532D01*
X118100906Y-87863546D01*
X117959875Y-87937531D01*
X117628853Y-88030970D01*
X117107371Y-88144347D01*
X116394959Y-88278144D01*
X115491148Y-88432845D01*
X115296530Y-88464841D01*
X114709114Y-88566009D01*
X114126050Y-88675464D01*
X113602337Y-88782280D01*
X113192974Y-88875531D01*
X113075237Y-88906125D01*
X112536470Y-89052302D01*
X112077958Y-89169965D01*
X111658559Y-89266921D01*
X111237135Y-89350980D01*
X110772545Y-89429951D01*
X110223647Y-89511644D01*
X109549303Y-89603868D01*
X109057016Y-89668862D01*
X107648062Y-89863864D01*
X106406304Y-90058533D01*
X105305847Y-90257648D01*
X104320799Y-90465989D01*
X103425265Y-90688337D01*
X103200190Y-90750069D01*
X101498675Y-91268546D01*
X99910406Y-91837829D01*
X98445043Y-92452212D01*
X97112248Y-93105988D01*
X95921680Y-93793451D01*
X94883001Y-94508895D01*
X94005870Y-95246613D01*
X93299950Y-96000899D01*
X92774900Y-96766046D01*
X92666097Y-96972345D01*
X92461696Y-97550989D01*
X92338948Y-98277651D01*
X92228853Y-99000763D01*
X92066001Y-99541110D01*
X91849085Y-99902105D01*
X91659399Y-100052520D01*
X91456396Y-100131163D01*
X91334696Y-100130550D01*
X91333347Y-100129292D01*
X91281591Y-99960847D01*
X91287865Y-99645869D01*
X91343801Y-99219208D01*
X91441031Y-98715714D01*
X91571187Y-98170240D01*
X91725902Y-97617636D01*
X91896806Y-97092753D01*
X92075533Y-96630441D01*
X92253713Y-96265553D01*
X92266212Y-96244115D01*
X92472209Y-95944988D01*
X92770826Y-95572241D01*
X93113779Y-95184374D01*
X93309507Y-94980046D01*
X94236993Y-94151020D01*
X95340463Y-93350054D01*
X96604123Y-92582176D01*
X98012179Y-91852410D01*
X99548838Y-91165781D01*
X101198304Y-90527317D01*
X102944786Y-89942042D01*
X104772488Y-89414981D01*
X106665617Y-88951162D01*
X108608379Y-88555608D01*
X110584981Y-88233347D01*
X112579629Y-87989404D01*
X114576528Y-87828803D01*
X115972623Y-87768517D01*
X116774507Y-87752481D01*
X117388747Y-87753483D01*
X117388747Y-87753483D01*
G37*
X117388747Y-87753483D02*
X117814873Y-87772006D01*
X118052416Y-87808532D01*
X118100906Y-87863546D01*
X117959875Y-87937531D01*
X117628853Y-88030970D01*
X117107371Y-88144347D01*
X116394959Y-88278144D01*
X115491148Y-88432845D01*
X115296530Y-88464841D01*
X114709114Y-88566009D01*
X114126050Y-88675464D01*
X113602337Y-88782280D01*
X113192974Y-88875531D01*
X113075237Y-88906125D01*
X112536470Y-89052302D01*
X112077958Y-89169965D01*
X111658559Y-89266921D01*
X111237135Y-89350980D01*
X110772545Y-89429951D01*
X110223647Y-89511644D01*
X109549303Y-89603868D01*
X109057016Y-89668862D01*
X107648062Y-89863864D01*
X106406304Y-90058533D01*
X105305847Y-90257648D01*
X104320799Y-90465989D01*
X103425265Y-90688337D01*
X103200190Y-90750069D01*
X101498675Y-91268546D01*
X99910406Y-91837829D01*
X98445043Y-92452212D01*
X97112248Y-93105988D01*
X95921680Y-93793451D01*
X94883001Y-94508895D01*
X94005870Y-95246613D01*
X93299950Y-96000899D01*
X92774900Y-96766046D01*
X92666097Y-96972345D01*
X92461696Y-97550989D01*
X92338948Y-98277651D01*
X92228853Y-99000763D01*
X92066001Y-99541110D01*
X91849085Y-99902105D01*
X91659399Y-100052520D01*
X91456396Y-100131163D01*
X91334696Y-100130550D01*
X91333347Y-100129292D01*
X91281591Y-99960847D01*
X91287865Y-99645869D01*
X91343801Y-99219208D01*
X91441031Y-98715714D01*
X91571187Y-98170240D01*
X91725902Y-97617636D01*
X91896806Y-97092753D01*
X92075533Y-96630441D01*
X92253713Y-96265553D01*
X92266212Y-96244115D01*
X92472209Y-95944988D01*
X92770826Y-95572241D01*
X93113779Y-95184374D01*
X93309507Y-94980046D01*
X94236993Y-94151020D01*
X95340463Y-93350054D01*
X96604123Y-92582176D01*
X98012179Y-91852410D01*
X99548838Y-91165781D01*
X101198304Y-90527317D01*
X102944786Y-89942042D01*
X104772488Y-89414981D01*
X106665617Y-88951162D01*
X108608379Y-88555608D01*
X110584981Y-88233347D01*
X112579629Y-87989404D01*
X114576528Y-87828803D01*
X115972623Y-87768517D01*
X116774507Y-87752481D01*
X117388747Y-87753483D01*
G36*
X180335239Y-90237494D02*
X180549997Y-90463860D01*
X180784989Y-90793749D01*
X181016701Y-91188388D01*
X181221620Y-91609005D01*
X181376235Y-92016826D01*
X181438085Y-92253993D01*
X181459107Y-92482562D01*
X181395556Y-92553258D01*
X181241424Y-92464607D01*
X180990699Y-92215138D01*
X180909649Y-92124551D01*
X180621200Y-91754873D01*
X180375973Y-91362316D01*
X180185885Y-90978391D01*
X180062852Y-90634608D01*
X180018791Y-90362479D01*
X180065619Y-90193516D01*
X180164228Y-90153422D01*
X180335239Y-90237494D01*
X180335239Y-90237494D01*
G37*
X180335239Y-90237494D02*
X180549997Y-90463860D01*
X180784989Y-90793749D01*
X181016701Y-91188388D01*
X181221620Y-91609005D01*
X181376235Y-92016826D01*
X181438085Y-92253993D01*
X181459107Y-92482562D01*
X181395556Y-92553258D01*
X181241424Y-92464607D01*
X180990699Y-92215138D01*
X180909649Y-92124551D01*
X180621200Y-91754873D01*
X180375973Y-91362316D01*
X180185885Y-90978391D01*
X180062852Y-90634608D01*
X180018791Y-90362479D01*
X180065619Y-90193516D01*
X180164228Y-90153422D01*
X180335239Y-90237494D01*
G36*
X173810224Y-84199955D02*
X174064694Y-84295753D01*
X174425292Y-84465877D01*
X174864161Y-84694772D01*
X175353445Y-84966885D01*
X175865286Y-85266661D01*
X176371827Y-85578546D01*
X176845211Y-85886987D01*
X177257582Y-86176429D01*
X177310088Y-86215471D01*
X177785049Y-86582315D01*
X178175916Y-86914494D01*
X178537389Y-87263693D01*
X178924169Y-87681598D01*
X179219138Y-88019301D01*
X179573342Y-88455339D01*
X179780733Y-88766458D01*
X179844026Y-88950010D01*
X179765937Y-89003345D01*
X179549183Y-88923817D01*
X179196480Y-88708775D01*
X178802521Y-88425544D01*
X178379733Y-88094898D01*
X177897266Y-87699530D01*
X177436509Y-87306663D01*
X177275475Y-87164340D01*
X176935176Y-86869059D01*
X176485757Y-86493005D01*
X175971631Y-86072608D01*
X175437214Y-85644296D01*
X175072161Y-85357193D01*
X174626850Y-85005845D01*
X174243200Y-84694821D01*
X173943914Y-84443224D01*
X173751696Y-84270156D01*
X173689250Y-84194721D01*
X173689740Y-84194037D01*
X173810224Y-84199955D01*
X173810224Y-84199955D01*
G37*
X173810224Y-84199955D02*
X174064694Y-84295753D01*
X174425292Y-84465877D01*
X174864161Y-84694772D01*
X175353445Y-84966885D01*
X175865286Y-85266661D01*
X176371827Y-85578546D01*
X176845211Y-85886987D01*
X177257582Y-86176429D01*
X177310088Y-86215471D01*
X177785049Y-86582315D01*
X178175916Y-86914494D01*
X178537389Y-87263693D01*
X178924169Y-87681598D01*
X179219138Y-88019301D01*
X179573342Y-88455339D01*
X179780733Y-88766458D01*
X179844026Y-88950010D01*
X179765937Y-89003345D01*
X179549183Y-88923817D01*
X179196480Y-88708775D01*
X178802521Y-88425544D01*
X178379733Y-88094898D01*
X177897266Y-87699530D01*
X177436509Y-87306663D01*
X177275475Y-87164340D01*
X176935176Y-86869059D01*
X176485757Y-86493005D01*
X175971631Y-86072608D01*
X175437214Y-85644296D01*
X175072161Y-85357193D01*
X174626850Y-85005845D01*
X174243200Y-84694821D01*
X173943914Y-84443224D01*
X173751696Y-84270156D01*
X173689250Y-84194721D01*
X173689740Y-84194037D01*
X173810224Y-84199955D01*
G36*
X158126192Y-84234516D02*
X158259623Y-84308130D01*
X158416526Y-84444821D01*
X158476048Y-84624807D01*
X158472195Y-84870629D01*
X158409306Y-85175897D01*
X158281292Y-85299781D01*
X158092710Y-85241049D01*
X157875823Y-85032052D01*
X157690020Y-84731509D01*
X157639682Y-84468425D01*
X157707282Y-84275860D01*
X157875294Y-84186870D01*
X158126192Y-84234516D01*
X158126192Y-84234516D01*
G37*
X158126192Y-84234516D02*
X158259623Y-84308130D01*
X158416526Y-84444821D01*
X158476048Y-84624807D01*
X158472195Y-84870629D01*
X158409306Y-85175897D01*
X158281292Y-85299781D01*
X158092710Y-85241049D01*
X157875823Y-85032052D01*
X157690020Y-84731509D01*
X157639682Y-84468425D01*
X157707282Y-84275860D01*
X157875294Y-84186870D01*
X158126192Y-84234516D01*
G36*
X154707007Y-84307544D02*
X154882168Y-84410091D01*
X154917680Y-84502681D01*
X154830311Y-84628682D01*
X154595578Y-84705894D01*
X154254542Y-84728013D01*
X153848266Y-84688735D01*
X153782889Y-84676899D01*
X153597597Y-84606390D01*
X153601796Y-84506309D01*
X153794987Y-84381914D01*
X153811578Y-84374248D01*
X154117217Y-84283295D01*
X154433858Y-84263170D01*
X154707007Y-84307544D01*
X154707007Y-84307544D01*
G37*
X154707007Y-84307544D02*
X154882168Y-84410091D01*
X154917680Y-84502681D01*
X154830311Y-84628682D01*
X154595578Y-84705894D01*
X154254542Y-84728013D01*
X153848266Y-84688735D01*
X153782889Y-84676899D01*
X153597597Y-84606390D01*
X153601796Y-84506309D01*
X153794987Y-84381914D01*
X153811578Y-84374248D01*
X154117217Y-84283295D01*
X154433858Y-84263170D01*
X154707007Y-84307544D01*
D12*
X173599000Y-53400000D03*
X173599000Y-54670000D03*
X173599000Y-55940000D03*
X173599000Y-57210000D03*
X173599000Y-58480000D03*
X174869000Y-58480000D03*
X174869000Y-57210000D03*
X174869000Y-55940000D03*
X174869000Y-54670000D03*
X174869000Y-53400000D03*
D13*
X174234000Y-52130000D03*
X175250000Y-59750000D03*
X173218000Y-59750000D03*
D14*
X151800000Y-152200000D03*
X139100000Y-152200000D03*
D15*
X110500000Y-34500000D03*
D16*
X171750000Y-77650000D03*
X172850000Y-77650000D03*
D17*
X140000000Y-127000000D03*
X137000000Y-127000000D03*
D16*
X90250000Y-81500000D03*
X89150000Y-81500000D03*
X90250000Y-95500000D03*
X89150000Y-95500000D03*
X90250000Y-85500000D03*
X89150000Y-85500000D03*
X90250000Y-91500000D03*
X89150000Y-91500000D03*
D17*
X129300000Y-121750000D03*
X132300000Y-121750000D03*
D18*
X132025000Y-125000000D03*
X129575000Y-125000000D03*
D19*
X90250000Y-83500000D03*
X88350000Y-83500000D03*
X90250000Y-93500000D03*
X88350000Y-93500000D03*
X90250000Y-87500000D03*
X88350000Y-87500000D03*
X90250000Y-89500000D03*
X88350000Y-89500000D03*
X171700000Y-79650000D03*
X173600000Y-79650000D03*
X160950000Y-68050000D03*
X162850000Y-68050000D03*
D20*
X76427360Y-81925580D03*
X80572640Y-81925580D03*
X76427360Y-84074420D03*
X80572640Y-84074420D03*
X75927360Y-92425580D03*
X80072640Y-92425580D03*
X75927360Y-94574420D03*
X80072640Y-94574420D03*
X71927360Y-87425580D03*
X76072640Y-87425580D03*
X71927360Y-89574420D03*
X76072640Y-89574420D03*
X80427360Y-87425580D03*
X84572640Y-87425580D03*
X80427360Y-89574420D03*
X84572640Y-89574420D03*
X186927360Y-87425580D03*
X191072640Y-87425580D03*
X186927360Y-89574420D03*
X191072640Y-89574420D03*
D21*
X135600000Y-123050000D03*
X135600000Y-124000000D03*
X135600000Y-124950000D03*
X138200000Y-124950000D03*
X138200000Y-123050000D03*
D22*
X141500000Y-36700000D03*
X140400000Y-36700000D03*
X139300000Y-36700000D03*
X138200000Y-36700000D03*
X137100000Y-36700000D03*
X136000000Y-36700000D03*
X134900000Y-36700000D03*
X133800000Y-36700000D03*
X132700000Y-36700000D03*
X141500000Y-35600000D03*
X141500000Y-34500000D03*
X141500000Y-33400000D03*
X141500000Y-32300000D03*
X141500000Y-31200000D03*
X141500000Y-29000000D03*
X141500000Y-30100000D03*
X141500000Y-27900000D03*
X140600000Y-35050000D03*
X140600000Y-33950000D03*
X140600000Y-32850000D03*
X140600000Y-31750000D03*
X140600000Y-30650000D03*
X140600000Y-29550000D03*
X140600000Y-28450000D03*
X138750000Y-27900000D03*
X135450000Y-27900000D03*
X132700000Y-27900000D03*
X132700000Y-29000000D03*
X132700000Y-30100000D03*
X132700000Y-31200000D03*
X132700000Y-32300000D03*
X132700000Y-33400000D03*
X132700000Y-34500000D03*
X132700000Y-35600000D03*
X133600000Y-29550000D03*
X133600000Y-28450000D03*
X133600000Y-30650000D03*
X133600000Y-31750000D03*
X133600000Y-32850000D03*
X133600000Y-33950000D03*
X133600000Y-35050000D03*
X139850000Y-35800000D03*
X138750000Y-35800000D03*
X137650000Y-35800000D03*
X136550000Y-35800000D03*
X135450000Y-35800000D03*
X134350000Y-35800000D03*
D16*
X161000000Y-70050000D03*
X162100000Y-70050000D03*
D23*
X121049020Y-34000000D03*
X118950980Y-34000000D03*
D14*
X161100000Y-42100000D03*
X161100000Y-55300000D03*
D15*
X160000000Y-34500000D03*
D24*
X119850000Y-35900000D03*
X118950000Y-35900000D03*
D16*
X133800000Y-38600000D03*
X132700000Y-38600000D03*
D25*
X204825000Y-87750000D03*
X204825000Y-90750000D03*
D10*
G36*
X177113404Y-70919842D02*
X176040942Y-70019940D01*
X176940844Y-68947478D01*
X178013306Y-69847380D01*
X177113404Y-70919842D01*
X177113404Y-70919842D01*
G37*
D26*
X177843464Y-68960784D02*
X177843464Y-68960784D01*
X178000000Y-70750000D02*
X178000000Y-70750000D01*
X178816341Y-69777124D02*
X178816341Y-69777124D01*
X178972877Y-71566341D02*
X178972877Y-71566341D01*
X179789217Y-70593464D02*
X179789217Y-70593464D01*
X179945753Y-72382681D02*
X179945753Y-72382681D01*
X180762094Y-71409804D02*
X180762094Y-71409804D01*
X180918630Y-73199021D02*
X180918630Y-73199021D01*
X181734970Y-72226145D02*
X181734970Y-72226145D01*
D27*
X126750000Y-134250000D03*
X126750000Y-133150000D03*
X146250000Y-132950000D03*
X146250000Y-134050000D03*
X155750000Y-134000000D03*
X155750000Y-132900000D03*
X136500000Y-139950000D03*
X136500000Y-141050000D03*
X146250000Y-141000000D03*
X146250000Y-139900000D03*
X155750000Y-139950000D03*
X155750000Y-141050000D03*
X126750000Y-148250000D03*
X126750000Y-147150000D03*
X126750000Y-140000000D03*
X126750000Y-141100000D03*
X136500000Y-148050000D03*
X136500000Y-146950000D03*
X146250000Y-146950000D03*
X146250000Y-148050000D03*
X136750000Y-134000000D03*
X136750000Y-132900000D03*
D10*
G36*
X191468017Y-126667232D02*
X192313741Y-126359414D01*
X192655761Y-127299106D01*
X191810037Y-127606924D01*
X191468017Y-126667232D01*
X191468017Y-126667232D01*
G37*
G36*
X191844239Y-127700894D02*
X192689963Y-127393076D01*
X193031983Y-128332768D01*
X192186259Y-128640586D01*
X191844239Y-127700894D01*
X191844239Y-127700894D01*
G37*
D27*
X119750000Y-102550000D03*
X119750000Y-101450000D03*
X151750000Y-101200000D03*
X151750000Y-102300000D03*
X155750000Y-148050000D03*
X155750000Y-146950000D03*
D28*
X110250000Y-126050000D03*
X110250000Y-127950000D03*
D29*
X100250000Y-40710000D03*
D30*
X102790000Y-40710000D03*
X100250000Y-43250000D03*
X102790000Y-43250000D03*
X100250000Y-45790000D03*
X102790000Y-45790000D03*
X100250000Y-48330000D03*
X102790000Y-48330000D03*
D31*
X124400000Y-134000000D03*
X124400000Y-130700000D03*
X119600000Y-130700000D03*
X119600000Y-134000000D03*
X153399998Y-141050000D03*
X153399998Y-137750000D03*
X148599998Y-137750000D03*
X148599998Y-141050000D03*
D10*
G36*
X198469045Y-125888802D02*
X200536369Y-125136357D01*
X201152005Y-126827804D01*
X199084681Y-127580249D01*
X198469045Y-125888802D01*
X198469045Y-125888802D01*
G37*
G36*
X197340378Y-122787817D02*
X199407702Y-122035372D01*
X200023338Y-123726819D01*
X197956014Y-124479264D01*
X197340378Y-122787817D01*
X197340378Y-122787817D01*
G37*
G36*
X192829853Y-124429514D02*
X194897177Y-123677069D01*
X195512813Y-125368516D01*
X193445489Y-126120961D01*
X192829853Y-124429514D01*
X192829853Y-124429514D01*
G37*
G36*
X193958520Y-127530499D02*
X196025844Y-126778054D01*
X196641480Y-128469501D01*
X194574156Y-129221946D01*
X193958520Y-127530499D01*
X193958520Y-127530499D01*
G37*
D31*
X143900000Y-141050000D03*
X143900000Y-137750000D03*
X139100000Y-137750000D03*
X139100000Y-141050000D03*
X134066666Y-141050000D03*
X134066666Y-137750000D03*
X129266666Y-137750000D03*
X129266666Y-141050000D03*
X124400000Y-141050000D03*
X124400000Y-137750000D03*
X119600000Y-137750000D03*
X119600000Y-141050000D03*
X153399998Y-148150000D03*
X153399998Y-144850000D03*
X148599998Y-144850000D03*
X148599998Y-148150000D03*
X153399998Y-134000000D03*
X153399998Y-130700000D03*
X148599998Y-130700000D03*
X148599998Y-134000000D03*
X143900000Y-148150000D03*
X143900000Y-144850000D03*
X139100000Y-144850000D03*
X139100000Y-148150000D03*
X143900000Y-134000000D03*
X143900000Y-130700000D03*
X139100000Y-130700000D03*
X139100000Y-134000000D03*
X134066666Y-148150000D03*
X134066666Y-144850000D03*
X129266666Y-144850000D03*
X129266666Y-148150000D03*
X134066666Y-134000000D03*
X134066666Y-130700000D03*
X129266666Y-130700000D03*
X129266666Y-134000000D03*
X124400000Y-148150000D03*
X124400000Y-144850000D03*
X119600000Y-144850000D03*
X119600000Y-148150000D03*
X158900000Y-102150000D03*
X158900000Y-98850000D03*
X154100000Y-98850000D03*
X154100000Y-102150000D03*
X117400000Y-102650000D03*
X117400000Y-99350000D03*
X112600000Y-99350000D03*
X112600000Y-102650000D03*
M02*
