G04 #@! TF.FileFunction,Paste,Top*
%FSLAX46Y46*%
G04 Gerber Fmt 4.6, Leading zero omitted, Abs format (unit mm)*
G04 Created by KiCad (PCBNEW 4.0.6-e0-6349~52~ubuntu16.10.1) date Sat Jun 17 22:57:17 2017*
%MOMM*%
%LPD*%
G01*
G04 APERTURE LIST*
%ADD10C,0.100000*%
%ADD11R,0.600000X0.500000*%
%ADD12R,1.000000X1.600000*%
%ADD13R,1.050000X2.100000*%
%ADD14R,0.700000X1.300000*%
%ADD15R,1.049020X0.647700*%
%ADD16R,1.200000X0.700000*%
%ADD17R,0.500000X0.500000*%
%ADD18R,1.198880X1.198880*%
%ADD19R,0.400000X0.600000*%
%ADD20R,0.500000X0.600000*%
%ADD21R,1.300000X0.700000*%
%ADD22R,1.800000X1.400000*%
G04 APERTURE END LIST*
D10*
D11*
X171750000Y-77650000D03*
X172850000Y-77650000D03*
D12*
X140000000Y-127000000D03*
X137000000Y-127000000D03*
D11*
X90250000Y-81500000D03*
X89150000Y-81500000D03*
X90250000Y-95500000D03*
X89150000Y-95500000D03*
X90250000Y-85500000D03*
X89150000Y-85500000D03*
X90250000Y-91500000D03*
X89150000Y-91500000D03*
D12*
X129300000Y-121750000D03*
X132300000Y-121750000D03*
D13*
X132025000Y-125000000D03*
X129575000Y-125000000D03*
D14*
X90250000Y-83500000D03*
X88350000Y-83500000D03*
X90250000Y-93500000D03*
X88350000Y-93500000D03*
X90250000Y-87500000D03*
X88350000Y-87500000D03*
X90250000Y-89500000D03*
X88350000Y-89500000D03*
X171700000Y-79650000D03*
X173600000Y-79650000D03*
X160950000Y-68050000D03*
X162850000Y-68050000D03*
D15*
X76427360Y-81925580D03*
X80572640Y-81925580D03*
X76427360Y-84074420D03*
X80572640Y-84074420D03*
X75927360Y-92425580D03*
X80072640Y-92425580D03*
X75927360Y-94574420D03*
X80072640Y-94574420D03*
X71927360Y-87425580D03*
X76072640Y-87425580D03*
X71927360Y-89574420D03*
X76072640Y-89574420D03*
X80427360Y-87425580D03*
X84572640Y-87425580D03*
X80427360Y-89574420D03*
X84572640Y-89574420D03*
X186927360Y-87425580D03*
X191072640Y-87425580D03*
X186927360Y-89574420D03*
X191072640Y-89574420D03*
D16*
X135600000Y-123050000D03*
X135600000Y-124000000D03*
X135600000Y-124950000D03*
X138200000Y-124950000D03*
X138200000Y-123050000D03*
D17*
X141500000Y-36700000D03*
X140400000Y-36700000D03*
X139300000Y-36700000D03*
X138200000Y-36700000D03*
X137100000Y-36700000D03*
X136000000Y-36700000D03*
X134900000Y-36700000D03*
X133800000Y-36700000D03*
X132700000Y-36700000D03*
X141500000Y-35600000D03*
X141500000Y-34500000D03*
X141500000Y-33400000D03*
X141500000Y-32300000D03*
X141500000Y-31200000D03*
X141500000Y-29000000D03*
X141500000Y-30100000D03*
X141500000Y-27900000D03*
X140600000Y-35050000D03*
X140600000Y-33950000D03*
X140600000Y-32850000D03*
X140600000Y-31750000D03*
X140600000Y-30650000D03*
X140600000Y-29550000D03*
X140600000Y-28450000D03*
X138750000Y-27900000D03*
X135450000Y-27900000D03*
X132700000Y-27900000D03*
X132700000Y-29000000D03*
X132700000Y-30100000D03*
X132700000Y-31200000D03*
X132700000Y-32300000D03*
X132700000Y-33400000D03*
X132700000Y-34500000D03*
X132700000Y-35600000D03*
X133600000Y-29550000D03*
X133600000Y-28450000D03*
X133600000Y-30650000D03*
X133600000Y-31750000D03*
X133600000Y-32850000D03*
X133600000Y-33950000D03*
X133600000Y-35050000D03*
X139850000Y-35800000D03*
X138750000Y-35800000D03*
X137650000Y-35800000D03*
X136550000Y-35800000D03*
X135450000Y-35800000D03*
X134350000Y-35800000D03*
D11*
X161000000Y-70050000D03*
X162100000Y-70050000D03*
D18*
X121049020Y-34000000D03*
X118950980Y-34000000D03*
D19*
X119850000Y-35900000D03*
X118950000Y-35900000D03*
D11*
X133800000Y-38600000D03*
X132700000Y-38600000D03*
D20*
X126750000Y-134250000D03*
X126750000Y-133150000D03*
X146250000Y-132950000D03*
X146250000Y-134050000D03*
X155750000Y-134000000D03*
X155750000Y-132900000D03*
X136500000Y-139950000D03*
X136500000Y-141050000D03*
X146250000Y-141000000D03*
X146250000Y-139900000D03*
X155750000Y-139950000D03*
X155750000Y-141050000D03*
X126750000Y-148250000D03*
X126750000Y-147150000D03*
X126750000Y-140000000D03*
X126750000Y-141100000D03*
X136500000Y-148050000D03*
X136500000Y-146950000D03*
X146250000Y-146950000D03*
X146250000Y-148050000D03*
X136750000Y-134000000D03*
X136750000Y-132900000D03*
D10*
G36*
X191724360Y-126786766D02*
X192194206Y-126615756D01*
X192399418Y-127179572D01*
X191929572Y-127350582D01*
X191724360Y-126786766D01*
X191724360Y-126786766D01*
G37*
G36*
X192100582Y-127820428D02*
X192570428Y-127649418D01*
X192775640Y-128213234D01*
X192305794Y-128384244D01*
X192100582Y-127820428D01*
X192100582Y-127820428D01*
G37*
D20*
X119750000Y-102550000D03*
X119750000Y-101450000D03*
X151750000Y-101200000D03*
X151750000Y-102300000D03*
X155750000Y-148050000D03*
X155750000Y-146950000D03*
D21*
X110250000Y-126050000D03*
X110250000Y-127950000D03*
D22*
X124400000Y-134000000D03*
X124400000Y-130700000D03*
X119600000Y-130700000D03*
X119600000Y-134000000D03*
X153399998Y-141050000D03*
X153399998Y-137750000D03*
X148599998Y-137750000D03*
X148599998Y-141050000D03*
D10*
G36*
X198725388Y-126008336D02*
X200416834Y-125392700D01*
X200895662Y-126708270D01*
X199204216Y-127323906D01*
X198725388Y-126008336D01*
X198725388Y-126008336D01*
G37*
G36*
X197596721Y-122907351D02*
X199288167Y-122291715D01*
X199766995Y-123607285D01*
X198075549Y-124222921D01*
X197596721Y-122907351D01*
X197596721Y-122907351D01*
G37*
G36*
X193086196Y-124549048D02*
X194777642Y-123933412D01*
X195256470Y-125248982D01*
X193565024Y-125864618D01*
X193086196Y-124549048D01*
X193086196Y-124549048D01*
G37*
G36*
X194214863Y-127650033D02*
X195906309Y-127034397D01*
X196385137Y-128349967D01*
X194693691Y-128965603D01*
X194214863Y-127650033D01*
X194214863Y-127650033D01*
G37*
D22*
X143900000Y-141050000D03*
X143900000Y-137750000D03*
X139100000Y-137750000D03*
X139100000Y-141050000D03*
X134066666Y-141050000D03*
X134066666Y-137750000D03*
X129266666Y-137750000D03*
X129266666Y-141050000D03*
X124400000Y-141050000D03*
X124400000Y-137750000D03*
X119600000Y-137750000D03*
X119600000Y-141050000D03*
X153399998Y-148150000D03*
X153399998Y-144850000D03*
X148599998Y-144850000D03*
X148599998Y-148150000D03*
X153399998Y-134000000D03*
X153399998Y-130700000D03*
X148599998Y-130700000D03*
X148599998Y-134000000D03*
X143900000Y-148150000D03*
X143900000Y-144850000D03*
X139100000Y-144850000D03*
X139100000Y-148150000D03*
X143900000Y-134000000D03*
X143900000Y-130700000D03*
X139100000Y-130700000D03*
X139100000Y-134000000D03*
X134066666Y-148150000D03*
X134066666Y-144850000D03*
X129266666Y-144850000D03*
X129266666Y-148150000D03*
X134066666Y-134000000D03*
X134066666Y-130700000D03*
X129266666Y-130700000D03*
X129266666Y-134000000D03*
X124400000Y-148150000D03*
X124400000Y-144850000D03*
X119600000Y-144850000D03*
X119600000Y-148150000D03*
X158900000Y-102150000D03*
X158900000Y-98850000D03*
X154100000Y-98850000D03*
X154100000Y-102150000D03*
X117400000Y-102650000D03*
X117400000Y-99350000D03*
X112600000Y-99350000D03*
X112600000Y-102650000D03*
M02*
