M48
;DRILL file {KiCad 4.0.6-e0-6349~52~ubuntu16.10.1} date Sat Jun 17 22:57:20 2017
;FORMAT={-:-/ absolute / inch / decimal}
FMAT,2
INCH,TZ
T1C0.016
T2C0.024
T3C0.026
T4C0.030
T5C0.039
T6C0.039
T7C0.035
T8C0.157
%
G90
G05
M72
T1
X3.7303Y-3.4055
X3.7303Y-3.4449
X3.7303Y-3.5335
X3.7303Y-3.4843
X3.7362Y-2.7185
X3.7913Y-2.6949
X3.7913Y-3.1831
X3.8937Y-2.498
X4.122Y-2.687
X4.1929Y-3.0965
X4.2008Y-2.7657
X4.3346Y-3.0965
X4.3386Y-4.9035
X4.4843Y-3.0492
X4.5374Y-3.9075
X4.626Y-5.1476
X4.6299Y-5.4272
X4.6299Y-5.7028
X4.6654Y-1.6575
X4.689Y-1.4744
X4.6899Y-1.5069
X4.6909Y-1.5393
X4.695Y-1.6335
X4.6988Y-3.0472
X4.7124Y-4.0718
X4.7283Y-5.7539
X4.7559Y-5.4626
X4.8002Y-1.7238
X4.8002Y-1.7553
X4.8002Y-1.7868
X4.8002Y-1.8183
X4.8002Y-1.8498
X4.8031Y-5.1949
X4.9134Y-5.4902
X4.9173Y-5.2146
X4.9173Y-5.7657
X4.9488Y-1.5689
X4.9488Y-1.6004
X4.9902Y-5.315
X5.0295Y-5.5906
X5.0295Y-5.8661
X5.0762Y-1.6913
X5.0915Y-4.7334
X5.1417Y-1.378
X5.1417Y-1.3386
X5.1422Y-1.1952
X5.1431Y-1.2445
X5.1457Y-1.6496
X5.1478Y-1.2756
X5.1575Y-1.1319
X5.1575Y-1.4469
X5.1693Y-5.4587
X5.1732Y-5.1949
X5.1811Y-5.7028
X5.2047Y-4.7028
X5.2717Y-5.7697
X5.2756Y-4.7697
X5.2795Y-4.8799
X5.2953Y-1.8563
X5.2987Y-1.5351
X5.2992Y-1.3465
X5.3054Y-1.3077
X5.311Y-1.2451
X5.3268Y-1.2146
X5.3268Y-1.813
X5.3268Y-1.1358
X5.3583Y-1.1752
X5.366Y-1.358
X5.3661Y-1.813
X5.378Y-1.2913
X5.3839Y-5.315
X5.3906Y-1.3335
X5.3949Y-1.5374
X5.4035Y-5.8563
X5.4134Y-1.128
X5.4134Y-5.5807
X5.4213Y-1.3563
X5.4261Y-1.4973
X5.4449Y-1.2854
X5.4449Y-1.3327
X5.4528Y-1.6634
X5.4572Y-1.5021
X5.4587Y-1.7107
X5.4606Y-1.1358
X5.4685Y-1.2303
X5.4921Y-1.3327
X5.4921Y-1.372
X5.5Y-1.128
X5.5276Y-1.5354
X5.5276Y-1.6398
X5.5276Y-1.7146
X5.5276Y-2.0217
X5.5709Y-1.5335
X5.5787Y-5.4783
X5.6378Y-1.4357
X5.6614Y-5.2146
X5.6614Y-5.7697
X5.6654Y-1.4744
X5.6693Y-1.815
X5.6693Y-5.4902
X5.6732Y-1.1909
X5.6732Y-1.2294
X5.6735Y-1.2786
X5.7087Y-1.8513
X5.7579Y-5.315
X5.7579Y-5.5906
X5.7579Y-5.8661
X5.8937Y-1.1949
X5.9134Y-5.1988
X5.9252Y-4.0256
X5.9331Y-5.4547
X5.9724Y-1.1398
X6.0512Y-5.2067
X6.0512Y-5.7657
X6.0551Y-5.4862
X6.063Y-3.9567
X6.0827Y-4.7717
X6.0984Y-2.5118
X6.122Y-5.5906
X6.1319Y-5.3465
X6.1319Y-5.8661
X6.1704Y-2.4705
X6.2441Y-2.6772
X6.2717Y-3.0591
X6.2835Y-2.5472
X6.3583Y-2.4705
X6.3583Y-2.5098
X6.3583Y-2.5492
X6.4173Y-4.0354
X6.4603Y-5.4846
X6.622Y-4.1122
X6.626Y-3.8366
X6.6378Y-3.6437
X6.6457Y-2.6144
X6.685Y-2.5787
X6.7028Y-3.1398
X6.7096Y-2.5492
X6.7717Y-2.2205
X6.9449Y-2.1024
X6.9606Y-2.5861
X7.1063Y-2.9528
X7.3583Y-3.6122
X7.5197Y-3.5965
X7.6181Y-5.1118
X7.628Y-5.0689
X7.811Y-5.042
X7.9016Y-3.4291
X7.937Y-3.7205
T2
X5.9843Y-4.7638
T3
X6.9696Y-2.7533
X7.0017Y-2.715
X7.0079Y-2.7854
X7.04Y-2.7471
X7.0462Y-2.8176
X7.0783Y-2.7793
X7.0845Y-2.8497
X7.1166Y-2.8114
X7.1228Y-2.8819
X7.1549Y-2.8435
T4
X6.3425Y-1.6575
X6.3425Y-2.1772
T5
X6.8196Y-2.3524
X6.8596Y-2.0524
X6.8996Y-2.3524
T6
X3.9469Y-1.6028
X3.9469Y-1.7028
X3.9469Y-1.8028
X3.9469Y-1.9028
X4.0469Y-1.6028
X4.0469Y-1.7028
X4.0469Y-1.8028
X4.0469Y-1.9028
X5.4764Y-5.9921
X5.9764Y-5.9921
T7
X8.064Y-3.4547
X8.064Y-3.5728
T8
X4.3504Y-1.3583
X6.2992Y-1.3583
T0
M30
