G04 #@! TF.FileFunction,Profile,NP*
%FSLAX46Y46*%
G04 Gerber Fmt 4.6, Leading zero omitted, Abs format (unit mm)*
G04 Created by KiCad (PCBNEW 4.0.6-e0-6349~52~ubuntu16.10.1) date Sat Jun 17 22:57:17 2017*
%MOMM*%
%LPD*%
G01*
G04 APERTURE LIST*
%ADD10C,0.100000*%
%ADD11C,0.150000*%
G04 APERTURE END LIST*
D10*
D11*
X167950000Y-155850000D02*
X167800000Y-156000000D01*
X177700000Y-136650000D02*
X174900000Y-137750000D01*
X168000000Y-139850000D02*
X167950000Y-140500000D01*
X170100000Y-139150000D02*
X168000000Y-139850000D01*
X174900000Y-137750000D02*
X170100000Y-139150000D01*
X167400000Y-121450000D02*
X167450000Y-122650000D01*
X167350000Y-120400000D02*
X167400000Y-121450000D01*
X208400000Y-92050000D02*
X208600000Y-91450000D01*
X208200000Y-92650000D02*
X208400000Y-92050000D01*
X207950000Y-93200000D02*
X208200000Y-92650000D01*
X208800000Y-90900000D02*
X208600000Y-91450000D01*
X208900000Y-90500000D02*
X208800000Y-90900000D01*
X182829800Y-134594600D02*
X177700000Y-136650000D01*
X187731400Y-133319520D02*
X188200000Y-132550000D01*
X200863200Y-120802400D02*
X201089260Y-120766840D01*
X197800000Y-121550000D02*
X200863200Y-120802400D01*
X194900000Y-122450000D02*
X197800000Y-121550000D01*
X185800000Y-125250000D02*
X194900000Y-122450000D01*
X185300000Y-125450000D02*
X185800000Y-125250000D01*
X184900000Y-125550000D02*
X185300000Y-125450000D01*
X184505600Y-125323600D02*
X184900000Y-125550000D01*
X184048400Y-125222000D02*
X184505600Y-125323600D01*
X168719500Y-119837200D02*
X168884600Y-119773700D01*
X169570400Y-119583200D02*
X168884600Y-119773700D01*
X170180000Y-119341900D02*
X169570400Y-119583200D01*
X171792900Y-118402100D02*
X170180000Y-119341900D01*
X167450000Y-122650000D02*
X167800000Y-128550000D01*
X167576500Y-120230900D02*
X167350000Y-120400000D01*
X168719500Y-119837200D02*
X167576500Y-120230900D01*
X184912000Y-133705600D02*
X182829200Y-134594600D01*
X185318400Y-133604000D02*
X184912000Y-133705600D01*
X185953400Y-133553200D02*
X185318400Y-133604000D01*
X186093100Y-133527800D02*
X185953400Y-133553200D01*
X186258200Y-133527800D02*
X186093100Y-133527800D01*
X186410600Y-133502400D02*
X186258200Y-133527800D01*
X186677300Y-133502400D02*
X186410600Y-133502400D01*
X186893200Y-133477000D02*
X186677300Y-133502400D01*
X187071000Y-133489700D02*
X186893200Y-133477000D01*
X187299600Y-133502400D02*
X187071000Y-133489700D01*
X187299600Y-133502400D02*
X187731400Y-133324600D01*
X179298600Y-126453900D02*
X167800000Y-128550000D01*
X184048400Y-125222200D02*
X179298600Y-126453900D01*
X167950000Y-140500000D02*
X168000000Y-142200000D01*
X201200000Y-128400000D02*
X202100000Y-128000000D01*
X199200000Y-129150000D02*
X201200000Y-128400000D01*
X196300000Y-129950000D02*
X199200000Y-129150000D01*
X192600000Y-130950000D02*
X196300000Y-129950000D01*
X189900000Y-131950000D02*
X192600000Y-130950000D01*
X188200000Y-132550000D02*
X189900000Y-131950000D01*
X168000000Y-145400000D02*
X168000000Y-142200000D01*
X168000000Y-149300000D02*
X168000000Y-145400000D01*
X168000000Y-151800000D02*
X168000000Y-149300000D01*
X168000000Y-155700000D02*
X168000000Y-151800000D01*
X167950000Y-155850000D02*
X168000000Y-155700000D01*
X163200000Y-156700000D02*
X167800000Y-156000000D01*
X159500000Y-157200000D02*
X163200000Y-156700000D01*
X157000000Y-157500000D02*
X159500000Y-157200000D01*
X153100000Y-157900000D02*
X157000000Y-157500000D01*
X148800000Y-158200000D02*
X153100000Y-157900000D01*
X144700000Y-158500000D02*
X148800000Y-158200000D01*
X140500000Y-158700000D02*
X144700000Y-158500000D01*
X134700000Y-158800000D02*
X140500000Y-158700000D01*
X130700000Y-158900000D02*
X134700000Y-158800000D01*
X128200000Y-158900000D02*
X130700000Y-158900000D01*
X126900000Y-158800000D02*
X128200000Y-158900000D01*
X124700000Y-158700000D02*
X126900000Y-158800000D01*
X122700000Y-158600000D02*
X124700000Y-158700000D01*
X121300000Y-158500000D02*
X122700000Y-158600000D01*
X120000000Y-158400000D02*
X121300000Y-158500000D01*
X117900000Y-158200000D02*
X120000000Y-158400000D01*
X116000000Y-158000000D02*
X117900000Y-158200000D01*
X113000000Y-157500000D02*
X116000000Y-158000000D01*
X109200000Y-156700000D02*
X113000000Y-157500000D01*
X108000000Y-156400000D02*
X109200000Y-156700000D01*
X107300000Y-156200000D02*
X108000000Y-156400000D01*
X107100000Y-156000000D02*
X107300000Y-156200000D01*
X107100000Y-155400000D02*
X107100000Y-156000000D01*
X107000000Y-152700000D02*
X107100000Y-155400000D01*
X106800000Y-149200000D02*
X107000000Y-152700000D01*
X106600000Y-145400000D02*
X106800000Y-149200000D01*
X106400000Y-141300000D02*
X106600000Y-145400000D01*
X106300000Y-138700000D02*
X106400000Y-141300000D01*
X106100000Y-135000000D02*
X106300000Y-138700000D01*
X105900000Y-131400000D02*
X106100000Y-135000000D01*
X105800000Y-129300000D02*
X105900000Y-131400000D01*
X105700000Y-127200000D02*
X105800000Y-129300000D01*
X105600000Y-125300000D02*
X105700000Y-127200000D01*
X105500000Y-123600000D02*
X105600000Y-125300000D01*
X105500000Y-122700000D02*
X105500000Y-123600000D01*
X105400000Y-122600000D02*
X105500000Y-122700000D01*
X104600000Y-122400000D02*
X105400000Y-122600000D01*
X103700000Y-122200000D02*
X104600000Y-122400000D01*
X103000000Y-122000000D02*
X103700000Y-122200000D01*
X101900000Y-121600000D02*
X103000000Y-122000000D01*
X100800000Y-121200000D02*
X101900000Y-121600000D01*
X99500000Y-120600000D02*
X100800000Y-121200000D01*
X98000000Y-119800000D02*
X99500000Y-120600000D01*
X97000000Y-119200000D02*
X98000000Y-119800000D01*
X96200000Y-118600000D02*
X97000000Y-119200000D01*
X95500000Y-118100000D02*
X96200000Y-118600000D01*
X94700000Y-117400000D02*
X95500000Y-118100000D01*
X93600000Y-116400000D02*
X94700000Y-117400000D01*
X92800000Y-115400000D02*
X93600000Y-116400000D01*
X92100000Y-114300000D02*
X92800000Y-115400000D01*
X92000000Y-113900000D02*
X92100000Y-114300000D01*
X91900000Y-112900000D02*
X92000000Y-113900000D01*
X91700000Y-112000000D02*
X91900000Y-112900000D01*
X91400000Y-111500000D02*
X91700000Y-112000000D01*
X91000000Y-111100000D02*
X91400000Y-111500000D01*
X90600000Y-110900000D02*
X91000000Y-111100000D01*
X89900000Y-110600000D02*
X90600000Y-110900000D01*
X88500000Y-110300000D02*
X89900000Y-110600000D01*
X84900000Y-109500000D02*
X88500000Y-110300000D01*
X81900000Y-108700000D02*
X84900000Y-109500000D01*
X80400000Y-108200000D02*
X81900000Y-108700000D01*
X79600000Y-107900000D02*
X80400000Y-108200000D01*
X78000000Y-107300000D02*
X79600000Y-107900000D01*
X89000000Y-55300000D02*
X88900000Y-55800000D01*
X89300000Y-54400000D02*
X89000000Y-55300000D01*
X89600000Y-53700000D02*
X89300000Y-54400000D01*
X90100000Y-52600000D02*
X89600000Y-53700000D01*
X90500000Y-51900000D02*
X90100000Y-52600000D01*
X91100000Y-50900000D02*
X90500000Y-51900000D01*
X91600000Y-50100000D02*
X91100000Y-50900000D01*
X92300000Y-49100000D02*
X91600000Y-50100000D01*
X92800000Y-48500000D02*
X92300000Y-49100000D01*
X93000000Y-48300000D02*
X92800000Y-48500000D01*
X93500000Y-47800000D02*
X93000000Y-48300000D01*
X93800000Y-47200000D02*
X93500000Y-47800000D01*
X94000000Y-45900000D02*
X93800000Y-47200000D01*
X94200000Y-44200000D02*
X94000000Y-45900000D01*
X94500000Y-43100000D02*
X94200000Y-44200000D01*
X95000000Y-41900000D02*
X94500000Y-43100000D01*
X96000000Y-39900000D02*
X95000000Y-41900000D01*
X96900000Y-38500000D02*
X96000000Y-39900000D01*
X97800000Y-37200000D02*
X96900000Y-38500000D01*
X99200000Y-35400000D02*
X97800000Y-37200000D01*
X100400000Y-34100000D02*
X99200000Y-35400000D01*
X101800000Y-32600000D02*
X100400000Y-34100000D01*
X102700000Y-31800000D02*
X101800000Y-32600000D01*
X103600000Y-31100000D02*
X102700000Y-31800000D01*
X104500000Y-30600000D02*
X103600000Y-31100000D01*
X105600000Y-30100000D02*
X104500000Y-30600000D01*
X107300000Y-29500000D02*
X105600000Y-30100000D01*
X109100000Y-28900000D02*
X107300000Y-29500000D01*
X110900000Y-28200000D02*
X109100000Y-28900000D01*
X111700000Y-27900000D02*
X110900000Y-28200000D01*
X113600000Y-27100000D02*
X111700000Y-27900000D01*
X115000000Y-26500000D02*
X113600000Y-27100000D01*
X116600000Y-25800000D02*
X115000000Y-26500000D01*
X117600000Y-25400000D02*
X116600000Y-25800000D01*
X118900000Y-25000000D02*
X117600000Y-25400000D01*
X119800000Y-24700000D02*
X118900000Y-25000000D01*
X120600000Y-24500000D02*
X119800000Y-24700000D01*
X121800000Y-24200000D02*
X120600000Y-24500000D01*
X124600000Y-23600000D02*
X121800000Y-24200000D01*
X126900000Y-23100000D02*
X124600000Y-23600000D01*
X127700000Y-22900000D02*
X126900000Y-23100000D01*
X130100000Y-22300000D02*
X127700000Y-22900000D01*
X131600000Y-21900000D02*
X130100000Y-22300000D01*
X134200000Y-21200000D02*
X131600000Y-21900000D01*
X136900000Y-20500000D02*
X134200000Y-21200000D01*
X77300000Y-107000000D02*
X78000000Y-107300000D01*
X75700000Y-106300000D02*
X77300000Y-107000000D01*
X75000000Y-106000000D02*
X75700000Y-106300000D01*
X74200000Y-105600000D02*
X75000000Y-106000000D01*
X73500000Y-105200000D02*
X74200000Y-105600000D01*
X73000000Y-104900000D02*
X73500000Y-105200000D01*
X71700000Y-104200000D02*
X73000000Y-104900000D01*
X71400000Y-104000000D02*
X71700000Y-104200000D01*
X70900000Y-103700000D02*
X71400000Y-104000000D01*
X69900000Y-103000000D02*
X70900000Y-103700000D01*
X68900000Y-102300000D02*
X69900000Y-103000000D01*
X67900000Y-101500000D02*
X68900000Y-102300000D01*
X67100000Y-100800000D02*
X67900000Y-101500000D01*
X66500000Y-100300000D02*
X67100000Y-100800000D01*
X65900000Y-99700000D02*
X66500000Y-100300000D01*
X65200000Y-99000000D02*
X65900000Y-99700000D01*
X64700000Y-98400000D02*
X65200000Y-99000000D01*
X64000000Y-97600000D02*
X64700000Y-98400000D01*
X63600000Y-97100000D02*
X64000000Y-97600000D01*
X63100000Y-96400000D02*
X63600000Y-97100000D01*
X62800000Y-96000000D02*
X63100000Y-96400000D01*
X62500000Y-95500000D02*
X62800000Y-96000000D01*
X62400000Y-95300000D02*
X62500000Y-95500000D01*
X61900000Y-94500000D02*
X62400000Y-95300000D01*
X61600000Y-94000000D02*
X61900000Y-94500000D01*
X61400000Y-93500000D02*
X61600000Y-94000000D01*
X60900000Y-92500000D02*
X61400000Y-93500000D01*
X60600000Y-91600000D02*
X60900000Y-92500000D01*
X60300000Y-90600000D02*
X60600000Y-91600000D01*
X60100000Y-89300000D02*
X60300000Y-90600000D01*
X60000000Y-88100000D02*
X60100000Y-89300000D01*
X59900000Y-85800000D02*
X60000000Y-88100000D01*
X59900000Y-83400000D02*
X59900000Y-85800000D01*
X59900000Y-82200000D02*
X59900000Y-83400000D01*
X60000000Y-80800000D02*
X59900000Y-82200000D01*
X60100000Y-80000000D02*
X60000000Y-80800000D01*
X60200000Y-79300000D02*
X60100000Y-80000000D01*
X60500000Y-78200000D02*
X60200000Y-79300000D01*
X60900000Y-77500000D02*
X60500000Y-78200000D01*
X61400000Y-76900000D02*
X60900000Y-77500000D01*
X61800000Y-76600000D02*
X61400000Y-76900000D01*
X62300000Y-76300000D02*
X61800000Y-76600000D01*
X62700000Y-76100000D02*
X62300000Y-76300000D01*
X63400000Y-75800000D02*
X62700000Y-76100000D01*
X64800000Y-75400000D02*
X63400000Y-75800000D01*
X65600000Y-75200000D02*
X64800000Y-75400000D01*
X66700000Y-75000000D02*
X65600000Y-75200000D01*
X68900000Y-74600000D02*
X66700000Y-75000000D01*
X71800000Y-74100000D02*
X68900000Y-74600000D01*
X74200000Y-73700000D02*
X71800000Y-74100000D01*
X78500000Y-73100000D02*
X74200000Y-73700000D01*
X79900000Y-72900000D02*
X78500000Y-73100000D01*
X81400000Y-72600000D02*
X79900000Y-72900000D01*
X82200000Y-72300000D02*
X81400000Y-72600000D01*
X82800000Y-71900000D02*
X82200000Y-72300000D01*
X83800000Y-71000000D02*
X82800000Y-71900000D01*
X84900000Y-69900000D02*
X83800000Y-71000000D01*
X86100000Y-68500000D02*
X84900000Y-69900000D01*
X87400000Y-67000000D02*
X86100000Y-68500000D01*
X88100000Y-66300000D02*
X87400000Y-67000000D01*
X88200000Y-64500000D02*
X88100000Y-66300000D01*
X88300000Y-62200000D02*
X88200000Y-64500000D01*
X88400000Y-60200000D02*
X88300000Y-62200000D01*
X88500000Y-58700000D02*
X88400000Y-60200000D01*
X88700000Y-57000000D02*
X88500000Y-58700000D01*
X88900000Y-55800000D02*
X88700000Y-57000000D01*
X138200000Y-20100000D02*
X136900000Y-20500000D01*
X139100000Y-20000000D02*
X138200000Y-20100000D01*
X139600000Y-20000000D02*
X139100000Y-20000000D01*
X141400000Y-20500000D02*
X139600000Y-20000000D01*
X143700000Y-21100000D02*
X141400000Y-20500000D01*
X145500000Y-21500000D02*
X143700000Y-21100000D01*
X147000000Y-21900000D02*
X145500000Y-21500000D01*
X148700000Y-22400000D02*
X147000000Y-21900000D01*
X150900000Y-23000000D02*
X148700000Y-22400000D01*
X152800000Y-23600000D02*
X150900000Y-23000000D01*
X155000000Y-24300000D02*
X152800000Y-23600000D01*
X156700000Y-25000000D02*
X155000000Y-24300000D01*
X158100000Y-25600000D02*
X156700000Y-25000000D01*
X159500000Y-26300000D02*
X158100000Y-25600000D01*
X160500000Y-26900000D02*
X159500000Y-26300000D01*
X161500000Y-27500000D02*
X160500000Y-26900000D01*
X162400000Y-28100000D02*
X161500000Y-27500000D01*
X162700000Y-28400000D02*
X162400000Y-28100000D01*
X163300000Y-28900000D02*
X162700000Y-28400000D01*
X163600000Y-29200000D02*
X163300000Y-28900000D01*
X164000000Y-29700000D02*
X163600000Y-29200000D01*
X164700000Y-30700000D02*
X164000000Y-29700000D01*
X165800000Y-32400000D02*
X164700000Y-30700000D01*
X166800000Y-34300000D02*
X165800000Y-32400000D01*
X167700000Y-36000000D02*
X166800000Y-34300000D01*
X168800000Y-37900000D02*
X167700000Y-36000000D01*
X169800000Y-39600000D02*
X168800000Y-37900000D01*
X170900000Y-41100000D02*
X169800000Y-39600000D01*
X171800000Y-42300000D02*
X170900000Y-41100000D01*
X172500000Y-43100000D02*
X171800000Y-42300000D01*
X173800000Y-44700000D02*
X172500000Y-43100000D01*
X175400000Y-46500000D02*
X173800000Y-44700000D01*
X177000000Y-48300000D02*
X175400000Y-46500000D01*
X178100000Y-49900000D02*
X177000000Y-48300000D01*
X178200000Y-50400000D02*
X178100000Y-49900000D01*
X178100000Y-51000000D02*
X178200000Y-50400000D01*
X177900000Y-51800000D02*
X178100000Y-51000000D01*
X177800000Y-52900000D02*
X177900000Y-51800000D01*
X177800000Y-53800000D02*
X177800000Y-52900000D01*
X177900000Y-54900000D02*
X177800000Y-53800000D01*
X178100000Y-56700000D02*
X177900000Y-54900000D01*
X178200000Y-58300000D02*
X178100000Y-56700000D01*
X178400000Y-60900000D02*
X178200000Y-58300000D01*
X178500000Y-61900000D02*
X178400000Y-60900000D01*
X178700000Y-63300000D02*
X178500000Y-61900000D01*
X178800000Y-64000000D02*
X178700000Y-63300000D01*
X179100000Y-65300000D02*
X178800000Y-64000000D01*
X179500000Y-66200000D02*
X179100000Y-65300000D01*
X179800000Y-66900000D02*
X179500000Y-66200000D01*
X180400000Y-67700000D02*
X179800000Y-66900000D01*
X122250000Y-78000000D02*
X122250000Y-82000000D01*
X151750000Y-82000000D02*
X122250000Y-82000000D01*
X151750000Y-78000000D02*
X151750000Y-82000000D01*
X122250000Y-78000000D02*
X151750000Y-78000000D01*
X181100000Y-68500000D02*
X180400000Y-67700000D01*
X183100000Y-70000000D02*
X181100000Y-68500000D01*
X185500000Y-71400000D02*
X183100000Y-70000000D01*
X188700000Y-72900000D02*
X185500000Y-71400000D01*
X191600000Y-74100000D02*
X188700000Y-72900000D01*
X195400000Y-75700000D02*
X191600000Y-74100000D01*
X197700000Y-76800000D02*
X195400000Y-75700000D01*
X199900000Y-78000000D02*
X197700000Y-76800000D01*
X201600000Y-79200000D02*
X199900000Y-78000000D01*
X203700000Y-80800000D02*
X201600000Y-79200000D01*
X205300000Y-82400000D02*
X203700000Y-80800000D01*
X206400000Y-83700000D02*
X205300000Y-82400000D01*
X207100000Y-84600000D02*
X206400000Y-83700000D01*
X208000000Y-86200000D02*
X207100000Y-84600000D01*
X208600000Y-87500000D02*
X208000000Y-86200000D01*
X208900000Y-88700000D02*
X208600000Y-87500000D01*
X208950000Y-89500000D02*
X208900000Y-88700000D01*
X208900000Y-90500000D02*
X208950000Y-89500000D01*
X207300000Y-94500000D02*
X207950000Y-93200000D01*
X206200000Y-96300000D02*
X207300000Y-94500000D01*
X205500000Y-97400000D02*
X206200000Y-96300000D01*
X203500000Y-100000000D02*
X205500000Y-97400000D01*
X202200000Y-101200000D02*
X203500000Y-100000000D01*
X200800000Y-102400000D02*
X202200000Y-101200000D01*
X197100000Y-104800000D02*
X200800000Y-102400000D01*
X192700000Y-107300000D02*
X197100000Y-104800000D01*
X189600000Y-108700000D02*
X192700000Y-107300000D01*
X188700000Y-108900000D02*
X189600000Y-108700000D01*
X184200000Y-110100000D02*
X188700000Y-108900000D01*
X180400000Y-111500000D02*
X184200000Y-110100000D01*
X178500000Y-112800000D02*
X180400000Y-111500000D01*
X176800000Y-114400000D02*
X178500000Y-112800000D01*
X174300000Y-116600000D02*
X176800000Y-114400000D01*
X171800000Y-118400000D02*
X174300000Y-116600000D01*
X202100000Y-121700000D02*
X201089260Y-120766840D01*
X202800000Y-122700000D02*
X202100000Y-121700000D01*
X203200000Y-124000000D02*
X202800000Y-122700000D01*
X203300000Y-125100000D02*
X203200000Y-124000000D01*
X202700000Y-126900000D02*
X203300000Y-125100000D01*
X202100000Y-128000000D02*
X202700000Y-126900000D01*
M02*
