G04 #@! TF.FileFunction,Legend,Top*
%FSLAX46Y46*%
G04 Gerber Fmt 4.6, Leading zero omitted, Abs format (unit mm)*
G04 Created by KiCad (PCBNEW 4.0.6-e0-6349~52~ubuntu16.10.1) date Sun Jul  9 07:11:00 2017*
%MOMM*%
%LPD*%
G01*
G04 APERTURE LIST*
%ADD10C,0.100000*%
%ADD11C,0.150000*%
%ADD12C,0.203200*%
%ADD13C,0.010000*%
%ADD14C,2.100000*%
%ADD15O,2.100000X2.100000*%
%ADD16C,2.100000*%
G04 APERTURE END LIST*
D10*
D11*
X93237564Y-141479423D02*
X94640192Y-141708846D01*
D12*
X94928942Y-138308975D02*
X94914230Y-139183494D01*
X94914230Y-139183494D02*
X95693653Y-138733494D01*
X95693653Y-138733494D02*
X94928942Y-138308975D01*
D11*
X93809763Y-127006047D02*
X93827390Y-128427204D01*
D12*
X97225750Y-128121186D02*
X96361962Y-128258556D01*
X96361962Y-128258556D02*
X96940471Y-128947996D01*
X96940471Y-128947996D02*
X97225750Y-128121186D01*
D11*
X107633105Y-124376612D02*
X106411159Y-125102456D01*
D12*
X108375359Y-127892513D02*
X107824499Y-127213136D01*
X107824499Y-127213136D02*
X107516681Y-128058860D01*
X107516681Y-128058860D02*
X108375359Y-127892513D01*
D11*
X116710463Y-140349029D02*
X115313956Y-140613169D01*
D12*
X116205445Y-143906761D02*
X115920166Y-143079950D01*
X115920166Y-143079950D02*
X115341657Y-143769390D01*
X115341657Y-143769390D02*
X116205445Y-143906761D01*
D11*
X110772670Y-146809763D02*
X109351513Y-146827390D01*
D12*
X109657531Y-150225750D02*
X109520161Y-149361962D01*
X109520161Y-149361962D02*
X108830721Y-149940471D01*
X108830721Y-149940471D02*
X109657531Y-150225750D01*
D13*
G36*
X103786736Y-127177489D02*
X103992072Y-127196286D01*
X104149286Y-127214316D01*
X104377426Y-127239583D01*
X104636868Y-127267720D01*
X104744858Y-127279260D01*
X104988357Y-127306271D01*
X105200156Y-127331792D01*
X105348713Y-127351933D01*
X105389483Y-127358783D01*
X105510559Y-127379021D01*
X105691652Y-127405015D01*
X105806332Y-127420064D01*
X106028968Y-127458293D01*
X106247721Y-127511534D01*
X106328884Y-127537235D01*
X106508748Y-127600762D01*
X106733116Y-127679206D01*
X106878086Y-127729518D01*
X107362691Y-127919751D01*
X107772353Y-128136242D01*
X108143232Y-128401679D01*
X108511487Y-128738749D01*
X108552079Y-128779839D01*
X108745757Y-128978003D01*
X108913936Y-129151028D01*
X109039760Y-129281509D01*
X109106376Y-129352037D01*
X109109369Y-129355392D01*
X109372830Y-129660130D01*
X109575694Y-129908029D01*
X109734043Y-130122725D01*
X109863962Y-130327856D01*
X109981537Y-130547056D01*
X110102850Y-130803963D01*
X110118107Y-130837747D01*
X110421560Y-131643029D01*
X110619433Y-132477662D01*
X110712644Y-133346268D01*
X110719123Y-133866849D01*
X110703527Y-134244675D01*
X110668329Y-134558141D01*
X110604701Y-134848945D01*
X110503816Y-135158787D01*
X110377886Y-135478666D01*
X110236993Y-135805466D01*
X110097367Y-136103554D01*
X109969524Y-136352067D01*
X109863981Y-136530142D01*
X109815097Y-136595205D01*
X109726960Y-136704331D01*
X109612923Y-136859728D01*
X109558276Y-136938469D01*
X109445820Y-137081203D01*
X109277815Y-137267278D01*
X109082124Y-137466561D01*
X108978066Y-137565969D01*
X108811234Y-137715301D01*
X108647773Y-137845321D01*
X108467251Y-137968949D01*
X108249237Y-138099105D01*
X107973297Y-138248707D01*
X107619001Y-138430676D01*
X107576946Y-138451922D01*
X107139037Y-138670408D01*
X106785293Y-138840860D01*
X106502608Y-138969050D01*
X106277876Y-139060751D01*
X106097992Y-139121733D01*
X105995405Y-139148420D01*
X105854806Y-139187813D01*
X105745295Y-139225123D01*
X105616391Y-139268160D01*
X105427386Y-139325573D01*
X105272866Y-139369847D01*
X105074048Y-139427383D01*
X104903495Y-139480507D01*
X104818905Y-139509969D01*
X104699713Y-139545046D01*
X104516204Y-139586823D01*
X104360490Y-139616749D01*
X104151160Y-139653907D01*
X103964022Y-139687622D01*
X103869594Y-139705001D01*
X103753160Y-139719082D01*
X103555130Y-139735164D01*
X103304990Y-139751097D01*
X103077462Y-139762736D01*
X102815524Y-139775229D01*
X102589972Y-139787115D01*
X102426694Y-139796959D01*
X102354923Y-139802814D01*
X102254745Y-139806875D01*
X102087819Y-139805327D01*
X101965864Y-139801442D01*
X101484541Y-139757479D01*
X100997219Y-139669218D01*
X100539911Y-139545110D01*
X100148631Y-139393604D01*
X100076149Y-139358033D01*
X99951171Y-139304763D01*
X99872356Y-139286229D01*
X99797032Y-139256169D01*
X99788986Y-139244202D01*
X99733459Y-139198282D01*
X99607588Y-139120643D01*
X99464770Y-139042072D01*
X99244019Y-138913643D01*
X99045808Y-138766132D01*
X98847269Y-138578867D01*
X98625535Y-138331174D01*
X98470216Y-138142933D01*
X98185088Y-137742315D01*
X97915929Y-137276135D01*
X97686523Y-136789715D01*
X97524106Y-136340154D01*
X97448596Y-136088911D01*
X97355563Y-135786029D01*
X97261681Y-135485638D01*
X97234461Y-135399757D01*
X97132296Y-135041214D01*
X97057099Y-134681842D01*
X97005846Y-134296529D01*
X96975513Y-133860162D01*
X96963078Y-133347630D01*
X96962400Y-133140002D01*
X96966227Y-132768490D01*
X96967593Y-132736438D01*
X102927216Y-132736438D01*
X102931680Y-132979844D01*
X103002198Y-133232968D01*
X103126693Y-133468194D01*
X103293088Y-133657904D01*
X103489305Y-133774481D01*
X103552207Y-133791069D01*
X103885685Y-133821869D01*
X104181496Y-133789426D01*
X104310122Y-133747472D01*
X104481887Y-133635585D01*
X104578536Y-133504571D01*
X104614080Y-133325641D01*
X104611420Y-133093456D01*
X104575499Y-132857208D01*
X104511261Y-132666086D01*
X104490633Y-132630011D01*
X104355895Y-132485300D01*
X104161290Y-132345681D01*
X103947162Y-132234646D01*
X103753860Y-132175692D01*
X103703534Y-132171663D01*
X103479549Y-132211189D01*
X103250204Y-132313785D01*
X103062456Y-132455479D01*
X103000884Y-132530367D01*
X102927216Y-132736438D01*
X96967593Y-132736438D01*
X96978563Y-132479105D01*
X97002077Y-132242968D01*
X97039442Y-132031198D01*
X97080636Y-131861665D01*
X97143846Y-131615177D01*
X97201532Y-131374305D01*
X97242246Y-131187055D01*
X97245304Y-131171226D01*
X97421566Y-130520537D01*
X97691780Y-129921307D01*
X98050676Y-129382009D01*
X98492982Y-128911121D01*
X98810121Y-128654825D01*
X98960086Y-128558657D01*
X99171527Y-128439335D01*
X99422286Y-128307578D01*
X99690208Y-128174107D01*
X99953136Y-128049640D01*
X100188914Y-127944897D01*
X100375386Y-127870598D01*
X100490394Y-127837462D01*
X100501124Y-127836694D01*
X100606399Y-127813704D01*
X100777937Y-127753017D01*
X100982584Y-127666656D01*
X101029133Y-127645229D01*
X101395327Y-127503050D01*
X101815275Y-127398699D01*
X102021444Y-127362808D01*
X102285538Y-127318888D01*
X102527745Y-127273913D01*
X102714788Y-127234297D01*
X102790869Y-127214506D01*
X102959562Y-127184476D01*
X103204524Y-127167951D01*
X103491625Y-127165450D01*
X103786736Y-127177489D01*
X103786736Y-127177489D01*
G37*
X103786736Y-127177489D02*
X103992072Y-127196286D01*
X104149286Y-127214316D01*
X104377426Y-127239583D01*
X104636868Y-127267720D01*
X104744858Y-127279260D01*
X104988357Y-127306271D01*
X105200156Y-127331792D01*
X105348713Y-127351933D01*
X105389483Y-127358783D01*
X105510559Y-127379021D01*
X105691652Y-127405015D01*
X105806332Y-127420064D01*
X106028968Y-127458293D01*
X106247721Y-127511534D01*
X106328884Y-127537235D01*
X106508748Y-127600762D01*
X106733116Y-127679206D01*
X106878086Y-127729518D01*
X107362691Y-127919751D01*
X107772353Y-128136242D01*
X108143232Y-128401679D01*
X108511487Y-128738749D01*
X108552079Y-128779839D01*
X108745757Y-128978003D01*
X108913936Y-129151028D01*
X109039760Y-129281509D01*
X109106376Y-129352037D01*
X109109369Y-129355392D01*
X109372830Y-129660130D01*
X109575694Y-129908029D01*
X109734043Y-130122725D01*
X109863962Y-130327856D01*
X109981537Y-130547056D01*
X110102850Y-130803963D01*
X110118107Y-130837747D01*
X110421560Y-131643029D01*
X110619433Y-132477662D01*
X110712644Y-133346268D01*
X110719123Y-133866849D01*
X110703527Y-134244675D01*
X110668329Y-134558141D01*
X110604701Y-134848945D01*
X110503816Y-135158787D01*
X110377886Y-135478666D01*
X110236993Y-135805466D01*
X110097367Y-136103554D01*
X109969524Y-136352067D01*
X109863981Y-136530142D01*
X109815097Y-136595205D01*
X109726960Y-136704331D01*
X109612923Y-136859728D01*
X109558276Y-136938469D01*
X109445820Y-137081203D01*
X109277815Y-137267278D01*
X109082124Y-137466561D01*
X108978066Y-137565969D01*
X108811234Y-137715301D01*
X108647773Y-137845321D01*
X108467251Y-137968949D01*
X108249237Y-138099105D01*
X107973297Y-138248707D01*
X107619001Y-138430676D01*
X107576946Y-138451922D01*
X107139037Y-138670408D01*
X106785293Y-138840860D01*
X106502608Y-138969050D01*
X106277876Y-139060751D01*
X106097992Y-139121733D01*
X105995405Y-139148420D01*
X105854806Y-139187813D01*
X105745295Y-139225123D01*
X105616391Y-139268160D01*
X105427386Y-139325573D01*
X105272866Y-139369847D01*
X105074048Y-139427383D01*
X104903495Y-139480507D01*
X104818905Y-139509969D01*
X104699713Y-139545046D01*
X104516204Y-139586823D01*
X104360490Y-139616749D01*
X104151160Y-139653907D01*
X103964022Y-139687622D01*
X103869594Y-139705001D01*
X103753160Y-139719082D01*
X103555130Y-139735164D01*
X103304990Y-139751097D01*
X103077462Y-139762736D01*
X102815524Y-139775229D01*
X102589972Y-139787115D01*
X102426694Y-139796959D01*
X102354923Y-139802814D01*
X102254745Y-139806875D01*
X102087819Y-139805327D01*
X101965864Y-139801442D01*
X101484541Y-139757479D01*
X100997219Y-139669218D01*
X100539911Y-139545110D01*
X100148631Y-139393604D01*
X100076149Y-139358033D01*
X99951171Y-139304763D01*
X99872356Y-139286229D01*
X99797032Y-139256169D01*
X99788986Y-139244202D01*
X99733459Y-139198282D01*
X99607588Y-139120643D01*
X99464770Y-139042072D01*
X99244019Y-138913643D01*
X99045808Y-138766132D01*
X98847269Y-138578867D01*
X98625535Y-138331174D01*
X98470216Y-138142933D01*
X98185088Y-137742315D01*
X97915929Y-137276135D01*
X97686523Y-136789715D01*
X97524106Y-136340154D01*
X97448596Y-136088911D01*
X97355563Y-135786029D01*
X97261681Y-135485638D01*
X97234461Y-135399757D01*
X97132296Y-135041214D01*
X97057099Y-134681842D01*
X97005846Y-134296529D01*
X96975513Y-133860162D01*
X96963078Y-133347630D01*
X96962400Y-133140002D01*
X96966227Y-132768490D01*
X96967593Y-132736438D01*
X102927216Y-132736438D01*
X102931680Y-132979844D01*
X103002198Y-133232968D01*
X103126693Y-133468194D01*
X103293088Y-133657904D01*
X103489305Y-133774481D01*
X103552207Y-133791069D01*
X103885685Y-133821869D01*
X104181496Y-133789426D01*
X104310122Y-133747472D01*
X104481887Y-133635585D01*
X104578536Y-133504571D01*
X104614080Y-133325641D01*
X104611420Y-133093456D01*
X104575499Y-132857208D01*
X104511261Y-132666086D01*
X104490633Y-132630011D01*
X104355895Y-132485300D01*
X104161290Y-132345681D01*
X103947162Y-132234646D01*
X103753860Y-132175692D01*
X103703534Y-132171663D01*
X103479549Y-132211189D01*
X103250204Y-132313785D01*
X103062456Y-132455479D01*
X103000884Y-132530367D01*
X102927216Y-132736438D01*
X96967593Y-132736438D01*
X96978563Y-132479105D01*
X97002077Y-132242968D01*
X97039442Y-132031198D01*
X97080636Y-131861665D01*
X97143846Y-131615177D01*
X97201532Y-131374305D01*
X97242246Y-131187055D01*
X97245304Y-131171226D01*
X97421566Y-130520537D01*
X97691780Y-129921307D01*
X98050676Y-129382009D01*
X98492982Y-128911121D01*
X98810121Y-128654825D01*
X98960086Y-128558657D01*
X99171527Y-128439335D01*
X99422286Y-128307578D01*
X99690208Y-128174107D01*
X99953136Y-128049640D01*
X100188914Y-127944897D01*
X100375386Y-127870598D01*
X100490394Y-127837462D01*
X100501124Y-127836694D01*
X100606399Y-127813704D01*
X100777937Y-127753017D01*
X100982584Y-127666656D01*
X101029133Y-127645229D01*
X101395327Y-127503050D01*
X101815275Y-127398699D01*
X102021444Y-127362808D01*
X102285538Y-127318888D01*
X102527745Y-127273913D01*
X102714788Y-127234297D01*
X102790869Y-127214506D01*
X102959562Y-127184476D01*
X103204524Y-127167951D01*
X103491625Y-127165450D01*
X103786736Y-127177489D01*
%LPC*%
G36*
X101729999Y-131186000D02*
X101761980Y-131164499D01*
X101793673Y-131150043D01*
X101833334Y-131138237D01*
X101847895Y-131134585D01*
X101940067Y-131122262D01*
X102025994Y-131132126D01*
X102105820Y-131164228D01*
X102179695Y-131218618D01*
X102224605Y-131265967D01*
X102264454Y-131319207D01*
X102291905Y-131371715D01*
X102304524Y-131405575D01*
X102324875Y-131457620D01*
X102350946Y-131512826D01*
X102368335Y-131544352D01*
X102381581Y-131562764D01*
X102409611Y-131598607D01*
X102452277Y-131651700D01*
X102509427Y-131721864D01*
X102580914Y-131808918D01*
X102666586Y-131912681D01*
X102766295Y-132032973D01*
X102879892Y-132169615D01*
X103007225Y-132322424D01*
X103148146Y-132491222D01*
X103302506Y-132675828D01*
X103470154Y-132876060D01*
X103650942Y-133091739D01*
X103691169Y-133139701D01*
X103870047Y-133353055D01*
X104036945Y-133552342D01*
X104191627Y-133737274D01*
X104333852Y-133907565D01*
X104463385Y-134062929D01*
X104579987Y-134203079D01*
X104683422Y-134327727D01*
X104773452Y-134436589D01*
X104849837Y-134529376D01*
X104912343Y-134605805D01*
X104960730Y-134665586D01*
X104994761Y-134708434D01*
X105014198Y-134734063D01*
X105017801Y-134739376D01*
X105042249Y-134783388D01*
X105062856Y-134828487D01*
X105073797Y-134860279D01*
X105075081Y-134878255D01*
X105074430Y-134914707D01*
X105071815Y-134970043D01*
X105067201Y-135044670D01*
X105060559Y-135138996D01*
X105051855Y-135253427D01*
X105041058Y-135388370D01*
X105028136Y-135544232D01*
X105013058Y-135721421D01*
X104995790Y-135920342D01*
X104976301Y-136141402D01*
X104954561Y-136385010D01*
X104953223Y-136399920D01*
X104935923Y-136592779D01*
X104918652Y-136785564D01*
X104901583Y-136976325D01*
X104884889Y-137163119D01*
X104868743Y-137343996D01*
X104853318Y-137517010D01*
X104838790Y-137680213D01*
X104825330Y-137831657D01*
X104813113Y-137969397D01*
X104802310Y-138091484D01*
X104793096Y-138195971D01*
X104785645Y-138280912D01*
X104781206Y-138331900D01*
X104742765Y-138775739D01*
X104704095Y-138808187D01*
X104677751Y-138827794D01*
X104659774Y-138832624D01*
X104643395Y-138825210D01*
X104603115Y-138787383D01*
X104573613Y-138741087D01*
X104562759Y-138708246D01*
X104563109Y-138693289D01*
X104565426Y-138656859D01*
X104569575Y-138600476D01*
X104575422Y-138525659D01*
X104582834Y-138433931D01*
X104591674Y-138326812D01*
X104601809Y-138205823D01*
X104613104Y-138072484D01*
X104625426Y-137928319D01*
X104638639Y-137774844D01*
X104652610Y-137613584D01*
X104667204Y-137446057D01*
X104682287Y-137273786D01*
X104697725Y-137098291D01*
X104713383Y-136921092D01*
X104729127Y-136743711D01*
X104744822Y-136567669D01*
X104760335Y-136394485D01*
X104775531Y-136225682D01*
X104790275Y-136062780D01*
X104804432Y-135907300D01*
X104817870Y-135760762D01*
X104830454Y-135624688D01*
X104842048Y-135500599D01*
X104852520Y-135390014D01*
X104861734Y-135294456D01*
X104869557Y-135215444D01*
X104875853Y-135154501D01*
X104879798Y-135118948D01*
X104887248Y-135032881D01*
X104887368Y-134965358D01*
X104880754Y-134920200D01*
X104876373Y-134904408D01*
X104871934Y-134889466D01*
X104866772Y-134874540D01*
X104860227Y-134858801D01*
X104851636Y-134841417D01*
X104840337Y-134821558D01*
X104825668Y-134798392D01*
X104806966Y-134771089D01*
X104783569Y-134738816D01*
X104754816Y-134700745D01*
X104720044Y-134656043D01*
X104678589Y-134603880D01*
X104629793Y-134543425D01*
X104572989Y-134473847D01*
X104507518Y-134394314D01*
X104432718Y-134303996D01*
X104347924Y-134202062D01*
X104252476Y-134087681D01*
X104145711Y-133960022D01*
X104026967Y-133818254D01*
X103895583Y-133661545D01*
X103750895Y-133489066D01*
X103592242Y-133299986D01*
X103539347Y-133236951D01*
X102292573Y-131751103D01*
X102259745Y-131774846D01*
X102161096Y-131841452D01*
X102074397Y-131889689D01*
X101998364Y-131920104D01*
X101931718Y-131933250D01*
X101892138Y-131932722D01*
X101834544Y-131922728D01*
X101785173Y-131904277D01*
X101735352Y-131873523D01*
X101703580Y-131849137D01*
X101628749Y-131776397D01*
X101575122Y-131697299D01*
X101542747Y-131613988D01*
X101531670Y-131528606D01*
X101541941Y-131443294D01*
X101573606Y-131360197D01*
X101626714Y-131281457D01*
X101689473Y-131218945D01*
X101729999Y-131186000D01*
X101729999Y-131186000D01*
G37*
X101729999Y-131186000D02*
X101761980Y-131164499D01*
X101793673Y-131150043D01*
X101833334Y-131138237D01*
X101847895Y-131134585D01*
X101940067Y-131122262D01*
X102025994Y-131132126D01*
X102105820Y-131164228D01*
X102179695Y-131218618D01*
X102224605Y-131265967D01*
X102264454Y-131319207D01*
X102291905Y-131371715D01*
X102304524Y-131405575D01*
X102324875Y-131457620D01*
X102350946Y-131512826D01*
X102368335Y-131544352D01*
X102381581Y-131562764D01*
X102409611Y-131598607D01*
X102452277Y-131651700D01*
X102509427Y-131721864D01*
X102580914Y-131808918D01*
X102666586Y-131912681D01*
X102766295Y-132032973D01*
X102879892Y-132169615D01*
X103007225Y-132322424D01*
X103148146Y-132491222D01*
X103302506Y-132675828D01*
X103470154Y-132876060D01*
X103650942Y-133091739D01*
X103691169Y-133139701D01*
X103870047Y-133353055D01*
X104036945Y-133552342D01*
X104191627Y-133737274D01*
X104333852Y-133907565D01*
X104463385Y-134062929D01*
X104579987Y-134203079D01*
X104683422Y-134327727D01*
X104773452Y-134436589D01*
X104849837Y-134529376D01*
X104912343Y-134605805D01*
X104960730Y-134665586D01*
X104994761Y-134708434D01*
X105014198Y-134734063D01*
X105017801Y-134739376D01*
X105042249Y-134783388D01*
X105062856Y-134828487D01*
X105073797Y-134860279D01*
X105075081Y-134878255D01*
X105074430Y-134914707D01*
X105071815Y-134970043D01*
X105067201Y-135044670D01*
X105060559Y-135138996D01*
X105051855Y-135253427D01*
X105041058Y-135388370D01*
X105028136Y-135544232D01*
X105013058Y-135721421D01*
X104995790Y-135920342D01*
X104976301Y-136141402D01*
X104954561Y-136385010D01*
X104953223Y-136399920D01*
X104935923Y-136592779D01*
X104918652Y-136785564D01*
X104901583Y-136976325D01*
X104884889Y-137163119D01*
X104868743Y-137343996D01*
X104853318Y-137517010D01*
X104838790Y-137680213D01*
X104825330Y-137831657D01*
X104813113Y-137969397D01*
X104802310Y-138091484D01*
X104793096Y-138195971D01*
X104785645Y-138280912D01*
X104781206Y-138331900D01*
X104742765Y-138775739D01*
X104704095Y-138808187D01*
X104677751Y-138827794D01*
X104659774Y-138832624D01*
X104643395Y-138825210D01*
X104603115Y-138787383D01*
X104573613Y-138741087D01*
X104562759Y-138708246D01*
X104563109Y-138693289D01*
X104565426Y-138656859D01*
X104569575Y-138600476D01*
X104575422Y-138525659D01*
X104582834Y-138433931D01*
X104591674Y-138326812D01*
X104601809Y-138205823D01*
X104613104Y-138072484D01*
X104625426Y-137928319D01*
X104638639Y-137774844D01*
X104652610Y-137613584D01*
X104667204Y-137446057D01*
X104682287Y-137273786D01*
X104697725Y-137098291D01*
X104713383Y-136921092D01*
X104729127Y-136743711D01*
X104744822Y-136567669D01*
X104760335Y-136394485D01*
X104775531Y-136225682D01*
X104790275Y-136062780D01*
X104804432Y-135907300D01*
X104817870Y-135760762D01*
X104830454Y-135624688D01*
X104842048Y-135500599D01*
X104852520Y-135390014D01*
X104861734Y-135294456D01*
X104869557Y-135215444D01*
X104875853Y-135154501D01*
X104879798Y-135118948D01*
X104887248Y-135032881D01*
X104887368Y-134965358D01*
X104880754Y-134920200D01*
X104876373Y-134904408D01*
X104871934Y-134889466D01*
X104866772Y-134874540D01*
X104860227Y-134858801D01*
X104851636Y-134841417D01*
X104840337Y-134821558D01*
X104825668Y-134798392D01*
X104806966Y-134771089D01*
X104783569Y-134738816D01*
X104754816Y-134700745D01*
X104720044Y-134656043D01*
X104678589Y-134603880D01*
X104629793Y-134543425D01*
X104572989Y-134473847D01*
X104507518Y-134394314D01*
X104432718Y-134303996D01*
X104347924Y-134202062D01*
X104252476Y-134087681D01*
X104145711Y-133960022D01*
X104026967Y-133818254D01*
X103895583Y-133661545D01*
X103750895Y-133489066D01*
X103592242Y-133299986D01*
X103539347Y-133236951D01*
X102292573Y-131751103D01*
X102259745Y-131774846D01*
X102161096Y-131841452D01*
X102074397Y-131889689D01*
X101998364Y-131920104D01*
X101931718Y-131933250D01*
X101892138Y-131932722D01*
X101834544Y-131922728D01*
X101785173Y-131904277D01*
X101735352Y-131873523D01*
X101703580Y-131849137D01*
X101628749Y-131776397D01*
X101575122Y-131697299D01*
X101542747Y-131613988D01*
X101531670Y-131528606D01*
X101541941Y-131443294D01*
X101573606Y-131360197D01*
X101626714Y-131281457D01*
X101689473Y-131218945D01*
X101729999Y-131186000D01*
G36*
X102291895Y-130789445D02*
X102324750Y-130788625D01*
X102350267Y-130795689D01*
X102351969Y-130796821D01*
X102361111Y-130806905D01*
X102384382Y-130833893D01*
X102421103Y-130876977D01*
X102470590Y-130935344D01*
X102532165Y-131008185D01*
X102605144Y-131094690D01*
X102688846Y-131194049D01*
X102782592Y-131305451D01*
X102885700Y-131428085D01*
X102997487Y-131561143D01*
X103117274Y-131703813D01*
X103244380Y-131855285D01*
X103378121Y-132014750D01*
X103517818Y-132181396D01*
X103662790Y-132354413D01*
X103812354Y-132532991D01*
X103965831Y-132716321D01*
X103990282Y-132745535D01*
X104172877Y-132963715D01*
X104341229Y-133164902D01*
X104495923Y-133349806D01*
X104637543Y-133519134D01*
X104766672Y-133673596D01*
X104883894Y-133813904D01*
X104989792Y-133940765D01*
X105084952Y-134054890D01*
X105169954Y-134156986D01*
X105245386Y-134247765D01*
X105311828Y-134327935D01*
X105369866Y-134398206D01*
X105420083Y-134459288D01*
X105463062Y-134511889D01*
X105499388Y-134556719D01*
X105529643Y-134594488D01*
X105554414Y-134625905D01*
X105574281Y-134651678D01*
X105589828Y-134672519D01*
X105601642Y-134689136D01*
X105610304Y-134702239D01*
X105616399Y-134712537D01*
X105620510Y-134720739D01*
X105623220Y-134727555D01*
X105624568Y-134731782D01*
X105626975Y-134747633D01*
X105627882Y-134774691D01*
X105627207Y-134814133D01*
X105624865Y-134867135D01*
X105620773Y-134934871D01*
X105614847Y-135018519D01*
X105607006Y-135119255D01*
X105597164Y-135238255D01*
X105585238Y-135376696D01*
X105571147Y-135535751D01*
X105554806Y-135716601D01*
X105554743Y-135717280D01*
X105540898Y-135870191D01*
X105527249Y-136022600D01*
X105514004Y-136172039D01*
X105501380Y-136316042D01*
X105489585Y-136452142D01*
X105478836Y-136577868D01*
X105469341Y-136690754D01*
X105461315Y-136788334D01*
X105454969Y-136868138D01*
X105450516Y-136927699D01*
X105450138Y-136933102D01*
X105443141Y-137028043D01*
X105436555Y-137103111D01*
X105429925Y-137161504D01*
X105422793Y-137206426D01*
X105414702Y-137241079D01*
X105405196Y-137268662D01*
X105400859Y-137278509D01*
X105374059Y-137330226D01*
X105348649Y-137369206D01*
X105327009Y-137392173D01*
X105314881Y-137396940D01*
X105297096Y-137386137D01*
X105274445Y-137360003D01*
X105251427Y-137324308D01*
X105238547Y-137299037D01*
X105232338Y-137279810D01*
X105228950Y-137253423D01*
X105228464Y-137216780D01*
X105230956Y-137166787D01*
X105236505Y-137100348D01*
X105245192Y-137014369D01*
X105245964Y-137007120D01*
X105251210Y-136956078D01*
X105258274Y-136884353D01*
X105266939Y-136794262D01*
X105276989Y-136688123D01*
X105288211Y-136568254D01*
X105300387Y-136436972D01*
X105313303Y-136296596D01*
X105326743Y-136149443D01*
X105340490Y-135997830D01*
X105354329Y-135844077D01*
X105358689Y-135795389D01*
X105375590Y-135604725D01*
X105390194Y-135436169D01*
X105402562Y-135288862D01*
X105412757Y-135161943D01*
X105420838Y-135054549D01*
X105426868Y-134965820D01*
X105430909Y-134894896D01*
X105433019Y-134840916D01*
X105433261Y-134803016D01*
X105431696Y-134780338D01*
X105431037Y-134776975D01*
X105417329Y-134720656D01*
X104081499Y-133128676D01*
X103938311Y-132958059D01*
X103797063Y-132789808D01*
X103658656Y-132624992D01*
X103523989Y-132464681D01*
X103393964Y-132309947D01*
X103269480Y-132161858D01*
X103151439Y-132021487D01*
X103040740Y-131889903D01*
X102938285Y-131768176D01*
X102844974Y-131657376D01*
X102761707Y-131558575D01*
X102689385Y-131472842D01*
X102628908Y-131401248D01*
X102581176Y-131344863D01*
X102547092Y-131304757D01*
X102539180Y-131295496D01*
X102465186Y-131208337D01*
X102405262Y-131135887D01*
X102357828Y-131075882D01*
X102321297Y-131026056D01*
X102294087Y-130984146D01*
X102274612Y-130947886D01*
X102261290Y-130915012D01*
X102253323Y-130886753D01*
X102245535Y-130841674D01*
X102248658Y-130813333D01*
X102264466Y-130797261D01*
X102291895Y-130789445D01*
X102291895Y-130789445D01*
G37*
X102291895Y-130789445D02*
X102324750Y-130788625D01*
X102350267Y-130795689D01*
X102351969Y-130796821D01*
X102361111Y-130806905D01*
X102384382Y-130833893D01*
X102421103Y-130876977D01*
X102470590Y-130935344D01*
X102532165Y-131008185D01*
X102605144Y-131094690D01*
X102688846Y-131194049D01*
X102782592Y-131305451D01*
X102885700Y-131428085D01*
X102997487Y-131561143D01*
X103117274Y-131703813D01*
X103244380Y-131855285D01*
X103378121Y-132014750D01*
X103517818Y-132181396D01*
X103662790Y-132354413D01*
X103812354Y-132532991D01*
X103965831Y-132716321D01*
X103990282Y-132745535D01*
X104172877Y-132963715D01*
X104341229Y-133164902D01*
X104495923Y-133349806D01*
X104637543Y-133519134D01*
X104766672Y-133673596D01*
X104883894Y-133813904D01*
X104989792Y-133940765D01*
X105084952Y-134054890D01*
X105169954Y-134156986D01*
X105245386Y-134247765D01*
X105311828Y-134327935D01*
X105369866Y-134398206D01*
X105420083Y-134459288D01*
X105463062Y-134511889D01*
X105499388Y-134556719D01*
X105529643Y-134594488D01*
X105554414Y-134625905D01*
X105574281Y-134651678D01*
X105589828Y-134672519D01*
X105601642Y-134689136D01*
X105610304Y-134702239D01*
X105616399Y-134712537D01*
X105620510Y-134720739D01*
X105623220Y-134727555D01*
X105624568Y-134731782D01*
X105626975Y-134747633D01*
X105627882Y-134774691D01*
X105627207Y-134814133D01*
X105624865Y-134867135D01*
X105620773Y-134934871D01*
X105614847Y-135018519D01*
X105607006Y-135119255D01*
X105597164Y-135238255D01*
X105585238Y-135376696D01*
X105571147Y-135535751D01*
X105554806Y-135716601D01*
X105554743Y-135717280D01*
X105540898Y-135870191D01*
X105527249Y-136022600D01*
X105514004Y-136172039D01*
X105501380Y-136316042D01*
X105489585Y-136452142D01*
X105478836Y-136577868D01*
X105469341Y-136690754D01*
X105461315Y-136788334D01*
X105454969Y-136868138D01*
X105450516Y-136927699D01*
X105450138Y-136933102D01*
X105443141Y-137028043D01*
X105436555Y-137103111D01*
X105429925Y-137161504D01*
X105422793Y-137206426D01*
X105414702Y-137241079D01*
X105405196Y-137268662D01*
X105400859Y-137278509D01*
X105374059Y-137330226D01*
X105348649Y-137369206D01*
X105327009Y-137392173D01*
X105314881Y-137396940D01*
X105297096Y-137386137D01*
X105274445Y-137360003D01*
X105251427Y-137324308D01*
X105238547Y-137299037D01*
X105232338Y-137279810D01*
X105228950Y-137253423D01*
X105228464Y-137216780D01*
X105230956Y-137166787D01*
X105236505Y-137100348D01*
X105245192Y-137014369D01*
X105245964Y-137007120D01*
X105251210Y-136956078D01*
X105258274Y-136884353D01*
X105266939Y-136794262D01*
X105276989Y-136688123D01*
X105288211Y-136568254D01*
X105300387Y-136436972D01*
X105313303Y-136296596D01*
X105326743Y-136149443D01*
X105340490Y-135997830D01*
X105354329Y-135844077D01*
X105358689Y-135795389D01*
X105375590Y-135604725D01*
X105390194Y-135436169D01*
X105402562Y-135288862D01*
X105412757Y-135161943D01*
X105420838Y-135054549D01*
X105426868Y-134965820D01*
X105430909Y-134894896D01*
X105433019Y-134840916D01*
X105433261Y-134803016D01*
X105431696Y-134780338D01*
X105431037Y-134776975D01*
X105417329Y-134720656D01*
X104081499Y-133128676D01*
X103938311Y-132958059D01*
X103797063Y-132789808D01*
X103658656Y-132624992D01*
X103523989Y-132464681D01*
X103393964Y-132309947D01*
X103269480Y-132161858D01*
X103151439Y-132021487D01*
X103040740Y-131889903D01*
X102938285Y-131768176D01*
X102844974Y-131657376D01*
X102761707Y-131558575D01*
X102689385Y-131472842D01*
X102628908Y-131401248D01*
X102581176Y-131344863D01*
X102547092Y-131304757D01*
X102539180Y-131295496D01*
X102465186Y-131208337D01*
X102405262Y-131135887D01*
X102357828Y-131075882D01*
X102321297Y-131026056D01*
X102294087Y-130984146D01*
X102274612Y-130947886D01*
X102261290Y-130915012D01*
X102253323Y-130886753D01*
X102245535Y-130841674D01*
X102248658Y-130813333D01*
X102264466Y-130797261D01*
X102291895Y-130789445D01*
G36*
X102201833Y-132548279D02*
X102278426Y-132519208D01*
X102353939Y-132511196D01*
X102426515Y-132524898D01*
X102441067Y-132530534D01*
X102467906Y-132542871D01*
X102490309Y-132556598D01*
X102512586Y-132575563D01*
X102539047Y-132603614D01*
X102574000Y-132644602D01*
X102588974Y-132662641D01*
X102629426Y-132712622D01*
X102658892Y-132752785D01*
X102681841Y-132790466D01*
X102702744Y-132832996D01*
X102725846Y-132887160D01*
X102774272Y-133004778D01*
X103167735Y-133480990D01*
X103252554Y-133583186D01*
X103341357Y-133689339D01*
X103431459Y-133796296D01*
X103520176Y-133900901D01*
X103604822Y-133999999D01*
X103682714Y-134090435D01*
X103751167Y-134169052D01*
X103803686Y-134228442D01*
X103925511Y-134366640D01*
X104031168Y-134490785D01*
X104121665Y-134602267D01*
X104198008Y-134702468D01*
X104261204Y-134792775D01*
X104312257Y-134874574D01*
X104352176Y-134949250D01*
X104381965Y-135018190D01*
X104386828Y-135031503D01*
X104393942Y-135056070D01*
X104399150Y-135085532D01*
X104402360Y-135121640D01*
X104403477Y-135166151D01*
X104402407Y-135220816D01*
X104399055Y-135287389D01*
X104393327Y-135367623D01*
X104385130Y-135463270D01*
X104374369Y-135576085D01*
X104360949Y-135707820D01*
X104344776Y-135860230D01*
X104339809Y-135906229D01*
X104325734Y-136038741D01*
X104310582Y-136185931D01*
X104294976Y-136341457D01*
X104279538Y-136498979D01*
X104264891Y-136652153D01*
X104251655Y-136794638D01*
X104241136Y-136912255D01*
X104230453Y-137036711D01*
X104222002Y-137140449D01*
X104215682Y-137225727D01*
X104211396Y-137294800D01*
X104209047Y-137349924D01*
X104208536Y-137393356D01*
X104209763Y-137427351D01*
X104212634Y-137454167D01*
X104216712Y-137474723D01*
X104234961Y-137548174D01*
X104299002Y-137594068D01*
X104362456Y-137644933D01*
X104407688Y-137695190D01*
X104438768Y-137750259D01*
X104456986Y-137804469D01*
X104472929Y-137902159D01*
X104468589Y-137993928D01*
X104446628Y-138071027D01*
X104417286Y-138121311D01*
X104372996Y-138174248D01*
X104320146Y-138223663D01*
X104265125Y-138263379D01*
X104227964Y-138282416D01*
X104130924Y-138309950D01*
X104034101Y-138314459D01*
X103938102Y-138295939D01*
X103904822Y-138284020D01*
X103878702Y-138271861D01*
X103855228Y-138255932D01*
X103829699Y-138232105D01*
X103797413Y-138196254D01*
X103775610Y-138170555D01*
X103739233Y-138126230D01*
X103714656Y-138092732D01*
X103698202Y-138063750D01*
X103686199Y-138032973D01*
X103676793Y-138000848D01*
X103663929Y-137925286D01*
X103666576Y-137854922D01*
X103684243Y-137794922D01*
X103698755Y-137770145D01*
X103717340Y-137748464D01*
X103748936Y-137715693D01*
X103789299Y-137676084D01*
X103834187Y-137633894D01*
X103839370Y-137629139D01*
X103886516Y-137585524D01*
X103919660Y-137553092D01*
X103942155Y-137527790D01*
X103957349Y-137505564D01*
X103968593Y-137482361D01*
X103975529Y-137464400D01*
X103987942Y-137425131D01*
X104000330Y-137374742D01*
X104012791Y-137312328D01*
X104025425Y-137236979D01*
X104038331Y-137147787D01*
X104051606Y-137043847D01*
X104065350Y-136924250D01*
X104079662Y-136788090D01*
X104094641Y-136634458D01*
X104110385Y-136462448D01*
X104126995Y-136271150D01*
X104144566Y-136059660D01*
X104163201Y-135827069D01*
X104182997Y-135572468D01*
X104186156Y-135531231D01*
X104194714Y-135417337D01*
X104201312Y-135323931D01*
X104206003Y-135248504D01*
X104208842Y-135188542D01*
X104209885Y-135141533D01*
X104209187Y-135104964D01*
X104206802Y-135076323D01*
X104202784Y-135053098D01*
X104197188Y-135032775D01*
X104197030Y-135032287D01*
X104174945Y-134964349D01*
X103427159Y-134068039D01*
X102679374Y-133171728D01*
X102614539Y-133216344D01*
X102511626Y-133276153D01*
X102409899Y-133313035D01*
X102308999Y-133327104D01*
X102267958Y-133326316D01*
X102202182Y-133318553D01*
X102150042Y-133302651D01*
X102104721Y-133275027D01*
X102059399Y-133232098D01*
X102034437Y-133203570D01*
X102000207Y-133161296D01*
X101977850Y-133128472D01*
X101963272Y-133097860D01*
X101952387Y-133062222D01*
X101950635Y-133055249D01*
X101937486Y-132957315D01*
X101947017Y-132863278D01*
X101979038Y-132773867D01*
X102033356Y-132689808D01*
X102052843Y-132666990D01*
X102126019Y-132597758D01*
X102201833Y-132548279D01*
X102201833Y-132548279D01*
G37*
X102201833Y-132548279D02*
X102278426Y-132519208D01*
X102353939Y-132511196D01*
X102426515Y-132524898D01*
X102441067Y-132530534D01*
X102467906Y-132542871D01*
X102490309Y-132556598D01*
X102512586Y-132575563D01*
X102539047Y-132603614D01*
X102574000Y-132644602D01*
X102588974Y-132662641D01*
X102629426Y-132712622D01*
X102658892Y-132752785D01*
X102681841Y-132790466D01*
X102702744Y-132832996D01*
X102725846Y-132887160D01*
X102774272Y-133004778D01*
X103167735Y-133480990D01*
X103252554Y-133583186D01*
X103341357Y-133689339D01*
X103431459Y-133796296D01*
X103520176Y-133900901D01*
X103604822Y-133999999D01*
X103682714Y-134090435D01*
X103751167Y-134169052D01*
X103803686Y-134228442D01*
X103925511Y-134366640D01*
X104031168Y-134490785D01*
X104121665Y-134602267D01*
X104198008Y-134702468D01*
X104261204Y-134792775D01*
X104312257Y-134874574D01*
X104352176Y-134949250D01*
X104381965Y-135018190D01*
X104386828Y-135031503D01*
X104393942Y-135056070D01*
X104399150Y-135085532D01*
X104402360Y-135121640D01*
X104403477Y-135166151D01*
X104402407Y-135220816D01*
X104399055Y-135287389D01*
X104393327Y-135367623D01*
X104385130Y-135463270D01*
X104374369Y-135576085D01*
X104360949Y-135707820D01*
X104344776Y-135860230D01*
X104339809Y-135906229D01*
X104325734Y-136038741D01*
X104310582Y-136185931D01*
X104294976Y-136341457D01*
X104279538Y-136498979D01*
X104264891Y-136652153D01*
X104251655Y-136794638D01*
X104241136Y-136912255D01*
X104230453Y-137036711D01*
X104222002Y-137140449D01*
X104215682Y-137225727D01*
X104211396Y-137294800D01*
X104209047Y-137349924D01*
X104208536Y-137393356D01*
X104209763Y-137427351D01*
X104212634Y-137454167D01*
X104216712Y-137474723D01*
X104234961Y-137548174D01*
X104299002Y-137594068D01*
X104362456Y-137644933D01*
X104407688Y-137695190D01*
X104438768Y-137750259D01*
X104456986Y-137804469D01*
X104472929Y-137902159D01*
X104468589Y-137993928D01*
X104446628Y-138071027D01*
X104417286Y-138121311D01*
X104372996Y-138174248D01*
X104320146Y-138223663D01*
X104265125Y-138263379D01*
X104227964Y-138282416D01*
X104130924Y-138309950D01*
X104034101Y-138314459D01*
X103938102Y-138295939D01*
X103904822Y-138284020D01*
X103878702Y-138271861D01*
X103855228Y-138255932D01*
X103829699Y-138232105D01*
X103797413Y-138196254D01*
X103775610Y-138170555D01*
X103739233Y-138126230D01*
X103714656Y-138092732D01*
X103698202Y-138063750D01*
X103686199Y-138032973D01*
X103676793Y-138000848D01*
X103663929Y-137925286D01*
X103666576Y-137854922D01*
X103684243Y-137794922D01*
X103698755Y-137770145D01*
X103717340Y-137748464D01*
X103748936Y-137715693D01*
X103789299Y-137676084D01*
X103834187Y-137633894D01*
X103839370Y-137629139D01*
X103886516Y-137585524D01*
X103919660Y-137553092D01*
X103942155Y-137527790D01*
X103957349Y-137505564D01*
X103968593Y-137482361D01*
X103975529Y-137464400D01*
X103987942Y-137425131D01*
X104000330Y-137374742D01*
X104012791Y-137312328D01*
X104025425Y-137236979D01*
X104038331Y-137147787D01*
X104051606Y-137043847D01*
X104065350Y-136924250D01*
X104079662Y-136788090D01*
X104094641Y-136634458D01*
X104110385Y-136462448D01*
X104126995Y-136271150D01*
X104144566Y-136059660D01*
X104163201Y-135827069D01*
X104182997Y-135572468D01*
X104186156Y-135531231D01*
X104194714Y-135417337D01*
X104201312Y-135323931D01*
X104206003Y-135248504D01*
X104208842Y-135188542D01*
X104209885Y-135141533D01*
X104209187Y-135104964D01*
X104206802Y-135076323D01*
X104202784Y-135053098D01*
X104197188Y-135032775D01*
X104197030Y-135032287D01*
X104174945Y-134964349D01*
X103427159Y-134068039D01*
X102679374Y-133171728D01*
X102614539Y-133216344D01*
X102511626Y-133276153D01*
X102409899Y-133313035D01*
X102308999Y-133327104D01*
X102267958Y-133326316D01*
X102202182Y-133318553D01*
X102150042Y-133302651D01*
X102104721Y-133275027D01*
X102059399Y-133232098D01*
X102034437Y-133203570D01*
X102000207Y-133161296D01*
X101977850Y-133128472D01*
X101963272Y-133097860D01*
X101952387Y-133062222D01*
X101950635Y-133055249D01*
X101937486Y-132957315D01*
X101947017Y-132863278D01*
X101979038Y-132773867D01*
X102033356Y-132689808D01*
X102052843Y-132666990D01*
X102126019Y-132597758D01*
X102201833Y-132548279D01*
G36*
X98543246Y-129857433D02*
X98561810Y-129848502D01*
X98584368Y-129846141D01*
X98617289Y-129849618D01*
X98662866Y-129857460D01*
X98715714Y-129865791D01*
X98790496Y-129875711D01*
X98886114Y-129887119D01*
X99001473Y-129899914D01*
X99135477Y-129913994D01*
X99287028Y-129929260D01*
X99455032Y-129945608D01*
X99638391Y-129962939D01*
X99836011Y-129981151D01*
X100046793Y-130000143D01*
X100269644Y-130019815D01*
X100503466Y-130040064D01*
X100747162Y-130060788D01*
X100999637Y-130081889D01*
X101259796Y-130103263D01*
X101526542Y-130124811D01*
X101766125Y-130143857D01*
X101917317Y-130156155D01*
X102048406Y-130167601D01*
X102158896Y-130178139D01*
X102248290Y-130187716D01*
X102316093Y-130196280D01*
X102361808Y-130203778D01*
X102384504Y-130209947D01*
X102390125Y-130212932D01*
X102396724Y-130217378D01*
X102404911Y-130223993D01*
X102415291Y-130233489D01*
X102428470Y-130246575D01*
X102445058Y-130263961D01*
X102465658Y-130286359D01*
X102490880Y-130314476D01*
X102521329Y-130349024D01*
X102557613Y-130390713D01*
X102600337Y-130440252D01*
X102650111Y-130498351D01*
X102707540Y-130565723D01*
X102773231Y-130643074D01*
X102847792Y-130731116D01*
X102931829Y-130830560D01*
X103025948Y-130942114D01*
X103130757Y-131066489D01*
X103246863Y-131204396D01*
X103374872Y-131356544D01*
X103515392Y-131523642D01*
X103669030Y-131706402D01*
X103836392Y-131905534D01*
X103989879Y-132088182D01*
X104169051Y-132301399D01*
X104333983Y-132497656D01*
X104485292Y-132677671D01*
X104623592Y-132842163D01*
X104749499Y-132991851D01*
X104863629Y-133127452D01*
X104966598Y-133249686D01*
X105059020Y-133359271D01*
X105141511Y-133456924D01*
X105214687Y-133543364D01*
X105279163Y-133619310D01*
X105335556Y-133685480D01*
X105384479Y-133742594D01*
X105426548Y-133791368D01*
X105462381Y-133832521D01*
X105492592Y-133866773D01*
X105517795Y-133894841D01*
X105538608Y-133917444D01*
X105555645Y-133935299D01*
X105569522Y-133949126D01*
X105580855Y-133959643D01*
X105590259Y-133967569D01*
X105598348Y-133973620D01*
X105605740Y-133978518D01*
X105613050Y-133982978D01*
X105613557Y-133983283D01*
X105640031Y-133998850D01*
X105665069Y-134012365D01*
X105690578Y-134024088D01*
X105718459Y-134034282D01*
X105750619Y-134043205D01*
X105788961Y-134051123D01*
X105835389Y-134058295D01*
X105891808Y-134064982D01*
X105960120Y-134071446D01*
X106042232Y-134077948D01*
X106140045Y-134084750D01*
X106255466Y-134092112D01*
X106390397Y-134100298D01*
X106523606Y-134108200D01*
X106701688Y-134118976D01*
X106858415Y-134129075D01*
X106995504Y-134138705D01*
X107114674Y-134148072D01*
X107217644Y-134157383D01*
X107306131Y-134166844D01*
X107381853Y-134176663D01*
X107446531Y-134187046D01*
X107501880Y-134198198D01*
X107549621Y-134210329D01*
X107591470Y-134223644D01*
X107629147Y-134238349D01*
X107638079Y-134242251D01*
X107677727Y-134261866D01*
X107713173Y-134282624D01*
X107727723Y-134292925D01*
X107743960Y-134308621D01*
X107746775Y-134321783D01*
X107733942Y-134335165D01*
X107703234Y-134351525D01*
X107667774Y-134367134D01*
X107609185Y-134386274D01*
X107542017Y-134396604D01*
X107462816Y-134398243D01*
X107368131Y-134391314D01*
X107284980Y-134380582D01*
X107242317Y-134375038D01*
X107179195Y-134367862D01*
X107098167Y-134359302D01*
X107001791Y-134349605D01*
X106892621Y-134339018D01*
X106773211Y-134327789D01*
X106646117Y-134316165D01*
X106513893Y-134304392D01*
X106379096Y-134292721D01*
X106363510Y-134291393D01*
X106209724Y-134278218D01*
X106077287Y-134266634D01*
X105964528Y-134256446D01*
X105869775Y-134247465D01*
X105791356Y-134239498D01*
X105727597Y-134232354D01*
X105676829Y-134225840D01*
X105637377Y-134219765D01*
X105607571Y-134213938D01*
X105585738Y-134208165D01*
X105570206Y-134202257D01*
X105565511Y-134199882D01*
X105559212Y-134196132D01*
X105552065Y-134191076D01*
X105543463Y-134184005D01*
X105532798Y-134174208D01*
X105519465Y-134160976D01*
X105502855Y-134143599D01*
X105482360Y-134121366D01*
X105457375Y-134093567D01*
X105427291Y-134059492D01*
X105391501Y-134018431D01*
X105349398Y-133969675D01*
X105300375Y-133912512D01*
X105243825Y-133846232D01*
X105179142Y-133770127D01*
X105105714Y-133683485D01*
X105022940Y-133585595D01*
X104930208Y-133475750D01*
X104826913Y-133353237D01*
X104712448Y-133217348D01*
X104586204Y-133067371D01*
X104447575Y-132902597D01*
X104295955Y-132722316D01*
X104130735Y-132525817D01*
X103951307Y-132312391D01*
X103939805Y-132298708D01*
X103758947Y-132083583D01*
X103592332Y-131885440D01*
X103439361Y-131703573D01*
X103299429Y-131537276D01*
X103171934Y-131385845D01*
X103056276Y-131248574D01*
X102951851Y-131124759D01*
X102858057Y-131013695D01*
X102774293Y-130914676D01*
X102699957Y-130826999D01*
X102634446Y-130749956D01*
X102577159Y-130682844D01*
X102527493Y-130624957D01*
X102484846Y-130575591D01*
X102448617Y-130534041D01*
X102418203Y-130499601D01*
X102393001Y-130471566D01*
X102372412Y-130449231D01*
X102355831Y-130431892D01*
X102342657Y-130418844D01*
X102332289Y-130409380D01*
X102324123Y-130402797D01*
X102317558Y-130398390D01*
X102316546Y-130397799D01*
X102306893Y-130393554D01*
X102291954Y-130389176D01*
X102270609Y-130384546D01*
X102241734Y-130379552D01*
X102204209Y-130374077D01*
X102156912Y-130368003D01*
X102098720Y-130361218D01*
X102028510Y-130353603D01*
X101945163Y-130345044D01*
X101847555Y-130335425D01*
X101734566Y-130324629D01*
X101605072Y-130312543D01*
X101457951Y-130299048D01*
X101292083Y-130284031D01*
X101106344Y-130267373D01*
X100899614Y-130248961D01*
X100719211Y-130232965D01*
X100527290Y-130216053D01*
X100338505Y-130199566D01*
X100154477Y-130183640D01*
X99976828Y-130168409D01*
X99807181Y-130154008D01*
X99647158Y-130140570D01*
X99498380Y-130128230D01*
X99362472Y-130117121D01*
X99241053Y-130107381D01*
X99135748Y-130099141D01*
X99048176Y-130092536D01*
X98979961Y-130087701D01*
X98932727Y-130084771D01*
X98924555Y-130084359D01*
X98821661Y-130078461D01*
X98738955Y-130070954D01*
X98673552Y-130061135D01*
X98622569Y-130048298D01*
X98583122Y-130031740D01*
X98552325Y-130010758D01*
X98530130Y-129988125D01*
X98501865Y-129951288D01*
X98489911Y-129924886D01*
X98493889Y-129903394D01*
X98513423Y-129881286D01*
X98522305Y-129873671D01*
X98543246Y-129857433D01*
X98543246Y-129857433D01*
G37*
X98543246Y-129857433D02*
X98561810Y-129848502D01*
X98584368Y-129846141D01*
X98617289Y-129849618D01*
X98662866Y-129857460D01*
X98715714Y-129865791D01*
X98790496Y-129875711D01*
X98886114Y-129887119D01*
X99001473Y-129899914D01*
X99135477Y-129913994D01*
X99287028Y-129929260D01*
X99455032Y-129945608D01*
X99638391Y-129962939D01*
X99836011Y-129981151D01*
X100046793Y-130000143D01*
X100269644Y-130019815D01*
X100503466Y-130040064D01*
X100747162Y-130060788D01*
X100999637Y-130081889D01*
X101259796Y-130103263D01*
X101526542Y-130124811D01*
X101766125Y-130143857D01*
X101917317Y-130156155D01*
X102048406Y-130167601D01*
X102158896Y-130178139D01*
X102248290Y-130187716D01*
X102316093Y-130196280D01*
X102361808Y-130203778D01*
X102384504Y-130209947D01*
X102390125Y-130212932D01*
X102396724Y-130217378D01*
X102404911Y-130223993D01*
X102415291Y-130233489D01*
X102428470Y-130246575D01*
X102445058Y-130263961D01*
X102465658Y-130286359D01*
X102490880Y-130314476D01*
X102521329Y-130349024D01*
X102557613Y-130390713D01*
X102600337Y-130440252D01*
X102650111Y-130498351D01*
X102707540Y-130565723D01*
X102773231Y-130643074D01*
X102847792Y-130731116D01*
X102931829Y-130830560D01*
X103025948Y-130942114D01*
X103130757Y-131066489D01*
X103246863Y-131204396D01*
X103374872Y-131356544D01*
X103515392Y-131523642D01*
X103669030Y-131706402D01*
X103836392Y-131905534D01*
X103989879Y-132088182D01*
X104169051Y-132301399D01*
X104333983Y-132497656D01*
X104485292Y-132677671D01*
X104623592Y-132842163D01*
X104749499Y-132991851D01*
X104863629Y-133127452D01*
X104966598Y-133249686D01*
X105059020Y-133359271D01*
X105141511Y-133456924D01*
X105214687Y-133543364D01*
X105279163Y-133619310D01*
X105335556Y-133685480D01*
X105384479Y-133742594D01*
X105426548Y-133791368D01*
X105462381Y-133832521D01*
X105492592Y-133866773D01*
X105517795Y-133894841D01*
X105538608Y-133917444D01*
X105555645Y-133935299D01*
X105569522Y-133949126D01*
X105580855Y-133959643D01*
X105590259Y-133967569D01*
X105598348Y-133973620D01*
X105605740Y-133978518D01*
X105613050Y-133982978D01*
X105613557Y-133983283D01*
X105640031Y-133998850D01*
X105665069Y-134012365D01*
X105690578Y-134024088D01*
X105718459Y-134034282D01*
X105750619Y-134043205D01*
X105788961Y-134051123D01*
X105835389Y-134058295D01*
X105891808Y-134064982D01*
X105960120Y-134071446D01*
X106042232Y-134077948D01*
X106140045Y-134084750D01*
X106255466Y-134092112D01*
X106390397Y-134100298D01*
X106523606Y-134108200D01*
X106701688Y-134118976D01*
X106858415Y-134129075D01*
X106995504Y-134138705D01*
X107114674Y-134148072D01*
X107217644Y-134157383D01*
X107306131Y-134166844D01*
X107381853Y-134176663D01*
X107446531Y-134187046D01*
X107501880Y-134198198D01*
X107549621Y-134210329D01*
X107591470Y-134223644D01*
X107629147Y-134238349D01*
X107638079Y-134242251D01*
X107677727Y-134261866D01*
X107713173Y-134282624D01*
X107727723Y-134292925D01*
X107743960Y-134308621D01*
X107746775Y-134321783D01*
X107733942Y-134335165D01*
X107703234Y-134351525D01*
X107667774Y-134367134D01*
X107609185Y-134386274D01*
X107542017Y-134396604D01*
X107462816Y-134398243D01*
X107368131Y-134391314D01*
X107284980Y-134380582D01*
X107242317Y-134375038D01*
X107179195Y-134367862D01*
X107098167Y-134359302D01*
X107001791Y-134349605D01*
X106892621Y-134339018D01*
X106773211Y-134327789D01*
X106646117Y-134316165D01*
X106513893Y-134304392D01*
X106379096Y-134292721D01*
X106363510Y-134291393D01*
X106209724Y-134278218D01*
X106077287Y-134266634D01*
X105964528Y-134256446D01*
X105869775Y-134247465D01*
X105791356Y-134239498D01*
X105727597Y-134232354D01*
X105676829Y-134225840D01*
X105637377Y-134219765D01*
X105607571Y-134213938D01*
X105585738Y-134208165D01*
X105570206Y-134202257D01*
X105565511Y-134199882D01*
X105559212Y-134196132D01*
X105552065Y-134191076D01*
X105543463Y-134184005D01*
X105532798Y-134174208D01*
X105519465Y-134160976D01*
X105502855Y-134143599D01*
X105482360Y-134121366D01*
X105457375Y-134093567D01*
X105427291Y-134059492D01*
X105391501Y-134018431D01*
X105349398Y-133969675D01*
X105300375Y-133912512D01*
X105243825Y-133846232D01*
X105179142Y-133770127D01*
X105105714Y-133683485D01*
X105022940Y-133585595D01*
X104930208Y-133475750D01*
X104826913Y-133353237D01*
X104712448Y-133217348D01*
X104586204Y-133067371D01*
X104447575Y-132902597D01*
X104295955Y-132722316D01*
X104130735Y-132525817D01*
X103951307Y-132312391D01*
X103939805Y-132298708D01*
X103758947Y-132083583D01*
X103592332Y-131885440D01*
X103439361Y-131703573D01*
X103299429Y-131537276D01*
X103171934Y-131385845D01*
X103056276Y-131248574D01*
X102951851Y-131124759D01*
X102858057Y-131013695D01*
X102774293Y-130914676D01*
X102699957Y-130826999D01*
X102634446Y-130749956D01*
X102577159Y-130682844D01*
X102527493Y-130624957D01*
X102484846Y-130575591D01*
X102448617Y-130534041D01*
X102418203Y-130499601D01*
X102393001Y-130471566D01*
X102372412Y-130449231D01*
X102355831Y-130431892D01*
X102342657Y-130418844D01*
X102332289Y-130409380D01*
X102324123Y-130402797D01*
X102317558Y-130398390D01*
X102316546Y-130397799D01*
X102306893Y-130393554D01*
X102291954Y-130389176D01*
X102270609Y-130384546D01*
X102241734Y-130379552D01*
X102204209Y-130374077D01*
X102156912Y-130368003D01*
X102098720Y-130361218D01*
X102028510Y-130353603D01*
X101945163Y-130345044D01*
X101847555Y-130335425D01*
X101734566Y-130324629D01*
X101605072Y-130312543D01*
X101457951Y-130299048D01*
X101292083Y-130284031D01*
X101106344Y-130267373D01*
X100899614Y-130248961D01*
X100719211Y-130232965D01*
X100527290Y-130216053D01*
X100338505Y-130199566D01*
X100154477Y-130183640D01*
X99976828Y-130168409D01*
X99807181Y-130154008D01*
X99647158Y-130140570D01*
X99498380Y-130128230D01*
X99362472Y-130117121D01*
X99241053Y-130107381D01*
X99135748Y-130099141D01*
X99048176Y-130092536D01*
X98979961Y-130087701D01*
X98932727Y-130084771D01*
X98924555Y-130084359D01*
X98821661Y-130078461D01*
X98738955Y-130070954D01*
X98673552Y-130061135D01*
X98622569Y-130048298D01*
X98583122Y-130031740D01*
X98552325Y-130010758D01*
X98530130Y-129988125D01*
X98501865Y-129951288D01*
X98489911Y-129924886D01*
X98493889Y-129903394D01*
X98513423Y-129881286D01*
X98522305Y-129873671D01*
X98543246Y-129857433D01*
G36*
X100672004Y-129141361D02*
X100837001Y-129154379D01*
X100997613Y-129166803D01*
X101152072Y-129178507D01*
X101298615Y-129189370D01*
X101435476Y-129199269D01*
X101560891Y-129208081D01*
X101673095Y-129215681D01*
X101770323Y-129221950D01*
X101850809Y-129226762D01*
X101912790Y-129229997D01*
X101954500Y-129231528D01*
X101968233Y-129231600D01*
X102046266Y-129232386D01*
X102109000Y-129240091D01*
X102162605Y-129257209D01*
X102213251Y-129286231D01*
X102267109Y-129329652D01*
X102309566Y-129369502D01*
X102327575Y-129388202D01*
X102354398Y-129417891D01*
X102390482Y-129459106D01*
X102436278Y-129512383D01*
X102492231Y-129578256D01*
X102558790Y-129657264D01*
X102636404Y-129749940D01*
X102725519Y-129856823D01*
X102826584Y-129978447D01*
X102940046Y-130115349D01*
X103066354Y-130268065D01*
X103205956Y-130437130D01*
X103359299Y-130623081D01*
X103507726Y-130803251D01*
X103692734Y-131027854D01*
X103863773Y-131235346D01*
X104021497Y-131426490D01*
X104166557Y-131602046D01*
X104299608Y-131762777D01*
X104421301Y-131909442D01*
X104532291Y-132042804D01*
X104633229Y-132163624D01*
X104724769Y-132272663D01*
X104807565Y-132370683D01*
X104882267Y-132458445D01*
X104949531Y-132536710D01*
X105010008Y-132606241D01*
X105064353Y-132667798D01*
X105113216Y-132722142D01*
X105157252Y-132770035D01*
X105197113Y-132812239D01*
X105233454Y-132849514D01*
X105266925Y-132882622D01*
X105298181Y-132912325D01*
X105327874Y-132939384D01*
X105356658Y-132964560D01*
X105373581Y-132978926D01*
X105397666Y-132999559D01*
X105418506Y-133017519D01*
X105437779Y-133033120D01*
X105457167Y-133046675D01*
X105478348Y-133058496D01*
X105503002Y-133068896D01*
X105532808Y-133078188D01*
X105569447Y-133086686D01*
X105614597Y-133094701D01*
X105669940Y-133102548D01*
X105737154Y-133110538D01*
X105817918Y-133118985D01*
X105913914Y-133128203D01*
X106026818Y-133138503D01*
X106158313Y-133150199D01*
X106310078Y-133163604D01*
X106414456Y-133172853D01*
X106556868Y-133185334D01*
X106693591Y-133196979D01*
X106822737Y-133207646D01*
X106942415Y-133217195D01*
X107050736Y-133225485D01*
X107145810Y-133232376D01*
X107225746Y-133237729D01*
X107288656Y-133241401D01*
X107332650Y-133243252D01*
X107355838Y-133243144D01*
X107357467Y-133242940D01*
X107403354Y-133232223D01*
X107441213Y-133215245D01*
X107476981Y-133188070D01*
X107516594Y-133146766D01*
X107534810Y-133125450D01*
X107568120Y-133088129D01*
X107600393Y-133056121D01*
X107625733Y-133035177D01*
X107630098Y-133032453D01*
X107688515Y-133008914D01*
X107759378Y-132994237D01*
X107833173Y-132990140D01*
X107857344Y-132991471D01*
X107950428Y-133009897D01*
X108030773Y-133046758D01*
X108097060Y-133100419D01*
X108147964Y-133169245D01*
X108182163Y-133251598D01*
X108198337Y-133345843D01*
X108198505Y-133413556D01*
X108183937Y-133512179D01*
X108152096Y-133596893D01*
X108101796Y-133670356D01*
X108068663Y-133704335D01*
X108015699Y-133747986D01*
X107969904Y-133775178D01*
X107960819Y-133778813D01*
X107872954Y-133797892D01*
X107778522Y-133795361D01*
X107678822Y-133771325D01*
X107630642Y-133752685D01*
X107565129Y-133715186D01*
X107515568Y-133664428D01*
X107482866Y-133608430D01*
X107445418Y-133540792D01*
X107405061Y-133492705D01*
X107358643Y-133460628D01*
X107346314Y-133454945D01*
X107316854Y-133444935D01*
X107275741Y-133435219D01*
X107221666Y-133425652D01*
X107153322Y-133416092D01*
X107069395Y-133406398D01*
X106968580Y-133396426D01*
X106849566Y-133386035D01*
X106711043Y-133375080D01*
X106551703Y-133363421D01*
X106423099Y-133354494D01*
X106253688Y-133342905D01*
X106105675Y-133332648D01*
X105977419Y-133323549D01*
X105867277Y-133315438D01*
X105773605Y-133308144D01*
X105694761Y-133301497D01*
X105629102Y-133295326D01*
X105574985Y-133289459D01*
X105530767Y-133283726D01*
X105494805Y-133277956D01*
X105465458Y-133271979D01*
X105441080Y-133265622D01*
X105420032Y-133258716D01*
X105400667Y-133251090D01*
X105391731Y-133247231D01*
X105311978Y-133212066D01*
X103808312Y-131413977D01*
X103611543Y-131178753D01*
X103429210Y-130960941D01*
X103261007Y-130760176D01*
X103106630Y-130576100D01*
X102965770Y-130408350D01*
X102838124Y-130256563D01*
X102723386Y-130120379D01*
X102621249Y-129999436D01*
X102531408Y-129893372D01*
X102453558Y-129801825D01*
X102387390Y-129724434D01*
X102332603Y-129660836D01*
X102288888Y-129610671D01*
X102255940Y-129573576D01*
X102233454Y-129549190D01*
X102224383Y-129540058D01*
X102148529Y-129476958D01*
X102072569Y-129432966D01*
X101989960Y-129405012D01*
X101907149Y-129391305D01*
X101882208Y-129389197D01*
X101835926Y-129385839D01*
X101770011Y-129381340D01*
X101686172Y-129375807D01*
X101586120Y-129369349D01*
X101471564Y-129362074D01*
X101344213Y-129354090D01*
X101205776Y-129345506D01*
X101057963Y-129336428D01*
X100902483Y-129326966D01*
X100741044Y-129317227D01*
X100647573Y-129311627D01*
X99484039Y-129242095D01*
X99464228Y-129206900D01*
X99441960Y-129164514D01*
X99432587Y-129135378D01*
X99436156Y-129113558D01*
X99452712Y-129093119D01*
X99465193Y-129082133D01*
X99505396Y-129048399D01*
X100672004Y-129141361D01*
X100672004Y-129141361D01*
G37*
X100672004Y-129141361D02*
X100837001Y-129154379D01*
X100997613Y-129166803D01*
X101152072Y-129178507D01*
X101298615Y-129189370D01*
X101435476Y-129199269D01*
X101560891Y-129208081D01*
X101673095Y-129215681D01*
X101770323Y-129221950D01*
X101850809Y-129226762D01*
X101912790Y-129229997D01*
X101954500Y-129231528D01*
X101968233Y-129231600D01*
X102046266Y-129232386D01*
X102109000Y-129240091D01*
X102162605Y-129257209D01*
X102213251Y-129286231D01*
X102267109Y-129329652D01*
X102309566Y-129369502D01*
X102327575Y-129388202D01*
X102354398Y-129417891D01*
X102390482Y-129459106D01*
X102436278Y-129512383D01*
X102492231Y-129578256D01*
X102558790Y-129657264D01*
X102636404Y-129749940D01*
X102725519Y-129856823D01*
X102826584Y-129978447D01*
X102940046Y-130115349D01*
X103066354Y-130268065D01*
X103205956Y-130437130D01*
X103359299Y-130623081D01*
X103507726Y-130803251D01*
X103692734Y-131027854D01*
X103863773Y-131235346D01*
X104021497Y-131426490D01*
X104166557Y-131602046D01*
X104299608Y-131762777D01*
X104421301Y-131909442D01*
X104532291Y-132042804D01*
X104633229Y-132163624D01*
X104724769Y-132272663D01*
X104807565Y-132370683D01*
X104882267Y-132458445D01*
X104949531Y-132536710D01*
X105010008Y-132606241D01*
X105064353Y-132667798D01*
X105113216Y-132722142D01*
X105157252Y-132770035D01*
X105197113Y-132812239D01*
X105233454Y-132849514D01*
X105266925Y-132882622D01*
X105298181Y-132912325D01*
X105327874Y-132939384D01*
X105356658Y-132964560D01*
X105373581Y-132978926D01*
X105397666Y-132999559D01*
X105418506Y-133017519D01*
X105437779Y-133033120D01*
X105457167Y-133046675D01*
X105478348Y-133058496D01*
X105503002Y-133068896D01*
X105532808Y-133078188D01*
X105569447Y-133086686D01*
X105614597Y-133094701D01*
X105669940Y-133102548D01*
X105737154Y-133110538D01*
X105817918Y-133118985D01*
X105913914Y-133128203D01*
X106026818Y-133138503D01*
X106158313Y-133150199D01*
X106310078Y-133163604D01*
X106414456Y-133172853D01*
X106556868Y-133185334D01*
X106693591Y-133196979D01*
X106822737Y-133207646D01*
X106942415Y-133217195D01*
X107050736Y-133225485D01*
X107145810Y-133232376D01*
X107225746Y-133237729D01*
X107288656Y-133241401D01*
X107332650Y-133243252D01*
X107355838Y-133243144D01*
X107357467Y-133242940D01*
X107403354Y-133232223D01*
X107441213Y-133215245D01*
X107476981Y-133188070D01*
X107516594Y-133146766D01*
X107534810Y-133125450D01*
X107568120Y-133088129D01*
X107600393Y-133056121D01*
X107625733Y-133035177D01*
X107630098Y-133032453D01*
X107688515Y-133008914D01*
X107759378Y-132994237D01*
X107833173Y-132990140D01*
X107857344Y-132991471D01*
X107950428Y-133009897D01*
X108030773Y-133046758D01*
X108097060Y-133100419D01*
X108147964Y-133169245D01*
X108182163Y-133251598D01*
X108198337Y-133345843D01*
X108198505Y-133413556D01*
X108183937Y-133512179D01*
X108152096Y-133596893D01*
X108101796Y-133670356D01*
X108068663Y-133704335D01*
X108015699Y-133747986D01*
X107969904Y-133775178D01*
X107960819Y-133778813D01*
X107872954Y-133797892D01*
X107778522Y-133795361D01*
X107678822Y-133771325D01*
X107630642Y-133752685D01*
X107565129Y-133715186D01*
X107515568Y-133664428D01*
X107482866Y-133608430D01*
X107445418Y-133540792D01*
X107405061Y-133492705D01*
X107358643Y-133460628D01*
X107346314Y-133454945D01*
X107316854Y-133444935D01*
X107275741Y-133435219D01*
X107221666Y-133425652D01*
X107153322Y-133416092D01*
X107069395Y-133406398D01*
X106968580Y-133396426D01*
X106849566Y-133386035D01*
X106711043Y-133375080D01*
X106551703Y-133363421D01*
X106423099Y-133354494D01*
X106253688Y-133342905D01*
X106105675Y-133332648D01*
X105977419Y-133323549D01*
X105867277Y-133315438D01*
X105773605Y-133308144D01*
X105694761Y-133301497D01*
X105629102Y-133295326D01*
X105574985Y-133289459D01*
X105530767Y-133283726D01*
X105494805Y-133277956D01*
X105465458Y-133271979D01*
X105441080Y-133265622D01*
X105420032Y-133258716D01*
X105400667Y-133251090D01*
X105391731Y-133247231D01*
X105311978Y-133212066D01*
X103808312Y-131413977D01*
X103611543Y-131178753D01*
X103429210Y-130960941D01*
X103261007Y-130760176D01*
X103106630Y-130576100D01*
X102965770Y-130408350D01*
X102838124Y-130256563D01*
X102723386Y-130120379D01*
X102621249Y-129999436D01*
X102531408Y-129893372D01*
X102453558Y-129801825D01*
X102387390Y-129724434D01*
X102332603Y-129660836D01*
X102288888Y-129610671D01*
X102255940Y-129573576D01*
X102233454Y-129549190D01*
X102224383Y-129540058D01*
X102148529Y-129476958D01*
X102072569Y-129432966D01*
X101989960Y-129405012D01*
X101907149Y-129391305D01*
X101882208Y-129389197D01*
X101835926Y-129385839D01*
X101770011Y-129381340D01*
X101686172Y-129375807D01*
X101586120Y-129369349D01*
X101471564Y-129362074D01*
X101344213Y-129354090D01*
X101205776Y-129345506D01*
X101057963Y-129336428D01*
X100902483Y-129326966D01*
X100741044Y-129317227D01*
X100647573Y-129311627D01*
X99484039Y-129242095D01*
X99464228Y-129206900D01*
X99441960Y-129164514D01*
X99432587Y-129135378D01*
X99436156Y-129113558D01*
X99452712Y-129093119D01*
X99465193Y-129082133D01*
X99505396Y-129048399D01*
X100672004Y-129141361D01*
G36*
X102831080Y-134273179D02*
X102915836Y-134373230D01*
X103008769Y-134483764D01*
X103105972Y-134600082D01*
X103203538Y-134717483D01*
X103297560Y-134831266D01*
X103384131Y-134936729D01*
X103456001Y-135025040D01*
X103746568Y-135384086D01*
X103720375Y-135488958D01*
X103703946Y-135569265D01*
X103689464Y-135669409D01*
X103677199Y-135786199D01*
X103667418Y-135916442D01*
X103660389Y-136056946D01*
X103656380Y-136204520D01*
X103655725Y-136259103D01*
X103652878Y-136454298D01*
X103647536Y-136628081D01*
X103639574Y-136782010D01*
X103628869Y-136917643D01*
X103615297Y-137036535D01*
X103598736Y-137140246D01*
X103579062Y-137230332D01*
X103578684Y-137231814D01*
X103563164Y-137292635D01*
X102996820Y-136626775D01*
X102887183Y-136497855D01*
X102791506Y-136385215D01*
X102708801Y-136287536D01*
X102638078Y-136203499D01*
X102578347Y-136131788D01*
X102528618Y-136071083D01*
X102487901Y-136020067D01*
X102455207Y-135977421D01*
X102429546Y-135941827D01*
X102409930Y-135911968D01*
X102395365Y-135886524D01*
X102384865Y-135864178D01*
X102377440Y-135843613D01*
X102372098Y-135823509D01*
X102367851Y-135802549D01*
X102364690Y-135784913D01*
X102362675Y-135756519D01*
X102362760Y-135709086D01*
X102364787Y-135646553D01*
X102368598Y-135572862D01*
X102374031Y-135491952D01*
X102379026Y-135429491D01*
X102386614Y-135333004D01*
X102393639Y-135229030D01*
X102399709Y-135124540D01*
X102404429Y-135026506D01*
X102407408Y-134941897D01*
X102407991Y-134915363D01*
X102410222Y-134848878D01*
X102414761Y-134764257D01*
X102421255Y-134666302D01*
X102429349Y-134559815D01*
X102438690Y-134449597D01*
X102448925Y-134340448D01*
X102454247Y-134287950D01*
X102496728Y-133880365D01*
X102831080Y-134273179D01*
X102831080Y-134273179D01*
G37*
X102831080Y-134273179D02*
X102915836Y-134373230D01*
X103008769Y-134483764D01*
X103105972Y-134600082D01*
X103203538Y-134717483D01*
X103297560Y-134831266D01*
X103384131Y-134936729D01*
X103456001Y-135025040D01*
X103746568Y-135384086D01*
X103720375Y-135488958D01*
X103703946Y-135569265D01*
X103689464Y-135669409D01*
X103677199Y-135786199D01*
X103667418Y-135916442D01*
X103660389Y-136056946D01*
X103656380Y-136204520D01*
X103655725Y-136259103D01*
X103652878Y-136454298D01*
X103647536Y-136628081D01*
X103639574Y-136782010D01*
X103628869Y-136917643D01*
X103615297Y-137036535D01*
X103598736Y-137140246D01*
X103579062Y-137230332D01*
X103578684Y-137231814D01*
X103563164Y-137292635D01*
X102996820Y-136626775D01*
X102887183Y-136497855D01*
X102791506Y-136385215D01*
X102708801Y-136287536D01*
X102638078Y-136203499D01*
X102578347Y-136131788D01*
X102528618Y-136071083D01*
X102487901Y-136020067D01*
X102455207Y-135977421D01*
X102429546Y-135941827D01*
X102409930Y-135911968D01*
X102395365Y-135886524D01*
X102384865Y-135864178D01*
X102377440Y-135843613D01*
X102372098Y-135823509D01*
X102367851Y-135802549D01*
X102364690Y-135784913D01*
X102362675Y-135756519D01*
X102362760Y-135709086D01*
X102364787Y-135646553D01*
X102368598Y-135572862D01*
X102374031Y-135491952D01*
X102379026Y-135429491D01*
X102386614Y-135333004D01*
X102393639Y-135229030D01*
X102399709Y-135124540D01*
X102404429Y-135026506D01*
X102407408Y-134941897D01*
X102407991Y-134915363D01*
X102410222Y-134848878D01*
X102414761Y-134764257D01*
X102421255Y-134666302D01*
X102429349Y-134559815D01*
X102438690Y-134449597D01*
X102448925Y-134340448D01*
X102454247Y-134287950D01*
X102496728Y-133880365D01*
X102831080Y-134273179D01*
G36*
X102554788Y-129114165D02*
X102577531Y-129116768D01*
X102621165Y-129122742D01*
X102683785Y-129131796D01*
X102763485Y-129143640D01*
X102858357Y-129157984D01*
X102966495Y-129174536D01*
X103085992Y-129193007D01*
X103214943Y-129213105D01*
X103351440Y-129234540D01*
X103493577Y-129257022D01*
X103526976Y-129262328D01*
X104426862Y-129405404D01*
X104478714Y-129454688D01*
X104510232Y-129486546D01*
X104555534Y-129535173D01*
X104613726Y-129599514D01*
X104683914Y-129678514D01*
X104765201Y-129771116D01*
X104856694Y-129876266D01*
X104957498Y-129992909D01*
X105066718Y-130119989D01*
X105183458Y-130256451D01*
X105306823Y-130401240D01*
X105435921Y-130553301D01*
X105569856Y-130711577D01*
X105707732Y-130875015D01*
X105848655Y-131042558D01*
X105991731Y-131213152D01*
X106136063Y-131385741D01*
X106280758Y-131559271D01*
X106424920Y-131732684D01*
X106567655Y-131904927D01*
X106708069Y-132074944D01*
X106845265Y-132241680D01*
X106942690Y-132360494D01*
X107310788Y-132810116D01*
X107255377Y-132815926D01*
X107208120Y-132819598D01*
X107152756Y-132821363D01*
X107087418Y-132821130D01*
X107010239Y-132818805D01*
X106919352Y-132814299D01*
X106812892Y-132807519D01*
X106688992Y-132798373D01*
X106545784Y-132786771D01*
X106390798Y-132773445D01*
X106274807Y-132763366D01*
X106161487Y-132753725D01*
X106053807Y-132744762D01*
X105954735Y-132736714D01*
X105867241Y-132729819D01*
X105794294Y-132724317D01*
X105738864Y-132720444D01*
X105707842Y-132718618D01*
X105628329Y-132712204D01*
X105565385Y-132699867D01*
X105512726Y-132679001D01*
X105464070Y-132647003D01*
X105413133Y-132601268D01*
X105404893Y-132593047D01*
X105390797Y-132577455D01*
X105362665Y-132545034D01*
X105321255Y-132496683D01*
X105267322Y-132433303D01*
X105201627Y-132355795D01*
X105124926Y-132265058D01*
X105037976Y-132161991D01*
X104941537Y-132047496D01*
X104836364Y-131922473D01*
X104723215Y-131787821D01*
X104602849Y-131644441D01*
X104476024Y-131493233D01*
X104343495Y-131335096D01*
X104206022Y-131170932D01*
X104064362Y-131001639D01*
X103919272Y-130828119D01*
X103910473Y-130817591D01*
X102482484Y-129109079D01*
X102554788Y-129114165D01*
X102554788Y-129114165D01*
G37*
X102554788Y-129114165D02*
X102577531Y-129116768D01*
X102621165Y-129122742D01*
X102683785Y-129131796D01*
X102763485Y-129143640D01*
X102858357Y-129157984D01*
X102966495Y-129174536D01*
X103085992Y-129193007D01*
X103214943Y-129213105D01*
X103351440Y-129234540D01*
X103493577Y-129257022D01*
X103526976Y-129262328D01*
X104426862Y-129405404D01*
X104478714Y-129454688D01*
X104510232Y-129486546D01*
X104555534Y-129535173D01*
X104613726Y-129599514D01*
X104683914Y-129678514D01*
X104765201Y-129771116D01*
X104856694Y-129876266D01*
X104957498Y-129992909D01*
X105066718Y-130119989D01*
X105183458Y-130256451D01*
X105306823Y-130401240D01*
X105435921Y-130553301D01*
X105569856Y-130711577D01*
X105707732Y-130875015D01*
X105848655Y-131042558D01*
X105991731Y-131213152D01*
X106136063Y-131385741D01*
X106280758Y-131559271D01*
X106424920Y-131732684D01*
X106567655Y-131904927D01*
X106708069Y-132074944D01*
X106845265Y-132241680D01*
X106942690Y-132360494D01*
X107310788Y-132810116D01*
X107255377Y-132815926D01*
X107208120Y-132819598D01*
X107152756Y-132821363D01*
X107087418Y-132821130D01*
X107010239Y-132818805D01*
X106919352Y-132814299D01*
X106812892Y-132807519D01*
X106688992Y-132798373D01*
X106545784Y-132786771D01*
X106390798Y-132773445D01*
X106274807Y-132763366D01*
X106161487Y-132753725D01*
X106053807Y-132744762D01*
X105954735Y-132736714D01*
X105867241Y-132729819D01*
X105794294Y-132724317D01*
X105738864Y-132720444D01*
X105707842Y-132718618D01*
X105628329Y-132712204D01*
X105565385Y-132699867D01*
X105512726Y-132679001D01*
X105464070Y-132647003D01*
X105413133Y-132601268D01*
X105404893Y-132593047D01*
X105390797Y-132577455D01*
X105362665Y-132545034D01*
X105321255Y-132496683D01*
X105267322Y-132433303D01*
X105201627Y-132355795D01*
X105124926Y-132265058D01*
X105037976Y-132161991D01*
X104941537Y-132047496D01*
X104836364Y-131922473D01*
X104723215Y-131787821D01*
X104602849Y-131644441D01*
X104476024Y-131493233D01*
X104343495Y-131335096D01*
X104206022Y-131170932D01*
X104064362Y-131001639D01*
X103919272Y-130828119D01*
X103910473Y-130817591D01*
X102482484Y-129109079D01*
X102554788Y-129114165D01*
D14*
X100250000Y-145710000D03*
D15*
X102790000Y-145710000D03*
X100250000Y-148250000D03*
X102790000Y-148250000D03*
X100250000Y-150790000D03*
X102790000Y-150790000D03*
X100250000Y-153330000D03*
X102790000Y-153330000D03*
D10*
G36*
X93999519Y-138499167D02*
X92899519Y-136593911D01*
X94458365Y-135693911D01*
X95558365Y-137599167D01*
X93999519Y-138499167D01*
X93999519Y-138499167D01*
G37*
G36*
X91141635Y-140149167D02*
X90041635Y-138243911D01*
X91600481Y-137343911D01*
X92700481Y-139249167D01*
X91141635Y-140149167D01*
X91141635Y-140149167D01*
G37*
G36*
X93541635Y-144306089D02*
X92441635Y-142400833D01*
X94000481Y-141500833D01*
X95100481Y-143406089D01*
X93541635Y-144306089D01*
X93541635Y-144306089D01*
G37*
G36*
X96399519Y-142656089D02*
X95299519Y-140750833D01*
X96858365Y-139850833D01*
X97958365Y-141756089D01*
X96399519Y-142656089D01*
X96399519Y-142656089D01*
G37*
G36*
X96877054Y-127238909D02*
X98562352Y-125824777D01*
X99719370Y-127203657D01*
X98034072Y-128617789D01*
X96877054Y-127238909D01*
X96877054Y-127238909D01*
G37*
G36*
X94755855Y-124710962D02*
X96441153Y-123296830D01*
X97598171Y-124675710D01*
X95912873Y-126089842D01*
X94755855Y-124710962D01*
X94755855Y-124710962D01*
G37*
G36*
X91078842Y-127796343D02*
X92764140Y-126382211D01*
X93921158Y-127761091D01*
X92235860Y-129175223D01*
X91078842Y-127796343D01*
X91078842Y-127796343D01*
G37*
G36*
X93200041Y-130324290D02*
X94885339Y-128910158D01*
X96042357Y-130289038D01*
X94357059Y-131703170D01*
X93200041Y-130324290D01*
X93200041Y-130324290D01*
G37*
G36*
X108965085Y-127149395D02*
X111032409Y-127901840D01*
X110416773Y-129593287D01*
X108349449Y-128840842D01*
X108965085Y-127149395D01*
X108965085Y-127149395D01*
G37*
G36*
X110093752Y-124048410D02*
X112161076Y-124800855D01*
X111545440Y-126492302D01*
X109478116Y-125739857D01*
X110093752Y-124048410D01*
X110093752Y-124048410D01*
G37*
G36*
X105583227Y-122406713D02*
X107650551Y-123159158D01*
X107034915Y-124850605D01*
X104967591Y-124098160D01*
X105583227Y-122406713D01*
X105583227Y-122406713D01*
G37*
G36*
X104454560Y-125507698D02*
X106521884Y-126260143D01*
X105906248Y-127951590D01*
X103838924Y-127199145D01*
X104454560Y-125507698D01*
X104454560Y-125507698D01*
G37*
G36*
X117013767Y-143410158D02*
X118699065Y-144824290D01*
X117542047Y-146203170D01*
X115856749Y-144789038D01*
X117013767Y-143410158D01*
X117013767Y-143410158D01*
G37*
G36*
X119134966Y-140882211D02*
X120820264Y-142296343D01*
X119663246Y-143675223D01*
X117977948Y-142261091D01*
X119134966Y-140882211D01*
X119134966Y-140882211D01*
G37*
G36*
X115457953Y-137796830D02*
X117143251Y-139210962D01*
X115986233Y-140589842D01*
X114300935Y-139175710D01*
X115457953Y-137796830D01*
X115457953Y-137796830D01*
G37*
G36*
X113336754Y-140324777D02*
X115022052Y-141738909D01*
X113865034Y-143117789D01*
X112179736Y-141703657D01*
X113336754Y-140324777D01*
X113336754Y-140324777D01*
G37*
G36*
X110539808Y-149877054D02*
X111953940Y-151562352D01*
X110575060Y-152719370D01*
X109160928Y-151034072D01*
X110539808Y-149877054D01*
X110539808Y-149877054D01*
G37*
G36*
X113067755Y-147755855D02*
X114481887Y-149441153D01*
X113103007Y-150598171D01*
X111688875Y-148912873D01*
X113067755Y-147755855D01*
X113067755Y-147755855D01*
G37*
G36*
X109982374Y-144078842D02*
X111396506Y-145764140D01*
X110017626Y-146921158D01*
X108603494Y-145235860D01*
X109982374Y-144078842D01*
X109982374Y-144078842D01*
G37*
G36*
X107454427Y-146200041D02*
X108868559Y-147885339D01*
X107489679Y-149042357D01*
X106075547Y-147357059D01*
X107454427Y-146200041D01*
X107454427Y-146200041D01*
G37*
G36*
X116183667Y-134846593D02*
X114574973Y-133496739D01*
X115924827Y-131888045D01*
X117533521Y-133237899D01*
X116183667Y-134846593D01*
X116183667Y-134846593D01*
G37*
D16*
X117686928Y-131421566D02*
X117686928Y-131421566D01*
X118000000Y-135000000D02*
X118000000Y-135000000D01*
X119632680Y-133054247D02*
X119632680Y-133054247D01*
X119945753Y-136632680D02*
X119945753Y-136632680D01*
X121578433Y-134686927D02*
X121578433Y-134686927D01*
X121891506Y-138265361D02*
X121891506Y-138265361D01*
X123524186Y-136319608D02*
X123524186Y-136319608D01*
X123837259Y-139898041D02*
X123837259Y-139898041D01*
X125469939Y-137952288D02*
X125469939Y-137952288D01*
M02*
