G04 #@! TF.FileFunction,Copper,L2,Bot,Signal*
%FSLAX46Y46*%
G04 Gerber Fmt 4.6, Leading zero omitted, Abs format (unit mm)*
G04 Created by KiCad (PCBNEW 4.0.6-e0-6349~52~ubuntu16.10.1) date Sun Jul  9 07:11:00 2017*
%MOMM*%
%LPD*%
G01*
G04 APERTURE LIST*
%ADD10C,0.100000*%
%ADD11C,1.700000*%
%ADD12O,1.700000X1.700000*%
%ADD13R,1.300000X0.700000*%
%ADD14R,2.000000X0.600000*%
%ADD15C,1.700000*%
%ADD16C,0.600000*%
%ADD17C,0.500000*%
%ADD18C,0.250000*%
%ADD19C,0.254000*%
G04 APERTURE END LIST*
D10*
G36*
X94252676Y-144942960D02*
X93449192Y-143985404D01*
X94215236Y-143342616D01*
X95018720Y-144300172D01*
X94252676Y-144942960D01*
X94252676Y-144942960D01*
G37*
G36*
X95784764Y-143657384D02*
X94981280Y-142699828D01*
X95747324Y-142057040D01*
X96550808Y-143014596D01*
X95784764Y-143657384D01*
X95784764Y-143657384D01*
G37*
D11*
X100250000Y-145710000D03*
D12*
X102790000Y-145710000D03*
X100250000Y-148250000D03*
X102790000Y-148250000D03*
X100250000Y-150790000D03*
X102790000Y-150790000D03*
X100250000Y-153330000D03*
X102790000Y-153330000D03*
D13*
X92000000Y-139450000D03*
X92000000Y-137550000D03*
X94000000Y-126550000D03*
X94000000Y-128450000D03*
X98000000Y-126550000D03*
X98000000Y-128450000D03*
D14*
X97800000Y-131190000D03*
X97800000Y-132460000D03*
X97800000Y-133730000D03*
X97800000Y-135000000D03*
X92000000Y-135000000D03*
X92000000Y-133730000D03*
X92000000Y-132460000D03*
X92000000Y-131190000D03*
D10*
G36*
X116159015Y-134564826D02*
X114856740Y-133472087D01*
X115949479Y-132169812D01*
X117251754Y-133262551D01*
X116159015Y-134564826D01*
X116159015Y-134564826D01*
G37*
D15*
X117686928Y-131421566D02*
X117686928Y-131421566D01*
X118000000Y-135000000D02*
X118000000Y-135000000D01*
X119632680Y-133054247D02*
X119632680Y-133054247D01*
X119945753Y-136632680D02*
X119945753Y-136632680D01*
X121578433Y-134686927D02*
X121578433Y-134686927D01*
X121891506Y-138265361D02*
X121891506Y-138265361D01*
X123524186Y-136319608D02*
X123524186Y-136319608D01*
X123837259Y-139898041D02*
X123837259Y-139898041D01*
X125469939Y-137952288D02*
X125469939Y-137952288D01*
D16*
X118782950Y-144375010D03*
X110194586Y-126758312D03*
X109250000Y-149500000D03*
X95750000Y-127750000D03*
X94500000Y-139000000D03*
X107750000Y-125750000D03*
X95000000Y-142000000D03*
X95445201Y-133113476D03*
X95250000Y-126250000D03*
X93000000Y-129199987D03*
X96500000Y-129500000D03*
X93000000Y-130000000D03*
X91750000Y-140750000D03*
X93000000Y-140500000D03*
X107000000Y-127500000D03*
X98000000Y-125500000D03*
X114500000Y-140500000D03*
X111000000Y-127000000D03*
X115749992Y-144250000D03*
X109750000Y-148250000D03*
D17*
X90075011Y-132414989D02*
X91300000Y-131190000D01*
X91313188Y-138500000D02*
X90075011Y-137261823D01*
X90075011Y-137261823D02*
X90075011Y-132414989D01*
X94000000Y-138500000D02*
X91313188Y-138500000D01*
X91300000Y-131190000D02*
X92000000Y-131190000D01*
X94500000Y-139000000D02*
X94000000Y-138500000D01*
X118482951Y-144675009D02*
X118782950Y-144375010D01*
X109250000Y-149500000D02*
X113657960Y-149500000D01*
X113657960Y-149500000D02*
X118482951Y-144675009D01*
X110250000Y-124250000D02*
X110194586Y-124305414D01*
X110194586Y-126334048D02*
X110194586Y-126758312D01*
X110194586Y-124305414D02*
X110194586Y-126334048D01*
X109250000Y-123250000D02*
X110250000Y-124250000D01*
X107000000Y-123250000D02*
X109250000Y-123250000D01*
X106000000Y-122250000D02*
X107000000Y-123250000D01*
X99500000Y-122250000D02*
X106000000Y-122250000D01*
X96850000Y-124900000D02*
X99500000Y-122250000D01*
X96850000Y-125700000D02*
X96850000Y-124900000D01*
X97700000Y-126550000D02*
X96850000Y-125700000D01*
X98000000Y-126550000D02*
X97700000Y-126550000D01*
X105500000Y-155250000D02*
X105500000Y-153250000D01*
X105500000Y-153250000D02*
X109250000Y-149500000D01*
X102750000Y-158000000D02*
X105500000Y-155250000D01*
X102250000Y-158000000D02*
X102750000Y-158000000D01*
X98750000Y-158000000D02*
X102250000Y-158000000D01*
X97250000Y-156500000D02*
X98750000Y-158000000D01*
X97250000Y-150000000D02*
X97250000Y-156500000D01*
X95801168Y-148551168D02*
X97250000Y-150000000D01*
X95801168Y-145710000D02*
X95801168Y-148551168D01*
X114750000Y-126500000D02*
X117686928Y-129436928D01*
X117686928Y-129436928D02*
X117686928Y-131421566D01*
X113500000Y-126500000D02*
X114750000Y-126500000D01*
X111250000Y-124250000D02*
X113500000Y-126500000D01*
X110250000Y-124250000D02*
X111250000Y-124250000D01*
X95750000Y-127250000D02*
X96450000Y-126550000D01*
X96450000Y-126550000D02*
X98000000Y-126550000D01*
X95750000Y-127750000D02*
X95750000Y-127250000D01*
X92000000Y-131190000D02*
X93500000Y-131190000D01*
X93500000Y-131190000D02*
X95750000Y-128940000D01*
X95750000Y-128940000D02*
X95750000Y-127750000D01*
X94233956Y-144142788D02*
X94233956Y-139266044D01*
X94233956Y-139266044D02*
X94500000Y-139000000D01*
X100250000Y-145710000D02*
X95801168Y-145710000D01*
X95801168Y-145710000D02*
X94233956Y-144142788D01*
D18*
X95766044Y-142857212D02*
X95766044Y-142766044D01*
X95766044Y-142766044D02*
X95000000Y-142000000D01*
X95445201Y-133345201D02*
X95445201Y-133113476D01*
X97800000Y-135000000D02*
X97100000Y-135000000D01*
X97100000Y-135000000D02*
X95445201Y-133345201D01*
X94000000Y-126550000D02*
X94950000Y-126550000D01*
X94950000Y-126550000D02*
X95250000Y-126250000D01*
X127500000Y-136250000D02*
X127500000Y-138250000D01*
X94875002Y-134699998D02*
X94550002Y-134374998D01*
X122000000Y-131500000D02*
X123250000Y-132750000D01*
X116050001Y-143374999D02*
X115199999Y-143374999D01*
X124000000Y-132750000D02*
X127500000Y-136250000D01*
X93875002Y-134374998D02*
X93250000Y-135000000D01*
X102000000Y-143250000D02*
X94875002Y-136125002D01*
X116054247Y-133367319D02*
X117632681Y-133367319D01*
X115075000Y-143250000D02*
X102000000Y-143250000D01*
X117632681Y-133367319D02*
X119500000Y-131500000D01*
X119500000Y-131500000D02*
X122000000Y-131500000D01*
X123250000Y-132750000D02*
X124000000Y-132750000D01*
X127500000Y-138250000D02*
X124500000Y-141250000D01*
X93250000Y-135000000D02*
X92000000Y-135000000D01*
X124500000Y-141250000D02*
X118175000Y-141250000D01*
X118175000Y-141250000D02*
X116050001Y-143374999D01*
X115199999Y-143374999D02*
X115075000Y-143250000D01*
X94875002Y-136125002D02*
X94875002Y-134699998D01*
X94550002Y-134374998D02*
X93875002Y-134374998D01*
X92000000Y-135000000D02*
X92000000Y-137550000D01*
X100000000Y-139000000D02*
X102899967Y-141899967D01*
X98500000Y-131190000D02*
X100000000Y-132690000D01*
X97800000Y-131190000D02*
X98500000Y-131190000D01*
X100000000Y-132690000D02*
X100000000Y-139000000D01*
X102899967Y-141899967D02*
X114678466Y-141899967D01*
X114678466Y-141899967D02*
X119095754Y-137482679D01*
X119095754Y-137482679D02*
X119945753Y-136632680D01*
X98000000Y-128450000D02*
X98000000Y-130990000D01*
X98000000Y-130990000D02*
X97800000Y-131190000D01*
X114952198Y-142349978D02*
X119036815Y-138265361D01*
X93907826Y-132460000D02*
X95775024Y-134327198D01*
X95775024Y-135535024D02*
X102589978Y-142349978D01*
X92000000Y-132460000D02*
X93907826Y-132460000D01*
X119036815Y-138265361D02*
X120689425Y-138265361D01*
X102589978Y-142349978D02*
X114952198Y-142349978D01*
X120689425Y-138265361D02*
X121891506Y-138265361D01*
X95775024Y-134327198D02*
X95775024Y-135535024D01*
X93700000Y-128450000D02*
X93000000Y-129150000D01*
X94000000Y-128450000D02*
X93700000Y-128450000D01*
X93000000Y-129150000D02*
X93000000Y-129199987D01*
X92000000Y-132460000D02*
X93540000Y-132460000D01*
X93540000Y-132460000D02*
X96500000Y-129500000D01*
X102319989Y-142799989D02*
X115138598Y-142799989D01*
X115138598Y-142799989D02*
X118040546Y-139898041D01*
X118040546Y-139898041D02*
X122635178Y-139898041D01*
X92000000Y-133730000D02*
X94541415Y-133730000D01*
X94541415Y-133730000D02*
X95325013Y-134513598D01*
X95325013Y-135805013D02*
X102319989Y-142799989D01*
X95325013Y-134513598D02*
X95325013Y-135805013D01*
X122635178Y-139898041D02*
X123837259Y-139898041D01*
X89500000Y-130750000D02*
X90250000Y-130000000D01*
X90250000Y-130000000D02*
X93000000Y-130000000D01*
X89500000Y-138500000D02*
X89500000Y-130750000D01*
X91750000Y-140750000D02*
X89500000Y-138500000D01*
X92000000Y-139450000D02*
X92000000Y-139500000D01*
X92000000Y-139500000D02*
X93000000Y-140500000D01*
X98000000Y-125500000D02*
X105000000Y-125500000D01*
X105000000Y-125500000D02*
X107000000Y-127500000D01*
X113250000Y-129250000D02*
X113250000Y-139250000D01*
X113250000Y-139250000D02*
X114500000Y-140500000D01*
X111000000Y-127000000D02*
X113250000Y-129250000D01*
X115325728Y-144250000D02*
X115749992Y-144250000D01*
X113750000Y-144250000D02*
X115325728Y-144250000D01*
X109750000Y-148250000D02*
X113750000Y-144250000D01*
D19*
G36*
X94115002Y-136125002D02*
X94172854Y-136415841D01*
X94337601Y-136662403D01*
X101462599Y-143787401D01*
X101709161Y-143952148D01*
X102000000Y-144010000D01*
X112915198Y-144010000D01*
X109610320Y-147314878D01*
X109564833Y-147314838D01*
X109221057Y-147456883D01*
X108957808Y-147719673D01*
X108815162Y-148063201D01*
X108814838Y-148435167D01*
X108897060Y-148634160D01*
X108721057Y-148706883D01*
X108457808Y-148969673D01*
X108407434Y-149090987D01*
X104874210Y-152624210D01*
X104682367Y-152911325D01*
X104677024Y-152938188D01*
X104614999Y-153250000D01*
X104615000Y-153250005D01*
X104615000Y-154883421D01*
X102383420Y-157115000D01*
X99116579Y-157115000D01*
X98135000Y-156133420D01*
X98135000Y-150000005D01*
X98135001Y-150000000D01*
X98072375Y-149685167D01*
X98067633Y-149661325D01*
X97875790Y-149374210D01*
X97875787Y-149374208D01*
X96686168Y-148184588D01*
X96686168Y-146595000D01*
X99035180Y-146595000D01*
X99407717Y-146968188D01*
X99475550Y-146996355D01*
X99170853Y-147199946D01*
X98848946Y-147681715D01*
X98735907Y-148250000D01*
X98848946Y-148818285D01*
X99170853Y-149300054D01*
X99500026Y-149520000D01*
X99170853Y-149739946D01*
X98848946Y-150221715D01*
X98735907Y-150790000D01*
X98848946Y-151358285D01*
X99170853Y-151840054D01*
X99500026Y-152060000D01*
X99170853Y-152279946D01*
X98848946Y-152761715D01*
X98735907Y-153330000D01*
X98848946Y-153898285D01*
X99170853Y-154380054D01*
X99652622Y-154701961D01*
X100220907Y-154815000D01*
X100279093Y-154815000D01*
X100847378Y-154701961D01*
X101329147Y-154380054D01*
X101518345Y-154096899D01*
X101518355Y-154096924D01*
X101908642Y-154525183D01*
X102433108Y-154771486D01*
X102663000Y-154650819D01*
X102663000Y-153457000D01*
X102917000Y-153457000D01*
X102917000Y-154650819D01*
X103146892Y-154771486D01*
X103671358Y-154525183D01*
X104061645Y-154096924D01*
X104231476Y-153686890D01*
X104110155Y-153457000D01*
X102917000Y-153457000D01*
X102663000Y-153457000D01*
X102643000Y-153457000D01*
X102643000Y-153203000D01*
X102663000Y-153203000D01*
X102663000Y-153183000D01*
X102917000Y-153183000D01*
X102917000Y-153203000D01*
X104110155Y-153203000D01*
X104231476Y-152973110D01*
X104061645Y-152563076D01*
X103671358Y-152134817D01*
X103528447Y-152067702D01*
X103869147Y-151840054D01*
X104191054Y-151358285D01*
X104304093Y-150790000D01*
X104191054Y-150221715D01*
X103869147Y-149739946D01*
X103539974Y-149520000D01*
X103869147Y-149300054D01*
X104191054Y-148818285D01*
X104304093Y-148250000D01*
X104191054Y-147681715D01*
X103869147Y-147199946D01*
X103528447Y-146972298D01*
X103671358Y-146905183D01*
X104061645Y-146476924D01*
X104231476Y-146066890D01*
X104110155Y-145837000D01*
X102917000Y-145837000D01*
X102917000Y-145857000D01*
X102663000Y-145857000D01*
X102663000Y-145837000D01*
X102643000Y-145837000D01*
X102643000Y-145583000D01*
X102663000Y-145583000D01*
X102663000Y-144389181D01*
X102917000Y-144389181D01*
X102917000Y-145583000D01*
X104110155Y-145583000D01*
X104231476Y-145353110D01*
X104061645Y-144943076D01*
X103671358Y-144514817D01*
X103146892Y-144268514D01*
X102917000Y-144389181D01*
X102663000Y-144389181D01*
X102433108Y-144268514D01*
X101908642Y-144514817D01*
X101533169Y-144926820D01*
X101509656Y-144869914D01*
X101092283Y-144451812D01*
X100546681Y-144225258D01*
X99955911Y-144224743D01*
X99409914Y-144450344D01*
X99034604Y-144825000D01*
X96167747Y-144825000D01*
X95657865Y-144315117D01*
X95654726Y-144283432D01*
X95855249Y-144300975D01*
X96096176Y-144225012D01*
X96357059Y-144006105D01*
X96376626Y-143782452D01*
X95750390Y-143036134D01*
X95735070Y-143048989D01*
X95587285Y-142872866D01*
X95944966Y-142872866D01*
X96571201Y-143619184D01*
X96794854Y-143638751D01*
X97055737Y-143419844D01*
X97172383Y-143195769D01*
X97194401Y-142944111D01*
X97118437Y-142703185D01*
X96956057Y-142509668D01*
X96819181Y-142346545D01*
X96595529Y-142326978D01*
X95944966Y-142872866D01*
X95587285Y-142872866D01*
X95571801Y-142854414D01*
X95587122Y-142841558D01*
X95574267Y-142826238D01*
X95768842Y-142662969D01*
X95781698Y-142678290D01*
X96432261Y-142132403D01*
X96451828Y-141908751D01*
X96314952Y-141745629D01*
X96152572Y-141552111D01*
X95928496Y-141435465D01*
X95676839Y-141413449D01*
X95435912Y-141489412D01*
X95175029Y-141708319D01*
X95155462Y-141931969D01*
X95118956Y-141888463D01*
X95118956Y-139703261D01*
X95292192Y-139530327D01*
X95434838Y-139186799D01*
X95435162Y-138814833D01*
X95293117Y-138471057D01*
X95030327Y-138207808D01*
X94909013Y-138157434D01*
X94625790Y-137874210D01*
X94577413Y-137841886D01*
X94338675Y-137682367D01*
X94282484Y-137671190D01*
X94000000Y-137614999D01*
X93999995Y-137615000D01*
X93297440Y-137615000D01*
X93297440Y-137200000D01*
X93253162Y-136964683D01*
X93114090Y-136748559D01*
X92901890Y-136603569D01*
X92760000Y-136574836D01*
X92760000Y-135947440D01*
X93000000Y-135947440D01*
X93235317Y-135903162D01*
X93451441Y-135764090D01*
X93486360Y-135712985D01*
X93540839Y-135702148D01*
X93787401Y-135537401D01*
X94115002Y-135209800D01*
X94115002Y-136125002D01*
X94115002Y-136125002D01*
G37*
X94115002Y-136125002D02*
X94172854Y-136415841D01*
X94337601Y-136662403D01*
X101462599Y-143787401D01*
X101709161Y-143952148D01*
X102000000Y-144010000D01*
X112915198Y-144010000D01*
X109610320Y-147314878D01*
X109564833Y-147314838D01*
X109221057Y-147456883D01*
X108957808Y-147719673D01*
X108815162Y-148063201D01*
X108814838Y-148435167D01*
X108897060Y-148634160D01*
X108721057Y-148706883D01*
X108457808Y-148969673D01*
X108407434Y-149090987D01*
X104874210Y-152624210D01*
X104682367Y-152911325D01*
X104677024Y-152938188D01*
X104614999Y-153250000D01*
X104615000Y-153250005D01*
X104615000Y-154883421D01*
X102383420Y-157115000D01*
X99116579Y-157115000D01*
X98135000Y-156133420D01*
X98135000Y-150000005D01*
X98135001Y-150000000D01*
X98072375Y-149685167D01*
X98067633Y-149661325D01*
X97875790Y-149374210D01*
X97875787Y-149374208D01*
X96686168Y-148184588D01*
X96686168Y-146595000D01*
X99035180Y-146595000D01*
X99407717Y-146968188D01*
X99475550Y-146996355D01*
X99170853Y-147199946D01*
X98848946Y-147681715D01*
X98735907Y-148250000D01*
X98848946Y-148818285D01*
X99170853Y-149300054D01*
X99500026Y-149520000D01*
X99170853Y-149739946D01*
X98848946Y-150221715D01*
X98735907Y-150790000D01*
X98848946Y-151358285D01*
X99170853Y-151840054D01*
X99500026Y-152060000D01*
X99170853Y-152279946D01*
X98848946Y-152761715D01*
X98735907Y-153330000D01*
X98848946Y-153898285D01*
X99170853Y-154380054D01*
X99652622Y-154701961D01*
X100220907Y-154815000D01*
X100279093Y-154815000D01*
X100847378Y-154701961D01*
X101329147Y-154380054D01*
X101518345Y-154096899D01*
X101518355Y-154096924D01*
X101908642Y-154525183D01*
X102433108Y-154771486D01*
X102663000Y-154650819D01*
X102663000Y-153457000D01*
X102917000Y-153457000D01*
X102917000Y-154650819D01*
X103146892Y-154771486D01*
X103671358Y-154525183D01*
X104061645Y-154096924D01*
X104231476Y-153686890D01*
X104110155Y-153457000D01*
X102917000Y-153457000D01*
X102663000Y-153457000D01*
X102643000Y-153457000D01*
X102643000Y-153203000D01*
X102663000Y-153203000D01*
X102663000Y-153183000D01*
X102917000Y-153183000D01*
X102917000Y-153203000D01*
X104110155Y-153203000D01*
X104231476Y-152973110D01*
X104061645Y-152563076D01*
X103671358Y-152134817D01*
X103528447Y-152067702D01*
X103869147Y-151840054D01*
X104191054Y-151358285D01*
X104304093Y-150790000D01*
X104191054Y-150221715D01*
X103869147Y-149739946D01*
X103539974Y-149520000D01*
X103869147Y-149300054D01*
X104191054Y-148818285D01*
X104304093Y-148250000D01*
X104191054Y-147681715D01*
X103869147Y-147199946D01*
X103528447Y-146972298D01*
X103671358Y-146905183D01*
X104061645Y-146476924D01*
X104231476Y-146066890D01*
X104110155Y-145837000D01*
X102917000Y-145837000D01*
X102917000Y-145857000D01*
X102663000Y-145857000D01*
X102663000Y-145837000D01*
X102643000Y-145837000D01*
X102643000Y-145583000D01*
X102663000Y-145583000D01*
X102663000Y-144389181D01*
X102917000Y-144389181D01*
X102917000Y-145583000D01*
X104110155Y-145583000D01*
X104231476Y-145353110D01*
X104061645Y-144943076D01*
X103671358Y-144514817D01*
X103146892Y-144268514D01*
X102917000Y-144389181D01*
X102663000Y-144389181D01*
X102433108Y-144268514D01*
X101908642Y-144514817D01*
X101533169Y-144926820D01*
X101509656Y-144869914D01*
X101092283Y-144451812D01*
X100546681Y-144225258D01*
X99955911Y-144224743D01*
X99409914Y-144450344D01*
X99034604Y-144825000D01*
X96167747Y-144825000D01*
X95657865Y-144315117D01*
X95654726Y-144283432D01*
X95855249Y-144300975D01*
X96096176Y-144225012D01*
X96357059Y-144006105D01*
X96376626Y-143782452D01*
X95750390Y-143036134D01*
X95735070Y-143048989D01*
X95587285Y-142872866D01*
X95944966Y-142872866D01*
X96571201Y-143619184D01*
X96794854Y-143638751D01*
X97055737Y-143419844D01*
X97172383Y-143195769D01*
X97194401Y-142944111D01*
X97118437Y-142703185D01*
X96956057Y-142509668D01*
X96819181Y-142346545D01*
X96595529Y-142326978D01*
X95944966Y-142872866D01*
X95587285Y-142872866D01*
X95571801Y-142854414D01*
X95587122Y-142841558D01*
X95574267Y-142826238D01*
X95768842Y-142662969D01*
X95781698Y-142678290D01*
X96432261Y-142132403D01*
X96451828Y-141908751D01*
X96314952Y-141745629D01*
X96152572Y-141552111D01*
X95928496Y-141435465D01*
X95676839Y-141413449D01*
X95435912Y-141489412D01*
X95175029Y-141708319D01*
X95155462Y-141931969D01*
X95118956Y-141888463D01*
X95118956Y-139703261D01*
X95292192Y-139530327D01*
X95434838Y-139186799D01*
X95435162Y-138814833D01*
X95293117Y-138471057D01*
X95030327Y-138207808D01*
X94909013Y-138157434D01*
X94625790Y-137874210D01*
X94577413Y-137841886D01*
X94338675Y-137682367D01*
X94282484Y-137671190D01*
X94000000Y-137614999D01*
X93999995Y-137615000D01*
X93297440Y-137615000D01*
X93297440Y-137200000D01*
X93253162Y-136964683D01*
X93114090Y-136748559D01*
X92901890Y-136603569D01*
X92760000Y-136574836D01*
X92760000Y-135947440D01*
X93000000Y-135947440D01*
X93235317Y-135903162D01*
X93451441Y-135764090D01*
X93486360Y-135712985D01*
X93540839Y-135702148D01*
X93787401Y-135537401D01*
X94115002Y-135209800D01*
X94115002Y-136125002D01*
G36*
X106374208Y-123875787D02*
X106374210Y-123875790D01*
X106541129Y-123987321D01*
X106661326Y-124067634D01*
X107000000Y-124135001D01*
X107000005Y-124135000D01*
X108883420Y-124135000D01*
X109309586Y-124561165D01*
X109309586Y-126451490D01*
X109259748Y-126571513D01*
X109259424Y-126943479D01*
X109401469Y-127287255D01*
X109664259Y-127550504D01*
X110007787Y-127693150D01*
X110371120Y-127693466D01*
X110469673Y-127792192D01*
X110813201Y-127934838D01*
X110860077Y-127934879D01*
X112490000Y-129564802D01*
X112490000Y-139250000D01*
X112547852Y-139540839D01*
X112712599Y-139787401D01*
X113564878Y-140639680D01*
X113564838Y-140685167D01*
X113706883Y-141028943D01*
X113817713Y-141139967D01*
X103214769Y-141139967D01*
X100760000Y-138685198D01*
X100760000Y-132690000D01*
X100723840Y-132508213D01*
X100702148Y-132399160D01*
X100537401Y-132152599D01*
X99447440Y-131062638D01*
X99447440Y-130890000D01*
X99403162Y-130654683D01*
X99264090Y-130438559D01*
X99051890Y-130293569D01*
X98800000Y-130242560D01*
X98760000Y-130242560D01*
X98760000Y-129426742D01*
X98885317Y-129403162D01*
X99101441Y-129264090D01*
X99246431Y-129051890D01*
X99297440Y-128800000D01*
X99297440Y-128100000D01*
X99253162Y-127864683D01*
X99114090Y-127648559D01*
X98901890Y-127503569D01*
X98888803Y-127500919D01*
X99101441Y-127364090D01*
X99246431Y-127151890D01*
X99297440Y-126900000D01*
X99297440Y-126260000D01*
X104685198Y-126260000D01*
X106064878Y-127639680D01*
X106064838Y-127685167D01*
X106206883Y-128028943D01*
X106469673Y-128292192D01*
X106813201Y-128434838D01*
X107185167Y-128435162D01*
X107528943Y-128293117D01*
X107792192Y-128030327D01*
X107934838Y-127686799D01*
X107935162Y-127314833D01*
X107793117Y-126971057D01*
X107530327Y-126707808D01*
X107186799Y-126565162D01*
X107139923Y-126565121D01*
X105537401Y-124962599D01*
X105290839Y-124797852D01*
X105000000Y-124740000D01*
X98562463Y-124740000D01*
X98530327Y-124707808D01*
X98363178Y-124638401D01*
X99866579Y-123135000D01*
X105633420Y-123135000D01*
X106374208Y-123875787D01*
X106374208Y-123875787D01*
G37*
X106374208Y-123875787D02*
X106374210Y-123875790D01*
X106541129Y-123987321D01*
X106661326Y-124067634D01*
X107000000Y-124135001D01*
X107000005Y-124135000D01*
X108883420Y-124135000D01*
X109309586Y-124561165D01*
X109309586Y-126451490D01*
X109259748Y-126571513D01*
X109259424Y-126943479D01*
X109401469Y-127287255D01*
X109664259Y-127550504D01*
X110007787Y-127693150D01*
X110371120Y-127693466D01*
X110469673Y-127792192D01*
X110813201Y-127934838D01*
X110860077Y-127934879D01*
X112490000Y-129564802D01*
X112490000Y-139250000D01*
X112547852Y-139540839D01*
X112712599Y-139787401D01*
X113564878Y-140639680D01*
X113564838Y-140685167D01*
X113706883Y-141028943D01*
X113817713Y-141139967D01*
X103214769Y-141139967D01*
X100760000Y-138685198D01*
X100760000Y-132690000D01*
X100723840Y-132508213D01*
X100702148Y-132399160D01*
X100537401Y-132152599D01*
X99447440Y-131062638D01*
X99447440Y-130890000D01*
X99403162Y-130654683D01*
X99264090Y-130438559D01*
X99051890Y-130293569D01*
X98800000Y-130242560D01*
X98760000Y-130242560D01*
X98760000Y-129426742D01*
X98885317Y-129403162D01*
X99101441Y-129264090D01*
X99246431Y-129051890D01*
X99297440Y-128800000D01*
X99297440Y-128100000D01*
X99253162Y-127864683D01*
X99114090Y-127648559D01*
X98901890Y-127503569D01*
X98888803Y-127500919D01*
X99101441Y-127364090D01*
X99246431Y-127151890D01*
X99297440Y-126900000D01*
X99297440Y-126260000D01*
X104685198Y-126260000D01*
X106064878Y-127639680D01*
X106064838Y-127685167D01*
X106206883Y-128028943D01*
X106469673Y-128292192D01*
X106813201Y-128434838D01*
X107185167Y-128435162D01*
X107528943Y-128293117D01*
X107792192Y-128030327D01*
X107934838Y-127686799D01*
X107935162Y-127314833D01*
X107793117Y-126971057D01*
X107530327Y-126707808D01*
X107186799Y-126565162D01*
X107139923Y-126565121D01*
X105537401Y-124962599D01*
X105290839Y-124797852D01*
X105000000Y-124740000D01*
X98562463Y-124740000D01*
X98530327Y-124707808D01*
X98363178Y-124638401D01*
X99866579Y-123135000D01*
X105633420Y-123135000D01*
X106374208Y-123875787D01*
G36*
X112874208Y-127125787D02*
X112874210Y-127125790D01*
X113060729Y-127250417D01*
X113161326Y-127317634D01*
X113500000Y-127385001D01*
X113500005Y-127385000D01*
X114383420Y-127385000D01*
X116801928Y-129803507D01*
X116801928Y-130257035D01*
X116568053Y-130444740D01*
X116530651Y-130489314D01*
X116251957Y-130997306D01*
X116188877Y-131573280D01*
X116189291Y-131574702D01*
X116156921Y-131556504D01*
X115901967Y-131524118D01*
X115654499Y-131593474D01*
X115453511Y-131753645D01*
X114360772Y-133055920D01*
X114243432Y-133264645D01*
X114211046Y-133519599D01*
X114280402Y-133767067D01*
X114440573Y-133968055D01*
X115742848Y-135060794D01*
X115951573Y-135178134D01*
X116206527Y-135210520D01*
X116453995Y-135141164D01*
X116540169Y-135072491D01*
X116595104Y-135481167D01*
X116800043Y-135874830D01*
X117054133Y-135929663D01*
X117821078Y-135015654D01*
X117805757Y-135002798D01*
X117969026Y-134808223D01*
X117984346Y-134821078D01*
X117997202Y-134805757D01*
X118191777Y-134969026D01*
X118178922Y-134984346D01*
X118194243Y-134997202D01*
X118030974Y-135191777D01*
X118015654Y-135178922D01*
X117248708Y-136092931D01*
X117346831Y-136333639D01*
X117770100Y-136467106D01*
X118349037Y-136443408D01*
X118492311Y-136377072D01*
X118447702Y-136784394D01*
X118508985Y-136994646D01*
X115363130Y-140140501D01*
X115293117Y-139971057D01*
X115030327Y-139707808D01*
X114686799Y-139565162D01*
X114639923Y-139565121D01*
X114010000Y-138935198D01*
X114010000Y-129250000D01*
X113952148Y-128959161D01*
X113787401Y-128712599D01*
X111935122Y-126860320D01*
X111935162Y-126814833D01*
X111793117Y-126471057D01*
X111530327Y-126207808D01*
X111186799Y-126065162D01*
X111079586Y-126065069D01*
X111079586Y-125331166D01*
X112874208Y-127125787D01*
X112874208Y-127125787D01*
G37*
X112874208Y-127125787D02*
X112874210Y-127125790D01*
X113060729Y-127250417D01*
X113161326Y-127317634D01*
X113500000Y-127385001D01*
X113500005Y-127385000D01*
X114383420Y-127385000D01*
X116801928Y-129803507D01*
X116801928Y-130257035D01*
X116568053Y-130444740D01*
X116530651Y-130489314D01*
X116251957Y-130997306D01*
X116188877Y-131573280D01*
X116189291Y-131574702D01*
X116156921Y-131556504D01*
X115901967Y-131524118D01*
X115654499Y-131593474D01*
X115453511Y-131753645D01*
X114360772Y-133055920D01*
X114243432Y-133264645D01*
X114211046Y-133519599D01*
X114280402Y-133767067D01*
X114440573Y-133968055D01*
X115742848Y-135060794D01*
X115951573Y-135178134D01*
X116206527Y-135210520D01*
X116453995Y-135141164D01*
X116540169Y-135072491D01*
X116595104Y-135481167D01*
X116800043Y-135874830D01*
X117054133Y-135929663D01*
X117821078Y-135015654D01*
X117805757Y-135002798D01*
X117969026Y-134808223D01*
X117984346Y-134821078D01*
X117997202Y-134805757D01*
X118191777Y-134969026D01*
X118178922Y-134984346D01*
X118194243Y-134997202D01*
X118030974Y-135191777D01*
X118015654Y-135178922D01*
X117248708Y-136092931D01*
X117346831Y-136333639D01*
X117770100Y-136467106D01*
X118349037Y-136443408D01*
X118492311Y-136377072D01*
X118447702Y-136784394D01*
X118508985Y-136994646D01*
X115363130Y-140140501D01*
X115293117Y-139971057D01*
X115030327Y-139707808D01*
X114686799Y-139565162D01*
X114639923Y-139565121D01*
X114010000Y-138935198D01*
X114010000Y-129250000D01*
X113952148Y-128959161D01*
X113787401Y-128712599D01*
X111935122Y-126860320D01*
X111935162Y-126814833D01*
X111793117Y-126471057D01*
X111530327Y-126207808D01*
X111186799Y-126065162D01*
X111079586Y-126065069D01*
X111079586Y-125331166D01*
X112874208Y-127125787D01*
G36*
X122712599Y-133287401D02*
X122959161Y-133452148D01*
X123250000Y-133510000D01*
X123685198Y-133510000D01*
X126740000Y-136564802D01*
X126740000Y-137212119D01*
X126669896Y-137077458D01*
X126415806Y-137022625D01*
X125648861Y-137936634D01*
X125664182Y-137949490D01*
X125500913Y-138144065D01*
X125485593Y-138131210D01*
X125472737Y-138146531D01*
X125278162Y-137983262D01*
X125291017Y-137967942D01*
X124376499Y-137200570D01*
X123539840Y-136498530D01*
X123526984Y-136513851D01*
X123332409Y-136350582D01*
X123345264Y-136335262D01*
X123329943Y-136322406D01*
X123345426Y-136303954D01*
X123703108Y-136303954D01*
X124617626Y-137071326D01*
X125454285Y-137773366D01*
X126221231Y-136859357D01*
X126123108Y-136618649D01*
X125699839Y-136485182D01*
X125120902Y-136508880D01*
X124961184Y-136582829D01*
X125006275Y-136412697D01*
X124929082Y-135838441D01*
X124724143Y-135444778D01*
X124470053Y-135389945D01*
X123703108Y-136303954D01*
X123345426Y-136303954D01*
X123493212Y-136127831D01*
X123508532Y-136140686D01*
X124275478Y-135226677D01*
X124177355Y-134985969D01*
X123754086Y-134852502D01*
X123175149Y-134876200D01*
X123031875Y-134942536D01*
X123076484Y-134535213D01*
X122914345Y-133978943D01*
X122551673Y-133527064D01*
X122043681Y-133248370D01*
X121467707Y-133185290D01*
X121087631Y-133296073D01*
X121130731Y-132902533D01*
X120968592Y-132346263D01*
X120899358Y-132260000D01*
X121685198Y-132260000D01*
X122712599Y-133287401D01*
X122712599Y-133287401D01*
G37*
X122712599Y-133287401D02*
X122959161Y-133452148D01*
X123250000Y-133510000D01*
X123685198Y-133510000D01*
X126740000Y-136564802D01*
X126740000Y-137212119D01*
X126669896Y-137077458D01*
X126415806Y-137022625D01*
X125648861Y-137936634D01*
X125664182Y-137949490D01*
X125500913Y-138144065D01*
X125485593Y-138131210D01*
X125472737Y-138146531D01*
X125278162Y-137983262D01*
X125291017Y-137967942D01*
X124376499Y-137200570D01*
X123539840Y-136498530D01*
X123526984Y-136513851D01*
X123332409Y-136350582D01*
X123345264Y-136335262D01*
X123329943Y-136322406D01*
X123345426Y-136303954D01*
X123703108Y-136303954D01*
X124617626Y-137071326D01*
X125454285Y-137773366D01*
X126221231Y-136859357D01*
X126123108Y-136618649D01*
X125699839Y-136485182D01*
X125120902Y-136508880D01*
X124961184Y-136582829D01*
X125006275Y-136412697D01*
X124929082Y-135838441D01*
X124724143Y-135444778D01*
X124470053Y-135389945D01*
X123703108Y-136303954D01*
X123345426Y-136303954D01*
X123493212Y-136127831D01*
X123508532Y-136140686D01*
X124275478Y-135226677D01*
X124177355Y-134985969D01*
X123754086Y-134852502D01*
X123175149Y-134876200D01*
X123031875Y-134942536D01*
X123076484Y-134535213D01*
X122914345Y-133978943D01*
X122551673Y-133527064D01*
X122043681Y-133248370D01*
X121467707Y-133185290D01*
X121087631Y-133296073D01*
X121130731Y-132902533D01*
X120968592Y-132346263D01*
X120899358Y-132260000D01*
X121685198Y-132260000D01*
X122712599Y-133287401D01*
G36*
X97927000Y-134873000D02*
X97947000Y-134873000D01*
X97947000Y-135127000D01*
X97927000Y-135127000D01*
X97927000Y-135776250D01*
X98085750Y-135935000D01*
X98926309Y-135935000D01*
X99159698Y-135838327D01*
X99240000Y-135758025D01*
X99240000Y-137925198D01*
X97249802Y-135935000D01*
X97514250Y-135935000D01*
X97673000Y-135776250D01*
X97673000Y-135127000D01*
X97653000Y-135127000D01*
X97653000Y-134873000D01*
X97673000Y-134873000D01*
X97673000Y-134853000D01*
X97927000Y-134853000D01*
X97927000Y-134873000D01*
X97927000Y-134873000D01*
G37*
X97927000Y-134873000D02*
X97947000Y-134873000D01*
X97947000Y-135127000D01*
X97927000Y-135127000D01*
X97927000Y-135776250D01*
X98085750Y-135935000D01*
X98926309Y-135935000D01*
X99159698Y-135838327D01*
X99240000Y-135758025D01*
X99240000Y-137925198D01*
X97249802Y-135935000D01*
X97514250Y-135935000D01*
X97673000Y-135776250D01*
X97673000Y-135127000D01*
X97653000Y-135127000D01*
X97653000Y-134873000D01*
X97673000Y-134873000D01*
X97673000Y-134853000D01*
X97927000Y-134853000D01*
X97927000Y-134873000D01*
G36*
X96224210Y-124274210D02*
X96032367Y-124561325D01*
X96021190Y-124617516D01*
X95964999Y-124900000D01*
X95965000Y-124900005D01*
X95965000Y-125699995D01*
X95964999Y-125700000D01*
X95987849Y-125814871D01*
X95824210Y-125924210D01*
X95824208Y-125924213D01*
X95285000Y-126463420D01*
X95285000Y-126422998D01*
X95126252Y-126422998D01*
X95285000Y-126264250D01*
X95285000Y-126073691D01*
X95188327Y-125840302D01*
X95009699Y-125661673D01*
X94776310Y-125565000D01*
X94285750Y-125565000D01*
X94127000Y-125723750D01*
X94127000Y-126423000D01*
X94147000Y-126423000D01*
X94147000Y-126677000D01*
X94127000Y-126677000D01*
X94127000Y-126697000D01*
X93873000Y-126697000D01*
X93873000Y-126677000D01*
X92873750Y-126677000D01*
X92715000Y-126835750D01*
X92715000Y-127026309D01*
X92811673Y-127259698D01*
X92990301Y-127438327D01*
X93126287Y-127494654D01*
X93114683Y-127496838D01*
X92898559Y-127635910D01*
X92753569Y-127848110D01*
X92702560Y-128100000D01*
X92702560Y-128311215D01*
X92471057Y-128406870D01*
X92207808Y-128669660D01*
X92065162Y-129013188D01*
X92064964Y-129240000D01*
X90250000Y-129240000D01*
X89959160Y-129297852D01*
X89712599Y-129462599D01*
X88962599Y-130212599D01*
X88937225Y-130250573D01*
X89246215Y-129544312D01*
X89676742Y-128635422D01*
X89957326Y-128167782D01*
X90482441Y-127308503D01*
X91029849Y-126624243D01*
X91580401Y-126073691D01*
X92715000Y-126073691D01*
X92715000Y-126264250D01*
X92873750Y-126423000D01*
X93873000Y-126423000D01*
X93873000Y-125723750D01*
X93714250Y-125565000D01*
X93223690Y-125565000D01*
X92990301Y-125661673D01*
X92811673Y-125840302D01*
X92715000Y-126073691D01*
X91580401Y-126073691D01*
X92084555Y-125569537D01*
X93207841Y-124592767D01*
X93702725Y-124187861D01*
X95126181Y-123381236D01*
X96654049Y-122665047D01*
X97570586Y-122390086D01*
X98239138Y-122259283D01*
X96224210Y-124274210D01*
X96224210Y-124274210D01*
G37*
X96224210Y-124274210D02*
X96032367Y-124561325D01*
X96021190Y-124617516D01*
X95964999Y-124900000D01*
X95965000Y-124900005D01*
X95965000Y-125699995D01*
X95964999Y-125700000D01*
X95987849Y-125814871D01*
X95824210Y-125924210D01*
X95824208Y-125924213D01*
X95285000Y-126463420D01*
X95285000Y-126422998D01*
X95126252Y-126422998D01*
X95285000Y-126264250D01*
X95285000Y-126073691D01*
X95188327Y-125840302D01*
X95009699Y-125661673D01*
X94776310Y-125565000D01*
X94285750Y-125565000D01*
X94127000Y-125723750D01*
X94127000Y-126423000D01*
X94147000Y-126423000D01*
X94147000Y-126677000D01*
X94127000Y-126677000D01*
X94127000Y-126697000D01*
X93873000Y-126697000D01*
X93873000Y-126677000D01*
X92873750Y-126677000D01*
X92715000Y-126835750D01*
X92715000Y-127026309D01*
X92811673Y-127259698D01*
X92990301Y-127438327D01*
X93126287Y-127494654D01*
X93114683Y-127496838D01*
X92898559Y-127635910D01*
X92753569Y-127848110D01*
X92702560Y-128100000D01*
X92702560Y-128311215D01*
X92471057Y-128406870D01*
X92207808Y-128669660D01*
X92065162Y-129013188D01*
X92064964Y-129240000D01*
X90250000Y-129240000D01*
X89959160Y-129297852D01*
X89712599Y-129462599D01*
X88962599Y-130212599D01*
X88937225Y-130250573D01*
X89246215Y-129544312D01*
X89676742Y-128635422D01*
X89957326Y-128167782D01*
X90482441Y-127308503D01*
X91029849Y-126624243D01*
X91580401Y-126073691D01*
X92715000Y-126073691D01*
X92715000Y-126264250D01*
X92873750Y-126423000D01*
X93873000Y-126423000D01*
X93873000Y-125723750D01*
X93714250Y-125565000D01*
X93223690Y-125565000D01*
X92990301Y-125661673D01*
X92811673Y-125840302D01*
X92715000Y-126073691D01*
X91580401Y-126073691D01*
X92084555Y-125569537D01*
X93207841Y-124592767D01*
X93702725Y-124187861D01*
X95126181Y-123381236D01*
X96654049Y-122665047D01*
X97570586Y-122390086D01*
X98239138Y-122259283D01*
X96224210Y-124274210D01*
M02*
