G04 #@! TF.FileFunction,Legend,Bot*
%FSLAX46Y46*%
G04 Gerber Fmt 4.6, Leading zero omitted, Abs format (unit mm)*
G04 Created by KiCad (PCBNEW 4.0.6-e0-6349~52~ubuntu16.10.1) date Sun Jul  9 07:11:00 2017*
%MOMM*%
%LPD*%
G01*
G04 APERTURE LIST*
%ADD10C,0.100000*%
%ADD11C,0.150000*%
%ADD12C,2.100000*%
%ADD13O,2.100000X2.100000*%
%ADD14R,1.700000X1.100000*%
%ADD15R,2.400000X1.000000*%
%ADD16C,2.100000*%
G04 APERTURE END LIST*
D10*
D11*
X96216228Y-131295000D02*
G75*
G03X96216228Y-131295000I-316228J0D01*
G01*
X95661905Y-132547381D02*
X95661905Y-133356905D01*
X95614286Y-133452143D01*
X95566667Y-133499762D01*
X95471429Y-133547381D01*
X95280952Y-133547381D01*
X95185714Y-133499762D01*
X95138095Y-133452143D01*
X95090476Y-133356905D01*
X95090476Y-132547381D01*
X94090476Y-133547381D02*
X94661905Y-133547381D01*
X94376191Y-133547381D02*
X94376191Y-132547381D01*
X94471429Y-132690238D01*
X94566667Y-132785476D01*
X94661905Y-132833095D01*
%LPC*%
D10*
G36*
X94228025Y-145224726D02*
X93167425Y-143960753D01*
X94239887Y-143060850D01*
X95300487Y-144324823D01*
X94228025Y-145224726D01*
X94228025Y-145224726D01*
G37*
G36*
X95760113Y-143939150D02*
X94699513Y-142675177D01*
X95771975Y-141775274D01*
X96832575Y-143039247D01*
X95760113Y-143939150D01*
X95760113Y-143939150D01*
G37*
D12*
X100250000Y-145710000D03*
D13*
X102790000Y-145710000D03*
X100250000Y-148250000D03*
X102790000Y-148250000D03*
X100250000Y-150790000D03*
X102790000Y-150790000D03*
X100250000Y-153330000D03*
X102790000Y-153330000D03*
D14*
X92000000Y-139450000D03*
X92000000Y-137550000D03*
X94000000Y-126550000D03*
X94000000Y-128450000D03*
X98000000Y-126550000D03*
X98000000Y-128450000D03*
D15*
X97800000Y-131190000D03*
X97800000Y-132460000D03*
X97800000Y-133730000D03*
X97800000Y-135000000D03*
X92000000Y-135000000D03*
X92000000Y-133730000D03*
X92000000Y-132460000D03*
X92000000Y-131190000D03*
D10*
G36*
X116183667Y-134846593D02*
X114574973Y-133496739D01*
X115924827Y-131888045D01*
X117533521Y-133237899D01*
X116183667Y-134846593D01*
X116183667Y-134846593D01*
G37*
D16*
X117686928Y-131421566D02*
X117686928Y-131421566D01*
X118000000Y-135000000D02*
X118000000Y-135000000D01*
X119632680Y-133054247D02*
X119632680Y-133054247D01*
X119945753Y-136632680D02*
X119945753Y-136632680D01*
X121578433Y-134686927D02*
X121578433Y-134686927D01*
X121891506Y-138265361D02*
X121891506Y-138265361D01*
X123524186Y-136319608D02*
X123524186Y-136319608D01*
X123837259Y-139898041D02*
X123837259Y-139898041D01*
X125469939Y-137952288D02*
X125469939Y-137952288D01*
M02*
