G04 #@! TF.FileFunction,Copper,L1,Top,Signal*
%FSLAX46Y46*%
G04 Gerber Fmt 4.6, Leading zero omitted, Abs format (unit mm)*
G04 Created by KiCad (PCBNEW 4.0.6-e0-6349~52~ubuntu16.10.1) date Sun Jul  9 07:11:00 2017*
%MOMM*%
%LPD*%
G01*
G04 APERTURE LIST*
%ADD10C,0.100000*%
%ADD11C,1.700000*%
%ADD12O,1.700000X1.700000*%
%ADD13C,1.700000*%
%ADD14C,0.600000*%
%ADD15C,0.500000*%
%ADD16C,0.250000*%
%ADD17C,0.254000*%
G04 APERTURE END LIST*
D10*
D11*
X100250000Y-145710000D03*
D12*
X102790000Y-145710000D03*
X100250000Y-148250000D03*
X102790000Y-148250000D03*
X100250000Y-150790000D03*
X102790000Y-150790000D03*
X100250000Y-153330000D03*
X102790000Y-153330000D03*
D10*
G36*
X94072724Y-138225962D02*
X93172724Y-136667116D01*
X94385160Y-135967116D01*
X95285160Y-137525962D01*
X94072724Y-138225962D01*
X94072724Y-138225962D01*
G37*
G36*
X91214840Y-139875962D02*
X90314840Y-138317116D01*
X91527276Y-137617116D01*
X92427276Y-139175962D01*
X91214840Y-139875962D01*
X91214840Y-139875962D01*
G37*
G36*
X93614840Y-144032884D02*
X92714840Y-142474038D01*
X93927276Y-141774038D01*
X94827276Y-143332884D01*
X93614840Y-144032884D01*
X93614840Y-144032884D01*
G37*
G36*
X96472724Y-142382884D02*
X95572724Y-140824038D01*
X96785160Y-140124038D01*
X97685160Y-141682884D01*
X96472724Y-142382884D01*
X96472724Y-142382884D01*
G37*
G36*
X97158821Y-127263561D02*
X98537701Y-126106543D01*
X99437603Y-127179005D01*
X98058723Y-128336023D01*
X97158821Y-127263561D01*
X97158821Y-127263561D01*
G37*
G36*
X95037622Y-124735614D02*
X96416502Y-123578596D01*
X97316404Y-124651058D01*
X95937524Y-125808076D01*
X95037622Y-124735614D01*
X95037622Y-124735614D01*
G37*
G36*
X91360609Y-127820995D02*
X92739489Y-126663977D01*
X93639391Y-127736439D01*
X92260511Y-128893457D01*
X91360609Y-127820995D01*
X91360609Y-127820995D01*
G37*
G36*
X93481808Y-130348942D02*
X94860688Y-129191924D01*
X95760590Y-130264386D01*
X94381710Y-131421404D01*
X93481808Y-130348942D01*
X93481808Y-130348942D01*
G37*
G36*
X109084620Y-127405738D02*
X110776066Y-128021374D01*
X110297238Y-129336944D01*
X108605792Y-128721308D01*
X109084620Y-127405738D01*
X109084620Y-127405738D01*
G37*
G36*
X110213287Y-124304753D02*
X111904733Y-124920389D01*
X111425905Y-126235959D01*
X109734459Y-125620323D01*
X110213287Y-124304753D01*
X110213287Y-124304753D01*
G37*
G36*
X105702762Y-122663056D02*
X107394208Y-123278692D01*
X106915380Y-124594262D01*
X105223934Y-123978626D01*
X105702762Y-122663056D01*
X105702762Y-122663056D01*
G37*
G36*
X104574095Y-125764041D02*
X106265541Y-126379677D01*
X105786713Y-127695247D01*
X104095267Y-127079611D01*
X104574095Y-125764041D01*
X104574095Y-125764041D01*
G37*
G36*
X117038418Y-143691924D02*
X118417298Y-144848942D01*
X117517396Y-145921404D01*
X116138516Y-144764386D01*
X117038418Y-143691924D01*
X117038418Y-143691924D01*
G37*
G36*
X119159617Y-141163977D02*
X120538497Y-142320995D01*
X119638595Y-143393457D01*
X118259715Y-142236439D01*
X119159617Y-141163977D01*
X119159617Y-141163977D01*
G37*
G36*
X115482604Y-138078596D02*
X116861484Y-139235614D01*
X115961582Y-140308076D01*
X114582702Y-139151058D01*
X115482604Y-138078596D01*
X115482604Y-138078596D01*
G37*
G36*
X113361405Y-140606543D02*
X114740285Y-141763561D01*
X113840383Y-142836023D01*
X112461503Y-141679005D01*
X113361405Y-140606543D01*
X113361405Y-140606543D01*
G37*
G36*
X110515156Y-150158821D02*
X111672174Y-151537701D01*
X110599712Y-152437603D01*
X109442694Y-151058723D01*
X110515156Y-150158821D01*
X110515156Y-150158821D01*
G37*
G36*
X113043103Y-148037622D02*
X114200121Y-149416502D01*
X113127659Y-150316404D01*
X111970641Y-148937524D01*
X113043103Y-148037622D01*
X113043103Y-148037622D01*
G37*
G36*
X109957722Y-144360609D02*
X111114740Y-145739489D01*
X110042278Y-146639391D01*
X108885260Y-145260511D01*
X109957722Y-144360609D01*
X109957722Y-144360609D01*
G37*
G36*
X107429775Y-146481808D02*
X108586793Y-147860688D01*
X107514331Y-148760590D01*
X106357313Y-147381710D01*
X107429775Y-146481808D01*
X107429775Y-146481808D01*
G37*
G36*
X116159015Y-134564826D02*
X114856740Y-133472087D01*
X115949479Y-132169812D01*
X117251754Y-133262551D01*
X116159015Y-134564826D01*
X116159015Y-134564826D01*
G37*
D13*
X117686928Y-131421566D02*
X117686928Y-131421566D01*
X118000000Y-135000000D02*
X118000000Y-135000000D01*
X119632680Y-133054247D02*
X119632680Y-133054247D01*
X119945753Y-136632680D02*
X119945753Y-136632680D01*
X121578433Y-134686927D02*
X121578433Y-134686927D01*
X121891506Y-138265361D02*
X121891506Y-138265361D01*
X123524186Y-136319608D02*
X123524186Y-136319608D01*
X123837259Y-139898041D02*
X123837259Y-139898041D01*
X125469939Y-137952288D02*
X125469939Y-137952288D01*
D14*
X118782950Y-144375010D03*
X110194586Y-126758312D03*
X109250000Y-149500000D03*
X95750000Y-127750000D03*
X94500000Y-139000000D03*
X107750000Y-125750000D03*
X95000000Y-142000000D03*
X95445201Y-133113476D03*
X95250000Y-126250000D03*
X93000000Y-129199987D03*
X96500000Y-129500000D03*
X93000000Y-130000000D03*
X91750000Y-140750000D03*
X93000000Y-140500000D03*
X107000000Y-127500000D03*
X98000000Y-125500000D03*
X114500000Y-140500000D03*
X111000000Y-127000000D03*
X115749992Y-144250000D03*
X109750000Y-148250000D03*
D15*
X118466913Y-144806664D02*
X118782950Y-144490627D01*
X117277907Y-144806664D02*
X118466913Y-144806664D01*
X118782950Y-144490627D02*
X118782950Y-144375010D01*
X109894587Y-127058311D02*
X110194586Y-126758312D01*
X109690929Y-128371341D02*
X109690929Y-127261969D01*
X109690929Y-127261969D02*
X109894587Y-127058311D01*
X109250000Y-149500000D02*
X109250000Y-149990778D01*
X109250000Y-149990778D02*
X110557434Y-151298212D01*
X95750000Y-127750000D02*
X97769495Y-127750000D01*
X97769495Y-127750000D02*
X98298212Y-127221283D01*
X94500000Y-139000000D02*
X94500000Y-137367597D01*
X94500000Y-137367597D02*
X94228942Y-137096539D01*
D16*
X106309071Y-123628659D02*
X107750000Y-125069588D01*
X107750000Y-125069588D02*
X107750000Y-125750000D01*
X95000000Y-142000000D02*
X94674519Y-142000000D01*
X94674519Y-142000000D02*
X93771058Y-142903461D01*
X93299999Y-128899988D02*
X93000000Y-129199987D01*
X93333073Y-128866914D02*
X93299999Y-128899988D01*
X96500000Y-129500000D02*
X95866914Y-128866914D01*
X95866914Y-128866914D02*
X93333073Y-128866914D01*
X93000000Y-130000000D02*
X94314535Y-130000000D01*
X94314535Y-130000000D02*
X94621199Y-130306664D01*
X91371058Y-138746539D02*
X91371058Y-140371058D01*
X91371058Y-140371058D02*
X91750000Y-140750000D01*
X93000000Y-140500000D02*
X93753461Y-141253461D01*
X93753461Y-141253461D02*
X96628942Y-141253461D01*
X107000000Y-127500000D02*
X105950760Y-127500000D01*
X105950760Y-127500000D02*
X105180404Y-126729644D01*
X96177013Y-124693336D02*
X97193336Y-124693336D01*
X97193336Y-124693336D02*
X98000000Y-125500000D01*
X114500000Y-140500000D02*
X114500000Y-140822177D01*
X114500000Y-140822177D02*
X113600894Y-141721283D01*
X110819596Y-125270356D02*
X110819596Y-126819596D01*
X110819596Y-126819596D02*
X111000000Y-127000000D01*
X116049991Y-143950001D02*
X115749992Y-144250000D01*
X119399106Y-142278717D02*
X117721275Y-142278717D01*
X117721275Y-142278717D02*
X116049991Y-143950001D01*
X109750000Y-148250000D02*
X108100854Y-148250000D01*
X108100854Y-148250000D02*
X107472053Y-147621199D01*
D17*
G36*
X100629048Y-115750930D02*
X101312719Y-115911794D01*
X101660515Y-116143658D01*
X101841226Y-116474960D01*
X101952858Y-116847068D01*
X101990000Y-117144201D01*
X101990000Y-117299543D01*
X101908067Y-117873073D01*
X101635206Y-118600702D01*
X101628103Y-118644047D01*
X101609697Y-118683924D01*
X101605892Y-118779596D01*
X101590409Y-118874084D01*
X101600434Y-118916844D01*
X101598688Y-118960733D01*
X101748688Y-119910733D01*
X101760913Y-119943918D01*
X101762992Y-119979220D01*
X102062992Y-121129219D01*
X102068948Y-121141502D01*
X102070266Y-121155087D01*
X102129189Y-121265722D01*
X102183872Y-121378483D01*
X102194072Y-121387548D01*
X102200490Y-121399599D01*
X102297266Y-121479263D01*
X102390939Y-121562515D01*
X102403836Y-121566988D01*
X102414374Y-121575663D01*
X102534268Y-121612228D01*
X102652671Y-121653296D01*
X102666294Y-121652494D01*
X102679352Y-121656476D01*
X103670623Y-121755603D01*
X104824299Y-121899812D01*
X105497377Y-122058184D01*
X105319924Y-122140932D01*
X105149257Y-122327182D01*
X104964375Y-122835141D01*
X105059256Y-123038613D01*
X106233167Y-123465881D01*
X106240007Y-123447088D01*
X106478690Y-123533960D01*
X106471849Y-123552755D01*
X107645760Y-123980023D01*
X107849231Y-123885143D01*
X108034113Y-123377183D01*
X108023094Y-123124805D01*
X107916334Y-122895855D01*
X107735697Y-122730331D01*
X108078654Y-122856684D01*
X109903575Y-123695160D01*
X109909998Y-123696693D01*
X109915419Y-123700472D01*
X109947462Y-123714491D01*
X109738977Y-123864062D01*
X109604892Y-124083316D01*
X109126064Y-125398886D01*
X109087189Y-125635155D01*
X109143955Y-125885811D01*
X109293768Y-126094633D01*
X109443965Y-126186487D01*
X109402394Y-126227985D01*
X109352020Y-126349298D01*
X109268797Y-126432521D01*
X109268795Y-126432524D01*
X109065139Y-126636179D01*
X108968030Y-126781513D01*
X108819132Y-126815234D01*
X108610310Y-126965047D01*
X108476225Y-127184301D01*
X107997397Y-128499871D01*
X107958522Y-128736140D01*
X108015288Y-128986796D01*
X108165101Y-129195618D01*
X108384354Y-129329703D01*
X110075800Y-129945339D01*
X110312070Y-129984214D01*
X110562726Y-129927448D01*
X110771548Y-129777635D01*
X110905633Y-129558381D01*
X111384461Y-128242811D01*
X111423336Y-128006542D01*
X111388174Y-127851281D01*
X111528943Y-127793117D01*
X111792192Y-127530327D01*
X111934838Y-127186799D01*
X111935162Y-126814833D01*
X111883130Y-126688907D01*
X111900215Y-126676650D01*
X112034300Y-126457396D01*
X112513128Y-125141826D01*
X112513538Y-125139335D01*
X112986369Y-125477071D01*
X115467941Y-127263803D01*
X116801512Y-128350417D01*
X116835509Y-128368435D01*
X116863058Y-128395295D01*
X116956953Y-128432801D01*
X117046286Y-128480147D01*
X117084589Y-128483784D01*
X117120322Y-128498057D01*
X117221423Y-128496776D01*
X117322074Y-128506332D01*
X117358853Y-128495034D01*
X117397328Y-128494546D01*
X119024007Y-128149493D01*
X119300457Y-128110000D01*
X120100561Y-128110000D01*
X120302242Y-128167623D01*
X120820375Y-128406762D01*
X121272990Y-128777082D01*
X121480049Y-128984141D01*
X122065162Y-129659272D01*
X122271854Y-130031316D01*
X122417211Y-130322031D01*
X122440000Y-130458763D01*
X122440000Y-130849543D01*
X122406190Y-131086213D01*
X122326435Y-131325478D01*
X122315300Y-131413807D01*
X122291787Y-131499669D01*
X122298132Y-131550000D01*
X122291787Y-131600331D01*
X122315301Y-131686195D01*
X122326435Y-131774522D01*
X122351557Y-131818592D01*
X122364956Y-131867522D01*
X122419542Y-131937855D01*
X122463628Y-132015193D01*
X122503703Y-132046296D01*
X122534807Y-132086372D01*
X122612148Y-132130460D01*
X122682478Y-132185043D01*
X123182478Y-132435043D01*
X123200278Y-132439917D01*
X123215419Y-132450472D01*
X124015418Y-132800472D01*
X124037785Y-132805381D01*
X124057362Y-132817253D01*
X124607362Y-133017253D01*
X124617003Y-133018734D01*
X124625478Y-133023565D01*
X125177608Y-133207608D01*
X125552539Y-133395073D01*
X126229271Y-133981574D01*
X127236574Y-134892944D01*
X127642577Y-135380148D01*
X128706716Y-137739759D01*
X128740000Y-138039319D01*
X128740000Y-138972729D01*
X128695050Y-139557082D01*
X128564334Y-140254231D01*
X128261599Y-141032693D01*
X127929123Y-141572966D01*
X127559730Y-141983402D01*
X126586950Y-142770890D01*
X126261738Y-142974148D01*
X125652469Y-143255349D01*
X125648464Y-143258261D01*
X125643667Y-143259485D01*
X124514686Y-143799432D01*
X123334774Y-144271397D01*
X122335549Y-144509308D01*
X122334528Y-144509777D01*
X122333405Y-144509822D01*
X120897021Y-144856535D01*
X119660758Y-145103788D01*
X119361521Y-145163635D01*
X119408737Y-145116419D01*
X119408740Y-145116417D01*
X119498973Y-144981374D01*
X119575142Y-144905337D01*
X119717788Y-144561809D01*
X119718112Y-144189843D01*
X119654171Y-144035094D01*
X119686108Y-144039151D01*
X119933576Y-143969795D01*
X120134563Y-143809623D01*
X121034465Y-142737161D01*
X121151805Y-142528437D01*
X121184191Y-142273483D01*
X121114835Y-142026015D01*
X120954663Y-141825027D01*
X119575783Y-140668009D01*
X119367059Y-140550669D01*
X119112104Y-140518283D01*
X118864636Y-140587639D01*
X118663649Y-140747811D01*
X118016782Y-141518717D01*
X117721275Y-141518717D01*
X117430436Y-141576569D01*
X117353627Y-141627891D01*
X117183873Y-141741316D01*
X115610312Y-143314878D01*
X115564825Y-143314838D01*
X115221049Y-143456883D01*
X114957800Y-143719673D01*
X114815154Y-144063201D01*
X114814830Y-144435167D01*
X114956875Y-144778943D01*
X115219665Y-145042192D01*
X115563193Y-145184838D01*
X115662238Y-145184924D01*
X115722350Y-145260354D01*
X117101230Y-146417372D01*
X117309954Y-146534712D01*
X117564909Y-146567098D01*
X117782344Y-146506159D01*
X117852870Y-146835279D01*
X118043816Y-147933220D01*
X118088523Y-148648525D01*
X117995797Y-150039407D01*
X117862267Y-150573528D01*
X117622028Y-151486437D01*
X117314936Y-152319971D01*
X116943848Y-152855988D01*
X116457031Y-153387061D01*
X115914958Y-153845739D01*
X114741652Y-154387265D01*
X113462261Y-154798497D01*
X112935867Y-154838989D01*
X111657273Y-154791634D01*
X111375350Y-154756394D01*
X110579093Y-154446738D01*
X109887289Y-154123896D01*
X109304260Y-153765108D01*
X108269997Y-152965905D01*
X108152046Y-152847954D01*
X108078020Y-152798492D01*
X108011740Y-152739064D01*
X107963887Y-152722231D01*
X107921705Y-152694046D01*
X107834390Y-152676678D01*
X107750409Y-152647136D01*
X107699755Y-152649897D01*
X107650000Y-152640000D01*
X107562682Y-152657369D01*
X107473792Y-152662214D01*
X107428051Y-152684149D01*
X107378295Y-152694046D01*
X107304273Y-152743506D01*
X107224000Y-152782000D01*
X107024000Y-152932000D01*
X106946747Y-153018161D01*
X106864032Y-153099075D01*
X106214032Y-154049074D01*
X106200159Y-154081551D01*
X106177463Y-154108609D01*
X105332946Y-155648611D01*
X104710800Y-156701473D01*
X104278149Y-157263920D01*
X103494521Y-157960477D01*
X102233868Y-158614149D01*
X101316557Y-159050964D01*
X100025540Y-159140000D01*
X99295733Y-159140000D01*
X99123972Y-159066388D01*
X98718293Y-158822980D01*
X98066324Y-158257941D01*
X97593850Y-157656610D01*
X96858277Y-156323384D01*
X96734796Y-155911778D01*
X96460000Y-154812596D01*
X96460000Y-154166135D01*
X96507336Y-153124749D01*
X96648462Y-152277992D01*
X96740034Y-151820133D01*
X96981149Y-151000338D01*
X96989499Y-150907498D01*
X97009809Y-150816507D01*
X97001802Y-150770716D01*
X97005966Y-150724424D01*
X96978151Y-150635450D01*
X96962094Y-150543619D01*
X96937176Y-150504381D01*
X96923306Y-150460015D01*
X96863561Y-150388461D01*
X96813583Y-150309762D01*
X95778266Y-149225146D01*
X94953144Y-148250000D01*
X98735907Y-148250000D01*
X98848946Y-148818285D01*
X99170853Y-149300054D01*
X99500026Y-149520000D01*
X99170853Y-149739946D01*
X98848946Y-150221715D01*
X98735907Y-150790000D01*
X98848946Y-151358285D01*
X99170853Y-151840054D01*
X99500026Y-152060000D01*
X99170853Y-152279946D01*
X98848946Y-152761715D01*
X98735907Y-153330000D01*
X98848946Y-153898285D01*
X99170853Y-154380054D01*
X99652622Y-154701961D01*
X100220907Y-154815000D01*
X100279093Y-154815000D01*
X100847378Y-154701961D01*
X101329147Y-154380054D01*
X101518345Y-154096899D01*
X101518355Y-154096924D01*
X101908642Y-154525183D01*
X102433108Y-154771486D01*
X102663000Y-154650819D01*
X102663000Y-153457000D01*
X102917000Y-153457000D01*
X102917000Y-154650819D01*
X103146892Y-154771486D01*
X103671358Y-154525183D01*
X104061645Y-154096924D01*
X104231476Y-153686890D01*
X104110155Y-153457000D01*
X102917000Y-153457000D01*
X102663000Y-153457000D01*
X102643000Y-153457000D01*
X102643000Y-153203000D01*
X102663000Y-153203000D01*
X102663000Y-153183000D01*
X102917000Y-153183000D01*
X102917000Y-153203000D01*
X104110155Y-153203000D01*
X104231476Y-152973110D01*
X104061645Y-152563076D01*
X103671358Y-152134817D01*
X103528447Y-152067702D01*
X103869147Y-151840054D01*
X104191054Y-151358285D01*
X104304093Y-150790000D01*
X104191054Y-150221715D01*
X103869147Y-149739946D01*
X103539974Y-149520000D01*
X103869147Y-149300054D01*
X104191054Y-148818285D01*
X104304093Y-148250000D01*
X104191054Y-147681715D01*
X103946944Y-147316377D01*
X105713178Y-147316377D01*
X105738508Y-147572129D01*
X105861345Y-147797876D01*
X107018363Y-149176756D01*
X107203541Y-149328558D01*
X107448998Y-149404725D01*
X107704750Y-149379395D01*
X107930497Y-149256558D01*
X108224334Y-149010000D01*
X108441063Y-149010000D01*
X108315162Y-149313201D01*
X108314838Y-149685167D01*
X108365000Y-149806569D01*
X108365000Y-149990773D01*
X108364999Y-149990778D01*
X108410936Y-150221715D01*
X108432367Y-150329453D01*
X108598306Y-150577800D01*
X108624210Y-150616568D01*
X108846509Y-150838867D01*
X108798559Y-150993390D01*
X108823889Y-151249142D01*
X108946726Y-151474889D01*
X110103744Y-152853769D01*
X110288922Y-153005571D01*
X110534379Y-153081738D01*
X110790131Y-153056408D01*
X111015878Y-152933571D01*
X112088340Y-152033669D01*
X112240142Y-151848491D01*
X112316309Y-151603034D01*
X112290979Y-151347282D01*
X112168142Y-151121535D01*
X111011124Y-149742655D01*
X110825946Y-149590853D01*
X110580489Y-149514686D01*
X110324737Y-149540016D01*
X110184900Y-149616107D01*
X110185162Y-149314833D01*
X110102940Y-149115840D01*
X110278943Y-149043117D01*
X110450167Y-148872191D01*
X111326506Y-148872191D01*
X111351836Y-149127943D01*
X111474673Y-149353690D01*
X112631691Y-150732570D01*
X112816869Y-150884372D01*
X113062326Y-150960539D01*
X113318078Y-150935209D01*
X113543825Y-150812372D01*
X114616287Y-149912470D01*
X114768089Y-149727292D01*
X114844256Y-149481835D01*
X114818926Y-149226083D01*
X114696089Y-149000336D01*
X113539071Y-147621456D01*
X113353893Y-147469654D01*
X113108436Y-147393487D01*
X112852684Y-147418817D01*
X112626937Y-147541654D01*
X111554475Y-148441556D01*
X111402673Y-148626734D01*
X111326506Y-148872191D01*
X110450167Y-148872191D01*
X110542192Y-148780327D01*
X110684838Y-148436799D01*
X110685162Y-148064833D01*
X110543117Y-147721057D01*
X110280327Y-147457808D01*
X109936799Y-147315162D01*
X109564833Y-147314838D01*
X109221057Y-147456883D01*
X109187882Y-147490000D01*
X109107507Y-147490000D01*
X109082761Y-147444522D01*
X108354840Y-146577019D01*
X109161007Y-146577019D01*
X109474650Y-146950803D01*
X109637030Y-147144321D01*
X109861105Y-147260967D01*
X110112763Y-147282983D01*
X110353690Y-147207019D01*
X110767782Y-146859555D01*
X110787349Y-146635903D01*
X109984346Y-145678922D01*
X109180574Y-146353367D01*
X109161007Y-146577019D01*
X108354840Y-146577019D01*
X107925743Y-146065642D01*
X107740565Y-145913840D01*
X107495108Y-145837673D01*
X107239356Y-145863003D01*
X107013609Y-145985840D01*
X105941147Y-146885742D01*
X105789345Y-147070920D01*
X105713178Y-147316377D01*
X103946944Y-147316377D01*
X103869147Y-147199946D01*
X103528447Y-146972298D01*
X103671358Y-146905183D01*
X104061645Y-146476924D01*
X104231476Y-146066890D01*
X104110155Y-145837000D01*
X102917000Y-145837000D01*
X102917000Y-145857000D01*
X102663000Y-145857000D01*
X102663000Y-145837000D01*
X102643000Y-145837000D01*
X102643000Y-145583000D01*
X102663000Y-145583000D01*
X102663000Y-144389181D01*
X102917000Y-144389181D01*
X102917000Y-145583000D01*
X104110155Y-145583000D01*
X104231476Y-145353110D01*
X104222317Y-145330996D01*
X108241668Y-145330996D01*
X108317631Y-145571922D01*
X108480012Y-145765440D01*
X108793654Y-146139224D01*
X109017306Y-146158791D01*
X109783766Y-145515654D01*
X110178922Y-145515654D01*
X110981924Y-146472635D01*
X111205576Y-146492202D01*
X111619668Y-146144737D01*
X111736315Y-145920662D01*
X111758332Y-145669004D01*
X111682369Y-145428078D01*
X111519988Y-145234560D01*
X111206346Y-144860776D01*
X110982694Y-144841209D01*
X110178922Y-145515654D01*
X109783766Y-145515654D01*
X109821078Y-145484346D01*
X109018076Y-144527365D01*
X108794424Y-144507798D01*
X108380332Y-144855263D01*
X108263685Y-145079338D01*
X108241668Y-145330996D01*
X104222317Y-145330996D01*
X104061645Y-144943076D01*
X103671358Y-144514817D01*
X103350422Y-144364097D01*
X109212651Y-144364097D01*
X110015654Y-145321078D01*
X110819426Y-144646633D01*
X110838993Y-144422981D01*
X110525350Y-144049197D01*
X110362970Y-143855679D01*
X110138895Y-143739033D01*
X109887237Y-143717017D01*
X109646310Y-143792981D01*
X109232218Y-144140445D01*
X109212651Y-144364097D01*
X103350422Y-144364097D01*
X103146892Y-144268514D01*
X102917000Y-144389181D01*
X102663000Y-144389181D01*
X102433108Y-144268514D01*
X101908642Y-144514817D01*
X101533169Y-144926820D01*
X101509656Y-144869914D01*
X101092283Y-144451812D01*
X100546681Y-144225258D01*
X99955911Y-144224743D01*
X99409914Y-144450344D01*
X98991812Y-144867717D01*
X98765258Y-145413319D01*
X98764743Y-146004089D01*
X98990344Y-146550086D01*
X99407717Y-146968188D01*
X99475550Y-146996355D01*
X99170853Y-147199946D01*
X98848946Y-147681715D01*
X98735907Y-148250000D01*
X94953144Y-148250000D01*
X94144736Y-147294609D01*
X93215416Y-146169643D01*
X92888841Y-145703107D01*
X91719385Y-143900195D01*
X91679607Y-143818428D01*
X92757789Y-143818428D01*
X93001760Y-144240997D01*
X93128069Y-144459772D01*
X93328485Y-144613556D01*
X93572496Y-144678938D01*
X93822953Y-144645964D01*
X94291091Y-144375685D01*
X94349198Y-144158828D01*
X93724573Y-143076946D01*
X92815896Y-143601571D01*
X92757789Y-143818428D01*
X91679607Y-143818428D01*
X90838457Y-142089399D01*
X90836080Y-142086267D01*
X90835043Y-142082479D01*
X90237820Y-140888032D01*
X89709588Y-139783547D01*
X89278444Y-138490115D01*
X89251894Y-138397188D01*
X89672371Y-138397188D01*
X89754140Y-138640836D01*
X90611058Y-140125062D01*
X90611058Y-140371058D01*
X90668910Y-140661897D01*
X90814886Y-140880366D01*
X90814838Y-140935167D01*
X90956883Y-141278943D01*
X91219673Y-141542192D01*
X91563201Y-141684838D01*
X91935167Y-141685162D01*
X92278943Y-141543117D01*
X92512494Y-141309973D01*
X92813201Y-141434838D01*
X92860077Y-141434879D01*
X93000865Y-141575667D01*
X92893571Y-141637613D01*
X92972945Y-141775093D01*
X92756091Y-141716987D01*
X92287953Y-141987267D01*
X92134169Y-142187682D01*
X92068786Y-142431693D01*
X92101759Y-142682150D01*
X92228069Y-142900925D01*
X92472039Y-143323494D01*
X92688896Y-143381601D01*
X93436544Y-142949946D01*
X93944543Y-142949946D01*
X94569168Y-144031828D01*
X94786025Y-144089935D01*
X95254163Y-143819655D01*
X95407947Y-143619240D01*
X95473330Y-143375229D01*
X95440357Y-143124772D01*
X95314047Y-142905997D01*
X95070077Y-142483428D01*
X94853220Y-142425321D01*
X93944543Y-142949946D01*
X93436544Y-142949946D01*
X93597573Y-142856976D01*
X93587573Y-142839655D01*
X93807543Y-142712655D01*
X93817543Y-142729976D01*
X94726220Y-142205351D01*
X94777637Y-142013461D01*
X95511838Y-142013461D01*
X95912024Y-142706604D01*
X96068029Y-142888255D01*
X96296531Y-143005888D01*
X96552796Y-143025353D01*
X96796444Y-142943584D01*
X98008880Y-142243584D01*
X98190531Y-142087579D01*
X98308164Y-141859077D01*
X98318232Y-141726517D01*
X111815809Y-141726517D01*
X111885165Y-141973985D01*
X112045337Y-142174973D01*
X113424217Y-143331991D01*
X113632941Y-143449331D01*
X113887896Y-143481717D01*
X114135364Y-143412361D01*
X114336351Y-143252189D01*
X115236253Y-142179727D01*
X115353593Y-141971003D01*
X115385979Y-141716049D01*
X115316623Y-141468581D01*
X115156451Y-141267593D01*
X115119552Y-141236631D01*
X115187704Y-141134632D01*
X115292192Y-141030327D01*
X115432307Y-140692895D01*
X115456653Y-140713324D01*
X115650171Y-140875705D01*
X115891097Y-140951668D01*
X116142755Y-140929651D01*
X116366830Y-140813004D01*
X116714295Y-140398912D01*
X116694728Y-140175260D01*
X115737747Y-139372258D01*
X115724891Y-139387579D01*
X115530316Y-139224310D01*
X115543171Y-139208990D01*
X115505860Y-139177682D01*
X115901015Y-139177682D01*
X116857996Y-139980685D01*
X117081648Y-139961118D01*
X117429112Y-139547026D01*
X117505076Y-139306099D01*
X117483060Y-139054441D01*
X117366414Y-138830366D01*
X117172896Y-138667986D01*
X116799112Y-138354343D01*
X116575460Y-138373910D01*
X115901015Y-139177682D01*
X115505860Y-139177682D01*
X114586190Y-138405987D01*
X114362538Y-138425554D01*
X114015074Y-138839646D01*
X113939110Y-139080573D01*
X113961126Y-139332231D01*
X114077772Y-139556306D01*
X114162803Y-139627655D01*
X113971057Y-139706883D01*
X113707808Y-139969673D01*
X113673576Y-140052112D01*
X113568847Y-139993235D01*
X113313892Y-139960849D01*
X113066424Y-140030205D01*
X112865437Y-140190377D01*
X111965535Y-141262839D01*
X111848195Y-141471563D01*
X111815809Y-141726517D01*
X98318232Y-141726517D01*
X98327629Y-141602812D01*
X98245860Y-141359164D01*
X97345860Y-139800318D01*
X97189855Y-139618667D01*
X96961353Y-139501034D01*
X96705088Y-139481569D01*
X96461440Y-139563338D01*
X95249004Y-140263338D01*
X95067353Y-140419343D01*
X95029197Y-140493461D01*
X94068263Y-140493461D01*
X93935122Y-140360320D01*
X93935162Y-140314833D01*
X93793117Y-139971057D01*
X93530327Y-139707808D01*
X93186799Y-139565162D01*
X92940734Y-139564948D01*
X93050280Y-139352155D01*
X93069745Y-139095890D01*
X92987976Y-138852242D01*
X92087976Y-137293396D01*
X91931971Y-137111745D01*
X91703469Y-136994112D01*
X91447204Y-136974647D01*
X91203556Y-137056416D01*
X89991120Y-137756416D01*
X89809469Y-137912421D01*
X89691836Y-138140923D01*
X89672371Y-138397188D01*
X89251894Y-138397188D01*
X89085930Y-137816316D01*
X88818648Y-136747188D01*
X92530255Y-136747188D01*
X92612024Y-136990836D01*
X93512024Y-138549682D01*
X93615000Y-138669586D01*
X93615000Y-138693178D01*
X93565162Y-138813201D01*
X93564838Y-139185167D01*
X93706883Y-139528943D01*
X93969673Y-139792192D01*
X94313201Y-139934838D01*
X94685167Y-139935162D01*
X95028943Y-139793117D01*
X95292192Y-139530327D01*
X95434838Y-139186799D01*
X95435162Y-138814833D01*
X95385000Y-138693431D01*
X95385000Y-138215919D01*
X95608880Y-138086662D01*
X95724040Y-137987760D01*
X114729891Y-137987760D01*
X114749458Y-138211412D01*
X115706439Y-139014414D01*
X116380884Y-138210642D01*
X116361317Y-137986990D01*
X115987533Y-137673348D01*
X115794015Y-137510967D01*
X115553089Y-137435004D01*
X115301431Y-137457021D01*
X115077356Y-137573668D01*
X114729891Y-137987760D01*
X95724040Y-137987760D01*
X95790531Y-137930657D01*
X95908164Y-137702155D01*
X95927629Y-137445890D01*
X95845860Y-137202242D01*
X94945860Y-135643396D01*
X94789855Y-135461745D01*
X94561353Y-135344112D01*
X94305088Y-135324647D01*
X94061440Y-135406416D01*
X92849004Y-136106416D01*
X92667353Y-136262421D01*
X92549720Y-136490923D01*
X92530255Y-136747188D01*
X88818648Y-136747188D01*
X88747684Y-136463333D01*
X88657352Y-135831005D01*
X88609019Y-134912683D01*
X88606302Y-134901995D01*
X88607548Y-134891038D01*
X88557547Y-134291038D01*
X88534166Y-134209572D01*
X88523565Y-134125478D01*
X88473565Y-133975478D01*
X88405930Y-133856829D01*
X88339072Y-133737938D01*
X88337415Y-133736636D01*
X88336372Y-133734807D01*
X88228481Y-133651072D01*
X88121214Y-133566817D01*
X88119189Y-133566250D01*
X88117522Y-133564956D01*
X87985851Y-133528899D01*
X87952652Y-133519599D01*
X114211046Y-133519599D01*
X114280402Y-133767067D01*
X114440573Y-133968055D01*
X115742848Y-135060794D01*
X115951573Y-135178134D01*
X116206527Y-135210520D01*
X116453995Y-135141164D01*
X116540169Y-135072491D01*
X116595104Y-135481167D01*
X116800043Y-135874830D01*
X117054133Y-135929663D01*
X117821078Y-135015654D01*
X117805757Y-135002798D01*
X117969026Y-134808223D01*
X117984346Y-134821078D01*
X117997202Y-134805757D01*
X118191777Y-134969026D01*
X118178922Y-134984346D01*
X118194243Y-134997202D01*
X118030974Y-135191777D01*
X118015654Y-135178922D01*
X117248708Y-136092931D01*
X117346831Y-136333639D01*
X117770100Y-136467106D01*
X118349037Y-136443408D01*
X118492311Y-136377072D01*
X118447702Y-136784394D01*
X118609841Y-137340664D01*
X118972513Y-137792543D01*
X119480505Y-138071237D01*
X120056479Y-138134317D01*
X120436555Y-138023534D01*
X120393455Y-138417075D01*
X120555594Y-138973345D01*
X120918266Y-139425224D01*
X121426258Y-139703918D01*
X122002232Y-139766998D01*
X122382308Y-139656215D01*
X122339208Y-140049755D01*
X122501347Y-140606025D01*
X122864019Y-141057904D01*
X123372011Y-141336598D01*
X123947985Y-141399678D01*
X124504255Y-141237539D01*
X124956134Y-140874867D01*
X124993536Y-140830293D01*
X125272230Y-140322302D01*
X125335310Y-139746327D01*
X125240015Y-139419386D01*
X125240039Y-139419394D01*
X125818976Y-139395696D01*
X126344776Y-139152252D01*
X126400111Y-138898582D01*
X125485593Y-138131210D01*
X125472737Y-138146531D01*
X125278162Y-137983262D01*
X125291017Y-137967942D01*
X125253706Y-137936634D01*
X125648861Y-137936634D01*
X126563379Y-138704006D01*
X126803587Y-138605462D01*
X126952028Y-138045377D01*
X126874835Y-137471121D01*
X126669896Y-137077458D01*
X126415806Y-137022625D01*
X125648861Y-137936634D01*
X125253706Y-137936634D01*
X124376499Y-137200570D01*
X123539840Y-136498530D01*
X123526984Y-136513851D01*
X123332409Y-136350582D01*
X123345264Y-136335262D01*
X123329943Y-136322406D01*
X123345426Y-136303954D01*
X123703108Y-136303954D01*
X124617626Y-137071326D01*
X125454285Y-137773366D01*
X126221231Y-136859357D01*
X126123108Y-136618649D01*
X125699839Y-136485182D01*
X125120902Y-136508880D01*
X124961184Y-136582829D01*
X125006275Y-136412697D01*
X124929082Y-135838441D01*
X124724143Y-135444778D01*
X124470053Y-135389945D01*
X123703108Y-136303954D01*
X123345426Y-136303954D01*
X123493212Y-136127831D01*
X123508532Y-136140686D01*
X124275478Y-135226677D01*
X124177355Y-134985969D01*
X123754086Y-134852502D01*
X123175149Y-134876200D01*
X123031875Y-134942536D01*
X123076484Y-134535213D01*
X122914345Y-133978943D01*
X122551673Y-133527064D01*
X122043681Y-133248370D01*
X121467707Y-133185290D01*
X121087631Y-133296073D01*
X121130731Y-132902533D01*
X120968592Y-132346263D01*
X120605920Y-131894384D01*
X120097928Y-131615690D01*
X119521954Y-131552610D01*
X119141879Y-131663393D01*
X119184979Y-131269852D01*
X119022840Y-130713582D01*
X118660168Y-130261703D01*
X118152176Y-129983009D01*
X117576202Y-129919929D01*
X117019932Y-130082068D01*
X116568053Y-130444740D01*
X116530651Y-130489314D01*
X116251957Y-130997306D01*
X116188877Y-131573280D01*
X116189291Y-131574702D01*
X116156921Y-131556504D01*
X115901967Y-131524118D01*
X115654499Y-131593474D01*
X115453511Y-131753645D01*
X114360772Y-133055920D01*
X114243432Y-133264645D01*
X114211046Y-133519599D01*
X87952652Y-133519599D01*
X87854454Y-133492091D01*
X87207965Y-133442361D01*
X86061507Y-133342669D01*
X86057925Y-133343063D01*
X86054454Y-133342091D01*
X85404455Y-133292091D01*
X85377060Y-133295383D01*
X85350000Y-133290000D01*
X84600000Y-133290000D01*
X84531777Y-133303571D01*
X84462215Y-133303498D01*
X84397240Y-133330332D01*
X84328295Y-133344046D01*
X84270459Y-133382691D01*
X84206163Y-133409244D01*
X83756163Y-133709244D01*
X83751675Y-133713723D01*
X83745861Y-133716244D01*
X83157607Y-134123497D01*
X82665136Y-134328693D01*
X82450561Y-134390000D01*
X81620302Y-134390000D01*
X81503166Y-134366573D01*
X81366511Y-134311911D01*
X81264090Y-134250459D01*
X81087600Y-134044554D01*
X80829366Y-133571125D01*
X80635043Y-133182478D01*
X80635042Y-133182476D01*
X80610000Y-133132393D01*
X80610000Y-132014023D01*
X80674205Y-131660898D01*
X80830203Y-131411301D01*
X80942862Y-131270477D01*
X81189607Y-131094231D01*
X81616511Y-130838088D01*
X81992428Y-130687723D01*
X82158763Y-130660000D01*
X82250561Y-130660000D01*
X82470035Y-130722707D01*
X82658892Y-130798250D01*
X82858773Y-130898191D01*
X83070725Y-131074817D01*
X83197954Y-131202046D01*
X83290003Y-131263550D01*
X83376851Y-131332198D01*
X83404447Y-131340019D01*
X83428295Y-131355954D01*
X83536869Y-131377551D01*
X83643381Y-131407739D01*
X84893381Y-131507739D01*
X84903150Y-131506596D01*
X84912683Y-131509019D01*
X85862683Y-131559019D01*
X85891256Y-131554883D01*
X85919715Y-131559726D01*
X87719714Y-131509726D01*
X87753501Y-131502024D01*
X87788065Y-131504517D01*
X88188065Y-131454517D01*
X88207624Y-131448020D01*
X88228232Y-131448324D01*
X88338444Y-131404565D01*
X88450968Y-131367188D01*
X88466551Y-131353702D01*
X88485709Y-131346095D01*
X88570781Y-131263494D01*
X88660440Y-131185898D01*
X88669678Y-131167471D01*
X88684463Y-131153115D01*
X88731448Y-131044253D01*
X88784590Y-130938246D01*
X88786072Y-130917690D01*
X88794240Y-130898766D01*
X88929215Y-130268883D01*
X89246215Y-129544312D01*
X89511487Y-128984293D01*
X91507798Y-128984293D01*
X91855263Y-129398385D01*
X92079338Y-129515032D01*
X92119971Y-129518587D01*
X92153651Y-129600098D01*
X92065162Y-129813201D01*
X92064838Y-130185167D01*
X92206883Y-130528943D01*
X92469673Y-130792192D01*
X92813201Y-130934838D01*
X93128491Y-130935113D01*
X93885742Y-131837570D01*
X94070920Y-131989372D01*
X94316377Y-132065539D01*
X94572129Y-132040209D01*
X94797876Y-131917372D01*
X96176756Y-130760354D01*
X96328558Y-130575176D01*
X96372090Y-130434889D01*
X96685167Y-130435162D01*
X97028943Y-130293117D01*
X97292192Y-130030327D01*
X97434838Y-129686799D01*
X97435162Y-129314833D01*
X97293117Y-128971057D01*
X97030327Y-128707808D01*
X96854987Y-128635000D01*
X97464422Y-128635000D01*
X97562755Y-128752189D01*
X97747933Y-128903991D01*
X97993390Y-128980158D01*
X98249142Y-128954828D01*
X98474889Y-128831991D01*
X99853769Y-127674973D01*
X100005571Y-127489795D01*
X100081738Y-127244338D01*
X100066893Y-127094443D01*
X103447997Y-127094443D01*
X103504763Y-127345099D01*
X103654576Y-127553921D01*
X103873829Y-127688006D01*
X105565275Y-128303642D01*
X105801545Y-128342517D01*
X106052201Y-128285751D01*
X106088095Y-128260000D01*
X106437537Y-128260000D01*
X106469673Y-128292192D01*
X106813201Y-128434838D01*
X107185167Y-128435162D01*
X107528943Y-128293117D01*
X107792192Y-128030327D01*
X107934838Y-127686799D01*
X107935162Y-127314833D01*
X107793117Y-126971057D01*
X107530327Y-126707808D01*
X107186799Y-126565162D01*
X106879895Y-126564895D01*
X106912811Y-126364845D01*
X106856045Y-126114189D01*
X106706232Y-125905367D01*
X106486979Y-125771282D01*
X104795533Y-125155646D01*
X104559263Y-125116771D01*
X104308607Y-125173537D01*
X104099785Y-125323350D01*
X103965700Y-125542604D01*
X103486872Y-126858174D01*
X103447997Y-127094443D01*
X100066893Y-127094443D01*
X100056408Y-126988586D01*
X99933571Y-126762839D01*
X99033669Y-125690377D01*
X98934905Y-125609414D01*
X98935162Y-125314833D01*
X98793117Y-124971057D01*
X98530327Y-124707808D01*
X98186799Y-124565162D01*
X98139923Y-124565121D01*
X97815569Y-124240767D01*
X97812372Y-124234892D01*
X97514696Y-123880135D01*
X104584029Y-123880135D01*
X104595048Y-124132513D01*
X104701808Y-124361463D01*
X104888058Y-124532130D01*
X105125442Y-124618531D01*
X105583957Y-124785416D01*
X105601128Y-124777409D01*
X106026111Y-124777409D01*
X106120991Y-124980881D01*
X106579506Y-125147767D01*
X106816890Y-125234167D01*
X107069268Y-125223148D01*
X107298218Y-125116386D01*
X107468885Y-124930136D01*
X107653767Y-124422177D01*
X107558886Y-124218705D01*
X106384975Y-123791437D01*
X106026111Y-124777409D01*
X105601128Y-124777409D01*
X105787429Y-124690536D01*
X106146293Y-123704563D01*
X104972382Y-123277295D01*
X104768911Y-123372175D01*
X104584029Y-123880135D01*
X97514696Y-123880135D01*
X96912470Y-123162430D01*
X96727292Y-123010628D01*
X96481835Y-122934461D01*
X96226083Y-122959791D01*
X96000336Y-123082628D01*
X94621456Y-124239646D01*
X94469654Y-124424824D01*
X94393487Y-124670281D01*
X94418817Y-124926033D01*
X94541654Y-125151780D01*
X95441556Y-126224242D01*
X95626734Y-126376044D01*
X95872191Y-126452211D01*
X96127943Y-126426881D01*
X96353690Y-126304044D01*
X97071635Y-125701617D01*
X97206883Y-126028943D01*
X97396533Y-126218924D01*
X96742655Y-126767593D01*
X96662804Y-126865000D01*
X96056822Y-126865000D01*
X95936799Y-126815162D01*
X95564833Y-126814838D01*
X95221057Y-126956883D01*
X94957808Y-127219673D01*
X94815162Y-127563201D01*
X94814838Y-127935167D01*
X94885802Y-128106914D01*
X94162423Y-128106914D01*
X94260967Y-127917612D01*
X94282983Y-127665954D01*
X94207019Y-127425027D01*
X93859555Y-127010935D01*
X93635903Y-126991368D01*
X92678922Y-127794371D01*
X92691777Y-127809691D01*
X92497202Y-127972960D01*
X92484346Y-127957639D01*
X91527365Y-128760641D01*
X91507798Y-128984293D01*
X89511487Y-128984293D01*
X89676742Y-128635422D01*
X89957326Y-128167782D01*
X90126177Y-127891480D01*
X90717017Y-127891480D01*
X90792981Y-128132407D01*
X91140445Y-128546499D01*
X91364097Y-128566066D01*
X92321078Y-127763063D01*
X91646633Y-126959291D01*
X91422981Y-126939724D01*
X91049197Y-127253367D01*
X90855679Y-127415747D01*
X90739033Y-127639822D01*
X90717017Y-127891480D01*
X90126177Y-127891480D01*
X90482441Y-127308503D01*
X90892425Y-126796023D01*
X91841209Y-126796023D01*
X92515654Y-127599795D01*
X93472635Y-126796793D01*
X93492202Y-126573141D01*
X93144737Y-126159049D01*
X92920662Y-126042402D01*
X92669004Y-126020385D01*
X92428078Y-126096348D01*
X92234560Y-126258729D01*
X91860776Y-126572371D01*
X91841209Y-126796023D01*
X90892425Y-126796023D01*
X91029849Y-126624243D01*
X92084555Y-125569537D01*
X93207841Y-124592767D01*
X93702725Y-124187861D01*
X95126181Y-123381236D01*
X96654049Y-122665047D01*
X97570586Y-122390086D01*
X99836328Y-121946789D01*
X99928982Y-121908751D01*
X100025240Y-121881124D01*
X100056106Y-121856561D01*
X100092600Y-121841578D01*
X100163642Y-121770981D01*
X100242004Y-121708619D01*
X100261119Y-121674114D01*
X100289103Y-121646306D01*
X100327722Y-121553892D01*
X100376252Y-121466292D01*
X100380708Y-121427098D01*
X100395919Y-121390699D01*
X100396233Y-121290548D01*
X100407547Y-121191038D01*
X100257547Y-119391038D01*
X100220523Y-119262037D01*
X100185044Y-119132478D01*
X100182339Y-119128992D01*
X100181124Y-119124760D01*
X100097556Y-119019751D01*
X100015193Y-118913628D01*
X100011364Y-118911445D01*
X100008619Y-118907996D01*
X99891192Y-118842942D01*
X99774522Y-118776435D01*
X99572527Y-118709103D01*
X99256950Y-118488199D01*
X99117827Y-118293427D01*
X98925814Y-117870998D01*
X98810000Y-117369139D01*
X98810000Y-116903792D01*
X98959724Y-116574400D01*
X99240708Y-116223170D01*
X99572527Y-115990897D01*
X100376583Y-115722878D01*
X100629048Y-115750930D01*
X100629048Y-115750930D01*
G37*
X100629048Y-115750930D02*
X101312719Y-115911794D01*
X101660515Y-116143658D01*
X101841226Y-116474960D01*
X101952858Y-116847068D01*
X101990000Y-117144201D01*
X101990000Y-117299543D01*
X101908067Y-117873073D01*
X101635206Y-118600702D01*
X101628103Y-118644047D01*
X101609697Y-118683924D01*
X101605892Y-118779596D01*
X101590409Y-118874084D01*
X101600434Y-118916844D01*
X101598688Y-118960733D01*
X101748688Y-119910733D01*
X101760913Y-119943918D01*
X101762992Y-119979220D01*
X102062992Y-121129219D01*
X102068948Y-121141502D01*
X102070266Y-121155087D01*
X102129189Y-121265722D01*
X102183872Y-121378483D01*
X102194072Y-121387548D01*
X102200490Y-121399599D01*
X102297266Y-121479263D01*
X102390939Y-121562515D01*
X102403836Y-121566988D01*
X102414374Y-121575663D01*
X102534268Y-121612228D01*
X102652671Y-121653296D01*
X102666294Y-121652494D01*
X102679352Y-121656476D01*
X103670623Y-121755603D01*
X104824299Y-121899812D01*
X105497377Y-122058184D01*
X105319924Y-122140932D01*
X105149257Y-122327182D01*
X104964375Y-122835141D01*
X105059256Y-123038613D01*
X106233167Y-123465881D01*
X106240007Y-123447088D01*
X106478690Y-123533960D01*
X106471849Y-123552755D01*
X107645760Y-123980023D01*
X107849231Y-123885143D01*
X108034113Y-123377183D01*
X108023094Y-123124805D01*
X107916334Y-122895855D01*
X107735697Y-122730331D01*
X108078654Y-122856684D01*
X109903575Y-123695160D01*
X109909998Y-123696693D01*
X109915419Y-123700472D01*
X109947462Y-123714491D01*
X109738977Y-123864062D01*
X109604892Y-124083316D01*
X109126064Y-125398886D01*
X109087189Y-125635155D01*
X109143955Y-125885811D01*
X109293768Y-126094633D01*
X109443965Y-126186487D01*
X109402394Y-126227985D01*
X109352020Y-126349298D01*
X109268797Y-126432521D01*
X109268795Y-126432524D01*
X109065139Y-126636179D01*
X108968030Y-126781513D01*
X108819132Y-126815234D01*
X108610310Y-126965047D01*
X108476225Y-127184301D01*
X107997397Y-128499871D01*
X107958522Y-128736140D01*
X108015288Y-128986796D01*
X108165101Y-129195618D01*
X108384354Y-129329703D01*
X110075800Y-129945339D01*
X110312070Y-129984214D01*
X110562726Y-129927448D01*
X110771548Y-129777635D01*
X110905633Y-129558381D01*
X111384461Y-128242811D01*
X111423336Y-128006542D01*
X111388174Y-127851281D01*
X111528943Y-127793117D01*
X111792192Y-127530327D01*
X111934838Y-127186799D01*
X111935162Y-126814833D01*
X111883130Y-126688907D01*
X111900215Y-126676650D01*
X112034300Y-126457396D01*
X112513128Y-125141826D01*
X112513538Y-125139335D01*
X112986369Y-125477071D01*
X115467941Y-127263803D01*
X116801512Y-128350417D01*
X116835509Y-128368435D01*
X116863058Y-128395295D01*
X116956953Y-128432801D01*
X117046286Y-128480147D01*
X117084589Y-128483784D01*
X117120322Y-128498057D01*
X117221423Y-128496776D01*
X117322074Y-128506332D01*
X117358853Y-128495034D01*
X117397328Y-128494546D01*
X119024007Y-128149493D01*
X119300457Y-128110000D01*
X120100561Y-128110000D01*
X120302242Y-128167623D01*
X120820375Y-128406762D01*
X121272990Y-128777082D01*
X121480049Y-128984141D01*
X122065162Y-129659272D01*
X122271854Y-130031316D01*
X122417211Y-130322031D01*
X122440000Y-130458763D01*
X122440000Y-130849543D01*
X122406190Y-131086213D01*
X122326435Y-131325478D01*
X122315300Y-131413807D01*
X122291787Y-131499669D01*
X122298132Y-131550000D01*
X122291787Y-131600331D01*
X122315301Y-131686195D01*
X122326435Y-131774522D01*
X122351557Y-131818592D01*
X122364956Y-131867522D01*
X122419542Y-131937855D01*
X122463628Y-132015193D01*
X122503703Y-132046296D01*
X122534807Y-132086372D01*
X122612148Y-132130460D01*
X122682478Y-132185043D01*
X123182478Y-132435043D01*
X123200278Y-132439917D01*
X123215419Y-132450472D01*
X124015418Y-132800472D01*
X124037785Y-132805381D01*
X124057362Y-132817253D01*
X124607362Y-133017253D01*
X124617003Y-133018734D01*
X124625478Y-133023565D01*
X125177608Y-133207608D01*
X125552539Y-133395073D01*
X126229271Y-133981574D01*
X127236574Y-134892944D01*
X127642577Y-135380148D01*
X128706716Y-137739759D01*
X128740000Y-138039319D01*
X128740000Y-138972729D01*
X128695050Y-139557082D01*
X128564334Y-140254231D01*
X128261599Y-141032693D01*
X127929123Y-141572966D01*
X127559730Y-141983402D01*
X126586950Y-142770890D01*
X126261738Y-142974148D01*
X125652469Y-143255349D01*
X125648464Y-143258261D01*
X125643667Y-143259485D01*
X124514686Y-143799432D01*
X123334774Y-144271397D01*
X122335549Y-144509308D01*
X122334528Y-144509777D01*
X122333405Y-144509822D01*
X120897021Y-144856535D01*
X119660758Y-145103788D01*
X119361521Y-145163635D01*
X119408737Y-145116419D01*
X119408740Y-145116417D01*
X119498973Y-144981374D01*
X119575142Y-144905337D01*
X119717788Y-144561809D01*
X119718112Y-144189843D01*
X119654171Y-144035094D01*
X119686108Y-144039151D01*
X119933576Y-143969795D01*
X120134563Y-143809623D01*
X121034465Y-142737161D01*
X121151805Y-142528437D01*
X121184191Y-142273483D01*
X121114835Y-142026015D01*
X120954663Y-141825027D01*
X119575783Y-140668009D01*
X119367059Y-140550669D01*
X119112104Y-140518283D01*
X118864636Y-140587639D01*
X118663649Y-140747811D01*
X118016782Y-141518717D01*
X117721275Y-141518717D01*
X117430436Y-141576569D01*
X117353627Y-141627891D01*
X117183873Y-141741316D01*
X115610312Y-143314878D01*
X115564825Y-143314838D01*
X115221049Y-143456883D01*
X114957800Y-143719673D01*
X114815154Y-144063201D01*
X114814830Y-144435167D01*
X114956875Y-144778943D01*
X115219665Y-145042192D01*
X115563193Y-145184838D01*
X115662238Y-145184924D01*
X115722350Y-145260354D01*
X117101230Y-146417372D01*
X117309954Y-146534712D01*
X117564909Y-146567098D01*
X117782344Y-146506159D01*
X117852870Y-146835279D01*
X118043816Y-147933220D01*
X118088523Y-148648525D01*
X117995797Y-150039407D01*
X117862267Y-150573528D01*
X117622028Y-151486437D01*
X117314936Y-152319971D01*
X116943848Y-152855988D01*
X116457031Y-153387061D01*
X115914958Y-153845739D01*
X114741652Y-154387265D01*
X113462261Y-154798497D01*
X112935867Y-154838989D01*
X111657273Y-154791634D01*
X111375350Y-154756394D01*
X110579093Y-154446738D01*
X109887289Y-154123896D01*
X109304260Y-153765108D01*
X108269997Y-152965905D01*
X108152046Y-152847954D01*
X108078020Y-152798492D01*
X108011740Y-152739064D01*
X107963887Y-152722231D01*
X107921705Y-152694046D01*
X107834390Y-152676678D01*
X107750409Y-152647136D01*
X107699755Y-152649897D01*
X107650000Y-152640000D01*
X107562682Y-152657369D01*
X107473792Y-152662214D01*
X107428051Y-152684149D01*
X107378295Y-152694046D01*
X107304273Y-152743506D01*
X107224000Y-152782000D01*
X107024000Y-152932000D01*
X106946747Y-153018161D01*
X106864032Y-153099075D01*
X106214032Y-154049074D01*
X106200159Y-154081551D01*
X106177463Y-154108609D01*
X105332946Y-155648611D01*
X104710800Y-156701473D01*
X104278149Y-157263920D01*
X103494521Y-157960477D01*
X102233868Y-158614149D01*
X101316557Y-159050964D01*
X100025540Y-159140000D01*
X99295733Y-159140000D01*
X99123972Y-159066388D01*
X98718293Y-158822980D01*
X98066324Y-158257941D01*
X97593850Y-157656610D01*
X96858277Y-156323384D01*
X96734796Y-155911778D01*
X96460000Y-154812596D01*
X96460000Y-154166135D01*
X96507336Y-153124749D01*
X96648462Y-152277992D01*
X96740034Y-151820133D01*
X96981149Y-151000338D01*
X96989499Y-150907498D01*
X97009809Y-150816507D01*
X97001802Y-150770716D01*
X97005966Y-150724424D01*
X96978151Y-150635450D01*
X96962094Y-150543619D01*
X96937176Y-150504381D01*
X96923306Y-150460015D01*
X96863561Y-150388461D01*
X96813583Y-150309762D01*
X95778266Y-149225146D01*
X94953144Y-148250000D01*
X98735907Y-148250000D01*
X98848946Y-148818285D01*
X99170853Y-149300054D01*
X99500026Y-149520000D01*
X99170853Y-149739946D01*
X98848946Y-150221715D01*
X98735907Y-150790000D01*
X98848946Y-151358285D01*
X99170853Y-151840054D01*
X99500026Y-152060000D01*
X99170853Y-152279946D01*
X98848946Y-152761715D01*
X98735907Y-153330000D01*
X98848946Y-153898285D01*
X99170853Y-154380054D01*
X99652622Y-154701961D01*
X100220907Y-154815000D01*
X100279093Y-154815000D01*
X100847378Y-154701961D01*
X101329147Y-154380054D01*
X101518345Y-154096899D01*
X101518355Y-154096924D01*
X101908642Y-154525183D01*
X102433108Y-154771486D01*
X102663000Y-154650819D01*
X102663000Y-153457000D01*
X102917000Y-153457000D01*
X102917000Y-154650819D01*
X103146892Y-154771486D01*
X103671358Y-154525183D01*
X104061645Y-154096924D01*
X104231476Y-153686890D01*
X104110155Y-153457000D01*
X102917000Y-153457000D01*
X102663000Y-153457000D01*
X102643000Y-153457000D01*
X102643000Y-153203000D01*
X102663000Y-153203000D01*
X102663000Y-153183000D01*
X102917000Y-153183000D01*
X102917000Y-153203000D01*
X104110155Y-153203000D01*
X104231476Y-152973110D01*
X104061645Y-152563076D01*
X103671358Y-152134817D01*
X103528447Y-152067702D01*
X103869147Y-151840054D01*
X104191054Y-151358285D01*
X104304093Y-150790000D01*
X104191054Y-150221715D01*
X103869147Y-149739946D01*
X103539974Y-149520000D01*
X103869147Y-149300054D01*
X104191054Y-148818285D01*
X104304093Y-148250000D01*
X104191054Y-147681715D01*
X103946944Y-147316377D01*
X105713178Y-147316377D01*
X105738508Y-147572129D01*
X105861345Y-147797876D01*
X107018363Y-149176756D01*
X107203541Y-149328558D01*
X107448998Y-149404725D01*
X107704750Y-149379395D01*
X107930497Y-149256558D01*
X108224334Y-149010000D01*
X108441063Y-149010000D01*
X108315162Y-149313201D01*
X108314838Y-149685167D01*
X108365000Y-149806569D01*
X108365000Y-149990773D01*
X108364999Y-149990778D01*
X108410936Y-150221715D01*
X108432367Y-150329453D01*
X108598306Y-150577800D01*
X108624210Y-150616568D01*
X108846509Y-150838867D01*
X108798559Y-150993390D01*
X108823889Y-151249142D01*
X108946726Y-151474889D01*
X110103744Y-152853769D01*
X110288922Y-153005571D01*
X110534379Y-153081738D01*
X110790131Y-153056408D01*
X111015878Y-152933571D01*
X112088340Y-152033669D01*
X112240142Y-151848491D01*
X112316309Y-151603034D01*
X112290979Y-151347282D01*
X112168142Y-151121535D01*
X111011124Y-149742655D01*
X110825946Y-149590853D01*
X110580489Y-149514686D01*
X110324737Y-149540016D01*
X110184900Y-149616107D01*
X110185162Y-149314833D01*
X110102940Y-149115840D01*
X110278943Y-149043117D01*
X110450167Y-148872191D01*
X111326506Y-148872191D01*
X111351836Y-149127943D01*
X111474673Y-149353690D01*
X112631691Y-150732570D01*
X112816869Y-150884372D01*
X113062326Y-150960539D01*
X113318078Y-150935209D01*
X113543825Y-150812372D01*
X114616287Y-149912470D01*
X114768089Y-149727292D01*
X114844256Y-149481835D01*
X114818926Y-149226083D01*
X114696089Y-149000336D01*
X113539071Y-147621456D01*
X113353893Y-147469654D01*
X113108436Y-147393487D01*
X112852684Y-147418817D01*
X112626937Y-147541654D01*
X111554475Y-148441556D01*
X111402673Y-148626734D01*
X111326506Y-148872191D01*
X110450167Y-148872191D01*
X110542192Y-148780327D01*
X110684838Y-148436799D01*
X110685162Y-148064833D01*
X110543117Y-147721057D01*
X110280327Y-147457808D01*
X109936799Y-147315162D01*
X109564833Y-147314838D01*
X109221057Y-147456883D01*
X109187882Y-147490000D01*
X109107507Y-147490000D01*
X109082761Y-147444522D01*
X108354840Y-146577019D01*
X109161007Y-146577019D01*
X109474650Y-146950803D01*
X109637030Y-147144321D01*
X109861105Y-147260967D01*
X110112763Y-147282983D01*
X110353690Y-147207019D01*
X110767782Y-146859555D01*
X110787349Y-146635903D01*
X109984346Y-145678922D01*
X109180574Y-146353367D01*
X109161007Y-146577019D01*
X108354840Y-146577019D01*
X107925743Y-146065642D01*
X107740565Y-145913840D01*
X107495108Y-145837673D01*
X107239356Y-145863003D01*
X107013609Y-145985840D01*
X105941147Y-146885742D01*
X105789345Y-147070920D01*
X105713178Y-147316377D01*
X103946944Y-147316377D01*
X103869147Y-147199946D01*
X103528447Y-146972298D01*
X103671358Y-146905183D01*
X104061645Y-146476924D01*
X104231476Y-146066890D01*
X104110155Y-145837000D01*
X102917000Y-145837000D01*
X102917000Y-145857000D01*
X102663000Y-145857000D01*
X102663000Y-145837000D01*
X102643000Y-145837000D01*
X102643000Y-145583000D01*
X102663000Y-145583000D01*
X102663000Y-144389181D01*
X102917000Y-144389181D01*
X102917000Y-145583000D01*
X104110155Y-145583000D01*
X104231476Y-145353110D01*
X104222317Y-145330996D01*
X108241668Y-145330996D01*
X108317631Y-145571922D01*
X108480012Y-145765440D01*
X108793654Y-146139224D01*
X109017306Y-146158791D01*
X109783766Y-145515654D01*
X110178922Y-145515654D01*
X110981924Y-146472635D01*
X111205576Y-146492202D01*
X111619668Y-146144737D01*
X111736315Y-145920662D01*
X111758332Y-145669004D01*
X111682369Y-145428078D01*
X111519988Y-145234560D01*
X111206346Y-144860776D01*
X110982694Y-144841209D01*
X110178922Y-145515654D01*
X109783766Y-145515654D01*
X109821078Y-145484346D01*
X109018076Y-144527365D01*
X108794424Y-144507798D01*
X108380332Y-144855263D01*
X108263685Y-145079338D01*
X108241668Y-145330996D01*
X104222317Y-145330996D01*
X104061645Y-144943076D01*
X103671358Y-144514817D01*
X103350422Y-144364097D01*
X109212651Y-144364097D01*
X110015654Y-145321078D01*
X110819426Y-144646633D01*
X110838993Y-144422981D01*
X110525350Y-144049197D01*
X110362970Y-143855679D01*
X110138895Y-143739033D01*
X109887237Y-143717017D01*
X109646310Y-143792981D01*
X109232218Y-144140445D01*
X109212651Y-144364097D01*
X103350422Y-144364097D01*
X103146892Y-144268514D01*
X102917000Y-144389181D01*
X102663000Y-144389181D01*
X102433108Y-144268514D01*
X101908642Y-144514817D01*
X101533169Y-144926820D01*
X101509656Y-144869914D01*
X101092283Y-144451812D01*
X100546681Y-144225258D01*
X99955911Y-144224743D01*
X99409914Y-144450344D01*
X98991812Y-144867717D01*
X98765258Y-145413319D01*
X98764743Y-146004089D01*
X98990344Y-146550086D01*
X99407717Y-146968188D01*
X99475550Y-146996355D01*
X99170853Y-147199946D01*
X98848946Y-147681715D01*
X98735907Y-148250000D01*
X94953144Y-148250000D01*
X94144736Y-147294609D01*
X93215416Y-146169643D01*
X92888841Y-145703107D01*
X91719385Y-143900195D01*
X91679607Y-143818428D01*
X92757789Y-143818428D01*
X93001760Y-144240997D01*
X93128069Y-144459772D01*
X93328485Y-144613556D01*
X93572496Y-144678938D01*
X93822953Y-144645964D01*
X94291091Y-144375685D01*
X94349198Y-144158828D01*
X93724573Y-143076946D01*
X92815896Y-143601571D01*
X92757789Y-143818428D01*
X91679607Y-143818428D01*
X90838457Y-142089399D01*
X90836080Y-142086267D01*
X90835043Y-142082479D01*
X90237820Y-140888032D01*
X89709588Y-139783547D01*
X89278444Y-138490115D01*
X89251894Y-138397188D01*
X89672371Y-138397188D01*
X89754140Y-138640836D01*
X90611058Y-140125062D01*
X90611058Y-140371058D01*
X90668910Y-140661897D01*
X90814886Y-140880366D01*
X90814838Y-140935167D01*
X90956883Y-141278943D01*
X91219673Y-141542192D01*
X91563201Y-141684838D01*
X91935167Y-141685162D01*
X92278943Y-141543117D01*
X92512494Y-141309973D01*
X92813201Y-141434838D01*
X92860077Y-141434879D01*
X93000865Y-141575667D01*
X92893571Y-141637613D01*
X92972945Y-141775093D01*
X92756091Y-141716987D01*
X92287953Y-141987267D01*
X92134169Y-142187682D01*
X92068786Y-142431693D01*
X92101759Y-142682150D01*
X92228069Y-142900925D01*
X92472039Y-143323494D01*
X92688896Y-143381601D01*
X93436544Y-142949946D01*
X93944543Y-142949946D01*
X94569168Y-144031828D01*
X94786025Y-144089935D01*
X95254163Y-143819655D01*
X95407947Y-143619240D01*
X95473330Y-143375229D01*
X95440357Y-143124772D01*
X95314047Y-142905997D01*
X95070077Y-142483428D01*
X94853220Y-142425321D01*
X93944543Y-142949946D01*
X93436544Y-142949946D01*
X93597573Y-142856976D01*
X93587573Y-142839655D01*
X93807543Y-142712655D01*
X93817543Y-142729976D01*
X94726220Y-142205351D01*
X94777637Y-142013461D01*
X95511838Y-142013461D01*
X95912024Y-142706604D01*
X96068029Y-142888255D01*
X96296531Y-143005888D01*
X96552796Y-143025353D01*
X96796444Y-142943584D01*
X98008880Y-142243584D01*
X98190531Y-142087579D01*
X98308164Y-141859077D01*
X98318232Y-141726517D01*
X111815809Y-141726517D01*
X111885165Y-141973985D01*
X112045337Y-142174973D01*
X113424217Y-143331991D01*
X113632941Y-143449331D01*
X113887896Y-143481717D01*
X114135364Y-143412361D01*
X114336351Y-143252189D01*
X115236253Y-142179727D01*
X115353593Y-141971003D01*
X115385979Y-141716049D01*
X115316623Y-141468581D01*
X115156451Y-141267593D01*
X115119552Y-141236631D01*
X115187704Y-141134632D01*
X115292192Y-141030327D01*
X115432307Y-140692895D01*
X115456653Y-140713324D01*
X115650171Y-140875705D01*
X115891097Y-140951668D01*
X116142755Y-140929651D01*
X116366830Y-140813004D01*
X116714295Y-140398912D01*
X116694728Y-140175260D01*
X115737747Y-139372258D01*
X115724891Y-139387579D01*
X115530316Y-139224310D01*
X115543171Y-139208990D01*
X115505860Y-139177682D01*
X115901015Y-139177682D01*
X116857996Y-139980685D01*
X117081648Y-139961118D01*
X117429112Y-139547026D01*
X117505076Y-139306099D01*
X117483060Y-139054441D01*
X117366414Y-138830366D01*
X117172896Y-138667986D01*
X116799112Y-138354343D01*
X116575460Y-138373910D01*
X115901015Y-139177682D01*
X115505860Y-139177682D01*
X114586190Y-138405987D01*
X114362538Y-138425554D01*
X114015074Y-138839646D01*
X113939110Y-139080573D01*
X113961126Y-139332231D01*
X114077772Y-139556306D01*
X114162803Y-139627655D01*
X113971057Y-139706883D01*
X113707808Y-139969673D01*
X113673576Y-140052112D01*
X113568847Y-139993235D01*
X113313892Y-139960849D01*
X113066424Y-140030205D01*
X112865437Y-140190377D01*
X111965535Y-141262839D01*
X111848195Y-141471563D01*
X111815809Y-141726517D01*
X98318232Y-141726517D01*
X98327629Y-141602812D01*
X98245860Y-141359164D01*
X97345860Y-139800318D01*
X97189855Y-139618667D01*
X96961353Y-139501034D01*
X96705088Y-139481569D01*
X96461440Y-139563338D01*
X95249004Y-140263338D01*
X95067353Y-140419343D01*
X95029197Y-140493461D01*
X94068263Y-140493461D01*
X93935122Y-140360320D01*
X93935162Y-140314833D01*
X93793117Y-139971057D01*
X93530327Y-139707808D01*
X93186799Y-139565162D01*
X92940734Y-139564948D01*
X93050280Y-139352155D01*
X93069745Y-139095890D01*
X92987976Y-138852242D01*
X92087976Y-137293396D01*
X91931971Y-137111745D01*
X91703469Y-136994112D01*
X91447204Y-136974647D01*
X91203556Y-137056416D01*
X89991120Y-137756416D01*
X89809469Y-137912421D01*
X89691836Y-138140923D01*
X89672371Y-138397188D01*
X89251894Y-138397188D01*
X89085930Y-137816316D01*
X88818648Y-136747188D01*
X92530255Y-136747188D01*
X92612024Y-136990836D01*
X93512024Y-138549682D01*
X93615000Y-138669586D01*
X93615000Y-138693178D01*
X93565162Y-138813201D01*
X93564838Y-139185167D01*
X93706883Y-139528943D01*
X93969673Y-139792192D01*
X94313201Y-139934838D01*
X94685167Y-139935162D01*
X95028943Y-139793117D01*
X95292192Y-139530327D01*
X95434838Y-139186799D01*
X95435162Y-138814833D01*
X95385000Y-138693431D01*
X95385000Y-138215919D01*
X95608880Y-138086662D01*
X95724040Y-137987760D01*
X114729891Y-137987760D01*
X114749458Y-138211412D01*
X115706439Y-139014414D01*
X116380884Y-138210642D01*
X116361317Y-137986990D01*
X115987533Y-137673348D01*
X115794015Y-137510967D01*
X115553089Y-137435004D01*
X115301431Y-137457021D01*
X115077356Y-137573668D01*
X114729891Y-137987760D01*
X95724040Y-137987760D01*
X95790531Y-137930657D01*
X95908164Y-137702155D01*
X95927629Y-137445890D01*
X95845860Y-137202242D01*
X94945860Y-135643396D01*
X94789855Y-135461745D01*
X94561353Y-135344112D01*
X94305088Y-135324647D01*
X94061440Y-135406416D01*
X92849004Y-136106416D01*
X92667353Y-136262421D01*
X92549720Y-136490923D01*
X92530255Y-136747188D01*
X88818648Y-136747188D01*
X88747684Y-136463333D01*
X88657352Y-135831005D01*
X88609019Y-134912683D01*
X88606302Y-134901995D01*
X88607548Y-134891038D01*
X88557547Y-134291038D01*
X88534166Y-134209572D01*
X88523565Y-134125478D01*
X88473565Y-133975478D01*
X88405930Y-133856829D01*
X88339072Y-133737938D01*
X88337415Y-133736636D01*
X88336372Y-133734807D01*
X88228481Y-133651072D01*
X88121214Y-133566817D01*
X88119189Y-133566250D01*
X88117522Y-133564956D01*
X87985851Y-133528899D01*
X87952652Y-133519599D01*
X114211046Y-133519599D01*
X114280402Y-133767067D01*
X114440573Y-133968055D01*
X115742848Y-135060794D01*
X115951573Y-135178134D01*
X116206527Y-135210520D01*
X116453995Y-135141164D01*
X116540169Y-135072491D01*
X116595104Y-135481167D01*
X116800043Y-135874830D01*
X117054133Y-135929663D01*
X117821078Y-135015654D01*
X117805757Y-135002798D01*
X117969026Y-134808223D01*
X117984346Y-134821078D01*
X117997202Y-134805757D01*
X118191777Y-134969026D01*
X118178922Y-134984346D01*
X118194243Y-134997202D01*
X118030974Y-135191777D01*
X118015654Y-135178922D01*
X117248708Y-136092931D01*
X117346831Y-136333639D01*
X117770100Y-136467106D01*
X118349037Y-136443408D01*
X118492311Y-136377072D01*
X118447702Y-136784394D01*
X118609841Y-137340664D01*
X118972513Y-137792543D01*
X119480505Y-138071237D01*
X120056479Y-138134317D01*
X120436555Y-138023534D01*
X120393455Y-138417075D01*
X120555594Y-138973345D01*
X120918266Y-139425224D01*
X121426258Y-139703918D01*
X122002232Y-139766998D01*
X122382308Y-139656215D01*
X122339208Y-140049755D01*
X122501347Y-140606025D01*
X122864019Y-141057904D01*
X123372011Y-141336598D01*
X123947985Y-141399678D01*
X124504255Y-141237539D01*
X124956134Y-140874867D01*
X124993536Y-140830293D01*
X125272230Y-140322302D01*
X125335310Y-139746327D01*
X125240015Y-139419386D01*
X125240039Y-139419394D01*
X125818976Y-139395696D01*
X126344776Y-139152252D01*
X126400111Y-138898582D01*
X125485593Y-138131210D01*
X125472737Y-138146531D01*
X125278162Y-137983262D01*
X125291017Y-137967942D01*
X125253706Y-137936634D01*
X125648861Y-137936634D01*
X126563379Y-138704006D01*
X126803587Y-138605462D01*
X126952028Y-138045377D01*
X126874835Y-137471121D01*
X126669896Y-137077458D01*
X126415806Y-137022625D01*
X125648861Y-137936634D01*
X125253706Y-137936634D01*
X124376499Y-137200570D01*
X123539840Y-136498530D01*
X123526984Y-136513851D01*
X123332409Y-136350582D01*
X123345264Y-136335262D01*
X123329943Y-136322406D01*
X123345426Y-136303954D01*
X123703108Y-136303954D01*
X124617626Y-137071326D01*
X125454285Y-137773366D01*
X126221231Y-136859357D01*
X126123108Y-136618649D01*
X125699839Y-136485182D01*
X125120902Y-136508880D01*
X124961184Y-136582829D01*
X125006275Y-136412697D01*
X124929082Y-135838441D01*
X124724143Y-135444778D01*
X124470053Y-135389945D01*
X123703108Y-136303954D01*
X123345426Y-136303954D01*
X123493212Y-136127831D01*
X123508532Y-136140686D01*
X124275478Y-135226677D01*
X124177355Y-134985969D01*
X123754086Y-134852502D01*
X123175149Y-134876200D01*
X123031875Y-134942536D01*
X123076484Y-134535213D01*
X122914345Y-133978943D01*
X122551673Y-133527064D01*
X122043681Y-133248370D01*
X121467707Y-133185290D01*
X121087631Y-133296073D01*
X121130731Y-132902533D01*
X120968592Y-132346263D01*
X120605920Y-131894384D01*
X120097928Y-131615690D01*
X119521954Y-131552610D01*
X119141879Y-131663393D01*
X119184979Y-131269852D01*
X119022840Y-130713582D01*
X118660168Y-130261703D01*
X118152176Y-129983009D01*
X117576202Y-129919929D01*
X117019932Y-130082068D01*
X116568053Y-130444740D01*
X116530651Y-130489314D01*
X116251957Y-130997306D01*
X116188877Y-131573280D01*
X116189291Y-131574702D01*
X116156921Y-131556504D01*
X115901967Y-131524118D01*
X115654499Y-131593474D01*
X115453511Y-131753645D01*
X114360772Y-133055920D01*
X114243432Y-133264645D01*
X114211046Y-133519599D01*
X87952652Y-133519599D01*
X87854454Y-133492091D01*
X87207965Y-133442361D01*
X86061507Y-133342669D01*
X86057925Y-133343063D01*
X86054454Y-133342091D01*
X85404455Y-133292091D01*
X85377060Y-133295383D01*
X85350000Y-133290000D01*
X84600000Y-133290000D01*
X84531777Y-133303571D01*
X84462215Y-133303498D01*
X84397240Y-133330332D01*
X84328295Y-133344046D01*
X84270459Y-133382691D01*
X84206163Y-133409244D01*
X83756163Y-133709244D01*
X83751675Y-133713723D01*
X83745861Y-133716244D01*
X83157607Y-134123497D01*
X82665136Y-134328693D01*
X82450561Y-134390000D01*
X81620302Y-134390000D01*
X81503166Y-134366573D01*
X81366511Y-134311911D01*
X81264090Y-134250459D01*
X81087600Y-134044554D01*
X80829366Y-133571125D01*
X80635043Y-133182478D01*
X80635042Y-133182476D01*
X80610000Y-133132393D01*
X80610000Y-132014023D01*
X80674205Y-131660898D01*
X80830203Y-131411301D01*
X80942862Y-131270477D01*
X81189607Y-131094231D01*
X81616511Y-130838088D01*
X81992428Y-130687723D01*
X82158763Y-130660000D01*
X82250561Y-130660000D01*
X82470035Y-130722707D01*
X82658892Y-130798250D01*
X82858773Y-130898191D01*
X83070725Y-131074817D01*
X83197954Y-131202046D01*
X83290003Y-131263550D01*
X83376851Y-131332198D01*
X83404447Y-131340019D01*
X83428295Y-131355954D01*
X83536869Y-131377551D01*
X83643381Y-131407739D01*
X84893381Y-131507739D01*
X84903150Y-131506596D01*
X84912683Y-131509019D01*
X85862683Y-131559019D01*
X85891256Y-131554883D01*
X85919715Y-131559726D01*
X87719714Y-131509726D01*
X87753501Y-131502024D01*
X87788065Y-131504517D01*
X88188065Y-131454517D01*
X88207624Y-131448020D01*
X88228232Y-131448324D01*
X88338444Y-131404565D01*
X88450968Y-131367188D01*
X88466551Y-131353702D01*
X88485709Y-131346095D01*
X88570781Y-131263494D01*
X88660440Y-131185898D01*
X88669678Y-131167471D01*
X88684463Y-131153115D01*
X88731448Y-131044253D01*
X88784590Y-130938246D01*
X88786072Y-130917690D01*
X88794240Y-130898766D01*
X88929215Y-130268883D01*
X89246215Y-129544312D01*
X89511487Y-128984293D01*
X91507798Y-128984293D01*
X91855263Y-129398385D01*
X92079338Y-129515032D01*
X92119971Y-129518587D01*
X92153651Y-129600098D01*
X92065162Y-129813201D01*
X92064838Y-130185167D01*
X92206883Y-130528943D01*
X92469673Y-130792192D01*
X92813201Y-130934838D01*
X93128491Y-130935113D01*
X93885742Y-131837570D01*
X94070920Y-131989372D01*
X94316377Y-132065539D01*
X94572129Y-132040209D01*
X94797876Y-131917372D01*
X96176756Y-130760354D01*
X96328558Y-130575176D01*
X96372090Y-130434889D01*
X96685167Y-130435162D01*
X97028943Y-130293117D01*
X97292192Y-130030327D01*
X97434838Y-129686799D01*
X97435162Y-129314833D01*
X97293117Y-128971057D01*
X97030327Y-128707808D01*
X96854987Y-128635000D01*
X97464422Y-128635000D01*
X97562755Y-128752189D01*
X97747933Y-128903991D01*
X97993390Y-128980158D01*
X98249142Y-128954828D01*
X98474889Y-128831991D01*
X99853769Y-127674973D01*
X100005571Y-127489795D01*
X100081738Y-127244338D01*
X100066893Y-127094443D01*
X103447997Y-127094443D01*
X103504763Y-127345099D01*
X103654576Y-127553921D01*
X103873829Y-127688006D01*
X105565275Y-128303642D01*
X105801545Y-128342517D01*
X106052201Y-128285751D01*
X106088095Y-128260000D01*
X106437537Y-128260000D01*
X106469673Y-128292192D01*
X106813201Y-128434838D01*
X107185167Y-128435162D01*
X107528943Y-128293117D01*
X107792192Y-128030327D01*
X107934838Y-127686799D01*
X107935162Y-127314833D01*
X107793117Y-126971057D01*
X107530327Y-126707808D01*
X107186799Y-126565162D01*
X106879895Y-126564895D01*
X106912811Y-126364845D01*
X106856045Y-126114189D01*
X106706232Y-125905367D01*
X106486979Y-125771282D01*
X104795533Y-125155646D01*
X104559263Y-125116771D01*
X104308607Y-125173537D01*
X104099785Y-125323350D01*
X103965700Y-125542604D01*
X103486872Y-126858174D01*
X103447997Y-127094443D01*
X100066893Y-127094443D01*
X100056408Y-126988586D01*
X99933571Y-126762839D01*
X99033669Y-125690377D01*
X98934905Y-125609414D01*
X98935162Y-125314833D01*
X98793117Y-124971057D01*
X98530327Y-124707808D01*
X98186799Y-124565162D01*
X98139923Y-124565121D01*
X97815569Y-124240767D01*
X97812372Y-124234892D01*
X97514696Y-123880135D01*
X104584029Y-123880135D01*
X104595048Y-124132513D01*
X104701808Y-124361463D01*
X104888058Y-124532130D01*
X105125442Y-124618531D01*
X105583957Y-124785416D01*
X105601128Y-124777409D01*
X106026111Y-124777409D01*
X106120991Y-124980881D01*
X106579506Y-125147767D01*
X106816890Y-125234167D01*
X107069268Y-125223148D01*
X107298218Y-125116386D01*
X107468885Y-124930136D01*
X107653767Y-124422177D01*
X107558886Y-124218705D01*
X106384975Y-123791437D01*
X106026111Y-124777409D01*
X105601128Y-124777409D01*
X105787429Y-124690536D01*
X106146293Y-123704563D01*
X104972382Y-123277295D01*
X104768911Y-123372175D01*
X104584029Y-123880135D01*
X97514696Y-123880135D01*
X96912470Y-123162430D01*
X96727292Y-123010628D01*
X96481835Y-122934461D01*
X96226083Y-122959791D01*
X96000336Y-123082628D01*
X94621456Y-124239646D01*
X94469654Y-124424824D01*
X94393487Y-124670281D01*
X94418817Y-124926033D01*
X94541654Y-125151780D01*
X95441556Y-126224242D01*
X95626734Y-126376044D01*
X95872191Y-126452211D01*
X96127943Y-126426881D01*
X96353690Y-126304044D01*
X97071635Y-125701617D01*
X97206883Y-126028943D01*
X97396533Y-126218924D01*
X96742655Y-126767593D01*
X96662804Y-126865000D01*
X96056822Y-126865000D01*
X95936799Y-126815162D01*
X95564833Y-126814838D01*
X95221057Y-126956883D01*
X94957808Y-127219673D01*
X94815162Y-127563201D01*
X94814838Y-127935167D01*
X94885802Y-128106914D01*
X94162423Y-128106914D01*
X94260967Y-127917612D01*
X94282983Y-127665954D01*
X94207019Y-127425027D01*
X93859555Y-127010935D01*
X93635903Y-126991368D01*
X92678922Y-127794371D01*
X92691777Y-127809691D01*
X92497202Y-127972960D01*
X92484346Y-127957639D01*
X91527365Y-128760641D01*
X91507798Y-128984293D01*
X89511487Y-128984293D01*
X89676742Y-128635422D01*
X89957326Y-128167782D01*
X90126177Y-127891480D01*
X90717017Y-127891480D01*
X90792981Y-128132407D01*
X91140445Y-128546499D01*
X91364097Y-128566066D01*
X92321078Y-127763063D01*
X91646633Y-126959291D01*
X91422981Y-126939724D01*
X91049197Y-127253367D01*
X90855679Y-127415747D01*
X90739033Y-127639822D01*
X90717017Y-127891480D01*
X90126177Y-127891480D01*
X90482441Y-127308503D01*
X90892425Y-126796023D01*
X91841209Y-126796023D01*
X92515654Y-127599795D01*
X93472635Y-126796793D01*
X93492202Y-126573141D01*
X93144737Y-126159049D01*
X92920662Y-126042402D01*
X92669004Y-126020385D01*
X92428078Y-126096348D01*
X92234560Y-126258729D01*
X91860776Y-126572371D01*
X91841209Y-126796023D01*
X90892425Y-126796023D01*
X91029849Y-126624243D01*
X92084555Y-125569537D01*
X93207841Y-124592767D01*
X93702725Y-124187861D01*
X95126181Y-123381236D01*
X96654049Y-122665047D01*
X97570586Y-122390086D01*
X99836328Y-121946789D01*
X99928982Y-121908751D01*
X100025240Y-121881124D01*
X100056106Y-121856561D01*
X100092600Y-121841578D01*
X100163642Y-121770981D01*
X100242004Y-121708619D01*
X100261119Y-121674114D01*
X100289103Y-121646306D01*
X100327722Y-121553892D01*
X100376252Y-121466292D01*
X100380708Y-121427098D01*
X100395919Y-121390699D01*
X100396233Y-121290548D01*
X100407547Y-121191038D01*
X100257547Y-119391038D01*
X100220523Y-119262037D01*
X100185044Y-119132478D01*
X100182339Y-119128992D01*
X100181124Y-119124760D01*
X100097556Y-119019751D01*
X100015193Y-118913628D01*
X100011364Y-118911445D01*
X100008619Y-118907996D01*
X99891192Y-118842942D01*
X99774522Y-118776435D01*
X99572527Y-118709103D01*
X99256950Y-118488199D01*
X99117827Y-118293427D01*
X98925814Y-117870998D01*
X98810000Y-117369139D01*
X98810000Y-116903792D01*
X98959724Y-116574400D01*
X99240708Y-116223170D01*
X99572527Y-115990897D01*
X100376583Y-115722878D01*
X100629048Y-115750930D01*
M02*
