G04 #@! TF.FileFunction,Profile,NP*
%FSLAX46Y46*%
G04 Gerber Fmt 4.6, Leading zero omitted, Abs format (unit mm)*
G04 Created by KiCad (PCBNEW 4.0.6-e0-6349~52~ubuntu16.10.1) date Sun Jul  9 07:11:00 2017*
%MOMM*%
%LPD*%
G01*
G04 APERTURE LIST*
%ADD10C,0.100000*%
%ADD11C,0.150000*%
G04 APERTURE END LIST*
D10*
D11*
X128050000Y-142500000D02*
X128500000Y-142000000D01*
X127000000Y-143350000D02*
X128050000Y-142500000D01*
X126600000Y-143600000D02*
X127000000Y-143350000D01*
X125950000Y-143900000D02*
X126600000Y-143600000D01*
X124800000Y-144450000D02*
X125950000Y-143900000D01*
X123550000Y-144950000D02*
X124800000Y-144450000D01*
X122500000Y-145200000D02*
X123550000Y-144950000D01*
X121050000Y-145550000D02*
X122500000Y-145200000D01*
X119800000Y-145800000D02*
X121050000Y-145550000D01*
X118800000Y-146000000D02*
X119800000Y-145800000D01*
X118400000Y-146000000D02*
X118800000Y-146000000D01*
X118550000Y-146700000D02*
X118400000Y-146000000D01*
X118750000Y-147850000D02*
X118550000Y-146700000D01*
X118800000Y-148650000D02*
X118750000Y-147850000D01*
X118700000Y-150150000D02*
X118800000Y-148650000D01*
X118550000Y-150750000D02*
X118700000Y-150150000D01*
X118300000Y-151700000D02*
X118550000Y-150750000D01*
X117950000Y-152650000D02*
X118300000Y-151700000D01*
X117500000Y-153300000D02*
X117950000Y-152650000D01*
X116950000Y-153900000D02*
X117500000Y-153300000D01*
X116300000Y-154450000D02*
X116950000Y-153900000D01*
X115000000Y-155050000D02*
X116300000Y-154450000D01*
X113600000Y-155500000D02*
X115000000Y-155050000D01*
X112950000Y-155550000D02*
X113600000Y-155500000D01*
X111600000Y-155500000D02*
X112950000Y-155550000D01*
X111200000Y-155450000D02*
X111600000Y-155500000D01*
X110300000Y-155100000D02*
X111200000Y-155450000D01*
X109550000Y-154750000D02*
X110300000Y-155100000D01*
X108900000Y-154350000D02*
X109550000Y-154750000D01*
X107800000Y-153500000D02*
X108900000Y-154350000D01*
X107650000Y-153350000D02*
X107800000Y-153500000D01*
X107450000Y-153500000D02*
X107650000Y-153350000D01*
X106800000Y-154450000D02*
X107450000Y-153500000D01*
X105950000Y-156000000D02*
X106800000Y-154450000D01*
X105300000Y-157100000D02*
X105950000Y-156000000D01*
X104800000Y-157750000D02*
X105300000Y-157100000D01*
X103900000Y-158550000D02*
X104800000Y-157750000D01*
X102550000Y-159250000D02*
X103900000Y-158550000D01*
X101500000Y-159750000D02*
X102550000Y-159250000D01*
X100050000Y-159850000D02*
X101500000Y-159750000D01*
X99150000Y-159850000D02*
X100050000Y-159850000D01*
X98800000Y-159700000D02*
X99150000Y-159850000D01*
X98300000Y-159400000D02*
X98800000Y-159700000D01*
X97550000Y-158750000D02*
X98300000Y-159400000D01*
X97000000Y-158050000D02*
X97550000Y-158750000D01*
X96200000Y-156600000D02*
X97000000Y-158050000D01*
X96050000Y-156100000D02*
X96200000Y-156600000D01*
X95750000Y-154900000D02*
X96050000Y-156100000D01*
X95750000Y-154150000D02*
X95750000Y-154900000D01*
X95800000Y-153050000D02*
X95750000Y-154150000D01*
X95950000Y-152150000D02*
X95800000Y-153050000D01*
X96050000Y-151650000D02*
X95950000Y-152150000D01*
X96300000Y-150800000D02*
X96050000Y-151650000D01*
X95250000Y-149700000D02*
X96300000Y-150800000D01*
X93600000Y-147750000D02*
X95250000Y-149700000D01*
X92650000Y-146600000D02*
X93600000Y-147750000D01*
X92300000Y-146100000D02*
X92650000Y-146600000D01*
X91100000Y-144250000D02*
X92300000Y-146100000D01*
X90200000Y-142400000D02*
X91100000Y-144250000D01*
X89600000Y-141200000D02*
X90200000Y-142400000D01*
X89050000Y-140050000D02*
X89600000Y-141200000D01*
X88600000Y-138700000D02*
X89050000Y-140050000D01*
X88400000Y-138000000D02*
X88600000Y-138700000D01*
X88050000Y-136600000D02*
X88400000Y-138000000D01*
X87950000Y-135900000D02*
X88050000Y-136600000D01*
X87900000Y-134950000D02*
X87950000Y-135900000D01*
X87850000Y-134350000D02*
X87900000Y-134950000D01*
X87800000Y-134200000D02*
X87850000Y-134350000D01*
X87150000Y-134150000D02*
X87800000Y-134200000D01*
X86000000Y-134050000D02*
X87150000Y-134150000D01*
X85350000Y-134000000D02*
X86000000Y-134050000D01*
X84700000Y-134000000D02*
X85350000Y-134000000D01*
X84600000Y-134000000D02*
X84700000Y-134000000D01*
X84150000Y-134300000D02*
X84600000Y-134000000D01*
X83500000Y-134750000D02*
X84150000Y-134300000D01*
X82900000Y-135000000D02*
X83500000Y-134750000D01*
X82550000Y-135100000D02*
X82900000Y-135000000D01*
X82150000Y-135100000D02*
X82550000Y-135100000D01*
X81550000Y-135100000D02*
X82150000Y-135100000D01*
X81300000Y-135050000D02*
X81550000Y-135100000D01*
X81050000Y-134950000D02*
X81300000Y-135050000D01*
X80800000Y-134800000D02*
X81050000Y-134950000D01*
X80500000Y-134450000D02*
X80800000Y-134800000D01*
X80200000Y-133900000D02*
X80500000Y-134450000D01*
X80000000Y-133500000D02*
X80200000Y-133900000D01*
X79900000Y-133300000D02*
X80000000Y-133500000D01*
X79900000Y-131950000D02*
X79900000Y-133300000D01*
X80000000Y-131400000D02*
X79900000Y-131950000D01*
X80250000Y-131000000D02*
X80000000Y-131400000D01*
X80450000Y-130750000D02*
X80250000Y-131000000D01*
X80800000Y-130500000D02*
X80450000Y-130750000D01*
X81300000Y-130200000D02*
X80800000Y-130500000D01*
X81800000Y-130000000D02*
X81300000Y-130200000D01*
X82100000Y-129950000D02*
X81800000Y-130000000D01*
X82350000Y-129950000D02*
X82100000Y-129950000D01*
X82700000Y-130050000D02*
X82350000Y-129950000D01*
X82950000Y-130150000D02*
X82700000Y-130050000D01*
X83250000Y-130300000D02*
X82950000Y-130150000D01*
X83550000Y-130550000D02*
X83250000Y-130300000D01*
X83700000Y-130700000D02*
X83550000Y-130550000D01*
X84950000Y-130800000D02*
X83700000Y-130700000D01*
X85900000Y-130850000D02*
X84950000Y-130800000D01*
X87700000Y-130800000D02*
X85900000Y-130850000D01*
X88100000Y-130750000D02*
X87700000Y-130800000D01*
X88250000Y-130050000D02*
X88100000Y-130750000D01*
X88600000Y-129250000D02*
X88250000Y-130050000D01*
X89050000Y-128300000D02*
X88600000Y-129250000D01*
X89350000Y-127800000D02*
X89050000Y-128300000D01*
X89900000Y-126900000D02*
X89350000Y-127800000D01*
X90500000Y-126150000D02*
X89900000Y-126900000D01*
X91600000Y-125050000D02*
X90500000Y-126150000D01*
X92750000Y-124050000D02*
X91600000Y-125050000D01*
X93300000Y-123600000D02*
X92750000Y-124050000D01*
X94800000Y-122750000D02*
X93300000Y-123600000D01*
X96400000Y-122000000D02*
X94800000Y-122750000D01*
X97400000Y-121700000D02*
X96400000Y-122000000D01*
X99700000Y-121250000D02*
X97400000Y-121700000D01*
X99550000Y-119450000D02*
X99700000Y-121250000D01*
X99250000Y-119350000D02*
X99550000Y-119450000D01*
X98750000Y-119000000D02*
X99250000Y-119350000D01*
X98500000Y-118650000D02*
X98750000Y-119000000D01*
X98250000Y-118100000D02*
X98500000Y-118650000D01*
X98100000Y-117450000D02*
X98250000Y-118100000D01*
X98100000Y-116750000D02*
X98100000Y-117450000D01*
X98350000Y-116200000D02*
X98100000Y-116750000D01*
X98750000Y-115700000D02*
X98350000Y-116200000D01*
X99250000Y-115350000D02*
X98750000Y-115700000D01*
X100300000Y-115000000D02*
X99250000Y-115350000D01*
X100750000Y-115050000D02*
X100300000Y-115000000D01*
X101600000Y-115250000D02*
X100750000Y-115050000D01*
X102200000Y-115650000D02*
X101600000Y-115250000D01*
X102500000Y-116200000D02*
X102200000Y-115650000D01*
X102650000Y-116700000D02*
X102500000Y-116200000D01*
X102700000Y-117100000D02*
X102650000Y-116700000D01*
X102700000Y-117350000D02*
X102700000Y-117100000D01*
X102600000Y-118050000D02*
X102700000Y-117350000D01*
X102300000Y-118850000D02*
X102600000Y-118050000D01*
X102450000Y-119800000D02*
X102300000Y-118850000D01*
X102750000Y-120950000D02*
X102450000Y-119800000D01*
X103750000Y-121050000D02*
X102750000Y-120950000D01*
X104950000Y-121200000D02*
X103750000Y-121050000D01*
X105800000Y-121400000D02*
X104950000Y-121200000D01*
X107400000Y-121850000D02*
X105800000Y-121400000D01*
X108350000Y-122200000D02*
X107400000Y-121850000D01*
X110200000Y-123050000D02*
X108350000Y-122200000D01*
X111000000Y-123400000D02*
X110200000Y-123050000D01*
X111950000Y-123950000D02*
X111000000Y-123400000D01*
X112700000Y-124400000D02*
X111950000Y-123950000D01*
X113400000Y-124900000D02*
X112700000Y-124400000D01*
X115900000Y-126700000D02*
X113400000Y-124900000D01*
X117250000Y-127800000D02*
X115900000Y-126700000D01*
X118900000Y-127450000D02*
X117250000Y-127800000D01*
X119250000Y-127400000D02*
X118900000Y-127450000D01*
X120200000Y-127400000D02*
X119250000Y-127400000D01*
X120550000Y-127500000D02*
X120200000Y-127400000D01*
X121200000Y-127800000D02*
X120550000Y-127500000D01*
X121750000Y-128250000D02*
X121200000Y-127800000D01*
X122000000Y-128500000D02*
X121750000Y-128250000D01*
X122650000Y-129250000D02*
X122000000Y-128500000D01*
X122900000Y-129700000D02*
X122650000Y-129250000D01*
X123100000Y-130100000D02*
X122900000Y-129700000D01*
X123150000Y-130400000D02*
X123100000Y-130100000D01*
X123150000Y-130900000D02*
X123150000Y-130400000D01*
X123100000Y-131250000D02*
X123150000Y-130900000D01*
X123000000Y-131550000D02*
X123100000Y-131250000D01*
X123500000Y-131800000D02*
X123000000Y-131550000D01*
X124300000Y-132150000D02*
X123500000Y-131800000D01*
X124850000Y-132350000D02*
X124300000Y-132150000D01*
X125450000Y-132550000D02*
X124850000Y-132350000D01*
X125950000Y-132800000D02*
X125450000Y-132550000D01*
X126700000Y-133450000D02*
X125950000Y-132800000D01*
X127750000Y-134400000D02*
X126700000Y-133450000D01*
X128250000Y-135000000D02*
X127750000Y-134400000D01*
X129400000Y-137550000D02*
X128250000Y-135000000D01*
X129450000Y-138000000D02*
X129400000Y-137550000D01*
X129450000Y-139000000D02*
X129450000Y-138000000D01*
X129400000Y-139650000D02*
X129450000Y-139000000D01*
X129250000Y-140450000D02*
X129400000Y-139650000D01*
X128900000Y-141350000D02*
X129250000Y-140450000D01*
X128500000Y-142000000D02*
X128900000Y-141350000D01*
M02*
