M48
;DRILL file {KiCad 4.0.6-e0-6349~52~ubuntu16.10.1} date Sun Jul  9 07:11:11 2017
;FORMAT={-:-/ absolute / inch / decimal}
FMAT,2
INCH,TZ
T1C0.016
T2C0.039
%
G90
G05
M72
T1
X3.6122Y-5.5413
X3.6614Y-5.0866
X3.6614Y-5.1181
X3.6614Y-5.5315
X3.7205Y-5.4724
X3.7402Y-5.5906
X3.75Y-4.9705
X3.7577Y-5.2407
X3.7697Y-5.0295
X3.7992Y-5.0984
X3.8583Y-4.9409
X4.2126Y-5.0197
X4.2421Y-4.9508
X4.3012Y-5.8858
X4.3209Y-5.8366
X4.3384Y-4.9905
X4.3701Y-5.
X4.5079Y-5.5315
X4.5571Y-5.6791
X4.6765Y-5.6841
T2
X3.9469Y-5.7366
X3.9469Y-5.8366
X3.9469Y-5.9366
X3.9469Y-6.0366
X4.0469Y-5.7366
X4.0469Y-5.8366
X4.0469Y-5.9366
X4.0469Y-6.0366
X4.5691Y-5.2507
X4.6333Y-5.1741
X4.6457Y-5.315
X4.7099Y-5.2384
X4.7223Y-5.3792
X4.7866Y-5.3026
X4.7989Y-5.4435
X4.8632Y-5.3669
X4.8755Y-5.5078
X4.9398Y-5.4312
T0
M30
